%TF.GenerationSoftware,KiCad,Pcbnew,(6.0.9)*%
%TF.CreationDate,2022-12-23T10:42:16+01:00*%
%TF.ProjectId,buck,6275636b-2e6b-4696-9361-645f70636258,rev?*%
%TF.SameCoordinates,Original*%
%TF.FileFunction,Legend,Top*%
%TF.FilePolarity,Positive*%
%FSLAX46Y46*%
G04 Gerber Fmt 4.6, Leading zero omitted, Abs format (unit mm)*
G04 Created by KiCad (PCBNEW (6.0.9)) date 2022-12-23 10:42:16*
%MOMM*%
%LPD*%
G01*
G04 APERTURE LIST*
%ADD10C,0.150000*%
%ADD11C,0.120000*%
G04 APERTURE END LIST*
D10*
%TO.C,C1*%
X134977142Y-92622666D02*
X135024761Y-92670285D01*
X135072380Y-92813142D01*
X135072380Y-92908380D01*
X135024761Y-93051238D01*
X134929523Y-93146476D01*
X134834285Y-93194095D01*
X134643809Y-93241714D01*
X134500952Y-93241714D01*
X134310476Y-93194095D01*
X134215238Y-93146476D01*
X134120000Y-93051238D01*
X134072380Y-92908380D01*
X134072380Y-92813142D01*
X134120000Y-92670285D01*
X134167619Y-92622666D01*
X135072380Y-91670285D02*
X135072380Y-92241714D01*
X135072380Y-91956000D02*
X134072380Y-91956000D01*
X134215238Y-92051238D01*
X134310476Y-92146476D01*
X134358095Y-92241714D01*
%TO.C,C2*%
X151741142Y-94781666D02*
X151788761Y-94829285D01*
X151836380Y-94972142D01*
X151836380Y-95067380D01*
X151788761Y-95210238D01*
X151693523Y-95305476D01*
X151598285Y-95353095D01*
X151407809Y-95400714D01*
X151264952Y-95400714D01*
X151074476Y-95353095D01*
X150979238Y-95305476D01*
X150884000Y-95210238D01*
X150836380Y-95067380D01*
X150836380Y-94972142D01*
X150884000Y-94829285D01*
X150931619Y-94781666D01*
X150931619Y-94400714D02*
X150884000Y-94353095D01*
X150836380Y-94257857D01*
X150836380Y-94019761D01*
X150884000Y-93924523D01*
X150931619Y-93876904D01*
X151026857Y-93829285D01*
X151122095Y-93829285D01*
X151264952Y-93876904D01*
X151836380Y-94448333D01*
X151836380Y-93829285D01*
%TO.C,L1*%
X117292380Y-94654666D02*
X117292380Y-95130857D01*
X116292380Y-95130857D01*
X117292380Y-93797523D02*
X117292380Y-94368952D01*
X117292380Y-94083238D02*
X116292380Y-94083238D01*
X116435238Y-94178476D01*
X116530476Y-94273714D01*
X116578095Y-94368952D01*
%TO.C,D1*%
X126007904Y-99257380D02*
X126007904Y-98257380D01*
X126246000Y-98257380D01*
X126388857Y-98305000D01*
X126484095Y-98400238D01*
X126531714Y-98495476D01*
X126579333Y-98685952D01*
X126579333Y-98828809D01*
X126531714Y-99019285D01*
X126484095Y-99114523D01*
X126388857Y-99209761D01*
X126246000Y-99257380D01*
X126007904Y-99257380D01*
X127531714Y-99257380D02*
X126960285Y-99257380D01*
X127246000Y-99257380D02*
X127246000Y-98257380D01*
X127150761Y-98400238D01*
X127055523Y-98495476D01*
X126960285Y-98543095D01*
%TO.C,U1*%
X115427380Y-102261904D02*
X116236904Y-102261904D01*
X116332142Y-102214285D01*
X116379761Y-102166666D01*
X116427380Y-102071428D01*
X116427380Y-101880952D01*
X116379761Y-101785714D01*
X116332142Y-101738095D01*
X116236904Y-101690476D01*
X115427380Y-101690476D01*
X116427380Y-100690476D02*
X116427380Y-101261904D01*
X116427380Y-100976190D02*
X115427380Y-100976190D01*
X115570238Y-101071428D01*
X115665476Y-101166666D01*
X115713095Y-101261904D01*
D11*
%TO.C,C1*%
X133154000Y-101239563D02*
X134218437Y-102304000D01*
X141674000Y-102304000D02*
X141674000Y-99554000D01*
X132414000Y-95034000D02*
X132414000Y-96034000D01*
X134218437Y-93784000D02*
X141674000Y-93784000D01*
X134218437Y-102304000D02*
X141674000Y-102304000D01*
X133154000Y-94848437D02*
X133154000Y-96534000D01*
X141674000Y-93784000D02*
X141674000Y-96534000D01*
X131914000Y-95534000D02*
X132914000Y-95534000D01*
X133154000Y-101239563D02*
X133154000Y-99554000D01*
X133154000Y-94848437D02*
X134218437Y-93784000D01*
%TO.C,C2*%
X141071000Y-83715437D02*
X142135437Y-82651000D01*
X151791000Y-93371000D02*
X151791000Y-89521000D01*
X140206000Y-84626000D02*
X140206000Y-85876000D01*
X141071000Y-92306563D02*
X141071000Y-89521000D01*
X139581000Y-85251000D02*
X140831000Y-85251000D01*
X141071000Y-92306563D02*
X142135437Y-93371000D01*
X141071000Y-83715437D02*
X141071000Y-86501000D01*
X142135437Y-82651000D02*
X151791000Y-82651000D01*
X142135437Y-93371000D02*
X151791000Y-93371000D01*
X151791000Y-82651000D02*
X151791000Y-86501000D01*
%TO.C,L1*%
X117779000Y-85727000D02*
X117779000Y-82727000D01*
X130379000Y-82727000D02*
X130379000Y-85727000D01*
X117779000Y-95327000D02*
X117779000Y-92327000D01*
X117779000Y-82727000D02*
X130379000Y-82727000D01*
X130379000Y-95327000D02*
X117779000Y-95327000D01*
X130379000Y-92327000D02*
X130379000Y-95327000D01*
%TO.C,D1*%
X125746000Y-98115000D02*
X128606000Y-98115000D01*
X128606000Y-96195000D02*
X125746000Y-96195000D01*
X128606000Y-98115000D02*
X128606000Y-96195000D01*
%TO.C,U1*%
X121616000Y-106621000D02*
X121616000Y-96380000D01*
X116975000Y-103350000D02*
X118485000Y-103350000D01*
X116975000Y-96380000D02*
X121616000Y-96380000D01*
X116975000Y-99650000D02*
X118485000Y-99650000D01*
X116975000Y-106621000D02*
X116975000Y-96380000D01*
X118485000Y-106621000D02*
X118485000Y-96380000D01*
X116975000Y-106621000D02*
X121616000Y-106621000D01*
%TD*%
M02*
