G04 #@! TF.GenerationSoftware,KiCad,Pcbnew,(6.0.9)*
G04 #@! TF.CreationDate,2022-12-23T10:47:14+01:00*
G04 #@! TF.ProjectId,buck,6275636b-2e6b-4696-9361-645f70636258,rev?*
G04 #@! TF.SameCoordinates,Original*
G04 #@! TF.FileFunction,Legend,Bot*
G04 #@! TF.FilePolarity,Positive*
%FSLAX46Y46*%
G04 Gerber Fmt 4.6, Leading zero omitted, Abs format (unit mm)*
G04 Created by KiCad (PCBNEW (6.0.9)) date 2022-12-23 10:47:14*
%MOMM*%
%LPD*%
G01*
G04 APERTURE LIST*
G04 Aperture macros list*
%AMRoundRect*
0 Rectangle with rounded corners*
0 $1 Rounding radius*
0 $2 $3 $4 $5 $6 $7 $8 $9 X,Y pos of 4 corners*
0 Add a 4 corners polygon primitive as box body*
4,1,4,$2,$3,$4,$5,$6,$7,$8,$9,$2,$3,0*
0 Add four circle primitives for the rounded corners*
1,1,$1+$1,$2,$3*
1,1,$1+$1,$4,$5*
1,1,$1+$1,$6,$7*
1,1,$1+$1,$8,$9*
0 Add four rect primitives between the rounded corners*
20,1,$1+$1,$2,$3,$4,$5,0*
20,1,$1+$1,$4,$5,$6,$7,0*
20,1,$1+$1,$6,$7,$8,$9,0*
20,1,$1+$1,$8,$9,$2,$3,0*%
G04 Aperture macros list end*
%ADD10C,0.150000*%
%ADD11C,0.120000*%
%ADD12C,5.400000*%
%ADD13R,1.800000X1.275000*%
%ADD14O,1.800000X1.275000*%
%ADD15R,1.200000X2.200000*%
%ADD16R,5.800000X6.400000*%
%ADD17R,1.700000X1.700000*%
%ADD18O,1.700000X1.700000*%
%ADD19RoundRect,0.250000X0.262500X0.450000X-0.262500X0.450000X-0.262500X-0.450000X0.262500X-0.450000X0*%
G04 APERTURE END LIST*
D10*
X135478238Y-93741619D02*
X135573476Y-93694000D01*
X135668714Y-93598761D01*
X135811571Y-93455904D01*
X135906809Y-93408285D01*
X136002047Y-93408285D01*
X135954428Y-93646380D02*
X136049666Y-93598761D01*
X136144904Y-93503523D01*
X136192523Y-93313047D01*
X136192523Y-92979714D01*
X136144904Y-92789238D01*
X136049666Y-92694000D01*
X135954428Y-92646380D01*
X135763952Y-92646380D01*
X135668714Y-92694000D01*
X135573476Y-92789238D01*
X135525857Y-92979714D01*
X135525857Y-93313047D01*
X135573476Y-93503523D01*
X135668714Y-93598761D01*
X135763952Y-93646380D01*
X135954428Y-93646380D01*
X134573476Y-93646380D02*
X135144904Y-93646380D01*
X134859190Y-93646380D02*
X134859190Y-92646380D01*
X134954428Y-92789238D01*
X135049666Y-92884476D01*
X135144904Y-92932095D01*
X132681380Y-105310666D02*
X133395666Y-105310666D01*
X133538523Y-105263047D01*
X133633761Y-105167809D01*
X133681380Y-105024952D01*
X133681380Y-104929714D01*
X133681380Y-106310666D02*
X133681380Y-105739238D01*
X133681380Y-106024952D02*
X132681380Y-106024952D01*
X132824238Y-105929714D01*
X132919476Y-105834476D01*
X132967095Y-105739238D01*
X146916333Y-101007380D02*
X146916333Y-101721666D01*
X146963952Y-101864523D01*
X147059190Y-101959761D01*
X147202047Y-102007380D01*
X147297285Y-102007380D01*
X146535380Y-101007380D02*
X145916333Y-101007380D01*
X146249666Y-101388333D01*
X146106809Y-101388333D01*
X146011571Y-101435952D01*
X145963952Y-101483571D01*
X145916333Y-101578809D01*
X145916333Y-101816904D01*
X145963952Y-101912142D01*
X146011571Y-101959761D01*
X146106809Y-102007380D01*
X146392523Y-102007380D01*
X146487761Y-101959761D01*
X146535380Y-101912142D01*
X136588166Y-105863380D02*
X136921500Y-105387190D01*
X137159595Y-105863380D02*
X137159595Y-104863380D01*
X136778642Y-104863380D01*
X136683404Y-104911000D01*
X136635785Y-104958619D01*
X136588166Y-105053857D01*
X136588166Y-105196714D01*
X136635785Y-105291952D01*
X136683404Y-105339571D01*
X136778642Y-105387190D01*
X137159595Y-105387190D01*
X135635785Y-105863380D02*
X136207214Y-105863380D01*
X135921500Y-105863380D02*
X135921500Y-104863380D01*
X136016738Y-105006238D01*
X136111976Y-105101476D01*
X136207214Y-105149095D01*
X128889380Y-87234666D02*
X129603666Y-87234666D01*
X129746523Y-87187047D01*
X129841761Y-87091809D01*
X129889380Y-86948952D01*
X129889380Y-86853714D01*
X128984619Y-87663238D02*
X128937000Y-87710857D01*
X128889380Y-87806095D01*
X128889380Y-88044190D01*
X128937000Y-88139428D01*
X128984619Y-88187047D01*
X129079857Y-88234666D01*
X129175095Y-88234666D01*
X129317952Y-88187047D01*
X129889380Y-87615619D01*
X129889380Y-88234666D01*
D11*
X134092000Y-100328000D02*
X134092000Y-101828000D01*
X134092000Y-101828000D02*
X134362000Y-101828000D01*
X140992000Y-100328000D02*
X140992000Y-101828000D01*
X140722000Y-101828000D02*
X140722000Y-104658000D01*
X134362000Y-101828000D02*
X134362000Y-102928000D01*
X140992000Y-101828000D02*
X140722000Y-101828000D01*
X128279000Y-102724000D02*
X128279000Y-102314000D01*
X130251860Y-111354000D02*
X130251860Y-102724000D01*
X131078525Y-111354000D02*
X131078525Y-102724000D01*
X129425195Y-111354000D02*
X129425195Y-102724000D01*
X129661385Y-111354000D02*
X129661385Y-102724000D01*
X126589000Y-111354000D02*
X126589000Y-102724000D01*
X129189000Y-111354000D02*
X129189000Y-102724000D01*
X130842335Y-111354000D02*
X130842335Y-102724000D01*
X131432810Y-111354000D02*
X131432810Y-102724000D01*
X130960430Y-111354000D02*
X130960430Y-102724000D01*
X130099000Y-102724000D02*
X130099000Y-102374000D01*
X131789000Y-100154000D02*
X130459000Y-100154000D01*
X127559000Y-102724000D02*
X127559000Y-102314000D01*
X131196620Y-111354000D02*
X131196620Y-102724000D01*
X129543290Y-111354000D02*
X129543290Y-102724000D01*
X130819000Y-102724000D02*
X130819000Y-102374000D01*
X131789000Y-101264000D02*
X131789000Y-100154000D01*
X131669000Y-111354000D02*
X131669000Y-102724000D01*
X131789000Y-111354000D02*
X131789000Y-102724000D01*
X130015670Y-111354000D02*
X130015670Y-102724000D01*
X130133765Y-111354000D02*
X130133765Y-102724000D01*
X131314715Y-111354000D02*
X131314715Y-102724000D01*
X131550905Y-111354000D02*
X131550905Y-102724000D01*
X130724240Y-111354000D02*
X130724240Y-102724000D01*
X130488050Y-111354000D02*
X130488050Y-102724000D01*
X129779480Y-111354000D02*
X129779480Y-102724000D01*
X130606145Y-111354000D02*
X130606145Y-102724000D01*
X131789000Y-111354000D02*
X126589000Y-111354000D01*
X131789000Y-102724000D02*
X126589000Y-102724000D01*
X129897575Y-111354000D02*
X129897575Y-102724000D01*
X129307100Y-111354000D02*
X129307100Y-102724000D01*
X130369955Y-111354000D02*
X130369955Y-102724000D01*
X144431360Y-111309000D02*
X144431360Y-102679000D01*
X145355000Y-111309000D02*
X145355000Y-102679000D01*
X143738630Y-111309000D02*
X143738630Y-102679000D01*
X144546815Y-111309000D02*
X144546815Y-102679000D01*
X142930445Y-111309000D02*
X142930445Y-102679000D01*
X143392265Y-111309000D02*
X143392265Y-102679000D01*
X143785000Y-102679000D02*
X143785000Y-102329000D01*
X142815000Y-111309000D02*
X142815000Y-102679000D01*
X145475000Y-111309000D02*
X145475000Y-102679000D01*
X144084995Y-111309000D02*
X144084995Y-102679000D01*
X144505000Y-102679000D02*
X144505000Y-102329000D01*
X144662270Y-111309000D02*
X144662270Y-102679000D01*
X144777725Y-111309000D02*
X144777725Y-102679000D01*
X143623175Y-111309000D02*
X143623175Y-102679000D01*
X143854085Y-111309000D02*
X143854085Y-102679000D01*
X144893180Y-111309000D02*
X144893180Y-102679000D01*
X145475000Y-100109000D02*
X144145000Y-100109000D01*
X143507720Y-111309000D02*
X143507720Y-102679000D01*
X145475000Y-111309000D02*
X142815000Y-111309000D01*
X143045900Y-111309000D02*
X143045900Y-102679000D01*
X144315905Y-111309000D02*
X144315905Y-102679000D01*
X145008635Y-111309000D02*
X145008635Y-102679000D01*
X145239545Y-111309000D02*
X145239545Y-102679000D01*
X143276810Y-111309000D02*
X143276810Y-102679000D01*
X143161355Y-111309000D02*
X143161355Y-102679000D01*
X143969540Y-111309000D02*
X143969540Y-102679000D01*
X145124090Y-111309000D02*
X145124090Y-102679000D01*
X145475000Y-102679000D02*
X142815000Y-102679000D01*
X145475000Y-101219000D02*
X145475000Y-100109000D01*
X144200450Y-111309000D02*
X144200450Y-102679000D01*
X136648564Y-107796000D02*
X136194436Y-107796000D01*
X136648564Y-106326000D02*
X136194436Y-106326000D01*
X130877000Y-81858000D02*
X130877000Y-90488000D01*
X133477000Y-81858000D02*
X133477000Y-90488000D01*
X133122710Y-81858000D02*
X133122710Y-90488000D01*
X131823665Y-81858000D02*
X131823665Y-90488000D01*
X134387000Y-90488000D02*
X134387000Y-90898000D01*
X133004615Y-81858000D02*
X133004615Y-90488000D01*
X133240805Y-81858000D02*
X133240805Y-90488000D01*
X131587475Y-81858000D02*
X131587475Y-90488000D01*
X131469380Y-81858000D02*
X131469380Y-90488000D01*
X130877000Y-90488000D02*
X136077000Y-90488000D01*
X132650330Y-81858000D02*
X132650330Y-90488000D01*
X135107000Y-90488000D02*
X135107000Y-90898000D01*
X132768425Y-81858000D02*
X132768425Y-90488000D01*
X131351285Y-81858000D02*
X131351285Y-90488000D01*
X132567000Y-90488000D02*
X132567000Y-90838000D01*
X130877000Y-93058000D02*
X132207000Y-93058000D01*
X132414140Y-81858000D02*
X132414140Y-90488000D01*
X130877000Y-91948000D02*
X130877000Y-93058000D01*
X131115095Y-81858000D02*
X131115095Y-90488000D01*
X132059855Y-81858000D02*
X132059855Y-90488000D01*
X132296045Y-81858000D02*
X132296045Y-90488000D01*
X131705570Y-81858000D02*
X131705570Y-90488000D01*
X130877000Y-81858000D02*
X136077000Y-81858000D01*
X131941760Y-81858000D02*
X131941760Y-90488000D01*
X132886520Y-81858000D02*
X132886520Y-90488000D01*
X130997000Y-81858000D02*
X130997000Y-90488000D01*
X131847000Y-90488000D02*
X131847000Y-90838000D01*
X133358900Y-81858000D02*
X133358900Y-90488000D01*
X132177950Y-81858000D02*
X132177950Y-90488000D01*
X132532235Y-81858000D02*
X132532235Y-90488000D01*
X136077000Y-81858000D02*
X136077000Y-90488000D01*
X131233190Y-81858000D02*
X131233190Y-90488000D01*
%LPC*%
D12*
X113538000Y-85979000D03*
X149225000Y-105029000D03*
D13*
X120245000Y-104900000D03*
D14*
X120245000Y-103200000D03*
X120245000Y-101500000D03*
X120245000Y-99800000D03*
X120245000Y-98100000D03*
D15*
X139822000Y-103558000D03*
D16*
X137542000Y-97258000D03*
D15*
X135262000Y-103558000D03*
D17*
X130459000Y-101264000D03*
D18*
X127919000Y-101264000D03*
D17*
X144145000Y-101219000D03*
D19*
X137334000Y-107061000D03*
X135509000Y-107061000D03*
D17*
X132207000Y-91948000D03*
D18*
X134747000Y-91948000D03*
M02*
