%TF.GenerationSoftware,KiCad,Pcbnew,(6.0.9)*%
%TF.CreationDate,2023-01-18T17:10:18+01:00*%
%TF.ProjectId,buck,6275636b-2e6b-4696-9361-645f70636258,rev?*%
%TF.SameCoordinates,Original*%
%TF.FileFunction,Drillmap*%
%TF.FilePolarity,Positive*%
%FSLAX45Y45*%
G04 Gerber Fmt 4.5, Leading zero omitted, Abs format (unit mm)*
G04 Created by KiCad (PCBNEW (6.0.9)) date 2023-01-18 17:10:18*
%MOMM*%
%LPD*%
G01*
G04 APERTURE LIST*
%ADD10C,0.100000*%
%ADD11C,0.200000*%
G04 APERTURE END LIST*
D10*
X10871200Y-8166100D02*
X15319000Y-8166100D01*
X15319000Y-8166100D02*
X15319000Y-11170900D01*
X15319000Y-11170900D02*
X10871200Y-11170900D01*
X10871200Y-11170900D02*
X10871200Y-8166100D01*
D11*
X11123819Y-11486376D02*
X11123819Y-11286376D01*
X11171438Y-11286376D01*
X11200009Y-11295900D01*
X11219057Y-11314948D01*
X11228581Y-11333995D01*
X11238105Y-11372090D01*
X11238105Y-11400662D01*
X11228581Y-11438757D01*
X11219057Y-11457805D01*
X11200009Y-11476852D01*
X11171438Y-11486376D01*
X11123819Y-11486376D01*
X11323819Y-11486376D02*
X11323819Y-11353043D01*
X11323819Y-11391138D02*
X11333343Y-11372090D01*
X11342867Y-11362567D01*
X11361914Y-11353043D01*
X11380962Y-11353043D01*
X11447628Y-11486376D02*
X11447628Y-11353043D01*
X11447628Y-11286376D02*
X11438105Y-11295900D01*
X11447628Y-11305424D01*
X11457152Y-11295900D01*
X11447628Y-11286376D01*
X11447628Y-11305424D01*
X11571438Y-11486376D02*
X11552390Y-11476852D01*
X11542867Y-11457805D01*
X11542867Y-11286376D01*
X11676200Y-11486376D02*
X11657152Y-11476852D01*
X11647628Y-11457805D01*
X11647628Y-11286376D01*
X11904771Y-11486376D02*
X11904771Y-11286376D01*
X11971438Y-11429233D01*
X12038105Y-11286376D01*
X12038105Y-11486376D01*
X12219057Y-11486376D02*
X12219057Y-11381614D01*
X12209533Y-11362567D01*
X12190486Y-11353043D01*
X12152390Y-11353043D01*
X12133343Y-11362567D01*
X12219057Y-11476852D02*
X12200009Y-11486376D01*
X12152390Y-11486376D01*
X12133343Y-11476852D01*
X12123819Y-11457805D01*
X12123819Y-11438757D01*
X12133343Y-11419709D01*
X12152390Y-11410186D01*
X12200009Y-11410186D01*
X12219057Y-11400662D01*
X12314295Y-11353043D02*
X12314295Y-11553043D01*
X12314295Y-11362567D02*
X12333343Y-11353043D01*
X12371438Y-11353043D01*
X12390486Y-11362567D01*
X12400009Y-11372090D01*
X12409533Y-11391138D01*
X12409533Y-11448281D01*
X12400009Y-11467328D01*
X12390486Y-11476852D01*
X12371438Y-11486376D01*
X12333343Y-11486376D01*
X12314295Y-11476852D01*
X12495248Y-11467328D02*
X12504771Y-11476852D01*
X12495248Y-11486376D01*
X12485724Y-11476852D01*
X12495248Y-11467328D01*
X12495248Y-11486376D01*
X12495248Y-11362567D02*
X12504771Y-11372090D01*
X12495248Y-11381614D01*
X12485724Y-11372090D01*
X12495248Y-11362567D01*
X12495248Y-11381614D01*
M02*
