G04 #@! TF.GenerationSoftware,KiCad,Pcbnew,(6.0.9)*
G04 #@! TF.CreationDate,2023-01-18T17:10:32+01:00*
G04 #@! TF.ProjectId,buck,6275636b-2e6b-4696-9361-645f70636258,rev?*
G04 #@! TF.SameCoordinates,Original*
G04 #@! TF.FileFunction,Legend,Top*
G04 #@! TF.FilePolarity,Positive*
%FSLAX46Y46*%
G04 Gerber Fmt 4.6, Leading zero omitted, Abs format (unit mm)*
G04 Created by KiCad (PCBNEW (6.0.9)) date 2023-01-18 17:10:32*
%MOMM*%
%LPD*%
G01*
G04 APERTURE LIST*
G04 Aperture macros list*
%AMRoundRect*
0 Rectangle with rounded corners*
0 $1 Rounding radius*
0 $2 $3 $4 $5 $6 $7 $8 $9 X,Y pos of 4 corners*
0 Add a 4 corners polygon primitive as box body*
4,1,4,$2,$3,$4,$5,$6,$7,$8,$9,$2,$3,0*
0 Add four circle primitives for the rounded corners*
1,1,$1+$1,$2,$3*
1,1,$1+$1,$4,$5*
1,1,$1+$1,$6,$7*
1,1,$1+$1,$8,$9*
0 Add four rect primitives between the rounded corners*
20,1,$1+$1,$2,$3,$4,$5,0*
20,1,$1+$1,$4,$5,$6,$7,0*
20,1,$1+$1,$6,$7,$8,$9,0*
20,1,$1+$1,$8,$9,$2,$3,0*%
G04 Aperture macros list end*
%ADD10C,0.150000*%
%ADD11C,0.120000*%
%ADD12RoundRect,0.250000X-1.500000X-1.000000X1.500000X-1.000000X1.500000X1.000000X-1.500000X1.000000X0*%
%ADD13RoundRect,0.250000X-1.950000X-1.000000X1.950000X-1.000000X1.950000X1.000000X-1.950000X1.000000X0*%
%ADD14R,2.900000X5.400000*%
%ADD15C,5.400000*%
%ADD16RoundRect,0.250000X-0.325000X-0.450000X0.325000X-0.450000X0.325000X0.450000X-0.325000X0.450000X0*%
%ADD17R,1.800000X1.275000*%
%ADD18O,1.800000X1.275000*%
%ADD19R,1.700000X1.300000*%
%ADD20R,1.700000X1.700000*%
%ADD21O,1.700000X1.700000*%
G04 APERTURE END LIST*
D10*
X142708333Y-95734142D02*
X142660714Y-95781761D01*
X142517857Y-95829380D01*
X142422619Y-95829380D01*
X142279761Y-95781761D01*
X142184523Y-95686523D01*
X142136904Y-95591285D01*
X142089285Y-95400809D01*
X142089285Y-95257952D01*
X142136904Y-95067476D01*
X142184523Y-94972238D01*
X142279761Y-94877000D01*
X142422619Y-94829380D01*
X142517857Y-94829380D01*
X142660714Y-94877000D01*
X142708333Y-94924619D01*
X143660714Y-95829380D02*
X143089285Y-95829380D01*
X143375000Y-95829380D02*
X143375000Y-94829380D01*
X143279761Y-94972238D01*
X143184523Y-95067476D01*
X143089285Y-95115095D01*
X140041333Y-83415142D02*
X139993714Y-83462761D01*
X139850857Y-83510380D01*
X139755619Y-83510380D01*
X139612761Y-83462761D01*
X139517523Y-83367523D01*
X139469904Y-83272285D01*
X139422285Y-83081809D01*
X139422285Y-82938952D01*
X139469904Y-82748476D01*
X139517523Y-82653238D01*
X139612761Y-82558000D01*
X139755619Y-82510380D01*
X139850857Y-82510380D01*
X139993714Y-82558000D01*
X140041333Y-82605619D01*
X140422285Y-82605619D02*
X140469904Y-82558000D01*
X140565142Y-82510380D01*
X140803238Y-82510380D01*
X140898476Y-82558000D01*
X140946095Y-82605619D01*
X140993714Y-82700857D01*
X140993714Y-82796095D01*
X140946095Y-82938952D01*
X140374666Y-83510380D01*
X140993714Y-83510380D01*
X116673333Y-94178380D02*
X116197142Y-94178380D01*
X116197142Y-93178380D01*
X117530476Y-94178380D02*
X116959047Y-94178380D01*
X117244761Y-94178380D02*
X117244761Y-93178380D01*
X117149523Y-93321238D01*
X117054285Y-93416476D01*
X116959047Y-93464095D01*
X111148904Y-97861380D02*
X111148904Y-96861380D01*
X111387000Y-96861380D01*
X111529857Y-96909000D01*
X111625095Y-97004238D01*
X111672714Y-97099476D01*
X111720333Y-97289952D01*
X111720333Y-97432809D01*
X111672714Y-97623285D01*
X111625095Y-97718523D01*
X111529857Y-97813761D01*
X111387000Y-97861380D01*
X111148904Y-97861380D01*
X112672714Y-97861380D02*
X112101285Y-97861380D01*
X112387000Y-97861380D02*
X112387000Y-96861380D01*
X112291761Y-97004238D01*
X112196523Y-97099476D01*
X112101285Y-97147095D01*
X115316095Y-96480380D02*
X115316095Y-97289904D01*
X115363714Y-97385142D01*
X115411333Y-97432761D01*
X115506571Y-97480380D01*
X115697047Y-97480380D01*
X115792285Y-97432761D01*
X115839904Y-97385142D01*
X115887523Y-97289904D01*
X115887523Y-96480380D01*
X116887523Y-97480380D02*
X116316095Y-97480380D01*
X116601809Y-97480380D02*
X116601809Y-96480380D01*
X116506571Y-96623238D01*
X116411333Y-96718476D01*
X116316095Y-96766095D01*
X137199380Y-87860095D02*
X136199380Y-87860095D01*
X136199380Y-87622000D01*
X136247000Y-87479142D01*
X136342238Y-87383904D01*
X136437476Y-87336285D01*
X136627952Y-87288666D01*
X136770809Y-87288666D01*
X136961285Y-87336285D01*
X137056523Y-87383904D01*
X137151761Y-87479142D01*
X137199380Y-87622000D01*
X137199380Y-87860095D01*
X136199380Y-86955333D02*
X136199380Y-86336285D01*
X136580333Y-86669619D01*
X136580333Y-86526761D01*
X136627952Y-86431523D01*
X136675571Y-86383904D01*
X136770809Y-86336285D01*
X137008904Y-86336285D01*
X137104142Y-86383904D01*
X137151761Y-86431523D01*
X137199380Y-86526761D01*
X137199380Y-86812476D01*
X137151761Y-86907714D01*
X137104142Y-86955333D01*
D11*
X133154000Y-101239563D02*
X134218437Y-102304000D01*
X141674000Y-102304000D02*
X141674000Y-99554000D01*
X132414000Y-95034000D02*
X132414000Y-96034000D01*
X134218437Y-93784000D02*
X141674000Y-93784000D01*
X134218437Y-102304000D02*
X141674000Y-102304000D01*
X133154000Y-94848437D02*
X133154000Y-96534000D01*
X141674000Y-93784000D02*
X141674000Y-96534000D01*
X131914000Y-95534000D02*
X132914000Y-95534000D01*
X133154000Y-101239563D02*
X133154000Y-99554000D01*
X133154000Y-94848437D02*
X134218437Y-93784000D01*
X141071000Y-83715437D02*
X142135437Y-82651000D01*
X151791000Y-93371000D02*
X151791000Y-89521000D01*
X140206000Y-84626000D02*
X140206000Y-85876000D01*
X141071000Y-92306563D02*
X141071000Y-89521000D01*
X139581000Y-85251000D02*
X140831000Y-85251000D01*
X141071000Y-92306563D02*
X142135437Y-93371000D01*
X141071000Y-83715437D02*
X141071000Y-86501000D01*
X142135437Y-82651000D02*
X151791000Y-82651000D01*
X142135437Y-93371000D02*
X151791000Y-93371000D01*
X151791000Y-82651000D02*
X151791000Y-86501000D01*
X117779000Y-85727000D02*
X117779000Y-82727000D01*
X130379000Y-82727000D02*
X130379000Y-85727000D01*
X117779000Y-95327000D02*
X117779000Y-92327000D01*
X117779000Y-82727000D02*
X130379000Y-82727000D01*
X130379000Y-95327000D02*
X117779000Y-95327000D01*
X130379000Y-92327000D02*
X130379000Y-95327000D01*
X114157000Y-98227000D02*
X111297000Y-98227000D01*
X111297000Y-100147000D02*
X114157000Y-100147000D01*
X111297000Y-98227000D02*
X111297000Y-100147000D01*
X121616000Y-106621000D02*
X121616000Y-96380000D01*
X116975000Y-103350000D02*
X118485000Y-103350000D01*
X116975000Y-96380000D02*
X121616000Y-96380000D01*
X116975000Y-99650000D02*
X118485000Y-99650000D01*
X116975000Y-106621000D02*
X116975000Y-96380000D01*
X118485000Y-106621000D02*
X118485000Y-96380000D01*
X116975000Y-106621000D02*
X121616000Y-106621000D01*
X135747000Y-88872000D02*
X135747000Y-84572000D01*
X135747000Y-84572000D02*
X133747000Y-84572000D01*
X133747000Y-84572000D02*
X133747000Y-88872000D01*
%LPC*%
D12*
X134164000Y-98044000D03*
X140664000Y-98044000D03*
D13*
X142231000Y-88011000D03*
X150631000Y-88011000D03*
D14*
X119129000Y-89027000D03*
X129029000Y-89027000D03*
D15*
X113538000Y-85979000D03*
X149225000Y-105029000D03*
D16*
X112132000Y-99187000D03*
X114182000Y-99187000D03*
D17*
X120245000Y-104900000D03*
D18*
X120245000Y-103200000D03*
X120245000Y-101500000D03*
X120245000Y-99800000D03*
X120245000Y-98100000D03*
D19*
X134747000Y-85372000D03*
X134747000Y-88872000D03*
D20*
X130459000Y-101264000D03*
D21*
X127919000Y-101264000D03*
D20*
X144145000Y-101219000D03*
X132207000Y-91948000D03*
D21*
X134747000Y-91948000D03*
X137287000Y-91948000D03*
M02*
