G04 #@! TF.GenerationSoftware,KiCad,Pcbnew,(6.0.9)*
G04 #@! TF.CreationDate,2022-12-23T15:26:11+01:00*
G04 #@! TF.ProjectId,mainboard,6d61696e-626f-4617-9264-2e6b69636164,rev?*
G04 #@! TF.SameCoordinates,Original*
G04 #@! TF.FileFunction,Copper,L1,Top*
G04 #@! TF.FilePolarity,Positive*
%FSLAX46Y46*%
G04 Gerber Fmt 4.6, Leading zero omitted, Abs format (unit mm)*
G04 Created by KiCad (PCBNEW (6.0.9)) date 2022-12-23 15:26:11*
%MOMM*%
%LPD*%
G01*
G04 APERTURE LIST*
G04 Aperture macros list*
%AMRoundRect*
0 Rectangle with rounded corners*
0 $1 Rounding radius*
0 $2 $3 $4 $5 $6 $7 $8 $9 X,Y pos of 4 corners*
0 Add a 4 corners polygon primitive as box body*
4,1,4,$2,$3,$4,$5,$6,$7,$8,$9,$2,$3,0*
0 Add four circle primitives for the rounded corners*
1,1,$1+$1,$2,$3*
1,1,$1+$1,$4,$5*
1,1,$1+$1,$6,$7*
1,1,$1+$1,$8,$9*
0 Add four rect primitives between the rounded corners*
20,1,$1+$1,$2,$3,$4,$5,0*
20,1,$1+$1,$4,$5,$6,$7,0*
20,1,$1+$1,$6,$7,$8,$9,0*
20,1,$1+$1,$8,$9,$2,$3,0*%
G04 Aperture macros list end*
G04 #@! TA.AperFunction,ComponentPad*
%ADD10C,2.000000*%
G04 #@! TD*
G04 #@! TA.AperFunction,SMDPad,CuDef*
%ADD11RoundRect,0.250000X0.262500X0.450000X-0.262500X0.450000X-0.262500X-0.450000X0.262500X-0.450000X0*%
G04 #@! TD*
G04 #@! TA.AperFunction,SMDPad,CuDef*
%ADD12RoundRect,0.250000X-0.262500X-0.450000X0.262500X-0.450000X0.262500X0.450000X-0.262500X0.450000X0*%
G04 #@! TD*
G04 #@! TA.AperFunction,SMDPad,CuDef*
%ADD13RoundRect,0.250000X-0.450000X0.262500X-0.450000X-0.262500X0.450000X-0.262500X0.450000X0.262500X0*%
G04 #@! TD*
G04 #@! TA.AperFunction,SMDPad,CuDef*
%ADD14RoundRect,0.243750X-0.456250X0.243750X-0.456250X-0.243750X0.456250X-0.243750X0.456250X0.243750X0*%
G04 #@! TD*
G04 #@! TA.AperFunction,SMDPad,CuDef*
%ADD15RoundRect,0.250000X0.475000X-0.250000X0.475000X0.250000X-0.475000X0.250000X-0.475000X-0.250000X0*%
G04 #@! TD*
G04 #@! TA.AperFunction,SMDPad,CuDef*
%ADD16RoundRect,0.250000X-0.475000X0.250000X-0.475000X-0.250000X0.475000X-0.250000X0.475000X0.250000X0*%
G04 #@! TD*
G04 #@! TA.AperFunction,SMDPad,CuDef*
%ADD17RoundRect,0.250000X0.450000X-0.262500X0.450000X0.262500X-0.450000X0.262500X-0.450000X-0.262500X0*%
G04 #@! TD*
G04 #@! TA.AperFunction,ComponentPad*
%ADD18C,5.400000*%
G04 #@! TD*
G04 #@! TA.AperFunction,SMDPad,CuDef*
%ADD19RoundRect,0.225000X-0.250000X0.225000X-0.250000X-0.225000X0.250000X-0.225000X0.250000X0.225000X0*%
G04 #@! TD*
G04 #@! TA.AperFunction,ComponentPad*
%ADD20R,1.700000X1.700000*%
G04 #@! TD*
G04 #@! TA.AperFunction,ComponentPad*
%ADD21O,1.700000X1.700000*%
G04 #@! TD*
G04 #@! TA.AperFunction,SMDPad,CuDef*
%ADD22RoundRect,0.250000X-0.550000X1.250000X-0.550000X-1.250000X0.550000X-1.250000X0.550000X1.250000X0*%
G04 #@! TD*
G04 #@! TA.AperFunction,SMDPad,CuDef*
%ADD23R,3.500000X1.200000*%
G04 #@! TD*
G04 #@! TA.AperFunction,SMDPad,CuDef*
%ADD24R,1.300000X1.300000*%
G04 #@! TD*
G04 #@! TA.AperFunction,SMDPad,CuDef*
%ADD25R,1.300000X2.000000*%
G04 #@! TD*
G04 #@! TA.AperFunction,SMDPad,CuDef*
%ADD26RoundRect,0.250000X-1.250000X-0.550000X1.250000X-0.550000X1.250000X0.550000X-1.250000X0.550000X0*%
G04 #@! TD*
G04 #@! TA.AperFunction,SMDPad,CuDef*
%ADD27RoundRect,0.225000X0.250000X-0.225000X0.250000X0.225000X-0.250000X0.225000X-0.250000X-0.225000X0*%
G04 #@! TD*
G04 #@! TA.AperFunction,SMDPad,CuDef*
%ADD28R,0.550000X1.600000*%
G04 #@! TD*
G04 #@! TA.AperFunction,SMDPad,CuDef*
%ADD29R,1.600000X0.550000*%
G04 #@! TD*
G04 #@! TA.AperFunction,ViaPad*
%ADD30C,0.800000*%
G04 #@! TD*
G04 #@! TA.AperFunction,ViaPad*
%ADD31C,1.500000*%
G04 #@! TD*
G04 #@! TA.AperFunction,Conductor*
%ADD32C,0.300000*%
G04 #@! TD*
G04 #@! TA.AperFunction,Conductor*
%ADD33C,0.500000*%
G04 #@! TD*
G04 #@! TA.AperFunction,Conductor*
%ADD34C,0.250000*%
G04 #@! TD*
G04 APERTURE END LIST*
D10*
X144943000Y-40692000D03*
X144943000Y-47192000D03*
X149443000Y-40692000D03*
X149443000Y-47192000D03*
D11*
X115593500Y-58801000D03*
X113768500Y-58801000D03*
D12*
X113618000Y-55626000D03*
X115443000Y-55626000D03*
X113618000Y-52197000D03*
X115443000Y-52197000D03*
X113618000Y-48895000D03*
X115443000Y-48895000D03*
D13*
X114681000Y-39854500D03*
X114681000Y-41679500D03*
X119507000Y-47220500D03*
X119507000Y-49045500D03*
X143256000Y-52220500D03*
X143256000Y-50395500D03*
D14*
X139700000Y-53769500D03*
X139700000Y-51894500D03*
D15*
X135763000Y-53787000D03*
X135763000Y-55687000D03*
D16*
X127254000Y-36388000D03*
X127254000Y-38288000D03*
D11*
X129182500Y-59563000D03*
X127357500Y-59563000D03*
D17*
X121666000Y-60602500D03*
X121666000Y-58777500D03*
D18*
X118110000Y-28448000D03*
D19*
X129794000Y-44437000D03*
X129794000Y-45987000D03*
D11*
X135278500Y-46482000D03*
X133453500Y-46482000D03*
X134596500Y-51054000D03*
X136421500Y-51054000D03*
D16*
X125222000Y-58867000D03*
X125222000Y-60767000D03*
D20*
X114447000Y-64745000D03*
D21*
X116987000Y-64745000D03*
D11*
X115466500Y-61976000D03*
X113641500Y-61976000D03*
D22*
X141605000Y-61046000D03*
X141605000Y-65446000D03*
D23*
X121964000Y-41402000D03*
X127464000Y-41402000D03*
D17*
X131826000Y-58523500D03*
X131826000Y-60348500D03*
D24*
X127337000Y-31743000D03*
D25*
X121837000Y-32893000D03*
D24*
X127337000Y-34043000D03*
D20*
X151623000Y-34245000D03*
D21*
X149083000Y-34245000D03*
X146543000Y-34245000D03*
D16*
X122936000Y-36388000D03*
X122936000Y-38288000D03*
D26*
X147533000Y-53340000D03*
X151933000Y-53340000D03*
D18*
X149987000Y-62230000D03*
D20*
X110617000Y-26416000D03*
D21*
X110617000Y-28956000D03*
X110617000Y-31496000D03*
X110617000Y-34036000D03*
X110617000Y-36576000D03*
X110617000Y-39116000D03*
X110617000Y-41656000D03*
X110617000Y-44196000D03*
X110617000Y-46736000D03*
X110617000Y-49276000D03*
X110617000Y-51816000D03*
X110617000Y-54356000D03*
X110617000Y-56896000D03*
X110617000Y-59436000D03*
X110617000Y-61976000D03*
X110617000Y-64516000D03*
D27*
X126492000Y-45987000D03*
X126492000Y-44437000D03*
D28*
X130054000Y-47947000D03*
X129254000Y-47947000D03*
X128454000Y-47947000D03*
X127654000Y-47947000D03*
X126854000Y-47947000D03*
X126054000Y-47947000D03*
X125254000Y-47947000D03*
X124454000Y-47947000D03*
D29*
X123004000Y-49397000D03*
X123004000Y-50197000D03*
X123004000Y-50997000D03*
X123004000Y-51797000D03*
X123004000Y-52597000D03*
X123004000Y-53397000D03*
X123004000Y-54197000D03*
X123004000Y-54997000D03*
D28*
X124454000Y-56447000D03*
X125254000Y-56447000D03*
X126054000Y-56447000D03*
X126854000Y-56447000D03*
X127654000Y-56447000D03*
X128454000Y-56447000D03*
X129254000Y-56447000D03*
X130054000Y-56447000D03*
D29*
X131504000Y-54997000D03*
X131504000Y-54197000D03*
X131504000Y-53397000D03*
X131504000Y-52597000D03*
X131504000Y-51797000D03*
X131504000Y-50997000D03*
X131504000Y-50197000D03*
X131504000Y-49397000D03*
D20*
X141463000Y-34499000D03*
D21*
X138923000Y-34499000D03*
X136383000Y-34499000D03*
D30*
X137541000Y-52578000D03*
X126619000Y-61087000D03*
D31*
X144653000Y-54229000D03*
D30*
X127889000Y-44196000D03*
X131826000Y-45339000D03*
D31*
X135001000Y-43307000D03*
X131953000Y-43307000D03*
X134366000Y-48641000D03*
D30*
X138049000Y-43688000D03*
X140081000Y-58293000D03*
X119253000Y-59436000D03*
X114681000Y-53848000D03*
X117348000Y-56515000D03*
X117602000Y-52578000D03*
X113665000Y-44196000D03*
D32*
X119507000Y-49784000D02*
X119507000Y-49045500D01*
X121520000Y-51797000D02*
X119507000Y-49784000D01*
X123004000Y-51797000D02*
X121520000Y-51797000D01*
D33*
X121129500Y-60602500D02*
X121666000Y-60602500D01*
X116987000Y-64745000D02*
X121129500Y-60602500D01*
X115466500Y-63224500D02*
X116987000Y-64745000D01*
X115466500Y-61976000D02*
X115466500Y-63224500D01*
D32*
X110617000Y-61976000D02*
X113641500Y-61976000D01*
X144145000Y-54229000D02*
X144653000Y-54229000D01*
X143764000Y-53848000D02*
X144145000Y-54229000D01*
X143256000Y-52220500D02*
X143256000Y-53340000D01*
X143256000Y-53340000D02*
X143764000Y-53848000D01*
D33*
X130823000Y-44437000D02*
X129794000Y-44437000D01*
X131953000Y-43307000D02*
X130823000Y-44437000D01*
X135278500Y-43584500D02*
X135001000Y-43307000D01*
X135278500Y-46482000D02*
X135278500Y-43584500D01*
X135278500Y-46482000D02*
X136421500Y-47625000D01*
X136421500Y-47625000D02*
X136421500Y-51054000D01*
D32*
X134366000Y-50823500D02*
X134596500Y-51054000D01*
X134366000Y-48641000D02*
X134366000Y-50823500D01*
D33*
X136421500Y-51054000D02*
X138859500Y-51054000D01*
X138859500Y-51054000D02*
X139700000Y-51894500D01*
X141199000Y-50395500D02*
X139700000Y-51894500D01*
X143256000Y-50395500D02*
X141199000Y-50395500D01*
X145264500Y-50395500D02*
X143256000Y-50395500D01*
X147533000Y-52664000D02*
X145264500Y-50395500D01*
X147533000Y-53340000D02*
X147533000Y-52664000D01*
D32*
X141707000Y-53769500D02*
X143256000Y-52220500D01*
X139700000Y-53769500D02*
X141707000Y-53769500D01*
X139682500Y-53787000D02*
X139700000Y-53769500D01*
X135763000Y-53787000D02*
X139682500Y-53787000D01*
X119945000Y-53397000D02*
X123004000Y-53397000D01*
X115443000Y-48895000D02*
X119945000Y-53397000D01*
X127464000Y-38498000D02*
X127464000Y-41402000D01*
X127254000Y-38288000D02*
X127464000Y-38498000D01*
X121964000Y-39260000D02*
X121964000Y-41402000D01*
X122936000Y-38288000D02*
X121964000Y-39260000D01*
X124454000Y-43892000D02*
X121964000Y-41402000D01*
X124454000Y-47947000D02*
X124454000Y-43892000D01*
X125254000Y-47947000D02*
X125254000Y-43612000D01*
X125254000Y-43612000D02*
X127464000Y-41402000D01*
X127654000Y-59266500D02*
X127654000Y-56447000D01*
X127357500Y-59563000D02*
X127654000Y-59266500D01*
X129254000Y-59491500D02*
X129182500Y-59563000D01*
X129254000Y-56447000D02*
X129254000Y-59491500D01*
X130706500Y-58523500D02*
X131826000Y-58523500D01*
X129667000Y-59563000D02*
X130706500Y-58523500D01*
X129182500Y-59563000D02*
X129667000Y-59563000D01*
D33*
X131826000Y-60348500D02*
X131826000Y-62357000D01*
X131826000Y-62357000D02*
X131953000Y-62484000D01*
X131953000Y-62484000D02*
X140167000Y-62484000D01*
X130810000Y-62484000D02*
X131953000Y-62484000D01*
X123190000Y-62484000D02*
X130810000Y-62484000D01*
X140167000Y-62484000D02*
X141605000Y-61046000D01*
X121666000Y-60960000D02*
X123190000Y-62484000D01*
X121666000Y-60602500D02*
X121666000Y-60960000D01*
D32*
X129019000Y-45987000D02*
X129794000Y-45987000D01*
X128454000Y-46552000D02*
X129019000Y-45987000D01*
X128454000Y-47947000D02*
X128454000Y-46552000D01*
X127127000Y-49657000D02*
X128143000Y-49657000D01*
X126854000Y-49384000D02*
X127127000Y-49657000D01*
X126854000Y-47947000D02*
X126854000Y-49384000D01*
X128143000Y-49657000D02*
X128454000Y-49346000D01*
X128454000Y-49346000D02*
X128454000Y-47947000D01*
D33*
X129299000Y-44437000D02*
X127381000Y-46355000D01*
X129794000Y-44437000D02*
X129299000Y-44437000D01*
X127381000Y-46355000D02*
X127013000Y-45987000D01*
X127654000Y-46628000D02*
X127381000Y-46355000D01*
X127013000Y-45987000D02*
X126492000Y-45987000D01*
X127654000Y-47947000D02*
X127654000Y-46628000D01*
X126054000Y-46425000D02*
X126492000Y-45987000D01*
X126054000Y-47947000D02*
X126054000Y-46425000D01*
D32*
X119507000Y-45847000D02*
X119507000Y-47220500D01*
X118110000Y-39497000D02*
X118110000Y-44450000D01*
X118110000Y-44450000D02*
X119507000Y-45847000D01*
X112649000Y-34036000D02*
X118110000Y-39497000D01*
X110617000Y-34036000D02*
X112649000Y-34036000D01*
X114605500Y-45517500D02*
X117729000Y-48641000D01*
X117729000Y-49403000D02*
X120923000Y-52597000D01*
X114605500Y-41755000D02*
X114605500Y-45517500D01*
X117729000Y-48641000D02*
X117729000Y-49403000D01*
X120923000Y-52597000D02*
X123004000Y-52597000D01*
X114681000Y-41679500D02*
X114605500Y-41755000D01*
X113942500Y-39116000D02*
X114681000Y-39854500D01*
X110617000Y-39116000D02*
X113942500Y-39116000D01*
X117443000Y-54197000D02*
X123004000Y-54197000D01*
X115443000Y-52197000D02*
X117443000Y-54197000D01*
X116072000Y-54997000D02*
X123004000Y-54997000D01*
X115443000Y-55626000D02*
X116072000Y-54997000D01*
X117475000Y-58801000D02*
X119829000Y-56447000D01*
X119829000Y-56447000D02*
X124454000Y-56447000D01*
X115593500Y-58801000D02*
X117475000Y-58801000D01*
D33*
X141463000Y-35926000D02*
X141463000Y-34499000D01*
X150749000Y-36576000D02*
X142113000Y-36576000D01*
X151623000Y-35702000D02*
X150749000Y-36576000D01*
X142113000Y-36576000D02*
X141463000Y-35926000D01*
X151623000Y-34245000D02*
X151623000Y-35702000D01*
X136525000Y-37592000D02*
X137668000Y-36449000D01*
X136525000Y-45235500D02*
X136525000Y-37592000D01*
X135278500Y-46482000D02*
X136525000Y-45235500D01*
X137668000Y-36449000D02*
X139513000Y-36449000D01*
X139513000Y-36449000D02*
X141463000Y-34499000D01*
X130175000Y-32131000D02*
X130175000Y-44056000D01*
X130175000Y-44056000D02*
X129794000Y-44437000D01*
X129787000Y-31743000D02*
X130175000Y-32131000D01*
X127337000Y-31743000D02*
X129787000Y-31743000D01*
X112014000Y-32893000D02*
X110617000Y-31496000D01*
X121837000Y-32893000D02*
X112014000Y-32893000D01*
D34*
X133477000Y-35941000D02*
X134919000Y-34499000D01*
X133477000Y-46458500D02*
X133477000Y-35941000D01*
X134919000Y-34499000D02*
X136383000Y-34499000D01*
X133453500Y-46482000D02*
X133477000Y-46458500D01*
X131504000Y-48431500D02*
X133453500Y-46482000D01*
X131504000Y-49397000D02*
X131504000Y-48431500D01*
D32*
X144943000Y-47192000D02*
X144943000Y-40692000D01*
X134539500Y-50997000D02*
X134596500Y-51054000D01*
X131504000Y-50997000D02*
X134539500Y-50997000D01*
X133731000Y-52959000D02*
X134559000Y-53787000D01*
X131504000Y-51797000D02*
X132950000Y-51797000D01*
X132950000Y-51797000D02*
X133731000Y-52578000D01*
X133731000Y-52578000D02*
X133731000Y-52959000D01*
X134559000Y-53787000D02*
X135763000Y-53787000D01*
D33*
X147533000Y-57191000D02*
X147533000Y-53340000D01*
X143678000Y-61046000D02*
X147533000Y-57191000D01*
X141605000Y-61046000D02*
X143678000Y-61046000D01*
D32*
X125254000Y-58835000D02*
X125222000Y-58867000D01*
X125254000Y-56447000D02*
X125254000Y-58835000D01*
X125132500Y-58777500D02*
X125222000Y-58867000D01*
X121666000Y-58777500D02*
X125132500Y-58777500D01*
X113133500Y-59436000D02*
X113768500Y-58801000D01*
X110617000Y-59436000D02*
X113133500Y-59436000D01*
X110617000Y-56896000D02*
X112348000Y-56896000D01*
X112348000Y-56896000D02*
X113618000Y-55626000D01*
X112776000Y-52197000D02*
X113618000Y-52197000D01*
X110617000Y-54356000D02*
X112776000Y-52197000D01*
X113538000Y-48895000D02*
X113618000Y-48895000D01*
X110617000Y-51816000D02*
X113538000Y-48895000D01*
G04 #@! TA.AperFunction,Conductor*
G36*
X153230621Y-24531502D02*
G01*
X153277114Y-24585158D01*
X153288500Y-24637500D01*
X153288500Y-66929500D01*
X153268498Y-66997621D01*
X153214842Y-67044114D01*
X153162500Y-67055500D01*
X109219500Y-67055500D01*
X109151379Y-67035498D01*
X109104886Y-66981842D01*
X109093500Y-66929500D01*
X109093500Y-62480349D01*
X109113502Y-62412228D01*
X109167158Y-62365735D01*
X109237432Y-62355631D01*
X109302012Y-62385125D01*
X109336243Y-62432945D01*
X109400266Y-62590616D01*
X109402965Y-62595020D01*
X109500981Y-62754968D01*
X109516987Y-62781088D01*
X109663250Y-62949938D01*
X109835126Y-63092632D01*
X110028000Y-63205338D01*
X110032825Y-63207180D01*
X110032826Y-63207181D01*
X110089265Y-63228733D01*
X110236692Y-63285030D01*
X110241760Y-63286061D01*
X110241763Y-63286062D01*
X110317064Y-63301382D01*
X110455597Y-63329567D01*
X110460772Y-63329757D01*
X110460774Y-63329757D01*
X110673673Y-63337564D01*
X110673677Y-63337564D01*
X110678837Y-63337753D01*
X110683957Y-63337097D01*
X110683959Y-63337097D01*
X110895288Y-63310025D01*
X110895289Y-63310025D01*
X110900416Y-63309368D01*
X110927035Y-63301382D01*
X111109429Y-63246661D01*
X111109434Y-63246659D01*
X111114384Y-63245174D01*
X111314994Y-63146896D01*
X111496860Y-63017173D01*
X111502965Y-63011090D01*
X111605597Y-62908815D01*
X111655096Y-62859489D01*
X111685574Y-62817075D01*
X111779060Y-62686974D01*
X111835055Y-62643326D01*
X111881383Y-62634500D01*
X112558143Y-62634500D01*
X112626264Y-62654502D01*
X112672757Y-62708158D01*
X112677666Y-62720622D01*
X112685130Y-62742995D01*
X112685133Y-62743002D01*
X112687450Y-62749946D01*
X112780522Y-62900348D01*
X112905697Y-63025305D01*
X112911927Y-63029145D01*
X112911928Y-63029146D01*
X113049090Y-63113694D01*
X113056262Y-63118115D01*
X113133978Y-63143892D01*
X113217611Y-63171632D01*
X113217613Y-63171632D01*
X113224139Y-63173797D01*
X113230975Y-63174497D01*
X113230978Y-63174498D01*
X113268586Y-63178351D01*
X113328600Y-63184500D01*
X113954400Y-63184500D01*
X113957646Y-63184163D01*
X113957650Y-63184163D01*
X114053308Y-63174238D01*
X114053312Y-63174237D01*
X114060166Y-63173526D01*
X114066702Y-63171345D01*
X114066704Y-63171345D01*
X114207213Y-63124467D01*
X114227946Y-63117550D01*
X114378348Y-63024478D01*
X114464784Y-62937891D01*
X114527066Y-62903812D01*
X114597886Y-62908815D01*
X114642975Y-62937736D01*
X114651285Y-62946031D01*
X114671018Y-62965730D01*
X114705097Y-63028012D01*
X114708000Y-63054903D01*
X114708000Y-63157430D01*
X114706567Y-63176380D01*
X114705332Y-63184500D01*
X114703301Y-63197849D01*
X114703894Y-63205141D01*
X114703894Y-63205144D01*
X114707585Y-63250518D01*
X114708000Y-63260733D01*
X114708000Y-63268793D01*
X114708425Y-63272437D01*
X114711289Y-63297007D01*
X114711722Y-63301382D01*
X114716942Y-63365551D01*
X114717640Y-63374137D01*
X114719896Y-63381101D01*
X114721087Y-63387060D01*
X114722471Y-63392915D01*
X114723318Y-63400181D01*
X114748235Y-63468827D01*
X114749652Y-63472955D01*
X114772149Y-63542399D01*
X114775945Y-63548654D01*
X114778451Y-63554128D01*
X114781170Y-63559558D01*
X114783667Y-63566437D01*
X114787680Y-63572557D01*
X114787680Y-63572558D01*
X114823686Y-63627476D01*
X114826023Y-63631180D01*
X114863905Y-63693607D01*
X114867621Y-63697815D01*
X114867622Y-63697816D01*
X114871303Y-63701984D01*
X114871276Y-63702008D01*
X114873929Y-63705000D01*
X114876632Y-63708233D01*
X114880644Y-63714352D01*
X114885956Y-63719384D01*
X114936883Y-63767628D01*
X114939325Y-63770006D01*
X115606449Y-64437130D01*
X115640475Y-64499442D01*
X115642641Y-64539613D01*
X115624251Y-64711695D01*
X115624548Y-64716848D01*
X115624548Y-64716851D01*
X115630011Y-64811590D01*
X115637110Y-64934715D01*
X115638247Y-64939761D01*
X115638248Y-64939767D01*
X115658119Y-65027939D01*
X115686222Y-65152639D01*
X115770266Y-65359616D01*
X115886987Y-65550088D01*
X116033250Y-65718938D01*
X116205126Y-65861632D01*
X116398000Y-65974338D01*
X116606692Y-66054030D01*
X116611760Y-66055061D01*
X116611763Y-66055062D01*
X116719017Y-66076883D01*
X116825597Y-66098567D01*
X116830772Y-66098757D01*
X116830774Y-66098757D01*
X117043673Y-66106564D01*
X117043677Y-66106564D01*
X117048837Y-66106753D01*
X117053957Y-66106097D01*
X117053959Y-66106097D01*
X117265288Y-66079025D01*
X117265289Y-66079025D01*
X117270416Y-66078368D01*
X117275366Y-66076883D01*
X117479429Y-66015661D01*
X117479434Y-66015659D01*
X117484384Y-66014174D01*
X117684994Y-65915896D01*
X117866860Y-65786173D01*
X118025096Y-65628489D01*
X118084594Y-65545689D01*
X118152435Y-65451277D01*
X118155453Y-65447077D01*
X118254430Y-65246811D01*
X118319370Y-65033069D01*
X118348529Y-64811590D01*
X118350156Y-64745000D01*
X118332870Y-64534747D01*
X118347223Y-64465219D01*
X118369351Y-64435330D01*
X121129905Y-61674776D01*
X121192217Y-61640750D01*
X121263032Y-61645815D01*
X121308095Y-61674776D01*
X122606230Y-62972911D01*
X122618616Y-62987323D01*
X122627149Y-62998918D01*
X122627154Y-62998923D01*
X122631492Y-63004818D01*
X122637070Y-63009557D01*
X122637073Y-63009560D01*
X122671768Y-63039035D01*
X122679284Y-63045965D01*
X122684979Y-63051660D01*
X122687861Y-63053940D01*
X122707251Y-63069281D01*
X122710655Y-63072072D01*
X122760331Y-63114275D01*
X122766285Y-63119333D01*
X122772801Y-63122661D01*
X122777838Y-63126020D01*
X122782977Y-63129194D01*
X122788716Y-63133734D01*
X122795349Y-63136834D01*
X122854837Y-63164636D01*
X122858791Y-63166569D01*
X122923808Y-63199769D01*
X122930924Y-63201510D01*
X122936554Y-63203604D01*
X122942321Y-63205523D01*
X122948950Y-63208621D01*
X122956110Y-63210110D01*
X122956112Y-63210111D01*
X123020396Y-63223482D01*
X123024680Y-63224452D01*
X123095610Y-63241808D01*
X123101212Y-63242156D01*
X123101215Y-63242156D01*
X123106764Y-63242500D01*
X123106762Y-63242536D01*
X123110752Y-63242775D01*
X123114950Y-63243150D01*
X123122115Y-63244640D01*
X123199520Y-63242546D01*
X123202928Y-63242500D01*
X131865059Y-63242500D01*
X131876260Y-63242999D01*
X131877950Y-63243150D01*
X131885115Y-63244640D01*
X131962520Y-63242546D01*
X131965928Y-63242500D01*
X140099930Y-63242500D01*
X140118880Y-63243933D01*
X140133115Y-63246099D01*
X140133119Y-63246099D01*
X140140349Y-63247199D01*
X140147641Y-63246606D01*
X140147644Y-63246606D01*
X140193018Y-63242915D01*
X140203233Y-63242500D01*
X140211293Y-63242500D01*
X140228680Y-63240473D01*
X140239507Y-63239211D01*
X140243882Y-63238778D01*
X140309339Y-63233454D01*
X140309342Y-63233453D01*
X140316637Y-63232860D01*
X140323601Y-63230604D01*
X140329560Y-63229413D01*
X140335415Y-63228029D01*
X140342681Y-63227182D01*
X140411327Y-63202265D01*
X140415455Y-63200848D01*
X140477936Y-63180607D01*
X140477938Y-63180606D01*
X140484899Y-63178351D01*
X140491154Y-63174555D01*
X140496628Y-63172049D01*
X140502058Y-63169330D01*
X140508937Y-63166833D01*
X140569976Y-63126814D01*
X140573680Y-63124477D01*
X140636107Y-63086595D01*
X140644484Y-63079197D01*
X140644508Y-63079224D01*
X140647500Y-63076571D01*
X140650733Y-63073868D01*
X140656852Y-63069856D01*
X140671718Y-63054163D01*
X140678706Y-63046787D01*
X140740076Y-63011090D01*
X140809845Y-63013848D01*
X140893611Y-63041632D01*
X140893613Y-63041632D01*
X140900139Y-63043797D01*
X140906975Y-63044497D01*
X140906978Y-63044498D01*
X140950031Y-63048909D01*
X141004600Y-63054500D01*
X142205400Y-63054500D01*
X142208646Y-63054163D01*
X142208650Y-63054163D01*
X142304308Y-63044238D01*
X142304312Y-63044237D01*
X142311166Y-63043526D01*
X142317702Y-63041345D01*
X142317704Y-63041345D01*
X142471998Y-62989868D01*
X142478946Y-62987550D01*
X142629348Y-62894478D01*
X142754305Y-62769303D01*
X142784313Y-62720622D01*
X142843275Y-62624968D01*
X142843276Y-62624966D01*
X142847115Y-62618738D01*
X142893016Y-62480349D01*
X142900632Y-62457389D01*
X142900632Y-62457387D01*
X142902797Y-62450861D01*
X142913500Y-62346400D01*
X142913500Y-61930500D01*
X142933502Y-61862379D01*
X142987158Y-61815886D01*
X143039500Y-61804500D01*
X143610930Y-61804500D01*
X143629880Y-61805933D01*
X143644115Y-61808099D01*
X143644119Y-61808099D01*
X143651349Y-61809199D01*
X143658641Y-61808606D01*
X143658644Y-61808606D01*
X143704018Y-61804915D01*
X143714233Y-61804500D01*
X143722293Y-61804500D01*
X143735583Y-61802951D01*
X143750507Y-61801211D01*
X143754882Y-61800778D01*
X143820339Y-61795454D01*
X143820342Y-61795453D01*
X143827637Y-61794860D01*
X143834601Y-61792604D01*
X143840560Y-61791413D01*
X143846415Y-61790029D01*
X143853681Y-61789182D01*
X143922327Y-61764265D01*
X143926455Y-61762848D01*
X143988936Y-61742607D01*
X143988938Y-61742606D01*
X143995899Y-61740351D01*
X144002154Y-61736555D01*
X144007628Y-61734049D01*
X144013058Y-61731330D01*
X144019937Y-61728833D01*
X144042387Y-61714114D01*
X144080976Y-61688814D01*
X144084680Y-61686477D01*
X144147107Y-61648595D01*
X144155484Y-61641197D01*
X144155508Y-61641224D01*
X144158500Y-61638571D01*
X144161733Y-61635868D01*
X144167852Y-61631856D01*
X144221128Y-61575617D01*
X144223506Y-61573175D01*
X148021911Y-57774770D01*
X148036323Y-57762384D01*
X148047918Y-57753851D01*
X148047923Y-57753846D01*
X148053818Y-57749508D01*
X148058557Y-57743930D01*
X148058560Y-57743927D01*
X148088035Y-57709232D01*
X148094965Y-57701716D01*
X148100660Y-57696021D01*
X148118281Y-57673749D01*
X148121072Y-57670345D01*
X148163591Y-57620297D01*
X148163592Y-57620295D01*
X148168333Y-57614715D01*
X148171661Y-57608199D01*
X148175028Y-57603150D01*
X148178195Y-57598021D01*
X148182734Y-57592284D01*
X148213655Y-57526125D01*
X148215561Y-57522225D01*
X148215740Y-57521874D01*
X148248769Y-57457192D01*
X148250508Y-57450084D01*
X148252607Y-57444441D01*
X148254524Y-57438678D01*
X148257622Y-57432050D01*
X148272487Y-57360583D01*
X148273457Y-57356299D01*
X148274278Y-57352945D01*
X148290808Y-57285390D01*
X148291414Y-57275631D01*
X148291500Y-57274236D01*
X148291536Y-57274238D01*
X148291775Y-57270245D01*
X148292149Y-57266053D01*
X148293640Y-57258885D01*
X148291546Y-57181479D01*
X148291500Y-57178072D01*
X148291500Y-54774500D01*
X148311502Y-54706379D01*
X148365158Y-54659886D01*
X148417500Y-54648500D01*
X148833400Y-54648500D01*
X148836646Y-54648163D01*
X148836650Y-54648163D01*
X148932308Y-54638238D01*
X148932312Y-54638237D01*
X148939166Y-54637526D01*
X148945702Y-54635345D01*
X148945704Y-54635345D01*
X149099998Y-54583868D01*
X149106946Y-54581550D01*
X149257348Y-54488478D01*
X149317248Y-54428474D01*
X149377134Y-54368483D01*
X149382305Y-54363303D01*
X149389624Y-54351430D01*
X149471275Y-54218968D01*
X149471276Y-54218966D01*
X149475115Y-54212738D01*
X149530797Y-54044861D01*
X149541500Y-53940400D01*
X149541500Y-52739600D01*
X149540827Y-52733113D01*
X149531238Y-52640692D01*
X149531237Y-52640688D01*
X149530526Y-52633834D01*
X149527576Y-52624990D01*
X149476868Y-52473002D01*
X149474550Y-52466054D01*
X149381478Y-52315652D01*
X149338697Y-52272945D01*
X149264040Y-52198419D01*
X149256303Y-52190695D01*
X149247087Y-52185014D01*
X149111968Y-52101725D01*
X149111966Y-52101724D01*
X149105738Y-52097885D01*
X149025995Y-52071436D01*
X148944389Y-52044368D01*
X148944387Y-52044368D01*
X148937861Y-52042203D01*
X148931025Y-52041503D01*
X148931022Y-52041502D01*
X148887969Y-52037091D01*
X148833400Y-52031500D01*
X148025371Y-52031500D01*
X147957250Y-52011498D01*
X147936276Y-51994595D01*
X145848270Y-49906589D01*
X145835884Y-49892177D01*
X145827351Y-49880582D01*
X145827346Y-49880577D01*
X145823008Y-49874682D01*
X145817430Y-49869943D01*
X145817427Y-49869940D01*
X145782732Y-49840465D01*
X145775216Y-49833535D01*
X145769521Y-49827840D01*
X145758787Y-49819348D01*
X145747249Y-49810219D01*
X145743845Y-49807428D01*
X145693797Y-49764909D01*
X145693795Y-49764908D01*
X145688215Y-49760167D01*
X145681699Y-49756839D01*
X145676650Y-49753472D01*
X145671521Y-49750305D01*
X145665784Y-49745766D01*
X145599625Y-49714845D01*
X145595725Y-49712939D01*
X145530692Y-49679731D01*
X145523584Y-49677992D01*
X145517941Y-49675893D01*
X145512178Y-49673976D01*
X145505550Y-49670878D01*
X145434083Y-49656013D01*
X145429799Y-49655043D01*
X145395458Y-49646640D01*
X145358890Y-49637692D01*
X145353288Y-49637344D01*
X145353285Y-49637344D01*
X145347736Y-49637000D01*
X145347738Y-49636964D01*
X145343745Y-49636725D01*
X145339553Y-49636351D01*
X145332385Y-49634860D01*
X145268620Y-49636585D01*
X145254979Y-49636954D01*
X145251572Y-49637000D01*
X144334915Y-49637000D01*
X144266794Y-49616998D01*
X144245897Y-49600173D01*
X144184483Y-49538866D01*
X144179303Y-49533695D01*
X144041136Y-49448527D01*
X144034968Y-49444725D01*
X144034966Y-49444724D01*
X144028738Y-49440885D01*
X143945698Y-49413342D01*
X143867389Y-49387368D01*
X143867387Y-49387368D01*
X143860861Y-49385203D01*
X143854025Y-49384503D01*
X143854022Y-49384502D01*
X143810969Y-49380091D01*
X143756400Y-49374500D01*
X142755600Y-49374500D01*
X142752354Y-49374837D01*
X142752350Y-49374837D01*
X142656692Y-49384762D01*
X142656688Y-49384763D01*
X142649834Y-49385474D01*
X142643298Y-49387655D01*
X142643296Y-49387655D01*
X142511194Y-49431728D01*
X142482054Y-49441450D01*
X142331652Y-49534522D01*
X142326479Y-49539704D01*
X142266270Y-49600018D01*
X142203987Y-49634097D01*
X142177097Y-49637000D01*
X141266069Y-49637000D01*
X141247121Y-49635567D01*
X141237457Y-49634097D01*
X141232883Y-49633401D01*
X141232881Y-49633401D01*
X141225651Y-49632301D01*
X141218359Y-49632894D01*
X141218356Y-49632894D01*
X141172982Y-49636585D01*
X141162767Y-49637000D01*
X141154707Y-49637000D01*
X141141417Y-49638549D01*
X141126493Y-49640289D01*
X141122118Y-49640722D01*
X141056661Y-49646046D01*
X141056658Y-49646047D01*
X141049363Y-49646640D01*
X141042399Y-49648896D01*
X141036440Y-49650087D01*
X141030585Y-49651471D01*
X141023319Y-49652318D01*
X140954673Y-49677235D01*
X140950545Y-49678652D01*
X140888064Y-49698893D01*
X140888062Y-49698894D01*
X140881101Y-49701149D01*
X140874846Y-49704945D01*
X140869372Y-49707451D01*
X140863942Y-49710170D01*
X140857063Y-49712667D01*
X140850943Y-49716680D01*
X140850942Y-49716680D01*
X140796024Y-49752686D01*
X140792320Y-49755023D01*
X140729893Y-49792905D01*
X140721516Y-49800303D01*
X140721492Y-49800276D01*
X140718500Y-49802929D01*
X140715267Y-49805632D01*
X140709148Y-49809644D01*
X140679951Y-49840465D01*
X140655872Y-49865883D01*
X140653494Y-49868325D01*
X139789095Y-50732724D01*
X139726783Y-50766750D01*
X139655968Y-50761685D01*
X139610905Y-50732724D01*
X139443270Y-50565089D01*
X139430884Y-50550677D01*
X139422351Y-50539082D01*
X139422346Y-50539077D01*
X139418008Y-50533182D01*
X139412430Y-50528443D01*
X139412427Y-50528440D01*
X139377732Y-50498965D01*
X139370216Y-50492035D01*
X139364521Y-50486340D01*
X139358380Y-50481482D01*
X139342249Y-50468719D01*
X139338845Y-50465928D01*
X139288797Y-50423409D01*
X139288795Y-50423408D01*
X139283215Y-50418667D01*
X139276699Y-50415339D01*
X139271650Y-50411972D01*
X139266521Y-50408805D01*
X139260784Y-50404266D01*
X139194625Y-50373345D01*
X139190725Y-50371439D01*
X139125692Y-50338231D01*
X139118584Y-50336492D01*
X139112941Y-50334393D01*
X139107178Y-50332476D01*
X139100550Y-50329378D01*
X139029083Y-50314513D01*
X139024799Y-50313543D01*
X138953890Y-50296192D01*
X138948288Y-50295844D01*
X138948285Y-50295844D01*
X138942736Y-50295500D01*
X138942738Y-50295464D01*
X138938745Y-50295225D01*
X138934553Y-50294851D01*
X138927385Y-50293360D01*
X138861175Y-50295151D01*
X138849979Y-50295454D01*
X138846572Y-50295500D01*
X137455311Y-50295500D01*
X137387190Y-50275498D01*
X137348167Y-50235804D01*
X137329239Y-50205217D01*
X137282478Y-50129652D01*
X137216982Y-50064269D01*
X137182903Y-50001987D01*
X137180000Y-49975097D01*
X137180000Y-47692070D01*
X137181433Y-47673120D01*
X137183599Y-47658885D01*
X137183599Y-47658881D01*
X137184699Y-47651651D01*
X137183684Y-47639166D01*
X137180415Y-47598982D01*
X137180000Y-47588767D01*
X137180000Y-47580707D01*
X137176711Y-47552493D01*
X137176278Y-47548118D01*
X137170954Y-47482661D01*
X137170953Y-47482658D01*
X137170360Y-47475363D01*
X137168104Y-47468399D01*
X137166913Y-47462440D01*
X137165529Y-47456585D01*
X137164682Y-47449319D01*
X137139765Y-47380673D01*
X137138348Y-47376545D01*
X137118107Y-47314064D01*
X137118106Y-47314062D01*
X137115851Y-47307101D01*
X137112055Y-47300846D01*
X137109549Y-47295372D01*
X137106830Y-47289942D01*
X137104333Y-47283063D01*
X137064314Y-47222024D01*
X137061967Y-47218305D01*
X137046005Y-47192000D01*
X143429835Y-47192000D01*
X143448465Y-47428711D01*
X143449619Y-47433518D01*
X143449620Y-47433524D01*
X143473675Y-47533717D01*
X143503895Y-47659594D01*
X143505788Y-47664165D01*
X143505789Y-47664167D01*
X143584935Y-47855242D01*
X143594760Y-47878963D01*
X143597346Y-47883183D01*
X143716241Y-48077202D01*
X143716245Y-48077208D01*
X143718824Y-48081416D01*
X143873031Y-48261969D01*
X144053584Y-48416176D01*
X144057792Y-48418755D01*
X144057798Y-48418759D01*
X144251817Y-48537654D01*
X144256037Y-48540240D01*
X144260607Y-48542133D01*
X144260611Y-48542135D01*
X144466683Y-48627492D01*
X144475406Y-48631105D01*
X144516622Y-48641000D01*
X144701476Y-48685380D01*
X144701482Y-48685381D01*
X144706289Y-48686535D01*
X144943000Y-48705165D01*
X145179711Y-48686535D01*
X145184518Y-48685381D01*
X145184524Y-48685380D01*
X145369378Y-48641000D01*
X145410594Y-48631105D01*
X145419317Y-48627492D01*
X145625389Y-48542135D01*
X145625393Y-48542133D01*
X145629963Y-48540240D01*
X145634183Y-48537654D01*
X145828202Y-48418759D01*
X145828208Y-48418755D01*
X145832416Y-48416176D01*
X146012969Y-48261969D01*
X146167176Y-48081416D01*
X146169755Y-48077208D01*
X146169759Y-48077202D01*
X146288654Y-47883183D01*
X146291240Y-47878963D01*
X146301066Y-47855242D01*
X146380211Y-47664167D01*
X146380212Y-47664165D01*
X146382105Y-47659594D01*
X146412325Y-47533717D01*
X146436380Y-47433524D01*
X146436381Y-47433518D01*
X146437535Y-47428711D01*
X146456165Y-47192000D01*
X146437535Y-46955289D01*
X146434389Y-46942181D01*
X146398073Y-46790919D01*
X146382105Y-46724406D01*
X146373112Y-46702695D01*
X146293135Y-46509611D01*
X146293133Y-46509607D01*
X146291240Y-46505037D01*
X146250140Y-46437968D01*
X146169759Y-46306798D01*
X146169755Y-46306792D01*
X146167176Y-46302584D01*
X146033968Y-46146618D01*
X146016177Y-46125787D01*
X146012969Y-46122031D01*
X145832416Y-45967824D01*
X145828203Y-45965242D01*
X145828193Y-45965235D01*
X145661665Y-45863186D01*
X145614034Y-45810539D01*
X145601500Y-45755754D01*
X145601500Y-42128246D01*
X145621502Y-42060125D01*
X145661665Y-42020814D01*
X145828193Y-41918765D01*
X145828203Y-41918758D01*
X145832416Y-41916176D01*
X146012969Y-41761969D01*
X146167176Y-41581416D01*
X146169755Y-41577208D01*
X146169759Y-41577202D01*
X146288654Y-41383183D01*
X146291240Y-41378963D01*
X146295029Y-41369817D01*
X146380211Y-41164167D01*
X146380212Y-41164165D01*
X146382105Y-41159594D01*
X146417578Y-41011840D01*
X146436380Y-40933524D01*
X146436381Y-40933518D01*
X146437535Y-40928711D01*
X146456165Y-40692000D01*
X146437535Y-40455289D01*
X146435633Y-40447364D01*
X146383260Y-40229218D01*
X146382105Y-40224406D01*
X146355498Y-40160171D01*
X146293135Y-40009611D01*
X146293133Y-40009607D01*
X146291240Y-40005037D01*
X146237100Y-39916689D01*
X146169759Y-39806798D01*
X146169755Y-39806792D01*
X146167176Y-39802584D01*
X146012969Y-39622031D01*
X145832416Y-39467824D01*
X145828208Y-39465245D01*
X145828202Y-39465241D01*
X145634183Y-39346346D01*
X145629963Y-39343760D01*
X145625393Y-39341867D01*
X145625389Y-39341865D01*
X145415167Y-39254789D01*
X145415165Y-39254788D01*
X145410594Y-39252895D01*
X145320740Y-39231323D01*
X145184524Y-39198620D01*
X145184518Y-39198619D01*
X145179711Y-39197465D01*
X144943000Y-39178835D01*
X144706289Y-39197465D01*
X144701482Y-39198619D01*
X144701476Y-39198620D01*
X144565260Y-39231323D01*
X144475406Y-39252895D01*
X144470835Y-39254788D01*
X144470833Y-39254789D01*
X144260611Y-39341865D01*
X144260607Y-39341867D01*
X144256037Y-39343760D01*
X144251817Y-39346346D01*
X144057798Y-39465241D01*
X144057792Y-39465245D01*
X144053584Y-39467824D01*
X143873031Y-39622031D01*
X143718824Y-39802584D01*
X143716245Y-39806792D01*
X143716241Y-39806798D01*
X143648900Y-39916689D01*
X143594760Y-40005037D01*
X143592867Y-40009607D01*
X143592865Y-40009611D01*
X143530502Y-40160171D01*
X143503895Y-40224406D01*
X143502740Y-40229218D01*
X143450368Y-40447364D01*
X143448465Y-40455289D01*
X143429835Y-40692000D01*
X143448465Y-40928711D01*
X143449619Y-40933518D01*
X143449620Y-40933524D01*
X143468422Y-41011840D01*
X143503895Y-41159594D01*
X143505788Y-41164165D01*
X143505789Y-41164167D01*
X143590972Y-41369817D01*
X143594760Y-41378963D01*
X143597346Y-41383183D01*
X143716241Y-41577202D01*
X143716245Y-41577208D01*
X143718824Y-41581416D01*
X143873031Y-41761969D01*
X144053584Y-41916176D01*
X144057797Y-41918758D01*
X144057807Y-41918765D01*
X144224335Y-42020814D01*
X144271966Y-42073461D01*
X144284500Y-42128246D01*
X144284500Y-45755754D01*
X144264498Y-45823875D01*
X144224335Y-45863186D01*
X144057807Y-45965235D01*
X144057797Y-45965242D01*
X144053584Y-45967824D01*
X143873031Y-46122031D01*
X143869823Y-46125787D01*
X143852032Y-46146618D01*
X143718824Y-46302584D01*
X143716245Y-46306792D01*
X143716241Y-46306798D01*
X143635860Y-46437968D01*
X143594760Y-46505037D01*
X143592867Y-46509607D01*
X143592865Y-46509611D01*
X143512888Y-46702695D01*
X143503895Y-46724406D01*
X143487927Y-46790919D01*
X143451612Y-46942181D01*
X143448465Y-46955289D01*
X143429835Y-47192000D01*
X137046005Y-47192000D01*
X137024095Y-47155893D01*
X137016697Y-47147516D01*
X137016724Y-47147492D01*
X137014071Y-47144500D01*
X137011368Y-47141267D01*
X137007356Y-47135148D01*
X136951117Y-47081872D01*
X136948675Y-47079494D01*
X136440276Y-46571095D01*
X136406250Y-46508783D01*
X136411315Y-46437968D01*
X136440276Y-46392905D01*
X137013911Y-45819270D01*
X137028323Y-45806884D01*
X137039918Y-45798351D01*
X137039923Y-45798346D01*
X137045818Y-45794008D01*
X137050557Y-45788430D01*
X137050560Y-45788427D01*
X137080035Y-45753732D01*
X137086965Y-45746216D01*
X137092660Y-45740521D01*
X137100159Y-45731042D01*
X137110281Y-45718249D01*
X137113072Y-45714845D01*
X137155591Y-45664797D01*
X137155592Y-45664795D01*
X137160333Y-45659215D01*
X137163661Y-45652699D01*
X137167028Y-45647650D01*
X137170195Y-45642521D01*
X137174734Y-45636784D01*
X137205655Y-45570625D01*
X137207561Y-45566725D01*
X137240769Y-45501692D01*
X137242508Y-45494584D01*
X137244607Y-45488941D01*
X137246524Y-45483178D01*
X137249622Y-45476550D01*
X137251995Y-45465144D01*
X137264486Y-45405088D01*
X137265457Y-45400799D01*
X137267618Y-45391969D01*
X137282808Y-45329890D01*
X137283500Y-45318736D01*
X137283536Y-45318738D01*
X137283775Y-45314745D01*
X137284149Y-45310553D01*
X137285640Y-45303385D01*
X137283546Y-45225979D01*
X137283500Y-45222572D01*
X137283500Y-37958371D01*
X137303502Y-37890250D01*
X137320405Y-37869276D01*
X137945276Y-37244405D01*
X138007588Y-37210379D01*
X138034371Y-37207500D01*
X139445930Y-37207500D01*
X139464880Y-37208933D01*
X139479115Y-37211099D01*
X139479119Y-37211099D01*
X139486349Y-37212199D01*
X139493641Y-37211606D01*
X139493644Y-37211606D01*
X139539018Y-37207915D01*
X139549233Y-37207500D01*
X139557293Y-37207500D01*
X139570583Y-37205951D01*
X139585507Y-37204211D01*
X139589882Y-37203778D01*
X139655339Y-37198454D01*
X139655342Y-37198453D01*
X139662637Y-37197860D01*
X139669601Y-37195604D01*
X139675560Y-37194413D01*
X139681415Y-37193029D01*
X139688681Y-37192182D01*
X139757327Y-37167265D01*
X139761455Y-37165848D01*
X139823936Y-37145607D01*
X139823938Y-37145606D01*
X139830899Y-37143351D01*
X139837154Y-37139555D01*
X139842628Y-37137049D01*
X139848058Y-37134330D01*
X139854937Y-37131833D01*
X139896776Y-37104402D01*
X139915976Y-37091814D01*
X139919680Y-37089477D01*
X139982107Y-37051595D01*
X139990484Y-37044197D01*
X139990508Y-37044224D01*
X139993500Y-37041571D01*
X139996733Y-37038868D01*
X140002852Y-37034856D01*
X140056128Y-36978617D01*
X140058506Y-36976175D01*
X140663483Y-36371198D01*
X140725795Y-36337172D01*
X140796610Y-36342237D01*
X140853446Y-36384784D01*
X140854140Y-36385814D01*
X140854170Y-36385792D01*
X140857491Y-36390306D01*
X140860405Y-36395107D01*
X140864121Y-36399315D01*
X140864122Y-36399316D01*
X140867803Y-36403484D01*
X140867776Y-36403508D01*
X140870429Y-36406500D01*
X140873132Y-36409733D01*
X140877144Y-36415852D01*
X140882456Y-36420884D01*
X140933383Y-36469128D01*
X140935825Y-36471506D01*
X141529230Y-37064911D01*
X141541616Y-37079323D01*
X141550149Y-37090918D01*
X141550154Y-37090923D01*
X141554492Y-37096818D01*
X141560070Y-37101557D01*
X141560073Y-37101560D01*
X141594768Y-37131035D01*
X141602284Y-37137965D01*
X141607980Y-37143661D01*
X141610841Y-37145924D01*
X141610846Y-37145929D01*
X141630266Y-37161293D01*
X141633667Y-37164082D01*
X141689285Y-37211333D01*
X141695798Y-37214659D01*
X141700837Y-37218020D01*
X141705979Y-37221196D01*
X141711716Y-37225734D01*
X141777875Y-37256655D01*
X141781769Y-37258558D01*
X141846808Y-37291769D01*
X141853917Y-37293508D01*
X141859551Y-37295604D01*
X141865321Y-37297523D01*
X141871950Y-37300622D01*
X141879113Y-37302112D01*
X141879116Y-37302113D01*
X141929830Y-37312661D01*
X141943435Y-37315491D01*
X141947701Y-37316457D01*
X142018610Y-37333808D01*
X142024212Y-37334156D01*
X142024215Y-37334156D01*
X142029764Y-37334500D01*
X142029762Y-37334535D01*
X142033734Y-37334775D01*
X142037955Y-37335152D01*
X142045115Y-37336641D01*
X142122542Y-37334546D01*
X142125950Y-37334500D01*
X150681930Y-37334500D01*
X150700880Y-37335933D01*
X150715115Y-37338099D01*
X150715119Y-37338099D01*
X150722349Y-37339199D01*
X150729641Y-37338606D01*
X150729644Y-37338606D01*
X150775018Y-37334915D01*
X150785233Y-37334500D01*
X150793293Y-37334500D01*
X150810680Y-37332473D01*
X150821507Y-37331211D01*
X150825882Y-37330778D01*
X150891339Y-37325454D01*
X150891342Y-37325453D01*
X150898637Y-37324860D01*
X150905601Y-37322604D01*
X150911560Y-37321413D01*
X150917415Y-37320029D01*
X150924681Y-37319182D01*
X150993327Y-37294265D01*
X150997455Y-37292848D01*
X151059936Y-37272607D01*
X151059938Y-37272606D01*
X151066899Y-37270351D01*
X151073154Y-37266555D01*
X151078628Y-37264049D01*
X151084058Y-37261330D01*
X151090937Y-37258833D01*
X151112943Y-37244405D01*
X151151976Y-37218814D01*
X151155680Y-37216477D01*
X151218107Y-37178595D01*
X151226484Y-37171197D01*
X151226508Y-37171224D01*
X151229500Y-37168571D01*
X151232733Y-37165868D01*
X151238852Y-37161856D01*
X151292128Y-37105617D01*
X151294506Y-37103175D01*
X152111911Y-36285770D01*
X152126323Y-36273384D01*
X152137918Y-36264851D01*
X152137923Y-36264846D01*
X152143818Y-36260508D01*
X152148557Y-36254930D01*
X152148560Y-36254927D01*
X152178035Y-36220232D01*
X152184965Y-36212716D01*
X152190661Y-36207020D01*
X152192924Y-36204159D01*
X152192929Y-36204154D01*
X152208285Y-36184744D01*
X152211074Y-36181342D01*
X152253596Y-36131291D01*
X152253597Y-36131290D01*
X152258333Y-36125715D01*
X152261661Y-36119198D01*
X152265027Y-36114150D01*
X152268190Y-36109028D01*
X152272735Y-36103284D01*
X152303664Y-36037105D01*
X152305563Y-36033221D01*
X152338769Y-35968192D01*
X152340510Y-35961077D01*
X152342613Y-35955422D01*
X152344522Y-35949683D01*
X152347622Y-35943050D01*
X152362491Y-35871565D01*
X152363461Y-35867282D01*
X152380808Y-35796390D01*
X152381500Y-35785236D01*
X152381535Y-35785238D01*
X152381775Y-35781266D01*
X152382152Y-35777045D01*
X152383641Y-35769885D01*
X152382640Y-35732908D01*
X152400791Y-35664273D01*
X152453169Y-35616345D01*
X152508594Y-35603500D01*
X152521134Y-35603500D01*
X152583316Y-35596745D01*
X152719705Y-35545615D01*
X152836261Y-35458261D01*
X152923615Y-35341705D01*
X152974745Y-35205316D01*
X152981500Y-35143134D01*
X152981500Y-33346866D01*
X152974745Y-33284684D01*
X152923615Y-33148295D01*
X152836261Y-33031739D01*
X152719705Y-32944385D01*
X152583316Y-32893255D01*
X152521134Y-32886500D01*
X150724866Y-32886500D01*
X150662684Y-32893255D01*
X150526295Y-32944385D01*
X150409739Y-33031739D01*
X150322385Y-33148295D01*
X150271255Y-33284684D01*
X150264500Y-33346866D01*
X150264500Y-35143134D01*
X150271255Y-35205316D01*
X150322385Y-35341705D01*
X150409739Y-35458261D01*
X150416919Y-35463642D01*
X150416920Y-35463643D01*
X150513124Y-35535744D01*
X150555639Y-35592603D01*
X150560665Y-35663422D01*
X150526654Y-35725665D01*
X150471724Y-35780595D01*
X150409412Y-35814621D01*
X150382629Y-35817500D01*
X146887803Y-35817500D01*
X146819682Y-35797498D01*
X146773189Y-35743842D01*
X146763085Y-35673568D01*
X146792579Y-35608988D01*
X146851595Y-35570814D01*
X147035429Y-35515661D01*
X147035434Y-35515659D01*
X147040384Y-35514174D01*
X147240994Y-35415896D01*
X147422860Y-35286173D01*
X147441919Y-35267181D01*
X147566400Y-35143134D01*
X147581096Y-35128489D01*
X147640594Y-35045689D01*
X147708435Y-34951277D01*
X147711453Y-34947077D01*
X147790534Y-34787069D01*
X147808136Y-34751453D01*
X147808137Y-34751451D01*
X147810430Y-34746811D01*
X147875370Y-34533069D01*
X147904529Y-34311590D01*
X147905390Y-34276361D01*
X147906074Y-34248365D01*
X147906074Y-34248361D01*
X147906156Y-34245000D01*
X147887852Y-34022361D01*
X147833431Y-33805702D01*
X147744354Y-33600840D01*
X147623014Y-33413277D01*
X147472670Y-33248051D01*
X147468619Y-33244852D01*
X147468615Y-33244848D01*
X147301414Y-33112800D01*
X147301410Y-33112798D01*
X147297359Y-33109598D01*
X147101789Y-33001638D01*
X147096920Y-32999914D01*
X147096916Y-32999912D01*
X146896087Y-32928795D01*
X146896083Y-32928794D01*
X146891212Y-32927069D01*
X146886119Y-32926162D01*
X146886116Y-32926161D01*
X146676373Y-32888800D01*
X146676367Y-32888799D01*
X146671284Y-32887894D01*
X146597452Y-32886992D01*
X146453081Y-32885228D01*
X146453079Y-32885228D01*
X146447911Y-32885165D01*
X146227091Y-32918955D01*
X146014756Y-32988357D01*
X145816607Y-33091507D01*
X145812474Y-33094610D01*
X145812471Y-33094612D01*
X145667085Y-33203771D01*
X145637965Y-33225635D01*
X145606905Y-33258137D01*
X145508511Y-33361101D01*
X145483629Y-33387138D01*
X145480715Y-33391410D01*
X145480714Y-33391411D01*
X145468404Y-33409457D01*
X145357743Y-33571680D01*
X145263688Y-33774305D01*
X145203989Y-33989570D01*
X145180251Y-34211695D01*
X145180548Y-34216848D01*
X145180548Y-34216851D01*
X145186011Y-34311590D01*
X145193110Y-34434715D01*
X145194247Y-34439761D01*
X145194248Y-34439767D01*
X145207597Y-34499000D01*
X145242222Y-34652639D01*
X145280461Y-34746811D01*
X145318743Y-34841088D01*
X145326266Y-34859616D01*
X145328965Y-34864020D01*
X145420407Y-35013240D01*
X145442987Y-35050088D01*
X145589250Y-35218938D01*
X145761126Y-35361632D01*
X145954000Y-35474338D01*
X146162692Y-35554030D01*
X146191544Y-35559900D01*
X146231503Y-35568030D01*
X146294269Y-35601211D01*
X146329131Y-35663059D01*
X146325022Y-35733936D01*
X146283245Y-35791341D01*
X146217066Y-35817046D01*
X146206383Y-35817500D01*
X142849279Y-35817500D01*
X142781158Y-35797498D01*
X142734665Y-35743842D01*
X142724561Y-35673568D01*
X142748453Y-35615936D01*
X142763615Y-35595705D01*
X142814745Y-35459316D01*
X142821500Y-35397134D01*
X142821500Y-33600866D01*
X142814745Y-33538684D01*
X142763615Y-33402295D01*
X142676261Y-33285739D01*
X142559705Y-33198385D01*
X142423316Y-33147255D01*
X142361134Y-33140500D01*
X140564866Y-33140500D01*
X140502684Y-33147255D01*
X140366295Y-33198385D01*
X140249739Y-33285739D01*
X140162385Y-33402295D01*
X140111255Y-33538684D01*
X140104500Y-33600866D01*
X140104500Y-34732629D01*
X140084498Y-34800750D01*
X140067595Y-34821724D01*
X139235724Y-35653595D01*
X139173412Y-35687621D01*
X139146629Y-35690500D01*
X137735070Y-35690500D01*
X137716120Y-35689067D01*
X137701885Y-35686901D01*
X137701881Y-35686901D01*
X137694651Y-35685801D01*
X137687359Y-35686394D01*
X137687356Y-35686394D01*
X137641982Y-35690085D01*
X137631767Y-35690500D01*
X137623707Y-35690500D01*
X137610417Y-35692049D01*
X137595493Y-35693789D01*
X137591118Y-35694222D01*
X137525661Y-35699546D01*
X137525658Y-35699547D01*
X137518363Y-35700140D01*
X137511399Y-35702396D01*
X137505440Y-35703587D01*
X137499585Y-35704971D01*
X137492319Y-35705818D01*
X137423673Y-35730735D01*
X137419544Y-35732152D01*
X137402186Y-35737775D01*
X137331217Y-35739740D01*
X137270451Y-35703024D01*
X137239182Y-35639284D01*
X137247338Y-35568757D01*
X137274416Y-35528657D01*
X137331542Y-35471731D01*
X137421096Y-35382489D01*
X137431592Y-35367883D01*
X137548435Y-35205277D01*
X137551453Y-35201077D01*
X137577030Y-35149327D01*
X137648136Y-35005453D01*
X137648137Y-35005451D01*
X137650430Y-35000811D01*
X137691990Y-34864020D01*
X137713865Y-34792023D01*
X137713865Y-34792021D01*
X137715370Y-34787069D01*
X137744529Y-34565590D01*
X137746156Y-34499000D01*
X137727852Y-34276361D01*
X137673431Y-34059702D01*
X137584354Y-33854840D01*
X137535483Y-33779297D01*
X137465822Y-33671617D01*
X137465820Y-33671614D01*
X137463014Y-33667277D01*
X137312670Y-33502051D01*
X137308619Y-33498852D01*
X137308615Y-33498848D01*
X137141414Y-33366800D01*
X137141410Y-33366798D01*
X137137359Y-33363598D01*
X136941789Y-33255638D01*
X136936920Y-33253914D01*
X136936916Y-33253912D01*
X136736087Y-33182795D01*
X136736083Y-33182794D01*
X136731212Y-33181069D01*
X136726119Y-33180162D01*
X136726116Y-33180161D01*
X136516373Y-33142800D01*
X136516367Y-33142799D01*
X136511284Y-33141894D01*
X136437452Y-33140992D01*
X136293081Y-33139228D01*
X136293079Y-33139228D01*
X136287911Y-33139165D01*
X136067091Y-33172955D01*
X135854756Y-33242357D01*
X135824443Y-33258137D01*
X135758356Y-33292540D01*
X135656607Y-33345507D01*
X135652474Y-33348610D01*
X135652471Y-33348612D01*
X135560565Y-33417617D01*
X135477965Y-33479635D01*
X135474393Y-33483373D01*
X135330725Y-33633713D01*
X135323629Y-33641138D01*
X135320715Y-33645410D01*
X135320714Y-33645411D01*
X135208095Y-33810504D01*
X135153184Y-33855507D01*
X135104007Y-33865500D01*
X134997767Y-33865500D01*
X134986584Y-33864973D01*
X134979091Y-33863298D01*
X134971165Y-33863547D01*
X134971164Y-33863547D01*
X134911001Y-33865438D01*
X134907043Y-33865500D01*
X134879144Y-33865500D01*
X134875154Y-33866004D01*
X134863320Y-33866936D01*
X134819111Y-33868326D01*
X134811497Y-33870538D01*
X134811492Y-33870539D01*
X134799659Y-33873977D01*
X134780296Y-33877988D01*
X134760203Y-33880526D01*
X134752836Y-33883443D01*
X134752831Y-33883444D01*
X134719092Y-33896802D01*
X134707865Y-33900646D01*
X134665407Y-33912982D01*
X134658581Y-33917019D01*
X134647972Y-33923293D01*
X134630224Y-33931988D01*
X134611383Y-33939448D01*
X134604967Y-33944110D01*
X134604966Y-33944110D01*
X134575613Y-33965436D01*
X134565693Y-33971952D01*
X134534465Y-33990420D01*
X134534462Y-33990422D01*
X134527638Y-33994458D01*
X134513317Y-34008779D01*
X134498284Y-34021619D01*
X134481893Y-34033528D01*
X134476842Y-34039634D01*
X134453702Y-34067605D01*
X134445712Y-34076384D01*
X133084747Y-35437348D01*
X133076461Y-35444888D01*
X133069982Y-35449000D01*
X133064557Y-35454777D01*
X133023357Y-35498651D01*
X133020602Y-35501493D01*
X133000865Y-35521230D01*
X132998385Y-35524427D01*
X132990682Y-35533447D01*
X132960414Y-35565679D01*
X132956595Y-35572625D01*
X132956593Y-35572628D01*
X132950652Y-35583434D01*
X132939801Y-35599953D01*
X132927386Y-35615959D01*
X132924241Y-35623228D01*
X132924238Y-35623232D01*
X132909826Y-35656537D01*
X132904609Y-35667187D01*
X132883305Y-35705940D01*
X132881334Y-35713615D01*
X132881334Y-35713616D01*
X132878267Y-35725562D01*
X132871863Y-35744266D01*
X132863819Y-35762855D01*
X132862580Y-35770678D01*
X132862577Y-35770688D01*
X132856901Y-35806524D01*
X132854495Y-35818144D01*
X132845923Y-35851534D01*
X132843500Y-35860970D01*
X132843500Y-35881224D01*
X132841949Y-35900934D01*
X132838780Y-35920943D01*
X132839526Y-35928835D01*
X132842941Y-35964961D01*
X132843500Y-35976819D01*
X132843500Y-42152146D01*
X132823498Y-42220267D01*
X132769842Y-42266760D01*
X132699568Y-42276864D01*
X132645229Y-42255359D01*
X132589163Y-42216101D01*
X132589161Y-42216100D01*
X132584654Y-42212944D01*
X132385076Y-42119880D01*
X132172371Y-42062885D01*
X131953000Y-42043693D01*
X131733629Y-42062885D01*
X131520924Y-42119880D01*
X131434138Y-42160349D01*
X131326334Y-42210618D01*
X131326329Y-42210621D01*
X131321347Y-42212944D01*
X131316840Y-42216100D01*
X131316838Y-42216101D01*
X131182470Y-42310187D01*
X131140962Y-42339251D01*
X131139516Y-42340697D01*
X131075457Y-42368736D01*
X131005352Y-42357523D01*
X130952438Y-42310187D01*
X130933500Y-42243751D01*
X130933500Y-32198070D01*
X130934933Y-32179120D01*
X130937099Y-32164885D01*
X130937099Y-32164881D01*
X130938199Y-32157651D01*
X130934732Y-32115020D01*
X130933915Y-32104982D01*
X130933500Y-32094767D01*
X130933500Y-32086707D01*
X130930209Y-32058480D01*
X130929778Y-32054121D01*
X130924453Y-31988660D01*
X130923860Y-31981364D01*
X130921605Y-31974403D01*
X130920418Y-31968463D01*
X130919029Y-31962588D01*
X130918182Y-31955319D01*
X130893264Y-31886670D01*
X130891847Y-31882542D01*
X130871607Y-31820064D01*
X130871606Y-31820062D01*
X130869351Y-31813101D01*
X130865555Y-31806846D01*
X130863049Y-31801372D01*
X130860330Y-31795942D01*
X130857833Y-31789063D01*
X130838117Y-31758991D01*
X130817814Y-31728024D01*
X130815467Y-31724305D01*
X130777595Y-31661893D01*
X130770197Y-31653516D01*
X130770224Y-31653492D01*
X130767571Y-31650500D01*
X130764868Y-31647267D01*
X130760856Y-31641148D01*
X130704617Y-31587872D01*
X130702175Y-31585494D01*
X130370770Y-31254089D01*
X130358384Y-31239677D01*
X130349851Y-31228082D01*
X130349846Y-31228077D01*
X130345508Y-31222182D01*
X130339930Y-31217443D01*
X130339927Y-31217440D01*
X130305232Y-31187965D01*
X130297716Y-31181035D01*
X130292021Y-31175340D01*
X130285880Y-31170482D01*
X130269749Y-31157719D01*
X130266345Y-31154928D01*
X130216297Y-31112409D01*
X130216295Y-31112408D01*
X130210715Y-31107667D01*
X130204199Y-31104339D01*
X130199150Y-31100972D01*
X130194021Y-31097805D01*
X130188284Y-31093266D01*
X130122125Y-31062345D01*
X130118225Y-31060439D01*
X130053192Y-31027231D01*
X130046084Y-31025492D01*
X130040441Y-31023393D01*
X130034678Y-31021476D01*
X130028050Y-31018378D01*
X129956583Y-31003513D01*
X129952299Y-31002543D01*
X129881390Y-30985192D01*
X129875788Y-30984844D01*
X129875785Y-30984844D01*
X129870236Y-30984500D01*
X129870238Y-30984464D01*
X129866245Y-30984225D01*
X129862053Y-30983851D01*
X129854885Y-30982360D01*
X129788675Y-30984151D01*
X129777479Y-30984454D01*
X129774072Y-30984500D01*
X128576754Y-30984500D01*
X128508633Y-30964498D01*
X128462140Y-30910842D01*
X128458772Y-30902730D01*
X128440767Y-30854703D01*
X128437615Y-30846295D01*
X128350261Y-30729739D01*
X128233705Y-30642385D01*
X128097316Y-30591255D01*
X128035134Y-30584500D01*
X126638866Y-30584500D01*
X126576684Y-30591255D01*
X126440295Y-30642385D01*
X126323739Y-30729739D01*
X126236385Y-30846295D01*
X126185255Y-30982684D01*
X126178500Y-31044866D01*
X126178500Y-32441134D01*
X126185255Y-32503316D01*
X126236385Y-32639705D01*
X126323739Y-32756261D01*
X126440295Y-32843615D01*
X126576684Y-32894745D01*
X126638866Y-32901500D01*
X128035134Y-32901500D01*
X128097316Y-32894745D01*
X128233705Y-32843615D01*
X128350261Y-32756261D01*
X128437615Y-32639705D01*
X128458772Y-32583270D01*
X128501414Y-32526505D01*
X128567976Y-32501806D01*
X128576754Y-32501500D01*
X129290500Y-32501500D01*
X129358621Y-32521502D01*
X129405114Y-32575158D01*
X129416500Y-32627500D01*
X129416500Y-40169840D01*
X129396498Y-40237961D01*
X129342842Y-40284454D01*
X129276894Y-40295103D01*
X129265536Y-40293869D01*
X129265526Y-40293868D01*
X129262134Y-40293500D01*
X128248500Y-40293500D01*
X128180379Y-40273498D01*
X128133886Y-40219842D01*
X128122500Y-40167500D01*
X128122500Y-39256712D01*
X128142502Y-39188591D01*
X128182196Y-39149568D01*
X128197125Y-39140329D01*
X128197126Y-39140328D01*
X128203348Y-39136478D01*
X128328305Y-39011303D01*
X128342143Y-38988854D01*
X128417275Y-38866968D01*
X128417276Y-38866966D01*
X128421115Y-38860738D01*
X128462374Y-38736345D01*
X128474632Y-38699389D01*
X128474632Y-38699387D01*
X128476797Y-38692861D01*
X128487500Y-38588400D01*
X128487500Y-37987600D01*
X128487106Y-37983800D01*
X128477238Y-37888692D01*
X128477237Y-37888688D01*
X128476526Y-37881834D01*
X128472337Y-37869276D01*
X128422868Y-37721002D01*
X128420550Y-37714054D01*
X128327478Y-37563652D01*
X128202303Y-37438695D01*
X128182845Y-37426701D01*
X128057968Y-37349725D01*
X128057966Y-37349724D01*
X128051738Y-37345885D01*
X127919769Y-37302113D01*
X127890389Y-37292368D01*
X127890387Y-37292368D01*
X127883861Y-37290203D01*
X127877025Y-37289503D01*
X127877022Y-37289502D01*
X127833969Y-37285091D01*
X127779400Y-37279500D01*
X126728600Y-37279500D01*
X126725354Y-37279837D01*
X126725350Y-37279837D01*
X126629692Y-37289762D01*
X126629688Y-37289763D01*
X126622834Y-37290474D01*
X126616298Y-37292655D01*
X126616296Y-37292655D01*
X126486577Y-37335933D01*
X126455054Y-37346450D01*
X126304652Y-37439522D01*
X126179695Y-37564697D01*
X126086885Y-37715262D01*
X126031203Y-37883139D01*
X126020500Y-37987600D01*
X126020500Y-38588400D01*
X126020837Y-38591646D01*
X126020837Y-38591650D01*
X126028317Y-38663736D01*
X126031474Y-38694166D01*
X126033655Y-38700702D01*
X126033655Y-38700704D01*
X126036221Y-38708395D01*
X126087450Y-38861946D01*
X126180522Y-39012348D01*
X126305697Y-39137305D01*
X126311927Y-39141145D01*
X126311928Y-39141146D01*
X126449090Y-39225694D01*
X126456262Y-39230115D01*
X126483508Y-39239152D01*
X126617611Y-39283632D01*
X126617613Y-39283632D01*
X126624139Y-39285797D01*
X126630977Y-39286498D01*
X126630979Y-39286498D01*
X126692342Y-39292785D01*
X126758070Y-39319626D01*
X126798852Y-39377741D01*
X126805500Y-39418129D01*
X126805500Y-40167500D01*
X126785498Y-40235621D01*
X126731842Y-40282114D01*
X126679500Y-40293500D01*
X125665866Y-40293500D01*
X125603684Y-40300255D01*
X125467295Y-40351385D01*
X125350739Y-40438739D01*
X125263385Y-40555295D01*
X125212255Y-40691684D01*
X125205500Y-40753866D01*
X125205500Y-42050134D01*
X125212255Y-42112316D01*
X125263385Y-42248705D01*
X125350739Y-42365261D01*
X125359483Y-42371814D01*
X125360643Y-42373366D01*
X125364269Y-42376992D01*
X125363746Y-42377515D01*
X125401995Y-42428674D01*
X125407018Y-42499493D01*
X125373008Y-42561732D01*
X124846395Y-43088345D01*
X124837615Y-43096335D01*
X124837613Y-43096337D01*
X124830920Y-43100584D01*
X124825495Y-43106362D01*
X124825494Y-43106362D01*
X124805114Y-43128065D01*
X124743901Y-43164031D01*
X124672961Y-43161194D01*
X124624168Y-43130908D01*
X124054992Y-42561732D01*
X124020966Y-42499420D01*
X124026031Y-42428605D01*
X124064253Y-42377514D01*
X124063731Y-42376992D01*
X124067354Y-42373369D01*
X124068517Y-42371814D01*
X124077261Y-42365261D01*
X124164615Y-42248705D01*
X124215745Y-42112316D01*
X124222500Y-42050134D01*
X124222500Y-40753866D01*
X124215745Y-40691684D01*
X124164615Y-40555295D01*
X124077261Y-40438739D01*
X123960705Y-40351385D01*
X123824316Y-40300255D01*
X123762134Y-40293500D01*
X122748500Y-40293500D01*
X122680379Y-40273498D01*
X122633886Y-40219842D01*
X122622500Y-40167500D01*
X122622500Y-39584950D01*
X122642502Y-39516829D01*
X122659405Y-39495855D01*
X122821855Y-39333405D01*
X122884167Y-39299379D01*
X122910950Y-39296500D01*
X123461400Y-39296500D01*
X123464646Y-39296163D01*
X123464650Y-39296163D01*
X123560308Y-39286238D01*
X123560312Y-39286237D01*
X123567166Y-39285526D01*
X123573702Y-39283345D01*
X123573704Y-39283345D01*
X123723406Y-39233400D01*
X123734946Y-39229550D01*
X123885348Y-39136478D01*
X124010305Y-39011303D01*
X124024143Y-38988854D01*
X124099275Y-38866968D01*
X124099276Y-38866966D01*
X124103115Y-38860738D01*
X124144374Y-38736345D01*
X124156632Y-38699389D01*
X124156632Y-38699387D01*
X124158797Y-38692861D01*
X124169500Y-38588400D01*
X124169500Y-37987600D01*
X124169106Y-37983800D01*
X124159238Y-37888692D01*
X124159237Y-37888688D01*
X124158526Y-37881834D01*
X124154337Y-37869276D01*
X124104868Y-37721002D01*
X124102550Y-37714054D01*
X124009478Y-37563652D01*
X123884303Y-37438695D01*
X123864845Y-37426701D01*
X123739968Y-37349725D01*
X123739966Y-37349724D01*
X123733738Y-37345885D01*
X123601769Y-37302113D01*
X123572389Y-37292368D01*
X123572387Y-37292368D01*
X123565861Y-37290203D01*
X123559025Y-37289503D01*
X123559022Y-37289502D01*
X123515969Y-37285091D01*
X123461400Y-37279500D01*
X122410600Y-37279500D01*
X122407354Y-37279837D01*
X122407350Y-37279837D01*
X122311692Y-37289762D01*
X122311688Y-37289763D01*
X122304834Y-37290474D01*
X122298298Y-37292655D01*
X122298296Y-37292655D01*
X122168577Y-37335933D01*
X122137054Y-37346450D01*
X121986652Y-37439522D01*
X121861695Y-37564697D01*
X121768885Y-37715262D01*
X121713203Y-37883139D01*
X121702500Y-37987600D01*
X121702500Y-38538050D01*
X121682498Y-38606171D01*
X121665595Y-38627145D01*
X121556395Y-38736345D01*
X121547615Y-38744335D01*
X121547613Y-38744337D01*
X121540920Y-38748584D01*
X121535494Y-38754362D01*
X121535493Y-38754363D01*
X121492396Y-38800257D01*
X121489641Y-38803099D01*
X121469073Y-38823667D01*
X121466356Y-38827170D01*
X121458648Y-38836195D01*
X121427028Y-38869867D01*
X121423207Y-38876818D01*
X121423206Y-38876819D01*
X121416697Y-38888658D01*
X121405843Y-38905182D01*
X121398018Y-38915271D01*
X121392696Y-38922132D01*
X121389549Y-38929404D01*
X121389548Y-38929406D01*
X121374346Y-38964535D01*
X121369124Y-38975195D01*
X121352627Y-39005203D01*
X121346876Y-39015663D01*
X121341541Y-39036441D01*
X121335142Y-39055131D01*
X121326620Y-39074824D01*
X121325074Y-39084584D01*
X121319394Y-39120448D01*
X121316987Y-39132071D01*
X121314867Y-39140329D01*
X121305500Y-39176812D01*
X121305500Y-39198259D01*
X121303949Y-39217969D01*
X121300594Y-39239152D01*
X121304772Y-39283345D01*
X121304941Y-39285138D01*
X121305500Y-39296996D01*
X121305500Y-40167500D01*
X121285498Y-40235621D01*
X121231842Y-40282114D01*
X121179500Y-40293500D01*
X120165866Y-40293500D01*
X120103684Y-40300255D01*
X119967295Y-40351385D01*
X119850739Y-40438739D01*
X119763385Y-40555295D01*
X119712255Y-40691684D01*
X119705500Y-40753866D01*
X119705500Y-42050134D01*
X119712255Y-42112316D01*
X119763385Y-42248705D01*
X119850739Y-42365261D01*
X119967295Y-42452615D01*
X120103684Y-42503745D01*
X120165866Y-42510500D01*
X122089050Y-42510500D01*
X122157171Y-42530502D01*
X122178145Y-42547405D01*
X123758595Y-44127855D01*
X123792621Y-44190167D01*
X123795500Y-44216950D01*
X123795500Y-46768768D01*
X123775498Y-46836889D01*
X123770326Y-46844333D01*
X123733771Y-46893108D01*
X123733770Y-46893110D01*
X123728385Y-46900295D01*
X123677255Y-47036684D01*
X123670500Y-47098866D01*
X123670500Y-48487500D01*
X123650498Y-48555621D01*
X123596842Y-48602114D01*
X123544500Y-48613500D01*
X122155866Y-48613500D01*
X122093684Y-48620255D01*
X121957295Y-48671385D01*
X121840739Y-48758739D01*
X121753385Y-48875295D01*
X121702255Y-49011684D01*
X121695500Y-49073866D01*
X121695500Y-49720134D01*
X121695869Y-49723531D01*
X121702255Y-49782316D01*
X121699826Y-49782580D01*
X121699826Y-49811420D01*
X121702255Y-49811684D01*
X121695500Y-49873866D01*
X121695500Y-50520134D01*
X121695869Y-50523531D01*
X121702255Y-50582316D01*
X121699826Y-50582580D01*
X121699826Y-50611420D01*
X121702255Y-50611684D01*
X121695500Y-50673866D01*
X121695500Y-50737050D01*
X121675498Y-50805171D01*
X121621842Y-50851664D01*
X121551568Y-50861768D01*
X121486988Y-50832274D01*
X121480405Y-50826145D01*
X120580687Y-49926427D01*
X120546661Y-49864115D01*
X120551726Y-49793300D01*
X120562517Y-49771226D01*
X120649115Y-49630738D01*
X120704797Y-49462861D01*
X120705631Y-49454727D01*
X120711067Y-49401664D01*
X120715500Y-49358400D01*
X120715500Y-48732600D01*
X120715163Y-48729350D01*
X120705238Y-48633692D01*
X120705237Y-48633688D01*
X120704526Y-48626834D01*
X120702047Y-48619402D01*
X120650868Y-48466002D01*
X120648550Y-48459054D01*
X120555478Y-48308652D01*
X120468891Y-48222216D01*
X120434812Y-48159934D01*
X120439815Y-48089114D01*
X120468736Y-48044025D01*
X120551134Y-47961483D01*
X120556305Y-47956303D01*
X120566859Y-47939181D01*
X120645275Y-47811968D01*
X120645276Y-47811966D01*
X120649115Y-47805738D01*
X120687338Y-47690500D01*
X120702632Y-47644389D01*
X120702632Y-47644387D01*
X120704797Y-47637861D01*
X120706680Y-47619489D01*
X120713544Y-47552493D01*
X120715500Y-47533400D01*
X120715500Y-46907600D01*
X120714742Y-46900295D01*
X120705238Y-46808692D01*
X120705237Y-46808688D01*
X120704526Y-46801834D01*
X120700885Y-46790919D01*
X120650868Y-46641002D01*
X120648550Y-46634054D01*
X120555478Y-46483652D01*
X120430303Y-46358695D01*
X120424072Y-46354854D01*
X120285968Y-46269725D01*
X120285966Y-46269724D01*
X120279738Y-46265885D01*
X120251830Y-46256628D01*
X120193472Y-46216197D01*
X120166236Y-46150633D01*
X120165500Y-46137036D01*
X120165500Y-45929056D01*
X120166059Y-45917200D01*
X120166059Y-45917197D01*
X120167788Y-45909463D01*
X120165562Y-45838631D01*
X120165500Y-45834673D01*
X120165500Y-45805568D01*
X120164944Y-45801168D01*
X120164012Y-45789330D01*
X120163754Y-45781100D01*
X120162562Y-45743169D01*
X120156580Y-45722579D01*
X120152570Y-45703216D01*
X120150875Y-45689796D01*
X120150875Y-45689795D01*
X120149882Y-45681936D01*
X120146966Y-45674571D01*
X120146965Y-45674567D01*
X120132874Y-45638979D01*
X120129035Y-45627769D01*
X120116145Y-45583400D01*
X120105229Y-45564943D01*
X120096534Y-45547193D01*
X120088635Y-45527244D01*
X120083564Y-45520264D01*
X120061477Y-45489864D01*
X120054960Y-45479943D01*
X120031452Y-45440193D01*
X120016291Y-45425032D01*
X120003449Y-45409997D01*
X119990841Y-45392643D01*
X119955242Y-45363193D01*
X119946463Y-45355204D01*
X118805405Y-44214145D01*
X118771379Y-44151833D01*
X118768500Y-44125050D01*
X118768500Y-39579056D01*
X118769059Y-39567200D01*
X118769059Y-39567197D01*
X118770788Y-39559463D01*
X118768562Y-39488631D01*
X118768500Y-39484673D01*
X118768500Y-39455568D01*
X118767944Y-39451168D01*
X118767012Y-39439330D01*
X118765811Y-39401094D01*
X118765562Y-39393169D01*
X118759580Y-39372579D01*
X118755570Y-39353216D01*
X118753875Y-39339796D01*
X118753875Y-39339795D01*
X118752882Y-39331936D01*
X118749966Y-39324571D01*
X118749965Y-39324567D01*
X118735874Y-39288979D01*
X118732035Y-39277769D01*
X118719145Y-39233400D01*
X118708229Y-39214943D01*
X118699534Y-39197193D01*
X118691635Y-39177244D01*
X118686976Y-39170831D01*
X118664477Y-39139864D01*
X118657960Y-39129943D01*
X118634452Y-39090193D01*
X118619291Y-39075032D01*
X118606449Y-39059997D01*
X118593841Y-39042643D01*
X118558241Y-39013192D01*
X118549462Y-39005203D01*
X113410855Y-33866595D01*
X113376829Y-33804283D01*
X113381894Y-33733468D01*
X113424441Y-33676632D01*
X113490961Y-33651821D01*
X113499950Y-33651500D01*
X120552500Y-33651500D01*
X120620621Y-33671502D01*
X120667114Y-33725158D01*
X120678500Y-33777500D01*
X120678500Y-33941134D01*
X120685255Y-34003316D01*
X120736385Y-34139705D01*
X120823739Y-34256261D01*
X120940295Y-34343615D01*
X121076684Y-34394745D01*
X121138866Y-34401500D01*
X122535134Y-34401500D01*
X122597316Y-34394745D01*
X122733705Y-34343615D01*
X122850261Y-34256261D01*
X122937615Y-34139705D01*
X122988745Y-34003316D01*
X122995500Y-33941134D01*
X122995500Y-31844866D01*
X122988745Y-31782684D01*
X122937615Y-31646295D01*
X122850261Y-31529739D01*
X122733705Y-31442385D01*
X122597316Y-31391255D01*
X122535134Y-31384500D01*
X121138866Y-31384500D01*
X121076684Y-31391255D01*
X120940295Y-31442385D01*
X120823739Y-31529739D01*
X120736385Y-31646295D01*
X120685255Y-31782684D01*
X120678500Y-31844866D01*
X120678500Y-32008500D01*
X120658498Y-32076621D01*
X120604842Y-32123114D01*
X120552500Y-32134500D01*
X112380371Y-32134500D01*
X112312250Y-32114498D01*
X112291276Y-32097595D01*
X111996609Y-31802928D01*
X111962583Y-31740616D01*
X111960782Y-31697389D01*
X111978529Y-31562590D01*
X111980156Y-31496000D01*
X111961852Y-31273361D01*
X111907431Y-31056702D01*
X111818354Y-30851840D01*
X111697014Y-30664277D01*
X111546670Y-30499051D01*
X111542619Y-30495852D01*
X111542615Y-30495848D01*
X111375414Y-30363800D01*
X111375410Y-30363798D01*
X111371359Y-30360598D01*
X111330053Y-30337796D01*
X111280084Y-30287364D01*
X111265312Y-30217921D01*
X111290428Y-30151516D01*
X111317780Y-30124909D01*
X111361603Y-30093650D01*
X111496860Y-29997173D01*
X111655096Y-29839489D01*
X111714594Y-29756689D01*
X111782435Y-29662277D01*
X111785453Y-29658077D01*
X111884430Y-29457811D01*
X111949370Y-29244069D01*
X111978529Y-29022590D01*
X111980156Y-28956000D01*
X111961852Y-28733361D01*
X111907431Y-28516702D01*
X111818354Y-28311840D01*
X111697014Y-28124277D01*
X111693532Y-28120450D01*
X111549798Y-27962488D01*
X111518746Y-27898642D01*
X111527141Y-27828143D01*
X111572317Y-27773375D01*
X111598761Y-27759706D01*
X111705297Y-27719767D01*
X111713705Y-27716615D01*
X111830261Y-27629261D01*
X111917615Y-27512705D01*
X111968745Y-27376316D01*
X111975500Y-27314134D01*
X111975500Y-25517866D01*
X111968745Y-25455684D01*
X111917615Y-25319295D01*
X111830261Y-25202739D01*
X111713705Y-25115385D01*
X111577316Y-25064255D01*
X111515134Y-25057500D01*
X109718866Y-25057500D01*
X109656684Y-25064255D01*
X109520295Y-25115385D01*
X109403739Y-25202739D01*
X109398358Y-25209919D01*
X109320326Y-25314037D01*
X109263467Y-25356552D01*
X109192648Y-25361578D01*
X109130355Y-25327518D01*
X109096365Y-25265187D01*
X109093500Y-25238472D01*
X109093500Y-24637500D01*
X109113502Y-24569379D01*
X109167158Y-24522886D01*
X109219500Y-24511500D01*
X153162500Y-24511500D01*
X153230621Y-24531502D01*
G37*
G04 #@! TD.AperFunction*
G04 #@! TA.AperFunction,Conductor*
G36*
X123612621Y-57125502D02*
G01*
X123659114Y-57179158D01*
X123670500Y-57231500D01*
X123670500Y-57295134D01*
X123677255Y-57357316D01*
X123728385Y-57493705D01*
X123815739Y-57610261D01*
X123932295Y-57697615D01*
X124068684Y-57748745D01*
X124130866Y-57755500D01*
X124254631Y-57755500D01*
X124322752Y-57775502D01*
X124369245Y-57829158D01*
X124379349Y-57899432D01*
X124349855Y-57964012D01*
X124320934Y-57988644D01*
X124272652Y-58018522D01*
X124267479Y-58023704D01*
X124267474Y-58023708D01*
X124209267Y-58082017D01*
X124146985Y-58116097D01*
X124120094Y-58119000D01*
X122833165Y-58119000D01*
X122765044Y-58098998D01*
X122726022Y-58059305D01*
X122718331Y-58046877D01*
X122718327Y-58046872D01*
X122714478Y-58040652D01*
X122589303Y-57915695D01*
X122537768Y-57883928D01*
X122444968Y-57826725D01*
X122444966Y-57826724D01*
X122438738Y-57822885D01*
X122332649Y-57787697D01*
X122277389Y-57769368D01*
X122277387Y-57769368D01*
X122270861Y-57767203D01*
X122264025Y-57766503D01*
X122264022Y-57766502D01*
X122220969Y-57762091D01*
X122166400Y-57756500D01*
X121165600Y-57756500D01*
X121162354Y-57756837D01*
X121162350Y-57756837D01*
X121066692Y-57766762D01*
X121066688Y-57766763D01*
X121059834Y-57767474D01*
X121053298Y-57769655D01*
X121053296Y-57769655D01*
X120999218Y-57787697D01*
X120892054Y-57823450D01*
X120741652Y-57916522D01*
X120616695Y-58041697D01*
X120612855Y-58047927D01*
X120612854Y-58047928D01*
X120538966Y-58167797D01*
X120523885Y-58192262D01*
X120468203Y-58360139D01*
X120457500Y-58464600D01*
X120457500Y-59090400D01*
X120457837Y-59093646D01*
X120457837Y-59093650D01*
X120466856Y-59180570D01*
X120468474Y-59196166D01*
X120470655Y-59202702D01*
X120470655Y-59202704D01*
X120487459Y-59253072D01*
X120524450Y-59363946D01*
X120617522Y-59514348D01*
X120699839Y-59596521D01*
X120704109Y-59600784D01*
X120738188Y-59663066D01*
X120733185Y-59733886D01*
X120704264Y-59778975D01*
X120691501Y-59791760D01*
X120616695Y-59866697D01*
X120612855Y-59872927D01*
X120612854Y-59872928D01*
X120528670Y-60009500D01*
X120523885Y-60017262D01*
X120476203Y-60161022D01*
X120474632Y-60165757D01*
X120444134Y-60215185D01*
X117294296Y-63365023D01*
X117231984Y-63399049D01*
X117183105Y-63399975D01*
X117115284Y-63387894D01*
X117044770Y-63387033D01*
X116897082Y-63385228D01*
X116897080Y-63385228D01*
X116891911Y-63385165D01*
X116868156Y-63388800D01*
X116788385Y-63401006D01*
X116718023Y-63391538D01*
X116680232Y-63365551D01*
X116355136Y-63040455D01*
X116321110Y-62978143D01*
X116326175Y-62907328D01*
X116336971Y-62885244D01*
X116417275Y-62754968D01*
X116417276Y-62754966D01*
X116421115Y-62748738D01*
X116459006Y-62634500D01*
X116474632Y-62587389D01*
X116474632Y-62587387D01*
X116476797Y-62580861D01*
X116487500Y-62476400D01*
X116487500Y-61475600D01*
X116476526Y-61369834D01*
X116458821Y-61316764D01*
X116422868Y-61209002D01*
X116420550Y-61202054D01*
X116327478Y-61051652D01*
X116202303Y-60926695D01*
X116196072Y-60922854D01*
X116057968Y-60837725D01*
X116057966Y-60837724D01*
X116051738Y-60833885D01*
X115891254Y-60780655D01*
X115890389Y-60780368D01*
X115890387Y-60780368D01*
X115883861Y-60778203D01*
X115877025Y-60777503D01*
X115877022Y-60777502D01*
X115833969Y-60773091D01*
X115779400Y-60767500D01*
X115153600Y-60767500D01*
X115150354Y-60767837D01*
X115150350Y-60767837D01*
X115054692Y-60777762D01*
X115054688Y-60777763D01*
X115047834Y-60778474D01*
X115041298Y-60780655D01*
X115041296Y-60780655D01*
X114935274Y-60816027D01*
X114880054Y-60834450D01*
X114729652Y-60927522D01*
X114674401Y-60982870D01*
X114643216Y-61014109D01*
X114580934Y-61048188D01*
X114510114Y-61043185D01*
X114465025Y-61014264D01*
X114382483Y-60931866D01*
X114377303Y-60926695D01*
X114371072Y-60922854D01*
X114232968Y-60837725D01*
X114232966Y-60837724D01*
X114226738Y-60833885D01*
X114066254Y-60780655D01*
X114065389Y-60780368D01*
X114065387Y-60780368D01*
X114058861Y-60778203D01*
X114052025Y-60777503D01*
X114052022Y-60777502D01*
X114008969Y-60773091D01*
X113954400Y-60767500D01*
X113328600Y-60767500D01*
X113325354Y-60767837D01*
X113325350Y-60767837D01*
X113229692Y-60777762D01*
X113229688Y-60777763D01*
X113222834Y-60778474D01*
X113216298Y-60780655D01*
X113216296Y-60780655D01*
X113110274Y-60816027D01*
X113055054Y-60834450D01*
X112904652Y-60927522D01*
X112779695Y-61052697D01*
X112775855Y-61058927D01*
X112775854Y-61058928D01*
X112737343Y-61121405D01*
X112686885Y-61203262D01*
X112677629Y-61231169D01*
X112637197Y-61289528D01*
X112571633Y-61316764D01*
X112558036Y-61317500D01*
X111877632Y-61317500D01*
X111809511Y-61297498D01*
X111771840Y-61259940D01*
X111699822Y-61148617D01*
X111699820Y-61148614D01*
X111697014Y-61144277D01*
X111546670Y-60979051D01*
X111542619Y-60975852D01*
X111542615Y-60975848D01*
X111375414Y-60843800D01*
X111375410Y-60843798D01*
X111371359Y-60840598D01*
X111330053Y-60817796D01*
X111280084Y-60767364D01*
X111265312Y-60697921D01*
X111290428Y-60631516D01*
X111317780Y-60604909D01*
X111361603Y-60573650D01*
X111496860Y-60477173D01*
X111655096Y-60319489D01*
X111674227Y-60292866D01*
X111779060Y-60146974D01*
X111835055Y-60103326D01*
X111881383Y-60094500D01*
X113051444Y-60094500D01*
X113063300Y-60095059D01*
X113063303Y-60095059D01*
X113071037Y-60096788D01*
X113141869Y-60094562D01*
X113145827Y-60094500D01*
X113174932Y-60094500D01*
X113179332Y-60093944D01*
X113191164Y-60093012D01*
X113237331Y-60091562D01*
X113257921Y-60085580D01*
X113277282Y-60081570D01*
X113284270Y-60080688D01*
X113290704Y-60079875D01*
X113290705Y-60079875D01*
X113298564Y-60078882D01*
X113305929Y-60075966D01*
X113305933Y-60075965D01*
X113341521Y-60061874D01*
X113352731Y-60058035D01*
X113397100Y-60045145D01*
X113415565Y-60034225D01*
X113433305Y-60025534D01*
X113451460Y-60018346D01*
X113497837Y-60009500D01*
X114081400Y-60009500D01*
X114084646Y-60009163D01*
X114084650Y-60009163D01*
X114180308Y-59999238D01*
X114180312Y-59999237D01*
X114187166Y-59998526D01*
X114193702Y-59996345D01*
X114193704Y-59996345D01*
X114325806Y-59952272D01*
X114354946Y-59942550D01*
X114505348Y-59849478D01*
X114591784Y-59762891D01*
X114654066Y-59728812D01*
X114724886Y-59733815D01*
X114769975Y-59762736D01*
X114833084Y-59825735D01*
X114857697Y-59850305D01*
X114863927Y-59854145D01*
X114863928Y-59854146D01*
X115001090Y-59938694D01*
X115008262Y-59943115D01*
X115052416Y-59957760D01*
X115169611Y-59996632D01*
X115169613Y-59996632D01*
X115176139Y-59998797D01*
X115182975Y-59999497D01*
X115182978Y-59999498D01*
X115226031Y-60003909D01*
X115280600Y-60009500D01*
X115906400Y-60009500D01*
X115909646Y-60009163D01*
X115909650Y-60009163D01*
X116005308Y-59999238D01*
X116005312Y-59999237D01*
X116012166Y-59998526D01*
X116018702Y-59996345D01*
X116018704Y-59996345D01*
X116150806Y-59952272D01*
X116179946Y-59942550D01*
X116330348Y-59849478D01*
X116455305Y-59724303D01*
X116502353Y-59647978D01*
X116544275Y-59579968D01*
X116544276Y-59579966D01*
X116548115Y-59573738D01*
X116557372Y-59545830D01*
X116597803Y-59487472D01*
X116663367Y-59460236D01*
X116676964Y-59459500D01*
X117392944Y-59459500D01*
X117404800Y-59460059D01*
X117404803Y-59460059D01*
X117412537Y-59461788D01*
X117483369Y-59459562D01*
X117487327Y-59459500D01*
X117516432Y-59459500D01*
X117520832Y-59458944D01*
X117532664Y-59458012D01*
X117578831Y-59456562D01*
X117599421Y-59450580D01*
X117618782Y-59446570D01*
X117625770Y-59445688D01*
X117632204Y-59444875D01*
X117632205Y-59444875D01*
X117640064Y-59443882D01*
X117647429Y-59440966D01*
X117647433Y-59440965D01*
X117683021Y-59426874D01*
X117694231Y-59423035D01*
X117738600Y-59410145D01*
X117757065Y-59399225D01*
X117774805Y-59390534D01*
X117794756Y-59382635D01*
X117832129Y-59355482D01*
X117842048Y-59348967D01*
X117874977Y-59329493D01*
X117874981Y-59329490D01*
X117881807Y-59325453D01*
X117896971Y-59310289D01*
X117912005Y-59297448D01*
X117922943Y-59289501D01*
X117929357Y-59284841D01*
X117958803Y-59249247D01*
X117966792Y-59240468D01*
X120064855Y-57142405D01*
X120127167Y-57108379D01*
X120153950Y-57105500D01*
X123544500Y-57105500D01*
X123612621Y-57125502D01*
G37*
G04 #@! TD.AperFunction*
G04 #@! TA.AperFunction,Conductor*
G36*
X133021012Y-52799726D02*
G01*
X133027595Y-52805855D01*
X133033376Y-52811636D01*
X133067402Y-52873948D01*
X133070219Y-52896772D01*
X133072438Y-52967368D01*
X133072500Y-52971327D01*
X133072500Y-53000432D01*
X133073056Y-53004832D01*
X133073988Y-53016664D01*
X133075438Y-53062831D01*
X133078716Y-53074112D01*
X133081419Y-53083416D01*
X133085430Y-53102782D01*
X133088118Y-53124064D01*
X133091034Y-53131429D01*
X133091035Y-53131433D01*
X133105126Y-53167021D01*
X133108965Y-53178231D01*
X133121855Y-53222600D01*
X133132775Y-53241065D01*
X133141466Y-53258805D01*
X133149365Y-53278756D01*
X133176516Y-53316126D01*
X133183033Y-53326048D01*
X133202507Y-53358977D01*
X133202510Y-53358981D01*
X133206547Y-53365807D01*
X133221711Y-53380971D01*
X133234551Y-53396004D01*
X133247159Y-53413357D01*
X133282272Y-53442405D01*
X133282752Y-53442802D01*
X133291532Y-53450792D01*
X134035345Y-54194605D01*
X134043335Y-54203385D01*
X134047584Y-54210080D01*
X134053362Y-54215506D01*
X134053363Y-54215507D01*
X134099257Y-54258604D01*
X134102099Y-54261359D01*
X134122667Y-54281927D01*
X134126170Y-54284644D01*
X134135195Y-54292352D01*
X134168867Y-54323972D01*
X134175818Y-54327793D01*
X134175819Y-54327794D01*
X134187658Y-54334303D01*
X134204182Y-54345157D01*
X134211890Y-54351135D01*
X134221132Y-54358304D01*
X134228404Y-54361451D01*
X134228406Y-54361452D01*
X134263535Y-54376654D01*
X134274195Y-54381876D01*
X134304923Y-54398769D01*
X134314663Y-54404124D01*
X134335441Y-54409459D01*
X134354131Y-54415858D01*
X134373824Y-54424380D01*
X134411632Y-54430368D01*
X134419448Y-54431606D01*
X134431071Y-54434013D01*
X134459072Y-54441202D01*
X134475812Y-54445500D01*
X134497259Y-54445500D01*
X134516969Y-54447051D01*
X134538152Y-54450406D01*
X134567677Y-54447615D01*
X134637378Y-54461118D01*
X134679829Y-54500415D01*
X134681125Y-54499388D01*
X134685668Y-54505120D01*
X134689522Y-54511348D01*
X134814697Y-54636305D01*
X134820927Y-54640145D01*
X134820928Y-54640146D01*
X134958090Y-54724694D01*
X134965262Y-54729115D01*
X135015370Y-54745735D01*
X135126611Y-54782632D01*
X135126613Y-54782632D01*
X135133139Y-54784797D01*
X135139975Y-54785497D01*
X135139978Y-54785498D01*
X135183031Y-54789909D01*
X135237600Y-54795500D01*
X136288400Y-54795500D01*
X136291646Y-54795163D01*
X136291650Y-54795163D01*
X136387308Y-54785238D01*
X136387312Y-54785237D01*
X136394166Y-54784526D01*
X136400702Y-54782345D01*
X136400704Y-54782345D01*
X136540722Y-54735631D01*
X136561946Y-54728550D01*
X136712348Y-54635478D01*
X136837305Y-54510303D01*
X136841146Y-54504072D01*
X136845683Y-54498327D01*
X136847013Y-54499377D01*
X136893107Y-54457892D01*
X136947597Y-54445500D01*
X138560106Y-54445500D01*
X138628227Y-54465502D01*
X138649302Y-54484592D01*
X138650203Y-54483689D01*
X138774347Y-54607617D01*
X138923671Y-54699661D01*
X138930619Y-54701966D01*
X138930620Y-54701966D01*
X139083634Y-54752719D01*
X139083636Y-54752719D01*
X139090165Y-54754885D01*
X139193769Y-54765500D01*
X139696096Y-54765500D01*
X140206230Y-54765499D01*
X140311129Y-54754616D01*
X140317660Y-54752437D01*
X140317665Y-54752436D01*
X140470578Y-54701420D01*
X140477526Y-54699102D01*
X140626689Y-54606797D01*
X140750617Y-54482653D01*
X140754462Y-54476416D01*
X140754861Y-54475910D01*
X140812777Y-54434846D01*
X140853745Y-54428000D01*
X141624944Y-54428000D01*
X141636800Y-54428559D01*
X141636803Y-54428559D01*
X141644537Y-54430288D01*
X141715369Y-54428062D01*
X141719327Y-54428000D01*
X141748432Y-54428000D01*
X141752832Y-54427444D01*
X141764664Y-54426512D01*
X141810831Y-54425062D01*
X141831421Y-54419080D01*
X141850782Y-54415070D01*
X141857770Y-54414188D01*
X141864204Y-54413375D01*
X141864205Y-54413375D01*
X141872064Y-54412382D01*
X141879429Y-54409466D01*
X141879433Y-54409465D01*
X141915021Y-54395374D01*
X141926231Y-54391535D01*
X141970600Y-54378645D01*
X141989065Y-54367725D01*
X142006805Y-54359034D01*
X142026756Y-54351135D01*
X142064129Y-54323982D01*
X142074048Y-54317467D01*
X142106977Y-54297993D01*
X142106981Y-54297990D01*
X142113807Y-54293953D01*
X142128971Y-54278789D01*
X142144005Y-54265948D01*
X142154943Y-54258001D01*
X142161357Y-54253341D01*
X142190803Y-54217747D01*
X142198792Y-54208968D01*
X142604206Y-53803554D01*
X142666518Y-53769528D01*
X142737333Y-53774593D01*
X142773615Y-53795563D01*
X142807751Y-53823802D01*
X142816532Y-53831792D01*
X143239546Y-54254805D01*
X143239547Y-54254807D01*
X143376198Y-54391458D01*
X143406200Y-54449090D01*
X143408885Y-54448371D01*
X143465880Y-54661076D01*
X143505357Y-54745735D01*
X143556618Y-54855666D01*
X143556621Y-54855671D01*
X143558944Y-54860653D01*
X143562100Y-54865160D01*
X143562101Y-54865162D01*
X143671318Y-55021139D01*
X143685251Y-55041038D01*
X143840962Y-55196749D01*
X143845471Y-55199906D01*
X143845473Y-55199908D01*
X143920241Y-55252261D01*
X144021346Y-55323056D01*
X144220924Y-55416120D01*
X144433629Y-55473115D01*
X144653000Y-55492307D01*
X144872371Y-55473115D01*
X145085076Y-55416120D01*
X145284654Y-55323056D01*
X145385759Y-55252261D01*
X145460527Y-55199908D01*
X145460529Y-55199906D01*
X145465038Y-55196749D01*
X145620749Y-55041038D01*
X145634683Y-55021139D01*
X145743899Y-54865162D01*
X145743900Y-54865160D01*
X145747056Y-54860653D01*
X145749379Y-54855671D01*
X145749382Y-54855666D01*
X145840120Y-54661076D01*
X145842193Y-54662043D01*
X145878508Y-54612756D01*
X145944837Y-54587440D01*
X145994448Y-54593454D01*
X146121611Y-54635632D01*
X146121613Y-54635632D01*
X146128139Y-54637797D01*
X146134975Y-54638497D01*
X146134978Y-54638498D01*
X146178031Y-54642909D01*
X146232600Y-54648500D01*
X146648500Y-54648500D01*
X146716621Y-54668502D01*
X146763114Y-54722158D01*
X146774500Y-54774500D01*
X146774500Y-56824629D01*
X146754498Y-56892750D01*
X146737595Y-56913724D01*
X143400724Y-60250595D01*
X143338412Y-60284621D01*
X143311629Y-60287500D01*
X143039500Y-60287500D01*
X142971379Y-60267498D01*
X142924886Y-60213842D01*
X142913500Y-60161500D01*
X142913500Y-59745600D01*
X142911388Y-59725240D01*
X142903238Y-59646692D01*
X142903237Y-59646688D01*
X142902526Y-59639834D01*
X142893473Y-59612697D01*
X142848868Y-59479002D01*
X142846550Y-59472054D01*
X142753478Y-59321652D01*
X142628303Y-59196695D01*
X142485611Y-59108738D01*
X142483968Y-59107725D01*
X142483966Y-59107724D01*
X142477738Y-59103885D01*
X142353267Y-59062600D01*
X142316389Y-59050368D01*
X142316387Y-59050368D01*
X142309861Y-59048203D01*
X142303025Y-59047503D01*
X142303022Y-59047502D01*
X142259969Y-59043091D01*
X142205400Y-59037500D01*
X141004600Y-59037500D01*
X141001354Y-59037837D01*
X141001350Y-59037837D01*
X140905692Y-59047762D01*
X140905688Y-59047763D01*
X140898834Y-59048474D01*
X140892298Y-59050655D01*
X140892296Y-59050655D01*
X140782956Y-59087134D01*
X140731054Y-59104450D01*
X140580652Y-59197522D01*
X140455695Y-59322697D01*
X140451855Y-59328927D01*
X140451854Y-59328928D01*
X140369958Y-59461788D01*
X140362885Y-59473262D01*
X140347886Y-59518483D01*
X140314918Y-59617880D01*
X140307203Y-59641139D01*
X140296500Y-59745600D01*
X140296500Y-61229629D01*
X140276498Y-61297750D01*
X140259595Y-61318724D01*
X139889724Y-61688595D01*
X139827412Y-61722621D01*
X139800629Y-61725500D01*
X132710500Y-61725500D01*
X132642379Y-61705498D01*
X132595886Y-61651842D01*
X132584500Y-61599500D01*
X132584500Y-61382311D01*
X132604502Y-61314190D01*
X132644196Y-61275167D01*
X132750348Y-61209478D01*
X132875305Y-61084303D01*
X132879146Y-61078072D01*
X132964275Y-60939968D01*
X132964276Y-60939966D01*
X132968115Y-60933738D01*
X133003979Y-60825612D01*
X133021632Y-60772389D01*
X133021632Y-60772387D01*
X133023797Y-60765861D01*
X133034500Y-60661400D01*
X133034500Y-60035600D01*
X133032636Y-60017635D01*
X133024238Y-59936692D01*
X133024237Y-59936688D01*
X133023526Y-59929834D01*
X133020531Y-59920855D01*
X132969868Y-59769002D01*
X132967550Y-59762054D01*
X132874478Y-59611652D01*
X132787891Y-59525216D01*
X132753812Y-59462934D01*
X132758815Y-59392114D01*
X132787736Y-59347025D01*
X132870134Y-59264483D01*
X132875305Y-59259303D01*
X132881503Y-59249248D01*
X132964275Y-59114968D01*
X132964276Y-59114966D01*
X132968115Y-59108738D01*
X133009576Y-58983736D01*
X133021632Y-58947389D01*
X133021632Y-58947387D01*
X133023797Y-58940861D01*
X133034500Y-58836400D01*
X133034500Y-58210600D01*
X133033000Y-58196139D01*
X133024238Y-58111692D01*
X133024237Y-58111688D01*
X133023526Y-58104834D01*
X132997980Y-58028262D01*
X132969868Y-57944002D01*
X132967550Y-57937054D01*
X132874478Y-57786652D01*
X132845480Y-57757704D01*
X132754483Y-57666866D01*
X132749303Y-57661695D01*
X132743072Y-57657854D01*
X132604968Y-57572725D01*
X132604966Y-57572724D01*
X132598738Y-57568885D01*
X132458062Y-57522225D01*
X132437389Y-57515368D01*
X132437387Y-57515368D01*
X132430861Y-57513203D01*
X132424025Y-57512503D01*
X132424022Y-57512502D01*
X132380969Y-57508091D01*
X132326400Y-57502500D01*
X131325600Y-57502500D01*
X131322354Y-57502837D01*
X131322350Y-57502837D01*
X131226692Y-57512762D01*
X131226688Y-57512763D01*
X131219834Y-57513474D01*
X131213298Y-57515655D01*
X131213296Y-57515655D01*
X131081194Y-57559728D01*
X131052054Y-57569450D01*
X131045822Y-57573306D01*
X131045823Y-57573306D01*
X130974188Y-57617635D01*
X130905736Y-57636473D01*
X130837966Y-57615312D01*
X130792395Y-57560871D01*
X130783491Y-57490435D01*
X130789903Y-57466261D01*
X130790860Y-57463710D01*
X130830745Y-57357316D01*
X130837500Y-57295134D01*
X130837500Y-55906500D01*
X130857502Y-55838379D01*
X130911158Y-55791886D01*
X130963500Y-55780500D01*
X132352134Y-55780500D01*
X132414316Y-55773745D01*
X132550705Y-55722615D01*
X132667261Y-55635261D01*
X132754615Y-55518705D01*
X132805745Y-55382316D01*
X132812500Y-55320134D01*
X132812500Y-54673866D01*
X132805745Y-54611684D01*
X132808174Y-54611420D01*
X132808174Y-54582580D01*
X132805745Y-54582316D01*
X132812131Y-54523531D01*
X132812500Y-54520134D01*
X132812500Y-53873866D01*
X132805745Y-53811684D01*
X132808174Y-53811420D01*
X132808174Y-53782580D01*
X132805745Y-53782316D01*
X132812131Y-53723531D01*
X132812500Y-53720134D01*
X132812500Y-53073866D01*
X132805745Y-53011684D01*
X132808174Y-53011420D01*
X132808174Y-52982580D01*
X132805745Y-52982316D01*
X132812131Y-52923531D01*
X132812500Y-52920134D01*
X132812500Y-52894950D01*
X132832502Y-52826829D01*
X132886158Y-52780336D01*
X132956432Y-52770232D01*
X133021012Y-52799726D01*
G37*
G04 #@! TD.AperFunction*
G04 #@! TA.AperFunction,Conductor*
G36*
X127743145Y-57515504D02*
G01*
X127754825Y-57528984D01*
X127815739Y-57610261D01*
X127932295Y-57697615D01*
X128068684Y-57748745D01*
X128130866Y-57755500D01*
X128469500Y-57755500D01*
X128537621Y-57775502D01*
X128584114Y-57829158D01*
X128595500Y-57881500D01*
X128595500Y-58351591D01*
X128575498Y-58419712D01*
X128535804Y-58458734D01*
X128445652Y-58514522D01*
X128320695Y-58639697D01*
X128316855Y-58645927D01*
X128316854Y-58645928D01*
X128235752Y-58777500D01*
X128227885Y-58790262D01*
X128225581Y-58797209D01*
X128175769Y-58947389D01*
X128172203Y-58958139D01*
X128171503Y-58964975D01*
X128171502Y-58964978D01*
X128169580Y-58983736D01*
X128161500Y-59062600D01*
X128161500Y-60063400D01*
X128161837Y-60066646D01*
X128161837Y-60066650D01*
X128171679Y-60161500D01*
X128172474Y-60169166D01*
X128174655Y-60175702D01*
X128174655Y-60175704D01*
X128196469Y-60241088D01*
X128228450Y-60336946D01*
X128321522Y-60487348D01*
X128446697Y-60612305D01*
X128452927Y-60616145D01*
X128452928Y-60616146D01*
X128590090Y-60700694D01*
X128597262Y-60705115D01*
X128632784Y-60716897D01*
X128758611Y-60758632D01*
X128758613Y-60758632D01*
X128765139Y-60760797D01*
X128771975Y-60761497D01*
X128771978Y-60761498D01*
X128815031Y-60765909D01*
X128869600Y-60771500D01*
X129495400Y-60771500D01*
X129498646Y-60771163D01*
X129498650Y-60771163D01*
X129594308Y-60761238D01*
X129594312Y-60761237D01*
X129601166Y-60760526D01*
X129607702Y-60758345D01*
X129607704Y-60758345D01*
X129739806Y-60714272D01*
X129768946Y-60704550D01*
X129919348Y-60611478D01*
X130044305Y-60486303D01*
X130137115Y-60335738D01*
X130169968Y-60236689D01*
X130190632Y-60174389D01*
X130190632Y-60174387D01*
X130192797Y-60167861D01*
X130203500Y-60063400D01*
X130203500Y-60009950D01*
X130223502Y-59941829D01*
X130240405Y-59920855D01*
X130449606Y-59711654D01*
X130511918Y-59677628D01*
X130582733Y-59682693D01*
X130639569Y-59725240D01*
X130664380Y-59791760D01*
X130658294Y-59840416D01*
X130640871Y-59892945D01*
X130628203Y-59931139D01*
X130627503Y-59937975D01*
X130627502Y-59937978D01*
X130627034Y-59942550D01*
X130617500Y-60035600D01*
X130617500Y-60661400D01*
X130617837Y-60664646D01*
X130617837Y-60664650D01*
X130627589Y-60758632D01*
X130628474Y-60767166D01*
X130630655Y-60773702D01*
X130630655Y-60773704D01*
X130650148Y-60832132D01*
X130684450Y-60934946D01*
X130777522Y-61085348D01*
X130902697Y-61210305D01*
X130908927Y-61214145D01*
X130908928Y-61214146D01*
X131007616Y-61274978D01*
X131055109Y-61327750D01*
X131067500Y-61382238D01*
X131067500Y-61599500D01*
X131047498Y-61667621D01*
X130993842Y-61714114D01*
X130941500Y-61725500D01*
X123556371Y-61725500D01*
X123488250Y-61705498D01*
X123467276Y-61688595D01*
X122900086Y-61121405D01*
X122866060Y-61059093D01*
X122863837Y-61019467D01*
X122868307Y-60975848D01*
X122874500Y-60915400D01*
X122874500Y-60289600D01*
X122874163Y-60286350D01*
X122864238Y-60190692D01*
X122864237Y-60190688D01*
X122863526Y-60183834D01*
X122858633Y-60169166D01*
X122812987Y-60032350D01*
X122807550Y-60016054D01*
X122714478Y-59865652D01*
X122627891Y-59779216D01*
X122593812Y-59716934D01*
X122598815Y-59646114D01*
X122627736Y-59601025D01*
X122710134Y-59518483D01*
X122715305Y-59513303D01*
X122726042Y-59495884D01*
X122778813Y-59448391D01*
X122833302Y-59436000D01*
X123982187Y-59436000D01*
X124050308Y-59456002D01*
X124089331Y-59495697D01*
X124104074Y-59519521D01*
X124148522Y-59591348D01*
X124273697Y-59716305D01*
X124279927Y-59720145D01*
X124279928Y-59720146D01*
X124417090Y-59804694D01*
X124424262Y-59809115D01*
X124474370Y-59825735D01*
X124585611Y-59862632D01*
X124585613Y-59862632D01*
X124592139Y-59864797D01*
X124598975Y-59865497D01*
X124598978Y-59865498D01*
X124642031Y-59869909D01*
X124696600Y-59875500D01*
X125747400Y-59875500D01*
X125750646Y-59875163D01*
X125750650Y-59875163D01*
X125846308Y-59865238D01*
X125846312Y-59865237D01*
X125853166Y-59864526D01*
X125859702Y-59862345D01*
X125859704Y-59862345D01*
X125999722Y-59815631D01*
X126020946Y-59808550D01*
X126171348Y-59715478D01*
X126296305Y-59590303D01*
X126323718Y-59545831D01*
X126385275Y-59445968D01*
X126385276Y-59445966D01*
X126389115Y-59439738D01*
X126419866Y-59347025D01*
X126442632Y-59278389D01*
X126442632Y-59278387D01*
X126444797Y-59271861D01*
X126455500Y-59167400D01*
X126455500Y-58566600D01*
X126455163Y-58563350D01*
X126445238Y-58467692D01*
X126445237Y-58467688D01*
X126444526Y-58460834D01*
X126419640Y-58386240D01*
X126390868Y-58300002D01*
X126388550Y-58293054D01*
X126295478Y-58142652D01*
X126170303Y-58017695D01*
X126162090Y-58012632D01*
X126123362Y-57988760D01*
X126075869Y-57935988D01*
X126064445Y-57865916D01*
X126092719Y-57800792D01*
X126151713Y-57761293D01*
X126189478Y-57755500D01*
X126377134Y-57755500D01*
X126404548Y-57752522D01*
X126439316Y-57748745D01*
X126439580Y-57751174D01*
X126468420Y-57751174D01*
X126468684Y-57748745D01*
X126503453Y-57752522D01*
X126530866Y-57755500D01*
X127177134Y-57755500D01*
X127239316Y-57748745D01*
X127375705Y-57697615D01*
X127492261Y-57610261D01*
X127553174Y-57528985D01*
X127610033Y-57486470D01*
X127680852Y-57481444D01*
X127743145Y-57515504D01*
G37*
G04 #@! TD.AperFunction*
G04 #@! TA.AperFunction,Conductor*
G36*
X119478431Y-55675502D02*
G01*
X119524924Y-55729158D01*
X119535028Y-55799432D01*
X119505534Y-55864012D01*
X119484374Y-55883434D01*
X119471867Y-55892521D01*
X119461952Y-55899033D01*
X119429023Y-55918507D01*
X119429019Y-55918510D01*
X119422193Y-55922547D01*
X119407029Y-55937711D01*
X119391996Y-55950551D01*
X119374643Y-55963159D01*
X119345198Y-55998752D01*
X119337208Y-56007532D01*
X117239145Y-58105595D01*
X117176833Y-58139621D01*
X117150050Y-58142500D01*
X116676857Y-58142500D01*
X116608736Y-58122498D01*
X116562243Y-58068842D01*
X116557334Y-58056378D01*
X116549870Y-58034005D01*
X116549867Y-58033998D01*
X116547550Y-58027054D01*
X116454478Y-57876652D01*
X116447288Y-57869474D01*
X116344838Y-57767203D01*
X116329303Y-57751695D01*
X116253534Y-57704990D01*
X116184968Y-57662725D01*
X116184966Y-57662724D01*
X116178738Y-57658885D01*
X116062398Y-57620297D01*
X116017389Y-57605368D01*
X116017387Y-57605368D01*
X116010861Y-57603203D01*
X116004025Y-57602503D01*
X116004022Y-57602502D01*
X115960831Y-57598077D01*
X115906400Y-57592500D01*
X115280600Y-57592500D01*
X115277354Y-57592837D01*
X115277350Y-57592837D01*
X115181692Y-57602762D01*
X115181688Y-57602763D01*
X115174834Y-57603474D01*
X115168298Y-57605655D01*
X115168296Y-57605655D01*
X115139351Y-57615312D01*
X115007054Y-57659450D01*
X114856652Y-57752522D01*
X114780150Y-57829158D01*
X114770216Y-57839109D01*
X114707934Y-57873188D01*
X114637114Y-57868185D01*
X114592025Y-57839264D01*
X114509483Y-57756866D01*
X114504303Y-57751695D01*
X114428534Y-57704990D01*
X114359968Y-57662725D01*
X114359966Y-57662724D01*
X114353738Y-57658885D01*
X114237398Y-57620297D01*
X114192389Y-57605368D01*
X114192387Y-57605368D01*
X114185861Y-57603203D01*
X114179025Y-57602503D01*
X114179022Y-57602502D01*
X114135831Y-57598077D01*
X114081400Y-57592500D01*
X113455600Y-57592500D01*
X113452354Y-57592837D01*
X113452350Y-57592837D01*
X113356692Y-57602762D01*
X113356688Y-57602763D01*
X113349834Y-57603474D01*
X113343298Y-57605655D01*
X113343296Y-57605655D01*
X113314351Y-57615312D01*
X113182054Y-57659450D01*
X113031652Y-57752522D01*
X112906695Y-57877697D01*
X112902855Y-57883927D01*
X112902854Y-57883928D01*
X112818223Y-58021225D01*
X112813885Y-58028262D01*
X112803589Y-58059305D01*
X112767604Y-58167797D01*
X112758203Y-58196139D01*
X112757503Y-58202975D01*
X112757502Y-58202978D01*
X112755004Y-58227364D01*
X112747500Y-58300600D01*
X112747500Y-58651500D01*
X112727498Y-58719621D01*
X112673842Y-58766114D01*
X112621500Y-58777500D01*
X111877632Y-58777500D01*
X111809511Y-58757498D01*
X111771840Y-58719940D01*
X111699822Y-58608617D01*
X111699820Y-58608614D01*
X111697014Y-58604277D01*
X111546670Y-58439051D01*
X111542619Y-58435852D01*
X111542615Y-58435848D01*
X111375414Y-58303800D01*
X111375410Y-58303798D01*
X111371359Y-58300598D01*
X111330053Y-58277796D01*
X111280084Y-58227364D01*
X111265312Y-58157921D01*
X111290428Y-58091516D01*
X111317780Y-58064909D01*
X111370851Y-58027054D01*
X111496860Y-57937173D01*
X111655096Y-57779489D01*
X111662163Y-57769655D01*
X111779060Y-57606974D01*
X111835055Y-57563326D01*
X111881383Y-57554500D01*
X112265944Y-57554500D01*
X112277800Y-57555059D01*
X112277803Y-57555059D01*
X112285537Y-57556788D01*
X112356369Y-57554562D01*
X112360327Y-57554500D01*
X112389432Y-57554500D01*
X112393832Y-57553944D01*
X112405664Y-57553012D01*
X112451831Y-57551562D01*
X112472421Y-57545580D01*
X112491782Y-57541570D01*
X112498770Y-57540688D01*
X112505204Y-57539875D01*
X112505205Y-57539875D01*
X112513064Y-57538882D01*
X112520429Y-57535966D01*
X112520433Y-57535965D01*
X112556021Y-57521874D01*
X112567231Y-57518035D01*
X112611600Y-57505145D01*
X112630065Y-57494225D01*
X112647805Y-57485534D01*
X112667756Y-57477635D01*
X112705129Y-57450482D01*
X112715048Y-57443967D01*
X112747977Y-57424493D01*
X112747981Y-57424490D01*
X112754807Y-57420453D01*
X112769971Y-57405289D01*
X112785005Y-57392448D01*
X112795943Y-57384501D01*
X112802357Y-57379841D01*
X112831803Y-57344247D01*
X112839792Y-57335468D01*
X113303855Y-56871405D01*
X113366167Y-56837379D01*
X113392950Y-56834500D01*
X113930900Y-56834500D01*
X113934146Y-56834163D01*
X113934150Y-56834163D01*
X114029808Y-56824238D01*
X114029812Y-56824237D01*
X114036666Y-56823526D01*
X114043202Y-56821345D01*
X114043204Y-56821345D01*
X114175306Y-56777272D01*
X114204446Y-56767550D01*
X114354848Y-56674478D01*
X114441284Y-56587891D01*
X114503566Y-56553812D01*
X114574386Y-56558815D01*
X114619476Y-56587736D01*
X114707197Y-56675305D01*
X114713427Y-56679145D01*
X114713428Y-56679146D01*
X114850590Y-56763694D01*
X114857762Y-56768115D01*
X114937505Y-56794564D01*
X115019111Y-56821632D01*
X115019113Y-56821632D01*
X115025639Y-56823797D01*
X115032475Y-56824497D01*
X115032478Y-56824498D01*
X115075531Y-56828909D01*
X115130100Y-56834500D01*
X115755900Y-56834500D01*
X115759146Y-56834163D01*
X115759150Y-56834163D01*
X115854808Y-56824238D01*
X115854812Y-56824237D01*
X115861666Y-56823526D01*
X115868202Y-56821345D01*
X115868204Y-56821345D01*
X116000306Y-56777272D01*
X116029446Y-56767550D01*
X116179848Y-56674478D01*
X116304805Y-56549303D01*
X116369878Y-56443736D01*
X116393775Y-56404968D01*
X116393776Y-56404966D01*
X116397615Y-56398738D01*
X116453297Y-56230861D01*
X116464000Y-56126400D01*
X116464000Y-55781500D01*
X116484002Y-55713379D01*
X116537658Y-55666886D01*
X116590000Y-55655500D01*
X119410310Y-55655500D01*
X119478431Y-55675502D01*
G37*
G04 #@! TD.AperFunction*
G04 #@! TA.AperFunction,Conductor*
G36*
X114574386Y-53129815D02*
G01*
X114619475Y-53158736D01*
X114666433Y-53205612D01*
X114707197Y-53246305D01*
X114713427Y-53250145D01*
X114713428Y-53250146D01*
X114850590Y-53334694D01*
X114857762Y-53339115D01*
X114937505Y-53365564D01*
X115019111Y-53392632D01*
X115019113Y-53392632D01*
X115025639Y-53394797D01*
X115032475Y-53395497D01*
X115032478Y-53395498D01*
X115075531Y-53399909D01*
X115130100Y-53405500D01*
X115668050Y-53405500D01*
X115736171Y-53425502D01*
X115757145Y-53442405D01*
X116438145Y-54123405D01*
X116472171Y-54185717D01*
X116467106Y-54256532D01*
X116424559Y-54313368D01*
X116358039Y-54338179D01*
X116349050Y-54338500D01*
X116154056Y-54338500D01*
X116142200Y-54337941D01*
X116142197Y-54337941D01*
X116134463Y-54336212D01*
X116063631Y-54338438D01*
X116059673Y-54338500D01*
X116030568Y-54338500D01*
X116026168Y-54339056D01*
X116014336Y-54339988D01*
X115968169Y-54341438D01*
X115947579Y-54347420D01*
X115928218Y-54351430D01*
X115921230Y-54352312D01*
X115914796Y-54353125D01*
X115914795Y-54353125D01*
X115906936Y-54354118D01*
X115899571Y-54357034D01*
X115899567Y-54357035D01*
X115863979Y-54371126D01*
X115852769Y-54374965D01*
X115808400Y-54387855D01*
X115789943Y-54398771D01*
X115772179Y-54407472D01*
X115769184Y-54408658D01*
X115722815Y-54417500D01*
X115130100Y-54417500D01*
X115126854Y-54417837D01*
X115126850Y-54417837D01*
X115031192Y-54427762D01*
X115031188Y-54427763D01*
X115024334Y-54428474D01*
X115017798Y-54430655D01*
X115017796Y-54430655D01*
X114926488Y-54461118D01*
X114856554Y-54484450D01*
X114706152Y-54577522D01*
X114623932Y-54659886D01*
X114619716Y-54664109D01*
X114557434Y-54698188D01*
X114486614Y-54693185D01*
X114441525Y-54664264D01*
X114364567Y-54587440D01*
X114353803Y-54576695D01*
X114347572Y-54572854D01*
X114209468Y-54487725D01*
X114209466Y-54487724D01*
X114203238Y-54483885D01*
X114123495Y-54457436D01*
X114041889Y-54430368D01*
X114041887Y-54430368D01*
X114035361Y-54428203D01*
X114028525Y-54427503D01*
X114028522Y-54427502D01*
X113980578Y-54422590D01*
X113930900Y-54417500D01*
X113305100Y-54417500D01*
X113301854Y-54417837D01*
X113301850Y-54417837D01*
X113206192Y-54427762D01*
X113206188Y-54427763D01*
X113199334Y-54428474D01*
X113192798Y-54430655D01*
X113192796Y-54430655D01*
X113101488Y-54461118D01*
X113031554Y-54484450D01*
X112881152Y-54577522D01*
X112875979Y-54582704D01*
X112820982Y-54637797D01*
X112756195Y-54702697D01*
X112752355Y-54708927D01*
X112752354Y-54708928D01*
X112705156Y-54785498D01*
X112663385Y-54853262D01*
X112607703Y-55021139D01*
X112597000Y-55125600D01*
X112597000Y-55663550D01*
X112576998Y-55731671D01*
X112560095Y-55752646D01*
X112112144Y-56200596D01*
X112049832Y-56234621D01*
X112023049Y-56237500D01*
X111877632Y-56237500D01*
X111809511Y-56217498D01*
X111771840Y-56179940D01*
X111699822Y-56068617D01*
X111699820Y-56068614D01*
X111697014Y-56064277D01*
X111546670Y-55899051D01*
X111542619Y-55895852D01*
X111542615Y-55895848D01*
X111375414Y-55763800D01*
X111375410Y-55763798D01*
X111371359Y-55760598D01*
X111330053Y-55737796D01*
X111280084Y-55687364D01*
X111265312Y-55617921D01*
X111290428Y-55551516D01*
X111317780Y-55524909D01*
X111364158Y-55491828D01*
X111496860Y-55397173D01*
X111515603Y-55378496D01*
X111651435Y-55243137D01*
X111655096Y-55239489D01*
X111714594Y-55156689D01*
X111782435Y-55062277D01*
X111785453Y-55058077D01*
X111807979Y-55012500D01*
X111882136Y-54862453D01*
X111882137Y-54862451D01*
X111884430Y-54857811D01*
X111931557Y-54702697D01*
X111947865Y-54649023D01*
X111947865Y-54649021D01*
X111949370Y-54644069D01*
X111978529Y-54422590D01*
X111978645Y-54417837D01*
X111980074Y-54359365D01*
X111980074Y-54359361D01*
X111980156Y-54356000D01*
X111961852Y-54133361D01*
X111940919Y-54050022D01*
X111943723Y-53979081D01*
X111974028Y-53930232D01*
X112680960Y-53223300D01*
X112743272Y-53189274D01*
X112814087Y-53194339D01*
X112859071Y-53223221D01*
X112877011Y-53241129D01*
X112877016Y-53241133D01*
X112882197Y-53246305D01*
X112888427Y-53250145D01*
X112888428Y-53250146D01*
X113025590Y-53334694D01*
X113032762Y-53339115D01*
X113112505Y-53365564D01*
X113194111Y-53392632D01*
X113194113Y-53392632D01*
X113200639Y-53394797D01*
X113207475Y-53395497D01*
X113207478Y-53395498D01*
X113250531Y-53399909D01*
X113305100Y-53405500D01*
X113930900Y-53405500D01*
X113934146Y-53405163D01*
X113934150Y-53405163D01*
X114029808Y-53395238D01*
X114029812Y-53395237D01*
X114036666Y-53394526D01*
X114043202Y-53392345D01*
X114043204Y-53392345D01*
X114175306Y-53348272D01*
X114204446Y-53338550D01*
X114354848Y-53245478D01*
X114441284Y-53158891D01*
X114503566Y-53124812D01*
X114574386Y-53129815D01*
G37*
G04 #@! TD.AperFunction*
G04 #@! TA.AperFunction,Conductor*
G36*
X128543145Y-49015504D02*
G01*
X128554825Y-49028984D01*
X128615739Y-49110261D01*
X128732295Y-49197615D01*
X128868684Y-49248745D01*
X128930866Y-49255500D01*
X129577134Y-49255500D01*
X129639316Y-49248745D01*
X129639580Y-49251174D01*
X129668420Y-49251174D01*
X129668684Y-49248745D01*
X129730866Y-49255500D01*
X130069500Y-49255500D01*
X130137621Y-49275502D01*
X130184114Y-49329158D01*
X130195500Y-49381500D01*
X130195500Y-49720134D01*
X130195869Y-49723531D01*
X130202255Y-49782316D01*
X130199826Y-49782580D01*
X130199826Y-49811420D01*
X130202255Y-49811684D01*
X130195500Y-49873866D01*
X130195500Y-50520134D01*
X130195869Y-50523531D01*
X130202255Y-50582316D01*
X130199826Y-50582580D01*
X130199826Y-50611420D01*
X130202255Y-50611684D01*
X130195500Y-50673866D01*
X130195500Y-51320134D01*
X130195869Y-51323531D01*
X130202255Y-51382316D01*
X130199826Y-51382580D01*
X130199826Y-51411420D01*
X130202255Y-51411684D01*
X130195500Y-51473866D01*
X130195500Y-52120134D01*
X130195869Y-52123531D01*
X130202255Y-52182316D01*
X130199826Y-52182580D01*
X130199826Y-52211420D01*
X130202255Y-52211684D01*
X130197850Y-52252238D01*
X130195500Y-52273866D01*
X130195500Y-52920134D01*
X130195869Y-52923531D01*
X130202255Y-52982316D01*
X130199826Y-52982580D01*
X130199826Y-53011420D01*
X130202255Y-53011684D01*
X130195500Y-53073866D01*
X130195500Y-53720134D01*
X130195869Y-53723531D01*
X130202255Y-53782316D01*
X130199826Y-53782580D01*
X130199826Y-53811420D01*
X130202255Y-53811684D01*
X130195500Y-53873866D01*
X130195500Y-54520134D01*
X130195869Y-54523531D01*
X130202255Y-54582316D01*
X130199826Y-54582580D01*
X130199826Y-54611420D01*
X130202255Y-54611684D01*
X130195500Y-54673866D01*
X130195500Y-55012500D01*
X130175498Y-55080621D01*
X130121842Y-55127114D01*
X130069500Y-55138500D01*
X129730866Y-55138500D01*
X129668684Y-55145255D01*
X129668420Y-55142826D01*
X129639580Y-55142826D01*
X129639316Y-55145255D01*
X129580531Y-55138869D01*
X129577134Y-55138500D01*
X128930866Y-55138500D01*
X128868684Y-55145255D01*
X128868420Y-55142826D01*
X128839580Y-55142826D01*
X128839316Y-55145255D01*
X128780531Y-55138869D01*
X128777134Y-55138500D01*
X128130866Y-55138500D01*
X128068684Y-55145255D01*
X127932295Y-55196385D01*
X127815739Y-55283739D01*
X127786273Y-55323056D01*
X127754826Y-55365015D01*
X127697967Y-55407530D01*
X127627148Y-55412556D01*
X127564855Y-55378496D01*
X127553174Y-55365015D01*
X127521727Y-55323056D01*
X127492261Y-55283739D01*
X127375705Y-55196385D01*
X127239316Y-55145255D01*
X127177134Y-55138500D01*
X126530866Y-55138500D01*
X126468684Y-55145255D01*
X126468420Y-55142826D01*
X126439580Y-55142826D01*
X126439316Y-55145255D01*
X126380531Y-55138869D01*
X126377134Y-55138500D01*
X125730866Y-55138500D01*
X125668684Y-55145255D01*
X125668420Y-55142826D01*
X125639580Y-55142826D01*
X125639316Y-55145255D01*
X125580531Y-55138869D01*
X125577134Y-55138500D01*
X124930866Y-55138500D01*
X124868684Y-55145255D01*
X124868420Y-55142826D01*
X124839580Y-55142826D01*
X124839316Y-55145255D01*
X124780531Y-55138869D01*
X124777134Y-55138500D01*
X124438500Y-55138500D01*
X124370379Y-55118498D01*
X124323886Y-55064842D01*
X124312500Y-55012500D01*
X124312500Y-54673866D01*
X124305745Y-54611684D01*
X124308174Y-54611420D01*
X124308174Y-54582580D01*
X124305745Y-54582316D01*
X124312131Y-54523531D01*
X124312500Y-54520134D01*
X124312500Y-53873866D01*
X124305745Y-53811684D01*
X124308174Y-53811420D01*
X124308174Y-53782580D01*
X124305745Y-53782316D01*
X124312131Y-53723531D01*
X124312500Y-53720134D01*
X124312500Y-53073866D01*
X124305745Y-53011684D01*
X124308174Y-53011420D01*
X124308174Y-52982580D01*
X124305745Y-52982316D01*
X124312131Y-52923531D01*
X124312500Y-52920134D01*
X124312500Y-52273866D01*
X124310151Y-52252238D01*
X124305745Y-52211684D01*
X124308174Y-52211420D01*
X124308174Y-52182580D01*
X124305745Y-52182316D01*
X124312131Y-52123531D01*
X124312500Y-52120134D01*
X124312500Y-51473866D01*
X124305745Y-51411684D01*
X124308174Y-51411420D01*
X124308174Y-51382580D01*
X124305745Y-51382316D01*
X124312131Y-51323531D01*
X124312500Y-51320134D01*
X124312500Y-50673866D01*
X124305745Y-50611684D01*
X124308174Y-50611420D01*
X124308174Y-50582580D01*
X124305745Y-50582316D01*
X124312131Y-50523531D01*
X124312500Y-50520134D01*
X124312500Y-49873866D01*
X124305745Y-49811684D01*
X124308174Y-49811420D01*
X124308174Y-49782580D01*
X124305745Y-49782316D01*
X124312131Y-49723531D01*
X124312500Y-49720134D01*
X124312500Y-49381500D01*
X124332502Y-49313379D01*
X124386158Y-49266886D01*
X124438500Y-49255500D01*
X124777134Y-49255500D01*
X124839316Y-49248745D01*
X124839580Y-49251174D01*
X124868420Y-49251174D01*
X124868684Y-49248745D01*
X124930866Y-49255500D01*
X125577134Y-49255500D01*
X125639316Y-49248745D01*
X125639580Y-49251174D01*
X125668420Y-49251174D01*
X125668684Y-49248745D01*
X125730866Y-49255500D01*
X126377134Y-49255500D01*
X126439316Y-49248745D01*
X126575705Y-49197615D01*
X126692261Y-49110261D01*
X126753174Y-49028985D01*
X126810033Y-48986470D01*
X126880852Y-48981444D01*
X126943145Y-49015504D01*
X126954825Y-49028984D01*
X127015739Y-49110261D01*
X127132295Y-49197615D01*
X127268684Y-49248745D01*
X127330866Y-49255500D01*
X127977134Y-49255500D01*
X128039316Y-49248745D01*
X128175705Y-49197615D01*
X128292261Y-49110261D01*
X128353174Y-49028985D01*
X128410033Y-48986470D01*
X128480852Y-48981444D01*
X128543145Y-49015504D01*
G37*
G04 #@! TD.AperFunction*
G04 #@! TA.AperFunction,Conductor*
G36*
X114574386Y-49827815D02*
G01*
X114619475Y-49856736D01*
X114640058Y-49877283D01*
X114707197Y-49944305D01*
X114713427Y-49948145D01*
X114713428Y-49948146D01*
X114850590Y-50032694D01*
X114857762Y-50037115D01*
X114876126Y-50043206D01*
X115019111Y-50090632D01*
X115019113Y-50090632D01*
X115025639Y-50092797D01*
X115032475Y-50093497D01*
X115032478Y-50093498D01*
X115075531Y-50097909D01*
X115130100Y-50103500D01*
X115668050Y-50103500D01*
X115736171Y-50123502D01*
X115757145Y-50140405D01*
X117432741Y-51816000D01*
X118940146Y-53323405D01*
X118974172Y-53385717D01*
X118969107Y-53456532D01*
X118926560Y-53513368D01*
X118860040Y-53538179D01*
X118851051Y-53538500D01*
X117767950Y-53538500D01*
X117699829Y-53518498D01*
X117678855Y-53501595D01*
X116500905Y-52323645D01*
X116466879Y-52261333D01*
X116464000Y-52234550D01*
X116464000Y-51696600D01*
X116462087Y-51678158D01*
X116453738Y-51597692D01*
X116453737Y-51597688D01*
X116453026Y-51590834D01*
X116397050Y-51423054D01*
X116303978Y-51272652D01*
X116178803Y-51147695D01*
X116170667Y-51142680D01*
X116034468Y-51058725D01*
X116034466Y-51058724D01*
X116028238Y-51054885D01*
X115867754Y-51001655D01*
X115866889Y-51001368D01*
X115866887Y-51001368D01*
X115860361Y-50999203D01*
X115853525Y-50998503D01*
X115853522Y-50998502D01*
X115810469Y-50994091D01*
X115755900Y-50988500D01*
X115130100Y-50988500D01*
X115126854Y-50988837D01*
X115126850Y-50988837D01*
X115031192Y-50998762D01*
X115031188Y-50998763D01*
X115024334Y-50999474D01*
X115017798Y-51001655D01*
X115017796Y-51001655D01*
X114899146Y-51041240D01*
X114856554Y-51055450D01*
X114706152Y-51148522D01*
X114636013Y-51218784D01*
X114619716Y-51235109D01*
X114557434Y-51269188D01*
X114486614Y-51264185D01*
X114441525Y-51235264D01*
X114358983Y-51152866D01*
X114353803Y-51147695D01*
X114345667Y-51142680D01*
X114209468Y-51058725D01*
X114209466Y-51058724D01*
X114203238Y-51054885D01*
X114042754Y-51001655D01*
X114041889Y-51001368D01*
X114041887Y-51001368D01*
X114035361Y-50999203D01*
X114028525Y-50998503D01*
X114028522Y-50998502D01*
X113985469Y-50994091D01*
X113930900Y-50988500D01*
X113305100Y-50988500D01*
X113301854Y-50988837D01*
X113301850Y-50988837D01*
X113206192Y-50998762D01*
X113206188Y-50998763D01*
X113199334Y-50999474D01*
X113192798Y-51001655D01*
X113192796Y-51001655D01*
X113074146Y-51041240D01*
X113031554Y-51055450D01*
X112881152Y-51148522D01*
X112756195Y-51273697D01*
X112752355Y-51279927D01*
X112752354Y-51279928D01*
X112669888Y-51413713D01*
X112663385Y-51424262D01*
X112658470Y-51439081D01*
X112640286Y-51493903D01*
X112599855Y-51552263D01*
X112555846Y-51575233D01*
X112512400Y-51587855D01*
X112493935Y-51598775D01*
X112476195Y-51607466D01*
X112456244Y-51615365D01*
X112418874Y-51642516D01*
X112408952Y-51649033D01*
X112376023Y-51668507D01*
X112376019Y-51668510D01*
X112369193Y-51672547D01*
X112354029Y-51687711D01*
X112338996Y-51700551D01*
X112321643Y-51713159D01*
X112314514Y-51721777D01*
X112292198Y-51748752D01*
X112284208Y-51757532D01*
X112191191Y-51850549D01*
X112128879Y-51884575D01*
X112058064Y-51879510D01*
X112001228Y-51836963D01*
X111976520Y-51771778D01*
X111961852Y-51593361D01*
X111940919Y-51510022D01*
X111943723Y-51439081D01*
X111974028Y-51390232D01*
X113223855Y-50140405D01*
X113286167Y-50106379D01*
X113312950Y-50103500D01*
X113930900Y-50103500D01*
X113934146Y-50103163D01*
X113934150Y-50103163D01*
X114029808Y-50093238D01*
X114029812Y-50093237D01*
X114036666Y-50092526D01*
X114043202Y-50090345D01*
X114043204Y-50090345D01*
X114184496Y-50043206D01*
X114204446Y-50036550D01*
X114354848Y-49943478D01*
X114441284Y-49856891D01*
X114503566Y-49822812D01*
X114574386Y-49827815D01*
G37*
G04 #@! TD.AperFunction*
G04 #@! TA.AperFunction,Conductor*
G36*
X138433621Y-51832502D02*
G01*
X138480114Y-51886158D01*
X138491500Y-51938499D01*
X138491501Y-52075211D01*
X138491501Y-52188230D01*
X138502384Y-52293129D01*
X138504563Y-52299660D01*
X138504564Y-52299665D01*
X138553235Y-52445550D01*
X138557898Y-52459526D01*
X138650203Y-52608689D01*
X138774347Y-52732617D01*
X138777270Y-52734419D01*
X138817408Y-52791029D01*
X138820642Y-52861952D01*
X138785018Y-52923364D01*
X138778622Y-52928916D01*
X138773311Y-52932203D01*
X138649383Y-53056347D01*
X138645543Y-53062577D01*
X138645542Y-53062578D01*
X138641821Y-53068615D01*
X138589049Y-53116109D01*
X138534561Y-53128500D01*
X136947428Y-53128500D01*
X136879307Y-53108498D01*
X136845505Y-53074112D01*
X136844875Y-53074612D01*
X136840332Y-53068880D01*
X136836478Y-53062652D01*
X136828719Y-53054906D01*
X136716483Y-52942866D01*
X136711303Y-52937695D01*
X136705072Y-52933854D01*
X136566968Y-52848725D01*
X136566966Y-52848724D01*
X136560738Y-52844885D01*
X136431588Y-52802048D01*
X136399389Y-52791368D01*
X136399387Y-52791368D01*
X136392861Y-52789203D01*
X136386025Y-52788503D01*
X136386022Y-52788502D01*
X136342969Y-52784091D01*
X136288400Y-52778500D01*
X135237600Y-52778500D01*
X135234354Y-52778837D01*
X135234350Y-52778837D01*
X135138692Y-52788762D01*
X135138688Y-52788763D01*
X135131834Y-52789474D01*
X135125298Y-52791655D01*
X135125296Y-52791655D01*
X135026366Y-52824661D01*
X134964054Y-52845450D01*
X134813652Y-52938522D01*
X134808484Y-52943699D01*
X134806353Y-52945388D01*
X134740543Y-52972024D01*
X134670779Y-52958852D01*
X134638996Y-52935736D01*
X134428625Y-52725365D01*
X134394599Y-52663053D01*
X134391782Y-52640229D01*
X134389562Y-52569612D01*
X134389500Y-52565653D01*
X134389500Y-52536568D01*
X134388946Y-52532179D01*
X134388013Y-52520337D01*
X134387804Y-52513671D01*
X134386562Y-52474169D01*
X134380580Y-52453579D01*
X134376570Y-52434216D01*
X134376115Y-52430616D01*
X134374656Y-52419062D01*
X134374656Y-52419059D01*
X134373882Y-52412933D01*
X134374870Y-52412808D01*
X134377059Y-52348884D01*
X134417464Y-52290507D01*
X134483017Y-52263242D01*
X134496669Y-52262500D01*
X134909400Y-52262500D01*
X134912646Y-52262163D01*
X134912650Y-52262163D01*
X135008308Y-52252238D01*
X135008312Y-52252237D01*
X135015166Y-52251526D01*
X135021702Y-52249345D01*
X135021704Y-52249345D01*
X135153806Y-52205272D01*
X135182946Y-52195550D01*
X135333348Y-52102478D01*
X135419784Y-52015891D01*
X135482066Y-51981812D01*
X135552886Y-51986815D01*
X135597976Y-52015736D01*
X135685697Y-52103305D01*
X135691927Y-52107145D01*
X135691928Y-52107146D01*
X135829090Y-52191694D01*
X135836262Y-52196115D01*
X135916005Y-52222564D01*
X135997611Y-52249632D01*
X135997613Y-52249632D01*
X136004139Y-52251797D01*
X136010975Y-52252497D01*
X136010978Y-52252498D01*
X136054031Y-52256909D01*
X136108600Y-52262500D01*
X136734400Y-52262500D01*
X136737646Y-52262163D01*
X136737650Y-52262163D01*
X136833308Y-52252238D01*
X136833312Y-52252237D01*
X136840166Y-52251526D01*
X136846702Y-52249345D01*
X136846704Y-52249345D01*
X136978806Y-52205272D01*
X137007946Y-52195550D01*
X137158348Y-52102478D01*
X137283305Y-51977303D01*
X137347979Y-51872383D01*
X137400750Y-51824891D01*
X137455238Y-51812500D01*
X138365500Y-51812500D01*
X138433621Y-51832502D01*
G37*
G04 #@! TD.AperFunction*
G04 #@! TA.AperFunction,Conductor*
G36*
X113414621Y-39794502D02*
G01*
X113461114Y-39848158D01*
X113472500Y-39900500D01*
X113472500Y-40167400D01*
X113472837Y-40170646D01*
X113472837Y-40170650D01*
X113478415Y-40224406D01*
X113483474Y-40273166D01*
X113485655Y-40279702D01*
X113485655Y-40279704D01*
X113508518Y-40348233D01*
X113539450Y-40440946D01*
X113632522Y-40591348D01*
X113637704Y-40596521D01*
X113719109Y-40677784D01*
X113753188Y-40740066D01*
X113748185Y-40810886D01*
X113719264Y-40855975D01*
X113651580Y-40923777D01*
X113631695Y-40943697D01*
X113538885Y-41094262D01*
X113515699Y-41164167D01*
X113499849Y-41211954D01*
X113483203Y-41262139D01*
X113472500Y-41366600D01*
X113472500Y-41992400D01*
X113472837Y-41995646D01*
X113472837Y-41995650D01*
X113481338Y-42077577D01*
X113483474Y-42098166D01*
X113485655Y-42104702D01*
X113485655Y-42104704D01*
X113514843Y-42192191D01*
X113539450Y-42265946D01*
X113632522Y-42416348D01*
X113637704Y-42421521D01*
X113663457Y-42447229D01*
X113757697Y-42541305D01*
X113887117Y-42621081D01*
X113934609Y-42673852D01*
X113947000Y-42728340D01*
X113947000Y-45435444D01*
X113946441Y-45447300D01*
X113944712Y-45455037D01*
X113945877Y-45492102D01*
X113946938Y-45525869D01*
X113947000Y-45529827D01*
X113947000Y-45558932D01*
X113947556Y-45563332D01*
X113948488Y-45575164D01*
X113949938Y-45621331D01*
X113955066Y-45638979D01*
X113955919Y-45641916D01*
X113959930Y-45661282D01*
X113962618Y-45682564D01*
X113965534Y-45689929D01*
X113965535Y-45689933D01*
X113979626Y-45725521D01*
X113983465Y-45736731D01*
X113996355Y-45781100D01*
X114007275Y-45799565D01*
X114015966Y-45817305D01*
X114023865Y-45837256D01*
X114051016Y-45874626D01*
X114057533Y-45884548D01*
X114077007Y-45917477D01*
X114077010Y-45917481D01*
X114081047Y-45924307D01*
X114096211Y-45939471D01*
X114109051Y-45954504D01*
X114121659Y-45971857D01*
X114157252Y-46001302D01*
X114166032Y-46009292D01*
X115628145Y-47471405D01*
X115662171Y-47533717D01*
X115657106Y-47604532D01*
X115614559Y-47661368D01*
X115548039Y-47686179D01*
X115539050Y-47686500D01*
X115130100Y-47686500D01*
X115126854Y-47686837D01*
X115126850Y-47686837D01*
X115031192Y-47696762D01*
X115031188Y-47696763D01*
X115024334Y-47697474D01*
X115017798Y-47699655D01*
X115017796Y-47699655D01*
X114934620Y-47727405D01*
X114856554Y-47753450D01*
X114706152Y-47846522D01*
X114642272Y-47910514D01*
X114619716Y-47933109D01*
X114557434Y-47967188D01*
X114486614Y-47962185D01*
X114441525Y-47933264D01*
X114358983Y-47850866D01*
X114353803Y-47845695D01*
X114247504Y-47780171D01*
X114209468Y-47756725D01*
X114209466Y-47756724D01*
X114203238Y-47752885D01*
X114123495Y-47726436D01*
X114041889Y-47699368D01*
X114041887Y-47699368D01*
X114035361Y-47697203D01*
X114028525Y-47696503D01*
X114028522Y-47696502D01*
X113985263Y-47692070D01*
X113930900Y-47686500D01*
X113305100Y-47686500D01*
X113301854Y-47686837D01*
X113301850Y-47686837D01*
X113206192Y-47696762D01*
X113206188Y-47696763D01*
X113199334Y-47697474D01*
X113192798Y-47699655D01*
X113192796Y-47699655D01*
X113109620Y-47727405D01*
X113031554Y-47753450D01*
X112881152Y-47846522D01*
X112756195Y-47971697D01*
X112752355Y-47977927D01*
X112752354Y-47977928D01*
X112687791Y-48082669D01*
X112663385Y-48122262D01*
X112638781Y-48196440D01*
X112611381Y-48279051D01*
X112607703Y-48290139D01*
X112607003Y-48296975D01*
X112607002Y-48296978D01*
X112606336Y-48303479D01*
X112597000Y-48394600D01*
X112597000Y-48852550D01*
X112576998Y-48920671D01*
X112560095Y-48941645D01*
X112191191Y-49310549D01*
X112128879Y-49344575D01*
X112058064Y-49339510D01*
X112001228Y-49296963D01*
X111976520Y-49231778D01*
X111973971Y-49200767D01*
X111961852Y-49053361D01*
X111907431Y-48836702D01*
X111818354Y-48631840D01*
X111724976Y-48487500D01*
X111699822Y-48448617D01*
X111699820Y-48448614D01*
X111697014Y-48444277D01*
X111546670Y-48279051D01*
X111542619Y-48275852D01*
X111542615Y-48275848D01*
X111375414Y-48143800D01*
X111375410Y-48143798D01*
X111371359Y-48140598D01*
X111330053Y-48117796D01*
X111280084Y-48067364D01*
X111265312Y-47997921D01*
X111290428Y-47931516D01*
X111317780Y-47904909D01*
X111361603Y-47873650D01*
X111496860Y-47777173D01*
X111655096Y-47619489D01*
X111680332Y-47584370D01*
X111782435Y-47442277D01*
X111785453Y-47438077D01*
X111792521Y-47423777D01*
X111882136Y-47242453D01*
X111882137Y-47242451D01*
X111884430Y-47237811D01*
X111932531Y-47079494D01*
X111947865Y-47029023D01*
X111947865Y-47029021D01*
X111949370Y-47024069D01*
X111978529Y-46802590D01*
X111979121Y-46778358D01*
X111980074Y-46739365D01*
X111980074Y-46739361D01*
X111980156Y-46736000D01*
X111961852Y-46513361D01*
X111907431Y-46296702D01*
X111818354Y-46091840D01*
X111744968Y-45978402D01*
X111699822Y-45908617D01*
X111699820Y-45908614D01*
X111697014Y-45904277D01*
X111546670Y-45739051D01*
X111542619Y-45735852D01*
X111542615Y-45735848D01*
X111375414Y-45603800D01*
X111375410Y-45603798D01*
X111371359Y-45600598D01*
X111330053Y-45577796D01*
X111280084Y-45527364D01*
X111265312Y-45457921D01*
X111290428Y-45391516D01*
X111317780Y-45364909D01*
X111382512Y-45318736D01*
X111496860Y-45237173D01*
X111501570Y-45232480D01*
X111580477Y-45153848D01*
X111655096Y-45079489D01*
X111682742Y-45041016D01*
X111782435Y-44902277D01*
X111785453Y-44898077D01*
X111798356Y-44871971D01*
X111882136Y-44702453D01*
X111882137Y-44702451D01*
X111884430Y-44697811D01*
X111930582Y-44545906D01*
X111947865Y-44489023D01*
X111947865Y-44489021D01*
X111949370Y-44484069D01*
X111978529Y-44262590D01*
X111980156Y-44196000D01*
X111961852Y-43973361D01*
X111907431Y-43756702D01*
X111818354Y-43551840D01*
X111697014Y-43364277D01*
X111546670Y-43199051D01*
X111542619Y-43195852D01*
X111542615Y-43195848D01*
X111375414Y-43063800D01*
X111375410Y-43063798D01*
X111371359Y-43060598D01*
X111330053Y-43037796D01*
X111280084Y-42987364D01*
X111265312Y-42917921D01*
X111290428Y-42851516D01*
X111317780Y-42824909D01*
X111369461Y-42788045D01*
X111496860Y-42697173D01*
X111502122Y-42691930D01*
X111651435Y-42543137D01*
X111655096Y-42539489D01*
X111677079Y-42508897D01*
X111782435Y-42362277D01*
X111785453Y-42358077D01*
X111794758Y-42339251D01*
X111882136Y-42162453D01*
X111882137Y-42162451D01*
X111884430Y-42157811D01*
X111926053Y-42020814D01*
X111947865Y-41949023D01*
X111947865Y-41949021D01*
X111949370Y-41944069D01*
X111978529Y-41722590D01*
X111980156Y-41656000D01*
X111961852Y-41433361D01*
X111907431Y-41216702D01*
X111818354Y-41011840D01*
X111764575Y-40928711D01*
X111699822Y-40828617D01*
X111699820Y-40828614D01*
X111697014Y-40824277D01*
X111546670Y-40659051D01*
X111542619Y-40655852D01*
X111542615Y-40655848D01*
X111375414Y-40523800D01*
X111375410Y-40523798D01*
X111371359Y-40520598D01*
X111330053Y-40497796D01*
X111280084Y-40447364D01*
X111265312Y-40377921D01*
X111290428Y-40311516D01*
X111317780Y-40284909D01*
X111386879Y-40235621D01*
X111496860Y-40157173D01*
X111655096Y-39999489D01*
X111714594Y-39916689D01*
X111779060Y-39826974D01*
X111835055Y-39783326D01*
X111881383Y-39774500D01*
X113346500Y-39774500D01*
X113414621Y-39794502D01*
G37*
G04 #@! TD.AperFunction*
G04 #@! TA.AperFunction,Conductor*
G36*
X109302012Y-34445125D02*
G01*
X109336243Y-34492945D01*
X109364381Y-34562240D01*
X109400266Y-34650616D01*
X109402965Y-34655020D01*
X109480741Y-34781939D01*
X109516987Y-34841088D01*
X109663250Y-35009938D01*
X109835126Y-35152632D01*
X110028000Y-35265338D01*
X110032825Y-35267180D01*
X110032826Y-35267181D01*
X110082561Y-35286173D01*
X110236692Y-35345030D01*
X110241760Y-35346061D01*
X110241763Y-35346062D01*
X110302048Y-35358327D01*
X110455597Y-35389567D01*
X110460772Y-35389757D01*
X110460774Y-35389757D01*
X110673673Y-35397564D01*
X110673677Y-35397564D01*
X110678837Y-35397753D01*
X110683957Y-35397097D01*
X110683959Y-35397097D01*
X110895288Y-35370025D01*
X110895289Y-35370025D01*
X110900416Y-35369368D01*
X110917502Y-35364242D01*
X111109429Y-35306661D01*
X111109434Y-35306659D01*
X111114384Y-35305174D01*
X111314994Y-35206896D01*
X111496860Y-35077173D01*
X111655096Y-34919489D01*
X111714594Y-34836689D01*
X111779060Y-34746974D01*
X111835055Y-34703326D01*
X111881383Y-34694500D01*
X112324050Y-34694500D01*
X112392171Y-34714502D01*
X112413145Y-34731405D01*
X117414595Y-39732854D01*
X117448621Y-39795166D01*
X117451500Y-39821949D01*
X117451500Y-44367944D01*
X117450941Y-44379800D01*
X117449212Y-44387537D01*
X117449461Y-44395459D01*
X117451438Y-44458369D01*
X117451500Y-44462327D01*
X117451500Y-44491432D01*
X117452056Y-44495832D01*
X117452988Y-44507664D01*
X117454438Y-44553831D01*
X117456650Y-44561444D01*
X117456650Y-44561445D01*
X117460419Y-44574416D01*
X117464430Y-44593782D01*
X117467118Y-44615064D01*
X117470034Y-44622429D01*
X117470035Y-44622433D01*
X117484126Y-44658021D01*
X117487965Y-44669231D01*
X117500855Y-44713600D01*
X117511775Y-44732065D01*
X117520466Y-44749805D01*
X117528365Y-44769756D01*
X117555516Y-44807126D01*
X117562033Y-44817048D01*
X117581507Y-44849977D01*
X117581510Y-44849981D01*
X117585547Y-44856807D01*
X117600711Y-44871971D01*
X117613551Y-44887004D01*
X117626159Y-44904357D01*
X117649656Y-44923795D01*
X117661752Y-44933802D01*
X117670532Y-44941792D01*
X118785496Y-46056756D01*
X118819522Y-46119068D01*
X118814457Y-46189883D01*
X118771910Y-46246719D01*
X118746226Y-46260165D01*
X118746630Y-46261027D01*
X118740004Y-46264131D01*
X118733054Y-46266450D01*
X118582652Y-46359522D01*
X118457695Y-46484697D01*
X118453855Y-46490927D01*
X118453854Y-46490928D01*
X118414056Y-46555493D01*
X118364885Y-46635262D01*
X118359745Y-46650760D01*
X118315638Y-46783739D01*
X118309203Y-46803139D01*
X118298500Y-46907600D01*
X118298500Y-47533400D01*
X118298837Y-47536646D01*
X118298837Y-47536650D01*
X118307811Y-47623137D01*
X118309474Y-47639166D01*
X118311655Y-47645702D01*
X118311655Y-47645704D01*
X118328837Y-47697203D01*
X118365450Y-47806946D01*
X118458522Y-47957348D01*
X118533944Y-48032638D01*
X118545109Y-48043784D01*
X118579188Y-48106066D01*
X118574185Y-48176886D01*
X118545264Y-48221975D01*
X118472342Y-48295024D01*
X118410059Y-48329103D01*
X118339239Y-48324100D01*
X118282367Y-48281603D01*
X118274716Y-48270146D01*
X118257491Y-48241021D01*
X118253453Y-48234193D01*
X118238289Y-48219029D01*
X118225448Y-48203995D01*
X118217501Y-48193057D01*
X118212841Y-48186643D01*
X118177247Y-48157197D01*
X118168468Y-48149208D01*
X115300905Y-45281645D01*
X115266879Y-45219333D01*
X115264000Y-45192550D01*
X115264000Y-42788045D01*
X115284002Y-42719924D01*
X115337658Y-42673431D01*
X115350116Y-42668524D01*
X115454946Y-42633550D01*
X115605348Y-42540478D01*
X115646335Y-42499420D01*
X115725134Y-42420483D01*
X115730305Y-42415303D01*
X115753599Y-42377514D01*
X115819275Y-42270968D01*
X115819276Y-42270966D01*
X115823115Y-42264738D01*
X115878797Y-42096861D01*
X115889500Y-41992400D01*
X115889500Y-41366600D01*
X115878526Y-41260834D01*
X115865477Y-41221720D01*
X115824868Y-41100002D01*
X115822550Y-41093054D01*
X115729478Y-40942652D01*
X115642891Y-40856216D01*
X115608812Y-40793934D01*
X115613815Y-40723114D01*
X115642736Y-40678025D01*
X115725134Y-40595483D01*
X115730305Y-40590303D01*
X115782510Y-40505612D01*
X115819275Y-40445968D01*
X115819276Y-40445966D01*
X115823115Y-40439738D01*
X115878797Y-40271861D01*
X115889500Y-40167400D01*
X115889500Y-39541600D01*
X115887791Y-39525125D01*
X115879238Y-39442692D01*
X115879237Y-39442688D01*
X115878526Y-39435834D01*
X115822550Y-39268054D01*
X115729478Y-39117652D01*
X115604303Y-38992695D01*
X115567456Y-38969982D01*
X115459968Y-38903725D01*
X115459966Y-38903724D01*
X115453738Y-38899885D01*
X115335713Y-38860738D01*
X115292389Y-38846368D01*
X115292387Y-38846368D01*
X115285861Y-38844203D01*
X115279025Y-38843503D01*
X115279022Y-38843502D01*
X115235969Y-38839091D01*
X115181400Y-38833500D01*
X114643450Y-38833500D01*
X114575329Y-38813498D01*
X114554355Y-38796595D01*
X114466155Y-38708395D01*
X114458165Y-38699615D01*
X114458163Y-38699613D01*
X114453916Y-38692920D01*
X114446571Y-38686022D01*
X114402243Y-38644396D01*
X114399401Y-38641641D01*
X114378833Y-38621073D01*
X114375326Y-38618353D01*
X114366304Y-38610647D01*
X114332633Y-38579028D01*
X114325681Y-38575206D01*
X114313842Y-38568697D01*
X114297318Y-38557843D01*
X114286632Y-38549555D01*
X114280368Y-38544696D01*
X114273096Y-38541549D01*
X114273094Y-38541548D01*
X114237965Y-38526346D01*
X114227305Y-38521124D01*
X114193784Y-38502695D01*
X114193782Y-38502694D01*
X114186837Y-38498876D01*
X114166059Y-38493541D01*
X114147369Y-38487142D01*
X114127676Y-38478620D01*
X114082052Y-38471394D01*
X114070429Y-38468987D01*
X114042428Y-38461798D01*
X114025688Y-38457500D01*
X114004241Y-38457500D01*
X113984531Y-38455949D01*
X113971177Y-38453834D01*
X113963348Y-38452594D01*
X113917359Y-38456941D01*
X113905504Y-38457500D01*
X111877632Y-38457500D01*
X111809511Y-38437498D01*
X111771840Y-38399940D01*
X111699822Y-38288617D01*
X111699820Y-38288614D01*
X111697014Y-38284277D01*
X111546670Y-38119051D01*
X111542619Y-38115852D01*
X111542615Y-38115848D01*
X111375414Y-37983800D01*
X111375410Y-37983798D01*
X111371359Y-37980598D01*
X111175789Y-37872638D01*
X111170920Y-37870914D01*
X111170916Y-37870912D01*
X110970087Y-37799795D01*
X110970083Y-37799794D01*
X110965212Y-37798069D01*
X110960119Y-37797162D01*
X110960116Y-37797161D01*
X110750373Y-37759800D01*
X110750367Y-37759799D01*
X110745284Y-37758894D01*
X110671452Y-37757992D01*
X110527081Y-37756228D01*
X110527079Y-37756228D01*
X110521911Y-37756165D01*
X110301091Y-37789955D01*
X110088756Y-37859357D01*
X109890607Y-37962507D01*
X109886474Y-37965610D01*
X109886471Y-37965612D01*
X109852836Y-37990866D01*
X109711965Y-38096635D01*
X109557629Y-38258138D01*
X109431743Y-38442680D01*
X109413599Y-38481769D01*
X109346118Y-38627145D01*
X109337688Y-38645305D01*
X109337182Y-38647128D01*
X109295460Y-38703385D01*
X109229051Y-38728493D01*
X109159610Y-38713713D01*
X109109184Y-38663736D01*
X109093500Y-38602856D01*
X109093500Y-34540349D01*
X109113502Y-34472228D01*
X109167158Y-34425735D01*
X109237432Y-34415631D01*
X109302012Y-34445125D01*
G37*
G04 #@! TD.AperFunction*
G04 #@! TA.AperFunction,Conductor*
G36*
X132781364Y-44353238D02*
G01*
X132829948Y-44405008D01*
X132843500Y-44461854D01*
X132843500Y-45284824D01*
X132823498Y-45352945D01*
X132783807Y-45391965D01*
X132716652Y-45433522D01*
X132711479Y-45438704D01*
X132702898Y-45447300D01*
X132591695Y-45558697D01*
X132587855Y-45564927D01*
X132587854Y-45564928D01*
X132510800Y-45689933D01*
X132498885Y-45709262D01*
X132488517Y-45740521D01*
X132456432Y-45837256D01*
X132443203Y-45877139D01*
X132432500Y-45981600D01*
X132432500Y-46554905D01*
X132412498Y-46623026D01*
X132395595Y-46644000D01*
X131111747Y-47927848D01*
X131103461Y-47935388D01*
X131096982Y-47939500D01*
X131091554Y-47945280D01*
X131091553Y-47945281D01*
X131055350Y-47983833D01*
X130994138Y-48019799D01*
X130923198Y-48016962D01*
X130865054Y-47976222D01*
X130838165Y-47910514D01*
X130837500Y-47897581D01*
X130837500Y-47098866D01*
X130830745Y-47036684D01*
X130779615Y-46900295D01*
X130692261Y-46783739D01*
X130575705Y-46696385D01*
X130439316Y-46645255D01*
X130377134Y-46638500D01*
X129730866Y-46638500D01*
X129668684Y-46645255D01*
X129668420Y-46642826D01*
X129639580Y-46642826D01*
X129639316Y-46645255D01*
X129580531Y-46638869D01*
X129577134Y-46638500D01*
X128930866Y-46638500D01*
X128868684Y-46645255D01*
X128732295Y-46696385D01*
X128615936Y-46783591D01*
X128549431Y-46808439D01*
X128480048Y-46793386D01*
X128429818Y-46743212D01*
X128414688Y-46673846D01*
X128415805Y-46663816D01*
X128416098Y-46661887D01*
X128417199Y-46654651D01*
X128416366Y-46644402D01*
X128412915Y-46601982D01*
X128412500Y-46591767D01*
X128412500Y-46583707D01*
X128409211Y-46555493D01*
X128408778Y-46551118D01*
X128403454Y-46485661D01*
X128403453Y-46485658D01*
X128402860Y-46478363D01*
X128403840Y-46478283D01*
X128409536Y-46414013D01*
X128437731Y-46370950D01*
X129378456Y-45430225D01*
X129440768Y-45396199D01*
X129480394Y-45393976D01*
X129495268Y-45395500D01*
X130092732Y-45395500D01*
X130095978Y-45395163D01*
X130095982Y-45395163D01*
X130131129Y-45391516D01*
X130195019Y-45384887D01*
X130254900Y-45364909D01*
X130350324Y-45333073D01*
X130350326Y-45333072D01*
X130357268Y-45330756D01*
X130382339Y-45315242D01*
X130496485Y-45244606D01*
X130502713Y-45240752D01*
X130509561Y-45233892D01*
X130510971Y-45232480D01*
X130513599Y-45231042D01*
X130513623Y-45231023D01*
X130513626Y-45231027D01*
X130573254Y-45198402D01*
X130600142Y-45195500D01*
X130755930Y-45195500D01*
X130774880Y-45196933D01*
X130789115Y-45199099D01*
X130789119Y-45199099D01*
X130796349Y-45200199D01*
X130803641Y-45199606D01*
X130803644Y-45199606D01*
X130849018Y-45195915D01*
X130859233Y-45195500D01*
X130867293Y-45195500D01*
X130880583Y-45193951D01*
X130895507Y-45192211D01*
X130899882Y-45191778D01*
X130965339Y-45186454D01*
X130965342Y-45186453D01*
X130972637Y-45185860D01*
X130979601Y-45183604D01*
X130985560Y-45182413D01*
X130991415Y-45181029D01*
X130998681Y-45180182D01*
X131067327Y-45155265D01*
X131071455Y-45153848D01*
X131133936Y-45133607D01*
X131133938Y-45133606D01*
X131140899Y-45131351D01*
X131147154Y-45127555D01*
X131152628Y-45125049D01*
X131158058Y-45122330D01*
X131164937Y-45119833D01*
X131190171Y-45103289D01*
X131225976Y-45079814D01*
X131229680Y-45077477D01*
X131292107Y-45039595D01*
X131300484Y-45032197D01*
X131300508Y-45032224D01*
X131303500Y-45029571D01*
X131306733Y-45026868D01*
X131312852Y-45022856D01*
X131366128Y-44966617D01*
X131368506Y-44964175D01*
X131736163Y-44596518D01*
X131798475Y-44562492D01*
X131836239Y-44560092D01*
X131947524Y-44569828D01*
X131947525Y-44569828D01*
X131953000Y-44570307D01*
X132172371Y-44551115D01*
X132385076Y-44494120D01*
X132584654Y-44401056D01*
X132589163Y-44397899D01*
X132645229Y-44358641D01*
X132712503Y-44335953D01*
X132781364Y-44353238D01*
G37*
G04 #@! TD.AperFunction*
G04 #@! TA.AperFunction,Conductor*
G36*
X129346776Y-42521426D02*
G01*
X129398791Y-42569747D01*
X129416500Y-42634160D01*
X129416500Y-43390477D01*
X129396498Y-43458598D01*
X129342842Y-43505091D01*
X129330395Y-43509994D01*
X129230732Y-43543244D01*
X129085287Y-43633248D01*
X128984654Y-43734057D01*
X128956978Y-43754035D01*
X128957064Y-43754167D01*
X128957063Y-43754167D01*
X128896010Y-43794195D01*
X128892337Y-43796513D01*
X128829893Y-43834405D01*
X128821517Y-43841802D01*
X128821493Y-43841775D01*
X128818499Y-43844430D01*
X128815268Y-43847132D01*
X128809148Y-43851144D01*
X128804116Y-43856456D01*
X128755872Y-43907383D01*
X128753494Y-43909825D01*
X127429427Y-45233892D01*
X127367115Y-45267918D01*
X127296300Y-45262853D01*
X127251315Y-45233971D01*
X127251236Y-45233892D01*
X127199702Y-45182448D01*
X127126902Y-45137573D01*
X127060331Y-45096538D01*
X127060329Y-45096537D01*
X127054101Y-45092698D01*
X126891757Y-45038851D01*
X126884920Y-45038151D01*
X126884918Y-45038150D01*
X126843599Y-45033917D01*
X126790732Y-45028500D01*
X126193268Y-45028500D01*
X126190022Y-45028837D01*
X126190018Y-45028837D01*
X126157637Y-45032197D01*
X126090981Y-45039113D01*
X126078374Y-45043319D01*
X126007426Y-45045903D01*
X125946343Y-45009719D01*
X125914518Y-44946255D01*
X125912500Y-44923795D01*
X125912500Y-43936950D01*
X125932502Y-43868829D01*
X125949405Y-43847855D01*
X127249855Y-42547405D01*
X127312167Y-42513379D01*
X127338950Y-42510500D01*
X129262134Y-42510500D01*
X129265526Y-42510132D01*
X129265536Y-42510131D01*
X129276894Y-42508897D01*
X129346776Y-42521426D01*
G37*
G04 #@! TD.AperFunction*
M02*
