G04 #@! TF.GenerationSoftware,KiCad,Pcbnew,(6.0.9)*
G04 #@! TF.CreationDate,2022-12-23T15:26:11+01:00*
G04 #@! TF.ProjectId,mainboard,6d61696e-626f-4617-9264-2e6b69636164,rev?*
G04 #@! TF.SameCoordinates,Original*
G04 #@! TF.FileFunction,Copper,L2,Bot*
G04 #@! TF.FilePolarity,Positive*
%FSLAX46Y46*%
G04 Gerber Fmt 4.6, Leading zero omitted, Abs format (unit mm)*
G04 Created by KiCad (PCBNEW (6.0.9)) date 2022-12-23 15:26:11*
%MOMM*%
%LPD*%
G01*
G04 APERTURE LIST*
G04 #@! TA.AperFunction,ComponentPad*
%ADD10C,2.000000*%
G04 #@! TD*
G04 #@! TA.AperFunction,ComponentPad*
%ADD11C,5.400000*%
G04 #@! TD*
G04 #@! TA.AperFunction,ComponentPad*
%ADD12R,1.700000X1.700000*%
G04 #@! TD*
G04 #@! TA.AperFunction,ComponentPad*
%ADD13O,1.700000X1.700000*%
G04 #@! TD*
G04 #@! TA.AperFunction,ViaPad*
%ADD14C,0.800000*%
G04 #@! TD*
G04 #@! TA.AperFunction,ViaPad*
%ADD15C,1.500000*%
G04 #@! TD*
G04 #@! TA.AperFunction,Conductor*
%ADD16C,0.300000*%
G04 #@! TD*
G04 #@! TA.AperFunction,Conductor*
%ADD17C,0.500000*%
G04 #@! TD*
G04 APERTURE END LIST*
D10*
X144943000Y-40692000D03*
X144943000Y-47192000D03*
X149443000Y-40692000D03*
X149443000Y-47192000D03*
D11*
X118110000Y-28448000D03*
D12*
X114447000Y-64745000D03*
D13*
X116987000Y-64745000D03*
D12*
X151623000Y-34245000D03*
D13*
X149083000Y-34245000D03*
X146543000Y-34245000D03*
D11*
X149987000Y-62230000D03*
D12*
X110617000Y-26416000D03*
D13*
X110617000Y-28956000D03*
X110617000Y-31496000D03*
X110617000Y-34036000D03*
X110617000Y-36576000D03*
X110617000Y-39116000D03*
X110617000Y-41656000D03*
X110617000Y-44196000D03*
X110617000Y-46736000D03*
X110617000Y-49276000D03*
X110617000Y-51816000D03*
X110617000Y-54356000D03*
X110617000Y-56896000D03*
X110617000Y-59436000D03*
X110617000Y-61976000D03*
X110617000Y-64516000D03*
D12*
X141463000Y-34499000D03*
D13*
X138923000Y-34499000D03*
X136383000Y-34499000D03*
D14*
X137541000Y-52578000D03*
X126619000Y-61087000D03*
D15*
X144653000Y-54229000D03*
D14*
X127889000Y-44196000D03*
X131826000Y-45339000D03*
D15*
X135001000Y-43307000D03*
X131953000Y-43307000D03*
X134366000Y-48641000D03*
D14*
X138049000Y-43688000D03*
X140081000Y-58293000D03*
X119253000Y-59436000D03*
X114681000Y-53848000D03*
X117348000Y-56515000D03*
X117602000Y-52578000D03*
X113665000Y-44196000D03*
D16*
X144653000Y-54229000D02*
X144943000Y-53939000D01*
X144943000Y-53939000D02*
X144943000Y-47192000D01*
D17*
X135001000Y-43307000D02*
X131953000Y-43307000D01*
D16*
X134493000Y-48514000D02*
X134366000Y-48641000D01*
X135636000Y-48514000D02*
X134493000Y-48514000D01*
X146543000Y-35956000D02*
X146543000Y-34245000D01*
X145415000Y-37084000D02*
X146543000Y-35956000D01*
X139700000Y-37846000D02*
X140462000Y-37084000D01*
X139700000Y-47879000D02*
X139700000Y-37846000D01*
X139065000Y-48514000D02*
X139700000Y-47879000D01*
X135636000Y-48514000D02*
X139065000Y-48514000D01*
X140462000Y-37084000D02*
X145415000Y-37084000D01*
G04 #@! TA.AperFunction,Conductor*
G36*
X153230621Y-24531502D02*
G01*
X153277114Y-24585158D01*
X153288500Y-24637500D01*
X153288500Y-66929500D01*
X153268498Y-66997621D01*
X153214842Y-67044114D01*
X153162500Y-67055500D01*
X109219500Y-67055500D01*
X109151379Y-67035498D01*
X109104886Y-66981842D01*
X109093500Y-66929500D01*
X109093500Y-64711695D01*
X115624251Y-64711695D01*
X115624548Y-64716848D01*
X115624548Y-64716851D01*
X115630011Y-64811590D01*
X115637110Y-64934715D01*
X115638247Y-64939761D01*
X115638248Y-64939767D01*
X115658119Y-65027939D01*
X115686222Y-65152639D01*
X115770266Y-65359616D01*
X115886987Y-65550088D01*
X116033250Y-65718938D01*
X116205126Y-65861632D01*
X116398000Y-65974338D01*
X116606692Y-66054030D01*
X116611760Y-66055061D01*
X116611763Y-66055062D01*
X116719017Y-66076883D01*
X116825597Y-66098567D01*
X116830772Y-66098757D01*
X116830774Y-66098757D01*
X117043673Y-66106564D01*
X117043677Y-66106564D01*
X117048837Y-66106753D01*
X117053957Y-66106097D01*
X117053959Y-66106097D01*
X117265288Y-66079025D01*
X117265289Y-66079025D01*
X117270416Y-66078368D01*
X117275366Y-66076883D01*
X117479429Y-66015661D01*
X117479434Y-66015659D01*
X117484384Y-66014174D01*
X117684994Y-65915896D01*
X117866860Y-65786173D01*
X118025096Y-65628489D01*
X118084594Y-65545689D01*
X118152435Y-65451277D01*
X118155453Y-65447077D01*
X118254430Y-65246811D01*
X118319370Y-65033069D01*
X118348529Y-64811590D01*
X118350156Y-64745000D01*
X118331852Y-64522361D01*
X118277431Y-64305702D01*
X118188354Y-64100840D01*
X118067014Y-63913277D01*
X117916670Y-63748051D01*
X117912619Y-63744852D01*
X117912615Y-63744848D01*
X117745414Y-63612800D01*
X117745410Y-63612798D01*
X117741359Y-63609598D01*
X117545789Y-63501638D01*
X117540920Y-63499914D01*
X117540916Y-63499912D01*
X117340087Y-63428795D01*
X117340083Y-63428794D01*
X117335212Y-63427069D01*
X117330119Y-63426162D01*
X117330116Y-63426161D01*
X117120373Y-63388800D01*
X117120367Y-63388799D01*
X117115284Y-63387894D01*
X117041452Y-63386992D01*
X116897081Y-63385228D01*
X116897079Y-63385228D01*
X116891911Y-63385165D01*
X116671091Y-63418955D01*
X116458756Y-63488357D01*
X116260607Y-63591507D01*
X116256474Y-63594610D01*
X116256471Y-63594612D01*
X116232247Y-63612800D01*
X116081965Y-63725635D01*
X115927629Y-63887138D01*
X115801743Y-64071680D01*
X115707688Y-64274305D01*
X115647989Y-64489570D01*
X115624251Y-64711695D01*
X109093500Y-64711695D01*
X109093500Y-62480349D01*
X109113502Y-62412228D01*
X109167158Y-62365735D01*
X109237432Y-62355631D01*
X109302012Y-62385125D01*
X109336243Y-62432945D01*
X109400266Y-62590616D01*
X109516987Y-62781088D01*
X109663250Y-62949938D01*
X109835126Y-63092632D01*
X110028000Y-63205338D01*
X110236692Y-63285030D01*
X110241760Y-63286061D01*
X110241763Y-63286062D01*
X110349017Y-63307883D01*
X110455597Y-63329567D01*
X110460772Y-63329757D01*
X110460774Y-63329757D01*
X110673673Y-63337564D01*
X110673677Y-63337564D01*
X110678837Y-63337753D01*
X110683957Y-63337097D01*
X110683959Y-63337097D01*
X110895288Y-63310025D01*
X110895289Y-63310025D01*
X110900416Y-63309368D01*
X110905366Y-63307883D01*
X111109429Y-63246661D01*
X111109434Y-63246659D01*
X111114384Y-63245174D01*
X111314994Y-63146896D01*
X111496860Y-63017173D01*
X111655096Y-62859489D01*
X111714594Y-62776689D01*
X111782435Y-62682277D01*
X111785453Y-62678077D01*
X111884430Y-62477811D01*
X111949370Y-62264069D01*
X111978529Y-62042590D01*
X111980156Y-61976000D01*
X111961852Y-61753361D01*
X111907431Y-61536702D01*
X111818354Y-61331840D01*
X111697014Y-61144277D01*
X111546670Y-60979051D01*
X111542619Y-60975852D01*
X111542615Y-60975848D01*
X111375414Y-60843800D01*
X111375410Y-60843798D01*
X111371359Y-60840598D01*
X111330053Y-60817796D01*
X111280084Y-60767364D01*
X111265312Y-60697921D01*
X111290428Y-60631516D01*
X111317780Y-60604909D01*
X111361603Y-60573650D01*
X111496860Y-60477173D01*
X111655096Y-60319489D01*
X111714594Y-60236689D01*
X111782435Y-60142277D01*
X111785453Y-60138077D01*
X111884430Y-59937811D01*
X111949370Y-59724069D01*
X111978529Y-59502590D01*
X111980156Y-59436000D01*
X111961852Y-59213361D01*
X111907431Y-58996702D01*
X111818354Y-58791840D01*
X111697014Y-58604277D01*
X111546670Y-58439051D01*
X111542619Y-58435852D01*
X111542615Y-58435848D01*
X111375414Y-58303800D01*
X111375410Y-58303798D01*
X111371359Y-58300598D01*
X111330053Y-58277796D01*
X111280084Y-58227364D01*
X111265312Y-58157921D01*
X111290428Y-58091516D01*
X111317780Y-58064909D01*
X111361603Y-58033650D01*
X111496860Y-57937173D01*
X111655096Y-57779489D01*
X111714594Y-57696689D01*
X111782435Y-57602277D01*
X111785453Y-57598077D01*
X111884430Y-57397811D01*
X111949370Y-57184069D01*
X111978529Y-56962590D01*
X111980156Y-56896000D01*
X111961852Y-56673361D01*
X111907431Y-56456702D01*
X111818354Y-56251840D01*
X111697014Y-56064277D01*
X111546670Y-55899051D01*
X111542619Y-55895852D01*
X111542615Y-55895848D01*
X111375414Y-55763800D01*
X111375410Y-55763798D01*
X111371359Y-55760598D01*
X111330053Y-55737796D01*
X111280084Y-55687364D01*
X111265312Y-55617921D01*
X111290428Y-55551516D01*
X111317780Y-55524909D01*
X111364158Y-55491828D01*
X111496860Y-55397173D01*
X111655096Y-55239489D01*
X111714594Y-55156689D01*
X111782435Y-55062277D01*
X111785453Y-55058077D01*
X111884430Y-54857811D01*
X111944203Y-54661076D01*
X111947865Y-54649023D01*
X111947865Y-54649021D01*
X111949370Y-54644069D01*
X111978529Y-54422590D01*
X111980156Y-54356000D01*
X111969715Y-54229000D01*
X143389693Y-54229000D01*
X143408885Y-54448371D01*
X143465880Y-54661076D01*
X143505357Y-54745735D01*
X143556618Y-54855666D01*
X143556621Y-54855671D01*
X143558944Y-54860653D01*
X143562100Y-54865160D01*
X143562101Y-54865162D01*
X143639025Y-54975020D01*
X143685251Y-55041038D01*
X143840962Y-55196749D01*
X143845471Y-55199906D01*
X143845473Y-55199908D01*
X143920241Y-55252261D01*
X144021346Y-55323056D01*
X144220924Y-55416120D01*
X144433629Y-55473115D01*
X144653000Y-55492307D01*
X144872371Y-55473115D01*
X145085076Y-55416120D01*
X145284654Y-55323056D01*
X145385759Y-55252261D01*
X145460527Y-55199908D01*
X145460529Y-55199906D01*
X145465038Y-55196749D01*
X145620749Y-55041038D01*
X145666976Y-54975020D01*
X145743899Y-54865162D01*
X145743900Y-54865160D01*
X145747056Y-54860653D01*
X145749379Y-54855671D01*
X145749382Y-54855666D01*
X145800643Y-54745735D01*
X145840120Y-54661076D01*
X145897115Y-54448371D01*
X145916307Y-54229000D01*
X145897115Y-54009629D01*
X145840120Y-53796924D01*
X145784852Y-53678401D01*
X145749382Y-53602334D01*
X145749379Y-53602329D01*
X145747056Y-53597347D01*
X145624287Y-53422015D01*
X145601500Y-53349744D01*
X145601500Y-48628246D01*
X145621502Y-48560125D01*
X145661665Y-48520814D01*
X145828193Y-48418765D01*
X145828203Y-48418758D01*
X145832416Y-48416176D01*
X146012969Y-48261969D01*
X146167176Y-48081416D01*
X146169755Y-48077208D01*
X146169759Y-48077202D01*
X146288654Y-47883183D01*
X146291240Y-47878963D01*
X146301066Y-47855242D01*
X146380211Y-47664167D01*
X146380212Y-47664165D01*
X146382105Y-47659594D01*
X146411612Y-47536689D01*
X146436380Y-47433524D01*
X146436381Y-47433518D01*
X146437535Y-47428711D01*
X146456165Y-47192000D01*
X146437535Y-46955289D01*
X146382105Y-46724406D01*
X146291240Y-46505037D01*
X146276247Y-46480570D01*
X146169759Y-46306798D01*
X146169755Y-46306792D01*
X146167176Y-46302584D01*
X146012969Y-46122031D01*
X145832416Y-45967824D01*
X145828208Y-45965245D01*
X145828202Y-45965241D01*
X145634183Y-45846346D01*
X145629963Y-45843760D01*
X145625393Y-45841867D01*
X145625389Y-45841865D01*
X145415167Y-45754789D01*
X145415165Y-45754788D01*
X145410594Y-45752895D01*
X145330391Y-45733640D01*
X145184524Y-45698620D01*
X145184518Y-45698619D01*
X145179711Y-45697465D01*
X144943000Y-45678835D01*
X144706289Y-45697465D01*
X144701482Y-45698619D01*
X144701476Y-45698620D01*
X144555609Y-45733640D01*
X144475406Y-45752895D01*
X144470835Y-45754788D01*
X144470833Y-45754789D01*
X144260611Y-45841865D01*
X144260607Y-45841867D01*
X144256037Y-45843760D01*
X144251817Y-45846346D01*
X144057798Y-45965241D01*
X144057792Y-45965245D01*
X144053584Y-45967824D01*
X143873031Y-46122031D01*
X143718824Y-46302584D01*
X143716245Y-46306792D01*
X143716241Y-46306798D01*
X143609753Y-46480570D01*
X143594760Y-46505037D01*
X143503895Y-46724406D01*
X143448465Y-46955289D01*
X143429835Y-47192000D01*
X143448465Y-47428711D01*
X143449619Y-47433518D01*
X143449620Y-47433524D01*
X143474388Y-47536689D01*
X143503895Y-47659594D01*
X143505788Y-47664165D01*
X143505789Y-47664167D01*
X143584935Y-47855242D01*
X143594760Y-47878963D01*
X143597346Y-47883183D01*
X143716241Y-48077202D01*
X143716245Y-48077208D01*
X143718824Y-48081416D01*
X143873031Y-48261969D01*
X144053584Y-48416176D01*
X144057797Y-48418758D01*
X144057807Y-48418765D01*
X144224335Y-48520814D01*
X144271966Y-48573461D01*
X144284500Y-48628246D01*
X144284500Y-52931963D01*
X144264498Y-53000084D01*
X144211750Y-53046158D01*
X144026334Y-53132618D01*
X144026329Y-53132621D01*
X144021347Y-53134944D01*
X144016840Y-53138100D01*
X144016838Y-53138101D01*
X143845473Y-53258092D01*
X143845470Y-53258094D01*
X143840962Y-53261251D01*
X143685251Y-53416962D01*
X143682094Y-53421470D01*
X143682092Y-53421473D01*
X143628411Y-53498138D01*
X143558944Y-53597347D01*
X143556621Y-53602329D01*
X143556618Y-53602334D01*
X143521148Y-53678401D01*
X143465880Y-53796924D01*
X143408885Y-54009629D01*
X143389693Y-54229000D01*
X111969715Y-54229000D01*
X111961852Y-54133361D01*
X111907431Y-53916702D01*
X111818354Y-53711840D01*
X111697014Y-53524277D01*
X111546670Y-53359051D01*
X111542619Y-53355852D01*
X111542615Y-53355848D01*
X111375414Y-53223800D01*
X111375410Y-53223798D01*
X111371359Y-53220598D01*
X111330053Y-53197796D01*
X111280084Y-53147364D01*
X111265312Y-53077921D01*
X111290428Y-53011516D01*
X111317780Y-52984909D01*
X111361603Y-52953650D01*
X111496860Y-52857173D01*
X111655096Y-52699489D01*
X111714594Y-52616689D01*
X111782435Y-52522277D01*
X111785453Y-52518077D01*
X111884430Y-52317811D01*
X111949370Y-52104069D01*
X111978529Y-51882590D01*
X111980156Y-51816000D01*
X111961852Y-51593361D01*
X111907431Y-51376702D01*
X111818354Y-51171840D01*
X111697014Y-50984277D01*
X111546670Y-50819051D01*
X111542619Y-50815852D01*
X111542615Y-50815848D01*
X111375414Y-50683800D01*
X111375410Y-50683798D01*
X111371359Y-50680598D01*
X111330053Y-50657796D01*
X111280084Y-50607364D01*
X111265312Y-50537921D01*
X111290428Y-50471516D01*
X111317780Y-50444909D01*
X111361603Y-50413650D01*
X111496860Y-50317173D01*
X111655096Y-50159489D01*
X111714594Y-50076689D01*
X111782435Y-49982277D01*
X111785453Y-49978077D01*
X111831398Y-49885115D01*
X111882136Y-49782453D01*
X111882137Y-49782451D01*
X111884430Y-49777811D01*
X111949370Y-49564069D01*
X111978529Y-49342590D01*
X111980156Y-49276000D01*
X111961852Y-49053361D01*
X111907431Y-48836702D01*
X111822337Y-48641000D01*
X133102693Y-48641000D01*
X133121885Y-48860371D01*
X133178880Y-49073076D01*
X133209009Y-49137688D01*
X133269618Y-49267666D01*
X133269621Y-49267671D01*
X133271944Y-49272653D01*
X133275100Y-49277160D01*
X133275101Y-49277162D01*
X133323238Y-49345908D01*
X133398251Y-49453038D01*
X133553962Y-49608749D01*
X133734346Y-49735056D01*
X133933924Y-49828120D01*
X134146629Y-49885115D01*
X134366000Y-49904307D01*
X134585371Y-49885115D01*
X134798076Y-49828120D01*
X134997654Y-49735056D01*
X135178038Y-49608749D01*
X135333749Y-49453038D01*
X135408763Y-49345908D01*
X135456899Y-49277162D01*
X135456900Y-49277160D01*
X135460056Y-49272653D01*
X135462381Y-49267668D01*
X135462384Y-49267662D01*
X135472834Y-49245251D01*
X135519751Y-49191965D01*
X135587029Y-49172500D01*
X138982944Y-49172500D01*
X138994800Y-49173059D01*
X138994803Y-49173059D01*
X139002537Y-49174788D01*
X139073369Y-49172562D01*
X139077327Y-49172500D01*
X139106432Y-49172500D01*
X139110832Y-49171944D01*
X139122664Y-49171012D01*
X139168831Y-49169562D01*
X139189421Y-49163580D01*
X139208782Y-49159570D01*
X139215770Y-49158688D01*
X139222204Y-49157875D01*
X139222205Y-49157875D01*
X139230064Y-49156882D01*
X139237429Y-49153966D01*
X139237433Y-49153965D01*
X139273021Y-49139874D01*
X139284231Y-49136035D01*
X139328600Y-49123145D01*
X139347065Y-49112225D01*
X139364805Y-49103534D01*
X139384756Y-49095635D01*
X139422129Y-49068482D01*
X139432048Y-49061967D01*
X139464977Y-49042493D01*
X139464981Y-49042490D01*
X139471807Y-49038453D01*
X139486971Y-49023289D01*
X139502005Y-49010448D01*
X139512943Y-49002501D01*
X139519357Y-48997841D01*
X139548803Y-48962247D01*
X139556792Y-48953468D01*
X140107605Y-48402655D01*
X140116385Y-48394665D01*
X140116387Y-48394663D01*
X140123080Y-48390416D01*
X140171605Y-48338742D01*
X140174359Y-48335901D01*
X140194927Y-48315333D01*
X140197647Y-48311826D01*
X140205353Y-48302804D01*
X140231544Y-48274913D01*
X140236972Y-48269133D01*
X140240794Y-48262181D01*
X140247303Y-48250342D01*
X140258157Y-48233818D01*
X140266445Y-48223132D01*
X140271304Y-48216868D01*
X140276899Y-48203939D01*
X140289654Y-48174465D01*
X140294876Y-48163805D01*
X140313305Y-48130284D01*
X140313306Y-48130282D01*
X140317124Y-48123337D01*
X140322459Y-48102559D01*
X140328858Y-48083869D01*
X140337380Y-48064176D01*
X140344606Y-48018552D01*
X140347013Y-48006929D01*
X140356528Y-47969868D01*
X140358500Y-47962188D01*
X140358500Y-47940741D01*
X140360051Y-47921031D01*
X140362166Y-47907677D01*
X140363406Y-47899848D01*
X140359059Y-47853859D01*
X140358500Y-47842004D01*
X140358500Y-40692000D01*
X143429835Y-40692000D01*
X143448465Y-40928711D01*
X143449619Y-40933518D01*
X143449620Y-40933524D01*
X143468422Y-41011840D01*
X143503895Y-41159594D01*
X143594760Y-41378963D01*
X143597346Y-41383183D01*
X143716241Y-41577202D01*
X143716245Y-41577208D01*
X143718824Y-41581416D01*
X143873031Y-41761969D01*
X144053584Y-41916176D01*
X144057792Y-41918755D01*
X144057798Y-41918759D01*
X144248516Y-42035631D01*
X144256037Y-42040240D01*
X144260607Y-42042133D01*
X144260611Y-42042135D01*
X144448306Y-42119880D01*
X144475406Y-42131105D01*
X144555609Y-42150360D01*
X144701476Y-42185380D01*
X144701482Y-42185381D01*
X144706289Y-42186535D01*
X144943000Y-42205165D01*
X145179711Y-42186535D01*
X145184518Y-42185381D01*
X145184524Y-42185380D01*
X145330391Y-42150360D01*
X145410594Y-42131105D01*
X145437694Y-42119880D01*
X145625389Y-42042135D01*
X145625393Y-42042133D01*
X145629963Y-42040240D01*
X145637484Y-42035631D01*
X145828202Y-41918759D01*
X145828208Y-41918755D01*
X145832416Y-41916176D01*
X146012969Y-41761969D01*
X146167176Y-41581416D01*
X146169755Y-41577208D01*
X146169759Y-41577202D01*
X146288654Y-41383183D01*
X146291240Y-41378963D01*
X146382105Y-41159594D01*
X146417578Y-41011840D01*
X146436380Y-40933524D01*
X146436381Y-40933518D01*
X146437535Y-40928711D01*
X146456165Y-40692000D01*
X146437535Y-40455289D01*
X146435633Y-40447364D01*
X146383260Y-40229218D01*
X146382105Y-40224406D01*
X146355498Y-40160171D01*
X146293135Y-40009611D01*
X146293133Y-40009607D01*
X146291240Y-40005037D01*
X146237100Y-39916689D01*
X146169759Y-39806798D01*
X146169755Y-39806792D01*
X146167176Y-39802584D01*
X146012969Y-39622031D01*
X145832416Y-39467824D01*
X145828208Y-39465245D01*
X145828202Y-39465241D01*
X145634183Y-39346346D01*
X145629963Y-39343760D01*
X145625393Y-39341867D01*
X145625389Y-39341865D01*
X145415167Y-39254789D01*
X145415165Y-39254788D01*
X145410594Y-39252895D01*
X145330391Y-39233640D01*
X145184524Y-39198620D01*
X145184518Y-39198619D01*
X145179711Y-39197465D01*
X144943000Y-39178835D01*
X144706289Y-39197465D01*
X144701482Y-39198619D01*
X144701476Y-39198620D01*
X144555609Y-39233640D01*
X144475406Y-39252895D01*
X144470835Y-39254788D01*
X144470833Y-39254789D01*
X144260611Y-39341865D01*
X144260607Y-39341867D01*
X144256037Y-39343760D01*
X144251817Y-39346346D01*
X144057798Y-39465241D01*
X144057792Y-39465245D01*
X144053584Y-39467824D01*
X143873031Y-39622031D01*
X143718824Y-39802584D01*
X143716245Y-39806792D01*
X143716241Y-39806798D01*
X143648900Y-39916689D01*
X143594760Y-40005037D01*
X143592867Y-40009607D01*
X143592865Y-40009611D01*
X143530502Y-40160171D01*
X143503895Y-40224406D01*
X143502740Y-40229218D01*
X143450368Y-40447364D01*
X143448465Y-40455289D01*
X143429835Y-40692000D01*
X140358500Y-40692000D01*
X140358500Y-38170950D01*
X140378502Y-38102829D01*
X140395405Y-38081855D01*
X140697855Y-37779405D01*
X140760167Y-37745379D01*
X140786950Y-37742500D01*
X145332944Y-37742500D01*
X145344800Y-37743059D01*
X145344803Y-37743059D01*
X145352537Y-37744788D01*
X145423369Y-37742562D01*
X145427327Y-37742500D01*
X145456432Y-37742500D01*
X145460832Y-37741944D01*
X145472664Y-37741012D01*
X145518831Y-37739562D01*
X145539421Y-37733580D01*
X145558782Y-37729570D01*
X145565770Y-37728688D01*
X145572204Y-37727875D01*
X145572205Y-37727875D01*
X145580064Y-37726882D01*
X145587429Y-37723966D01*
X145587433Y-37723965D01*
X145623021Y-37709874D01*
X145634231Y-37706035D01*
X145678600Y-37693145D01*
X145697065Y-37682225D01*
X145714805Y-37673534D01*
X145734756Y-37665635D01*
X145772129Y-37638482D01*
X145782048Y-37631967D01*
X145814977Y-37612493D01*
X145814981Y-37612490D01*
X145821807Y-37608453D01*
X145836971Y-37593289D01*
X145852005Y-37580448D01*
X145862943Y-37572501D01*
X145869357Y-37567841D01*
X145898803Y-37532247D01*
X145906792Y-37523468D01*
X146950605Y-36479655D01*
X146959385Y-36471665D01*
X146959387Y-36471663D01*
X146966080Y-36467416D01*
X147000606Y-36430650D01*
X147014604Y-36415743D01*
X147017359Y-36412901D01*
X147037927Y-36392333D01*
X147040647Y-36388826D01*
X147048353Y-36379804D01*
X147074544Y-36351913D01*
X147079972Y-36346133D01*
X147083794Y-36339181D01*
X147090303Y-36327342D01*
X147101157Y-36310818D01*
X147109445Y-36300132D01*
X147114304Y-36293868D01*
X147117452Y-36286594D01*
X147132654Y-36251465D01*
X147137876Y-36240805D01*
X147156305Y-36207284D01*
X147156306Y-36207282D01*
X147160124Y-36200337D01*
X147165459Y-36179559D01*
X147171858Y-36160869D01*
X147180380Y-36141176D01*
X147187606Y-36095552D01*
X147190013Y-36083929D01*
X147199528Y-36046868D01*
X147201500Y-36039188D01*
X147201500Y-36017741D01*
X147203051Y-35998031D01*
X147205166Y-35984677D01*
X147206406Y-35976848D01*
X147202059Y-35930859D01*
X147201500Y-35919004D01*
X147201500Y-35508961D01*
X147221502Y-35440840D01*
X147254332Y-35406382D01*
X147262535Y-35400531D01*
X147422860Y-35286173D01*
X147441919Y-35267181D01*
X147566400Y-35143134D01*
X150264500Y-35143134D01*
X150271255Y-35205316D01*
X150322385Y-35341705D01*
X150409739Y-35458261D01*
X150526295Y-35545615D01*
X150662684Y-35596745D01*
X150724866Y-35603500D01*
X152521134Y-35603500D01*
X152583316Y-35596745D01*
X152719705Y-35545615D01*
X152836261Y-35458261D01*
X152923615Y-35341705D01*
X152974745Y-35205316D01*
X152981500Y-35143134D01*
X152981500Y-33346866D01*
X152974745Y-33284684D01*
X152923615Y-33148295D01*
X152836261Y-33031739D01*
X152719705Y-32944385D01*
X152583316Y-32893255D01*
X152521134Y-32886500D01*
X150724866Y-32886500D01*
X150662684Y-32893255D01*
X150526295Y-32944385D01*
X150409739Y-33031739D01*
X150322385Y-33148295D01*
X150271255Y-33284684D01*
X150264500Y-33346866D01*
X150264500Y-35143134D01*
X147566400Y-35143134D01*
X147581096Y-35128489D01*
X147640594Y-35045689D01*
X147708435Y-34951277D01*
X147711453Y-34947077D01*
X147790534Y-34787069D01*
X147808136Y-34751453D01*
X147808137Y-34751451D01*
X147810430Y-34746811D01*
X147875370Y-34533069D01*
X147904529Y-34311590D01*
X147905390Y-34276361D01*
X147906074Y-34248365D01*
X147906074Y-34248361D01*
X147906156Y-34245000D01*
X147887852Y-34022361D01*
X147833431Y-33805702D01*
X147744354Y-33600840D01*
X147623014Y-33413277D01*
X147472670Y-33248051D01*
X147468619Y-33244852D01*
X147468615Y-33244848D01*
X147301414Y-33112800D01*
X147301410Y-33112798D01*
X147297359Y-33109598D01*
X147101789Y-33001638D01*
X147096920Y-32999914D01*
X147096916Y-32999912D01*
X146896087Y-32928795D01*
X146896083Y-32928794D01*
X146891212Y-32927069D01*
X146886119Y-32926162D01*
X146886116Y-32926161D01*
X146676373Y-32888800D01*
X146676367Y-32888799D01*
X146671284Y-32887894D01*
X146597452Y-32886992D01*
X146453081Y-32885228D01*
X146453079Y-32885228D01*
X146447911Y-32885165D01*
X146227091Y-32918955D01*
X146014756Y-32988357D01*
X145816607Y-33091507D01*
X145812474Y-33094610D01*
X145812471Y-33094612D01*
X145642100Y-33222530D01*
X145637965Y-33225635D01*
X145606905Y-33258137D01*
X145508511Y-33361101D01*
X145483629Y-33387138D01*
X145480715Y-33391410D01*
X145480714Y-33391411D01*
X145468404Y-33409457D01*
X145357743Y-33571680D01*
X145263688Y-33774305D01*
X145203989Y-33989570D01*
X145180251Y-34211695D01*
X145180548Y-34216848D01*
X145180548Y-34216851D01*
X145186730Y-34324069D01*
X145193110Y-34434715D01*
X145194247Y-34439761D01*
X145194248Y-34439767D01*
X145207597Y-34499000D01*
X145242222Y-34652639D01*
X145278620Y-34742277D01*
X145318743Y-34841088D01*
X145326266Y-34859616D01*
X145360384Y-34915292D01*
X145420407Y-35013240D01*
X145442987Y-35050088D01*
X145589250Y-35218938D01*
X145761126Y-35361632D01*
X145765583Y-35364236D01*
X145765588Y-35364240D01*
X145822070Y-35397245D01*
X145870794Y-35448883D01*
X145884500Y-35506033D01*
X145884500Y-35631050D01*
X145864498Y-35699171D01*
X145847595Y-35720145D01*
X145179145Y-36388595D01*
X145116833Y-36422621D01*
X145090050Y-36425500D01*
X140544059Y-36425500D01*
X140532203Y-36424941D01*
X140524463Y-36423211D01*
X140516537Y-36423460D01*
X140516536Y-36423460D01*
X140453611Y-36425438D01*
X140449653Y-36425500D01*
X140420568Y-36425500D01*
X140416637Y-36425997D01*
X140416630Y-36425997D01*
X140416179Y-36426054D01*
X140404343Y-36426986D01*
X140358169Y-36428438D01*
X140337579Y-36434420D01*
X140318218Y-36438430D01*
X140311230Y-36439312D01*
X140304796Y-36440125D01*
X140304795Y-36440125D01*
X140296936Y-36441118D01*
X140289571Y-36444034D01*
X140289567Y-36444035D01*
X140253979Y-36458126D01*
X140242769Y-36461965D01*
X140198400Y-36474855D01*
X140179935Y-36485775D01*
X140162195Y-36494466D01*
X140142244Y-36502365D01*
X140104874Y-36529516D01*
X140094952Y-36536033D01*
X140062023Y-36555507D01*
X140062019Y-36555510D01*
X140055193Y-36559547D01*
X140040029Y-36574711D01*
X140024996Y-36587551D01*
X140007643Y-36600159D01*
X139978198Y-36635752D01*
X139970208Y-36644532D01*
X139292395Y-37322345D01*
X139283615Y-37330335D01*
X139283613Y-37330337D01*
X139276920Y-37334584D01*
X139271494Y-37340362D01*
X139271493Y-37340363D01*
X139228396Y-37386257D01*
X139225641Y-37389099D01*
X139205073Y-37409667D01*
X139202356Y-37413170D01*
X139194648Y-37422195D01*
X139163028Y-37455867D01*
X139159207Y-37462818D01*
X139159206Y-37462819D01*
X139152697Y-37474658D01*
X139141843Y-37491182D01*
X139134018Y-37501271D01*
X139128696Y-37508132D01*
X139125549Y-37515404D01*
X139125548Y-37515406D01*
X139110346Y-37550535D01*
X139105124Y-37561195D01*
X139082876Y-37601663D01*
X139077541Y-37622441D01*
X139071142Y-37641131D01*
X139062620Y-37660824D01*
X139059230Y-37682228D01*
X139055394Y-37706448D01*
X139052987Y-37718071D01*
X139047097Y-37741012D01*
X139041500Y-37762812D01*
X139041500Y-37784259D01*
X139039949Y-37803969D01*
X139036594Y-37825152D01*
X139037340Y-37833043D01*
X139040941Y-37871138D01*
X139041500Y-37882996D01*
X139041500Y-47554050D01*
X139021498Y-47622171D01*
X139004595Y-47643145D01*
X138829145Y-47818595D01*
X138766833Y-47852621D01*
X138740050Y-47855500D01*
X135412477Y-47855500D01*
X135344356Y-47835498D01*
X135323382Y-47818595D01*
X135178038Y-47673251D01*
X135135043Y-47643145D01*
X135007802Y-47554050D01*
X134997654Y-47546944D01*
X134798076Y-47453880D01*
X134585371Y-47396885D01*
X134366000Y-47377693D01*
X134146629Y-47396885D01*
X133933924Y-47453880D01*
X133840562Y-47497415D01*
X133739334Y-47544618D01*
X133739329Y-47544621D01*
X133734347Y-47546944D01*
X133729840Y-47550100D01*
X133729838Y-47550101D01*
X133558473Y-47670092D01*
X133558470Y-47670094D01*
X133553962Y-47673251D01*
X133398251Y-47828962D01*
X133395094Y-47833470D01*
X133395092Y-47833473D01*
X133275101Y-48004838D01*
X133271944Y-48009347D01*
X133269621Y-48014329D01*
X133269618Y-48014334D01*
X133236585Y-48085175D01*
X133178880Y-48208924D01*
X133121885Y-48421629D01*
X133102693Y-48641000D01*
X111822337Y-48641000D01*
X111818354Y-48631840D01*
X111697014Y-48444277D01*
X111546670Y-48279051D01*
X111542619Y-48275852D01*
X111542615Y-48275848D01*
X111375414Y-48143800D01*
X111375410Y-48143798D01*
X111371359Y-48140598D01*
X111330053Y-48117796D01*
X111280084Y-48067364D01*
X111265312Y-47997921D01*
X111290428Y-47931516D01*
X111317780Y-47904909D01*
X111387049Y-47855500D01*
X111496860Y-47777173D01*
X111655096Y-47619489D01*
X111702119Y-47554050D01*
X111782435Y-47442277D01*
X111785453Y-47438077D01*
X111792521Y-47423777D01*
X111882136Y-47242453D01*
X111882137Y-47242451D01*
X111884430Y-47237811D01*
X111949370Y-47024069D01*
X111978529Y-46802590D01*
X111980156Y-46736000D01*
X111961852Y-46513361D01*
X111907431Y-46296702D01*
X111818354Y-46091840D01*
X111740202Y-45971035D01*
X111699822Y-45908617D01*
X111699820Y-45908614D01*
X111697014Y-45904277D01*
X111546670Y-45739051D01*
X111542619Y-45735852D01*
X111542615Y-45735848D01*
X111375414Y-45603800D01*
X111375410Y-45603798D01*
X111371359Y-45600598D01*
X111330053Y-45577796D01*
X111280084Y-45527364D01*
X111265312Y-45457921D01*
X111290428Y-45391516D01*
X111317780Y-45364909D01*
X111361603Y-45333650D01*
X111496860Y-45237173D01*
X111655096Y-45079489D01*
X111714594Y-44996689D01*
X111782435Y-44902277D01*
X111785453Y-44898077D01*
X111884430Y-44697811D01*
X111949370Y-44484069D01*
X111978529Y-44262590D01*
X111980156Y-44196000D01*
X111961852Y-43973361D01*
X111907431Y-43756702D01*
X111818354Y-43551840D01*
X111697014Y-43364277D01*
X111644896Y-43307000D01*
X130689693Y-43307000D01*
X130708885Y-43526371D01*
X130765880Y-43739076D01*
X130776439Y-43761720D01*
X130856618Y-43933666D01*
X130856621Y-43933671D01*
X130858944Y-43938653D01*
X130862100Y-43943160D01*
X130862101Y-43943162D01*
X130961769Y-44085502D01*
X130985251Y-44119038D01*
X131140962Y-44274749D01*
X131321346Y-44401056D01*
X131520924Y-44494120D01*
X131733629Y-44551115D01*
X131953000Y-44570307D01*
X132172371Y-44551115D01*
X132385076Y-44494120D01*
X132584654Y-44401056D01*
X132765038Y-44274749D01*
X132920749Y-44119038D01*
X132923908Y-44114527D01*
X132927284Y-44110504D01*
X132986395Y-44071181D01*
X133023802Y-44065500D01*
X133930198Y-44065500D01*
X133998319Y-44085502D01*
X134026716Y-44110504D01*
X134030092Y-44114527D01*
X134033251Y-44119038D01*
X134188962Y-44274749D01*
X134369346Y-44401056D01*
X134568924Y-44494120D01*
X134781629Y-44551115D01*
X135001000Y-44570307D01*
X135220371Y-44551115D01*
X135433076Y-44494120D01*
X135632654Y-44401056D01*
X135813038Y-44274749D01*
X135968749Y-44119038D01*
X135992232Y-44085502D01*
X136091899Y-43943162D01*
X136091900Y-43943160D01*
X136095056Y-43938653D01*
X136097379Y-43933671D01*
X136097382Y-43933666D01*
X136177561Y-43761720D01*
X136188120Y-43739076D01*
X136245115Y-43526371D01*
X136264307Y-43307000D01*
X136245115Y-43087629D01*
X136188120Y-42874924D01*
X136140421Y-42772632D01*
X136097382Y-42680334D01*
X136097379Y-42680329D01*
X136095056Y-42675347D01*
X136091899Y-42670838D01*
X135971908Y-42499473D01*
X135971906Y-42499470D01*
X135968749Y-42494962D01*
X135813038Y-42339251D01*
X135632654Y-42212944D01*
X135433076Y-42119880D01*
X135220371Y-42062885D01*
X135001000Y-42043693D01*
X134781629Y-42062885D01*
X134568924Y-42119880D01*
X134482138Y-42160349D01*
X134374334Y-42210618D01*
X134374329Y-42210621D01*
X134369347Y-42212944D01*
X134364840Y-42216100D01*
X134364838Y-42216101D01*
X134193473Y-42336092D01*
X134193470Y-42336094D01*
X134188962Y-42339251D01*
X134033251Y-42494962D01*
X134030094Y-42499471D01*
X134026716Y-42503496D01*
X133967605Y-42542819D01*
X133930198Y-42548500D01*
X133023802Y-42548500D01*
X132955681Y-42528498D01*
X132927284Y-42503496D01*
X132923906Y-42499471D01*
X132920749Y-42494962D01*
X132765038Y-42339251D01*
X132584654Y-42212944D01*
X132385076Y-42119880D01*
X132172371Y-42062885D01*
X131953000Y-42043693D01*
X131733629Y-42062885D01*
X131520924Y-42119880D01*
X131434138Y-42160349D01*
X131326334Y-42210618D01*
X131326329Y-42210621D01*
X131321347Y-42212944D01*
X131316840Y-42216100D01*
X131316838Y-42216101D01*
X131145473Y-42336092D01*
X131145470Y-42336094D01*
X131140962Y-42339251D01*
X130985251Y-42494962D01*
X130982094Y-42499470D01*
X130982092Y-42499473D01*
X130862101Y-42670838D01*
X130858944Y-42675347D01*
X130856621Y-42680329D01*
X130856618Y-42680334D01*
X130813579Y-42772632D01*
X130765880Y-42874924D01*
X130708885Y-43087629D01*
X130689693Y-43307000D01*
X111644896Y-43307000D01*
X111546670Y-43199051D01*
X111542619Y-43195852D01*
X111542615Y-43195848D01*
X111375414Y-43063800D01*
X111375410Y-43063798D01*
X111371359Y-43060598D01*
X111330053Y-43037796D01*
X111280084Y-42987364D01*
X111265312Y-42917921D01*
X111290428Y-42851516D01*
X111317780Y-42824909D01*
X111361603Y-42793650D01*
X111496860Y-42697173D01*
X111518763Y-42675347D01*
X111651435Y-42543137D01*
X111655096Y-42539489D01*
X111680960Y-42503496D01*
X111782435Y-42362277D01*
X111785453Y-42358077D01*
X111792832Y-42343148D01*
X111882136Y-42162453D01*
X111882137Y-42162451D01*
X111884430Y-42157811D01*
X111949370Y-41944069D01*
X111978529Y-41722590D01*
X111980156Y-41656000D01*
X111961852Y-41433361D01*
X111907431Y-41216702D01*
X111818354Y-41011840D01*
X111764575Y-40928711D01*
X111699822Y-40828617D01*
X111699820Y-40828614D01*
X111697014Y-40824277D01*
X111546670Y-40659051D01*
X111542619Y-40655852D01*
X111542615Y-40655848D01*
X111375414Y-40523800D01*
X111375410Y-40523798D01*
X111371359Y-40520598D01*
X111330053Y-40497796D01*
X111280084Y-40447364D01*
X111265312Y-40377921D01*
X111290428Y-40311516D01*
X111317780Y-40284909D01*
X111361603Y-40253650D01*
X111496860Y-40157173D01*
X111655096Y-39999489D01*
X111714594Y-39916689D01*
X111782435Y-39822277D01*
X111785453Y-39818077D01*
X111791028Y-39806798D01*
X111882136Y-39622453D01*
X111882137Y-39622451D01*
X111884430Y-39617811D01*
X111930000Y-39467824D01*
X111947865Y-39409023D01*
X111947865Y-39409021D01*
X111949370Y-39404069D01*
X111978529Y-39182590D01*
X111980156Y-39116000D01*
X111961852Y-38893361D01*
X111907431Y-38676702D01*
X111818354Y-38471840D01*
X111697014Y-38284277D01*
X111546670Y-38119051D01*
X111542619Y-38115852D01*
X111542615Y-38115848D01*
X111375414Y-37983800D01*
X111375410Y-37983798D01*
X111371359Y-37980598D01*
X111175789Y-37872638D01*
X111170920Y-37870914D01*
X111170916Y-37870912D01*
X110970087Y-37799795D01*
X110970083Y-37799794D01*
X110965212Y-37798069D01*
X110960119Y-37797162D01*
X110960116Y-37797161D01*
X110750373Y-37759800D01*
X110750367Y-37759799D01*
X110745284Y-37758894D01*
X110671452Y-37757992D01*
X110527081Y-37756228D01*
X110527079Y-37756228D01*
X110521911Y-37756165D01*
X110301091Y-37789955D01*
X110088756Y-37859357D01*
X109890607Y-37962507D01*
X109886474Y-37965610D01*
X109886471Y-37965612D01*
X109862247Y-37983800D01*
X109711965Y-38096635D01*
X109557629Y-38258138D01*
X109431743Y-38442680D01*
X109337688Y-38645305D01*
X109337182Y-38647128D01*
X109295460Y-38703385D01*
X109229051Y-38728493D01*
X109159610Y-38713713D01*
X109109184Y-38663736D01*
X109093500Y-38602856D01*
X109093500Y-34540349D01*
X109113502Y-34472228D01*
X109167158Y-34425735D01*
X109237432Y-34415631D01*
X109302012Y-34445125D01*
X109336243Y-34492945D01*
X109364381Y-34562240D01*
X109400266Y-34650616D01*
X109402965Y-34655020D01*
X109480741Y-34781939D01*
X109516987Y-34841088D01*
X109663250Y-35009938D01*
X109835126Y-35152632D01*
X110028000Y-35265338D01*
X110032825Y-35267180D01*
X110032826Y-35267181D01*
X110082561Y-35286173D01*
X110236692Y-35345030D01*
X110241760Y-35346061D01*
X110241763Y-35346062D01*
X110349017Y-35367883D01*
X110455597Y-35389567D01*
X110460772Y-35389757D01*
X110460774Y-35389757D01*
X110673673Y-35397564D01*
X110673677Y-35397564D01*
X110678837Y-35397753D01*
X110683957Y-35397097D01*
X110683959Y-35397097D01*
X110895288Y-35370025D01*
X110895289Y-35370025D01*
X110900416Y-35369368D01*
X110905366Y-35367883D01*
X111109429Y-35306661D01*
X111109434Y-35306659D01*
X111114384Y-35305174D01*
X111314994Y-35206896D01*
X111496860Y-35077173D01*
X111655096Y-34919489D01*
X111667954Y-34901596D01*
X111782435Y-34742277D01*
X111785453Y-34738077D01*
X111825314Y-34657425D01*
X111882136Y-34542453D01*
X111882137Y-34542451D01*
X111884430Y-34537811D01*
X111906341Y-34465695D01*
X135020251Y-34465695D01*
X135020548Y-34470848D01*
X135020548Y-34470851D01*
X135026011Y-34565590D01*
X135033110Y-34688715D01*
X135034247Y-34693761D01*
X135034248Y-34693767D01*
X135047249Y-34751453D01*
X135082222Y-34906639D01*
X135166266Y-35113616D01*
X135168965Y-35118020D01*
X135272009Y-35286173D01*
X135282987Y-35304088D01*
X135429250Y-35472938D01*
X135601126Y-35615632D01*
X135794000Y-35728338D01*
X136002692Y-35808030D01*
X136007760Y-35809061D01*
X136007763Y-35809062D01*
X136115017Y-35830883D01*
X136221597Y-35852567D01*
X136226772Y-35852757D01*
X136226774Y-35852757D01*
X136439673Y-35860564D01*
X136439677Y-35860564D01*
X136444837Y-35860753D01*
X136449957Y-35860097D01*
X136449959Y-35860097D01*
X136661288Y-35833025D01*
X136661289Y-35833025D01*
X136666416Y-35832368D01*
X136671366Y-35830883D01*
X136875429Y-35769661D01*
X136875434Y-35769659D01*
X136880384Y-35768174D01*
X137080994Y-35669896D01*
X137262860Y-35540173D01*
X137406400Y-35397134D01*
X140104500Y-35397134D01*
X140111255Y-35459316D01*
X140162385Y-35595705D01*
X140249739Y-35712261D01*
X140366295Y-35799615D01*
X140502684Y-35850745D01*
X140564866Y-35857500D01*
X142361134Y-35857500D01*
X142423316Y-35850745D01*
X142559705Y-35799615D01*
X142676261Y-35712261D01*
X142763615Y-35595705D01*
X142814745Y-35459316D01*
X142821500Y-35397134D01*
X142821500Y-33600866D01*
X142814745Y-33538684D01*
X142763615Y-33402295D01*
X142676261Y-33285739D01*
X142559705Y-33198385D01*
X142423316Y-33147255D01*
X142361134Y-33140500D01*
X140564866Y-33140500D01*
X140502684Y-33147255D01*
X140366295Y-33198385D01*
X140249739Y-33285739D01*
X140162385Y-33402295D01*
X140111255Y-33538684D01*
X140104500Y-33600866D01*
X140104500Y-35397134D01*
X137406400Y-35397134D01*
X137421096Y-35382489D01*
X137431592Y-35367883D01*
X137548435Y-35205277D01*
X137551453Y-35201077D01*
X137577030Y-35149327D01*
X137648136Y-35005453D01*
X137648137Y-35005451D01*
X137650430Y-35000811D01*
X137691990Y-34864020D01*
X137713865Y-34792023D01*
X137713865Y-34792021D01*
X137715370Y-34787069D01*
X137744529Y-34565590D01*
X137746156Y-34499000D01*
X137727852Y-34276361D01*
X137673431Y-34059702D01*
X137584354Y-33854840D01*
X137463014Y-33667277D01*
X137312670Y-33502051D01*
X137308619Y-33498852D01*
X137308615Y-33498848D01*
X137141414Y-33366800D01*
X137141410Y-33366798D01*
X137137359Y-33363598D01*
X136941789Y-33255638D01*
X136936920Y-33253914D01*
X136936916Y-33253912D01*
X136736087Y-33182795D01*
X136736083Y-33182794D01*
X136731212Y-33181069D01*
X136726119Y-33180162D01*
X136726116Y-33180161D01*
X136516373Y-33142800D01*
X136516367Y-33142799D01*
X136511284Y-33141894D01*
X136437452Y-33140992D01*
X136293081Y-33139228D01*
X136293079Y-33139228D01*
X136287911Y-33139165D01*
X136067091Y-33172955D01*
X135854756Y-33242357D01*
X135824443Y-33258137D01*
X135758356Y-33292540D01*
X135656607Y-33345507D01*
X135652474Y-33348610D01*
X135652471Y-33348612D01*
X135560565Y-33417617D01*
X135477965Y-33479635D01*
X135474393Y-33483373D01*
X135330725Y-33633713D01*
X135323629Y-33641138D01*
X135197743Y-33825680D01*
X135182003Y-33859590D01*
X135115576Y-34002695D01*
X135103688Y-34028305D01*
X135043989Y-34243570D01*
X135020251Y-34465695D01*
X111906341Y-34465695D01*
X111949370Y-34324069D01*
X111978529Y-34102590D01*
X111980156Y-34036000D01*
X111961852Y-33813361D01*
X111907431Y-33596702D01*
X111818354Y-33391840D01*
X111730241Y-33255638D01*
X111699822Y-33208617D01*
X111699820Y-33208614D01*
X111697014Y-33204277D01*
X111546670Y-33039051D01*
X111542619Y-33035852D01*
X111542615Y-33035848D01*
X111375414Y-32903800D01*
X111375410Y-32903798D01*
X111371359Y-32900598D01*
X111330053Y-32877796D01*
X111280084Y-32827364D01*
X111265312Y-32757921D01*
X111290428Y-32691516D01*
X111317780Y-32664909D01*
X111361603Y-32633650D01*
X111496860Y-32537173D01*
X111655096Y-32379489D01*
X111714594Y-32296689D01*
X111782435Y-32202277D01*
X111785453Y-32198077D01*
X111884430Y-31997811D01*
X111949370Y-31784069D01*
X111978529Y-31562590D01*
X111980156Y-31496000D01*
X111961852Y-31273361D01*
X111907431Y-31056702D01*
X111818354Y-30851840D01*
X111697014Y-30664277D01*
X111546670Y-30499051D01*
X111542619Y-30495852D01*
X111542615Y-30495848D01*
X111375414Y-30363800D01*
X111375410Y-30363798D01*
X111371359Y-30360598D01*
X111330053Y-30337796D01*
X111280084Y-30287364D01*
X111265312Y-30217921D01*
X111290428Y-30151516D01*
X111317780Y-30124909D01*
X111361603Y-30093650D01*
X111496860Y-29997173D01*
X111655096Y-29839489D01*
X111714594Y-29756689D01*
X111782435Y-29662277D01*
X111785453Y-29658077D01*
X111884430Y-29457811D01*
X111949370Y-29244069D01*
X111978529Y-29022590D01*
X111980156Y-28956000D01*
X111961852Y-28733361D01*
X111907431Y-28516702D01*
X111818354Y-28311840D01*
X111697014Y-28124277D01*
X111693532Y-28120450D01*
X111549798Y-27962488D01*
X111518746Y-27898642D01*
X111527141Y-27828143D01*
X111572317Y-27773375D01*
X111598761Y-27759706D01*
X111705297Y-27719767D01*
X111713705Y-27716615D01*
X111830261Y-27629261D01*
X111917615Y-27512705D01*
X111968745Y-27376316D01*
X111975500Y-27314134D01*
X111975500Y-25517866D01*
X111968745Y-25455684D01*
X111917615Y-25319295D01*
X111830261Y-25202739D01*
X111713705Y-25115385D01*
X111577316Y-25064255D01*
X111515134Y-25057500D01*
X109718866Y-25057500D01*
X109656684Y-25064255D01*
X109520295Y-25115385D01*
X109403739Y-25202739D01*
X109398358Y-25209919D01*
X109320326Y-25314037D01*
X109263467Y-25356552D01*
X109192648Y-25361578D01*
X109130355Y-25327518D01*
X109096365Y-25265187D01*
X109093500Y-25238472D01*
X109093500Y-24637500D01*
X109113502Y-24569379D01*
X109167158Y-24522886D01*
X109219500Y-24511500D01*
X153162500Y-24511500D01*
X153230621Y-24531502D01*
G37*
G04 #@! TD.AperFunction*
M02*
