G04 #@! TF.GenerationSoftware,KiCad,Pcbnew,(6.0.9)*
G04 #@! TF.CreationDate,2022-12-23T15:26:11+01:00*
G04 #@! TF.ProjectId,mainboard,6d61696e-626f-4617-9264-2e6b69636164,rev?*
G04 #@! TF.SameCoordinates,Original*
G04 #@! TF.FileFunction,Legend,Top*
G04 #@! TF.FilePolarity,Positive*
%FSLAX46Y46*%
G04 Gerber Fmt 4.6, Leading zero omitted, Abs format (unit mm)*
G04 Created by KiCad (PCBNEW (6.0.9)) date 2022-12-23 15:26:11*
%MOMM*%
%LPD*%
G01*
G04 APERTURE LIST*
G04 Aperture macros list*
%AMRoundRect*
0 Rectangle with rounded corners*
0 $1 Rounding radius*
0 $2 $3 $4 $5 $6 $7 $8 $9 X,Y pos of 4 corners*
0 Add a 4 corners polygon primitive as box body*
4,1,4,$2,$3,$4,$5,$6,$7,$8,$9,$2,$3,0*
0 Add four circle primitives for the rounded corners*
1,1,$1+$1,$2,$3*
1,1,$1+$1,$4,$5*
1,1,$1+$1,$6,$7*
1,1,$1+$1,$8,$9*
0 Add four rect primitives between the rounded corners*
20,1,$1+$1,$2,$3,$4,$5,0*
20,1,$1+$1,$4,$5,$6,$7,0*
20,1,$1+$1,$6,$7,$8,$9,0*
20,1,$1+$1,$8,$9,$2,$3,0*%
G04 Aperture macros list end*
%ADD10C,0.150000*%
%ADD11C,0.120000*%
%ADD12C,2.000000*%
%ADD13RoundRect,0.250000X0.262500X0.450000X-0.262500X0.450000X-0.262500X-0.450000X0.262500X-0.450000X0*%
%ADD14RoundRect,0.250000X-0.262500X-0.450000X0.262500X-0.450000X0.262500X0.450000X-0.262500X0.450000X0*%
%ADD15RoundRect,0.250000X-0.450000X0.262500X-0.450000X-0.262500X0.450000X-0.262500X0.450000X0.262500X0*%
%ADD16RoundRect,0.243750X-0.456250X0.243750X-0.456250X-0.243750X0.456250X-0.243750X0.456250X0.243750X0*%
%ADD17RoundRect,0.250000X0.475000X-0.250000X0.475000X0.250000X-0.475000X0.250000X-0.475000X-0.250000X0*%
%ADD18RoundRect,0.250000X-0.475000X0.250000X-0.475000X-0.250000X0.475000X-0.250000X0.475000X0.250000X0*%
%ADD19RoundRect,0.250000X0.450000X-0.262500X0.450000X0.262500X-0.450000X0.262500X-0.450000X-0.262500X0*%
%ADD20C,5.400000*%
%ADD21RoundRect,0.225000X-0.250000X0.225000X-0.250000X-0.225000X0.250000X-0.225000X0.250000X0.225000X0*%
%ADD22R,1.700000X1.700000*%
%ADD23O,1.700000X1.700000*%
%ADD24RoundRect,0.250000X-0.550000X1.250000X-0.550000X-1.250000X0.550000X-1.250000X0.550000X1.250000X0*%
%ADD25R,3.500000X1.200000*%
%ADD26R,1.300000X1.300000*%
%ADD27R,1.300000X2.000000*%
%ADD28RoundRect,0.250000X-1.250000X-0.550000X1.250000X-0.550000X1.250000X0.550000X-1.250000X0.550000X0*%
%ADD29RoundRect,0.225000X0.250000X-0.225000X0.250000X0.225000X-0.250000X0.225000X-0.250000X-0.225000X0*%
%ADD30R,0.550000X1.600000*%
%ADD31R,1.600000X0.550000*%
G04 APERTURE END LIST*
D10*
X151847761Y-45275333D02*
X151895380Y-45132476D01*
X151895380Y-44894380D01*
X151847761Y-44799142D01*
X151800142Y-44751523D01*
X151704904Y-44703904D01*
X151609666Y-44703904D01*
X151514428Y-44751523D01*
X151466809Y-44799142D01*
X151419190Y-44894380D01*
X151371571Y-45084857D01*
X151323952Y-45180095D01*
X151276333Y-45227714D01*
X151181095Y-45275333D01*
X151085857Y-45275333D01*
X150990619Y-45227714D01*
X150943000Y-45180095D01*
X150895380Y-45084857D01*
X150895380Y-44846761D01*
X150943000Y-44703904D01*
X150895380Y-44370571D02*
X151895380Y-44132476D01*
X151181095Y-43942000D01*
X151895380Y-43751523D01*
X150895380Y-43513428D01*
X151895380Y-42608666D02*
X151895380Y-43180095D01*
X151895380Y-42894380D02*
X150895380Y-42894380D01*
X151038238Y-42989619D01*
X151133476Y-43084857D01*
X151181095Y-43180095D01*
X113657142Y-57729380D02*
X113323809Y-57253190D01*
X113085714Y-57729380D02*
X113085714Y-56729380D01*
X113466666Y-56729380D01*
X113561904Y-56777000D01*
X113609523Y-56824619D01*
X113657142Y-56919857D01*
X113657142Y-57062714D01*
X113609523Y-57157952D01*
X113561904Y-57205571D01*
X113466666Y-57253190D01*
X113085714Y-57253190D01*
X114609523Y-57729380D02*
X114038095Y-57729380D01*
X114323809Y-57729380D02*
X114323809Y-56729380D01*
X114228571Y-56872238D01*
X114133333Y-56967476D01*
X114038095Y-57015095D01*
X114942857Y-56729380D02*
X115561904Y-56729380D01*
X115228571Y-57110333D01*
X115371428Y-57110333D01*
X115466666Y-57157952D01*
X115514285Y-57205571D01*
X115561904Y-57300809D01*
X115561904Y-57538904D01*
X115514285Y-57634142D01*
X115466666Y-57681761D01*
X115371428Y-57729380D01*
X115085714Y-57729380D01*
X114990476Y-57681761D01*
X114942857Y-57634142D01*
X113887642Y-54428380D02*
X113554309Y-53952190D01*
X113316214Y-54428380D02*
X113316214Y-53428380D01*
X113697166Y-53428380D01*
X113792404Y-53476000D01*
X113840023Y-53523619D01*
X113887642Y-53618857D01*
X113887642Y-53761714D01*
X113840023Y-53856952D01*
X113792404Y-53904571D01*
X113697166Y-53952190D01*
X113316214Y-53952190D01*
X114840023Y-54428380D02*
X114268595Y-54428380D01*
X114554309Y-54428380D02*
X114554309Y-53428380D01*
X114459071Y-53571238D01*
X114363833Y-53666476D01*
X114268595Y-53714095D01*
X115220976Y-53523619D02*
X115268595Y-53476000D01*
X115363833Y-53428380D01*
X115601928Y-53428380D01*
X115697166Y-53476000D01*
X115744785Y-53523619D01*
X115792404Y-53618857D01*
X115792404Y-53714095D01*
X115744785Y-53856952D01*
X115173357Y-54428380D01*
X115792404Y-54428380D01*
X113887642Y-50999380D02*
X113554309Y-50523190D01*
X113316214Y-50999380D02*
X113316214Y-49999380D01*
X113697166Y-49999380D01*
X113792404Y-50047000D01*
X113840023Y-50094619D01*
X113887642Y-50189857D01*
X113887642Y-50332714D01*
X113840023Y-50427952D01*
X113792404Y-50475571D01*
X113697166Y-50523190D01*
X113316214Y-50523190D01*
X114840023Y-50999380D02*
X114268595Y-50999380D01*
X114554309Y-50999380D02*
X114554309Y-49999380D01*
X114459071Y-50142238D01*
X114363833Y-50237476D01*
X114268595Y-50285095D01*
X115792404Y-50999380D02*
X115220976Y-50999380D01*
X115506690Y-50999380D02*
X115506690Y-49999380D01*
X115411452Y-50142238D01*
X115316214Y-50237476D01*
X115220976Y-50285095D01*
X113887642Y-47697380D02*
X113554309Y-47221190D01*
X113316214Y-47697380D02*
X113316214Y-46697380D01*
X113697166Y-46697380D01*
X113792404Y-46745000D01*
X113840023Y-46792619D01*
X113887642Y-46887857D01*
X113887642Y-47030714D01*
X113840023Y-47125952D01*
X113792404Y-47173571D01*
X113697166Y-47221190D01*
X113316214Y-47221190D01*
X114840023Y-47697380D02*
X114268595Y-47697380D01*
X114554309Y-47697380D02*
X114554309Y-46697380D01*
X114459071Y-46840238D01*
X114363833Y-46935476D01*
X114268595Y-46983095D01*
X115459071Y-46697380D02*
X115554309Y-46697380D01*
X115649547Y-46745000D01*
X115697166Y-46792619D01*
X115744785Y-46887857D01*
X115792404Y-47078333D01*
X115792404Y-47316428D01*
X115744785Y-47506904D01*
X115697166Y-47602142D01*
X115649547Y-47649761D01*
X115554309Y-47697380D01*
X115459071Y-47697380D01*
X115363833Y-47649761D01*
X115316214Y-47602142D01*
X115268595Y-47506904D01*
X115220976Y-47316428D01*
X115220976Y-47078333D01*
X115268595Y-46887857D01*
X115316214Y-46792619D01*
X115363833Y-46745000D01*
X115459071Y-46697380D01*
X116783380Y-40933666D02*
X116307190Y-41267000D01*
X116783380Y-41505095D02*
X115783380Y-41505095D01*
X115783380Y-41124142D01*
X115831000Y-41028904D01*
X115878619Y-40981285D01*
X115973857Y-40933666D01*
X116116714Y-40933666D01*
X116211952Y-40981285D01*
X116259571Y-41028904D01*
X116307190Y-41124142D01*
X116307190Y-41505095D01*
X116783380Y-40457476D02*
X116783380Y-40267000D01*
X116735761Y-40171761D01*
X116688142Y-40124142D01*
X116545285Y-40028904D01*
X116354809Y-39981285D01*
X115973857Y-39981285D01*
X115878619Y-40028904D01*
X115831000Y-40076523D01*
X115783380Y-40171761D01*
X115783380Y-40362238D01*
X115831000Y-40457476D01*
X115878619Y-40505095D01*
X115973857Y-40552714D01*
X116211952Y-40552714D01*
X116307190Y-40505095D01*
X116354809Y-40457476D01*
X116402428Y-40362238D01*
X116402428Y-40171761D01*
X116354809Y-40076523D01*
X116307190Y-40028904D01*
X116211952Y-39981285D01*
X121609380Y-48299666D02*
X121133190Y-48633000D01*
X121609380Y-48871095D02*
X120609380Y-48871095D01*
X120609380Y-48490142D01*
X120657000Y-48394904D01*
X120704619Y-48347285D01*
X120799857Y-48299666D01*
X120942714Y-48299666D01*
X121037952Y-48347285D01*
X121085571Y-48394904D01*
X121133190Y-48490142D01*
X121133190Y-48871095D01*
X121037952Y-47728238D02*
X120990333Y-47823476D01*
X120942714Y-47871095D01*
X120847476Y-47918714D01*
X120799857Y-47918714D01*
X120704619Y-47871095D01*
X120657000Y-47823476D01*
X120609380Y-47728238D01*
X120609380Y-47537761D01*
X120657000Y-47442523D01*
X120704619Y-47394904D01*
X120799857Y-47347285D01*
X120847476Y-47347285D01*
X120942714Y-47394904D01*
X120990333Y-47442523D01*
X121037952Y-47537761D01*
X121037952Y-47728238D01*
X121085571Y-47823476D01*
X121133190Y-47871095D01*
X121228428Y-47918714D01*
X121418904Y-47918714D01*
X121514142Y-47871095D01*
X121561761Y-47823476D01*
X121609380Y-47728238D01*
X121609380Y-47537761D01*
X121561761Y-47442523D01*
X121514142Y-47394904D01*
X121418904Y-47347285D01*
X121228428Y-47347285D01*
X121133190Y-47394904D01*
X121085571Y-47442523D01*
X121037952Y-47537761D01*
X145358380Y-51474666D02*
X144882190Y-51808000D01*
X145358380Y-52046095D02*
X144358380Y-52046095D01*
X144358380Y-51665142D01*
X144406000Y-51569904D01*
X144453619Y-51522285D01*
X144548857Y-51474666D01*
X144691714Y-51474666D01*
X144786952Y-51522285D01*
X144834571Y-51569904D01*
X144882190Y-51665142D01*
X144882190Y-52046095D01*
X144358380Y-51141333D02*
X144358380Y-50474666D01*
X145358380Y-50903238D01*
X141802380Y-53570095D02*
X140802380Y-53570095D01*
X140802380Y-53332000D01*
X140850000Y-53189142D01*
X140945238Y-53093904D01*
X141040476Y-53046285D01*
X141230952Y-52998666D01*
X141373809Y-52998666D01*
X141564285Y-53046285D01*
X141659523Y-53093904D01*
X141754761Y-53189142D01*
X141802380Y-53332000D01*
X141802380Y-53570095D01*
X141802380Y-52046285D02*
X141802380Y-52617714D01*
X141802380Y-52332000D02*
X140802380Y-52332000D01*
X140945238Y-52427238D01*
X141040476Y-52522476D01*
X141088095Y-52617714D01*
X134440142Y-54903666D02*
X134487761Y-54951285D01*
X134535380Y-55094142D01*
X134535380Y-55189380D01*
X134487761Y-55332238D01*
X134392523Y-55427476D01*
X134297285Y-55475095D01*
X134106809Y-55522714D01*
X133963952Y-55522714D01*
X133773476Y-55475095D01*
X133678238Y-55427476D01*
X133583000Y-55332238D01*
X133535380Y-55189380D01*
X133535380Y-55094142D01*
X133583000Y-54951285D01*
X133630619Y-54903666D01*
X133535380Y-54570333D02*
X133535380Y-53951285D01*
X133916333Y-54284619D01*
X133916333Y-54141761D01*
X133963952Y-54046523D01*
X134011571Y-53998904D01*
X134106809Y-53951285D01*
X134344904Y-53951285D01*
X134440142Y-53998904D01*
X134487761Y-54046523D01*
X134535380Y-54141761D01*
X134535380Y-54427476D01*
X134487761Y-54522714D01*
X134440142Y-54570333D01*
X126214142Y-36869666D02*
X126261761Y-36917285D01*
X126309380Y-37060142D01*
X126309380Y-37155380D01*
X126261761Y-37298238D01*
X126166523Y-37393476D01*
X126071285Y-37441095D01*
X125880809Y-37488714D01*
X125737952Y-37488714D01*
X125547476Y-37441095D01*
X125452238Y-37393476D01*
X125357000Y-37298238D01*
X125309380Y-37155380D01*
X125309380Y-37060142D01*
X125357000Y-36917285D01*
X125404619Y-36869666D01*
X126309380Y-35917285D02*
X126309380Y-36488714D01*
X126309380Y-36203000D02*
X125309380Y-36203000D01*
X125452238Y-36298238D01*
X125547476Y-36393476D01*
X125595095Y-36488714D01*
X128103333Y-61665380D02*
X127770000Y-61189190D01*
X127531904Y-61665380D02*
X127531904Y-60665380D01*
X127912857Y-60665380D01*
X128008095Y-60713000D01*
X128055714Y-60760619D01*
X128103333Y-60855857D01*
X128103333Y-60998714D01*
X128055714Y-61093952D01*
X128008095Y-61141571D01*
X127912857Y-61189190D01*
X127531904Y-61189190D01*
X128484285Y-60760619D02*
X128531904Y-60713000D01*
X128627142Y-60665380D01*
X128865238Y-60665380D01*
X128960476Y-60713000D01*
X129008095Y-60760619D01*
X129055714Y-60855857D01*
X129055714Y-60951095D01*
X129008095Y-61093952D01*
X128436666Y-61665380D01*
X129055714Y-61665380D01*
X120721380Y-58967666D02*
X120245190Y-59301000D01*
X120721380Y-59539095D02*
X119721380Y-59539095D01*
X119721380Y-59158142D01*
X119769000Y-59062904D01*
X119816619Y-59015285D01*
X119911857Y-58967666D01*
X120054714Y-58967666D01*
X120149952Y-59015285D01*
X120197571Y-59062904D01*
X120245190Y-59158142D01*
X120245190Y-59539095D01*
X119721380Y-58634333D02*
X119721380Y-58015285D01*
X120102333Y-58348619D01*
X120102333Y-58205761D01*
X120149952Y-58110523D01*
X120197571Y-58062904D01*
X120292809Y-58015285D01*
X120530904Y-58015285D01*
X120626142Y-58062904D01*
X120673761Y-58110523D01*
X120721380Y-58205761D01*
X120721380Y-58491476D01*
X120673761Y-58586714D01*
X120626142Y-58634333D01*
X117348095Y-25200380D02*
X117348095Y-24200380D01*
X117348095Y-24676571D02*
X117919523Y-24676571D01*
X117919523Y-25200380D02*
X117919523Y-24200380D01*
X118919523Y-25200380D02*
X118348095Y-25200380D01*
X118633809Y-25200380D02*
X118633809Y-24200380D01*
X118538571Y-24343238D01*
X118443333Y-24438476D01*
X118348095Y-24486095D01*
X131581142Y-45378666D02*
X131628761Y-45426285D01*
X131676380Y-45569142D01*
X131676380Y-45664380D01*
X131628761Y-45807238D01*
X131533523Y-45902476D01*
X131438285Y-45950095D01*
X131247809Y-45997714D01*
X131104952Y-45997714D01*
X130914476Y-45950095D01*
X130819238Y-45902476D01*
X130724000Y-45807238D01*
X130676380Y-45664380D01*
X130676380Y-45569142D01*
X130724000Y-45426285D01*
X130771619Y-45378666D01*
X131104952Y-44807238D02*
X131057333Y-44902476D01*
X131009714Y-44950095D01*
X130914476Y-44997714D01*
X130866857Y-44997714D01*
X130771619Y-44950095D01*
X130724000Y-44902476D01*
X130676380Y-44807238D01*
X130676380Y-44616761D01*
X130724000Y-44521523D01*
X130771619Y-44473904D01*
X130866857Y-44426285D01*
X130914476Y-44426285D01*
X131009714Y-44473904D01*
X131057333Y-44521523D01*
X131104952Y-44616761D01*
X131104952Y-44807238D01*
X131152571Y-44902476D01*
X131200190Y-44950095D01*
X131295428Y-44997714D01*
X131485904Y-44997714D01*
X131581142Y-44950095D01*
X131628761Y-44902476D01*
X131676380Y-44807238D01*
X131676380Y-44616761D01*
X131628761Y-44521523D01*
X131581142Y-44473904D01*
X131485904Y-44426285D01*
X131295428Y-44426285D01*
X131200190Y-44473904D01*
X131152571Y-44521523D01*
X131104952Y-44616761D01*
X133691333Y-45283380D02*
X133358000Y-44807190D01*
X133119904Y-45283380D02*
X133119904Y-44283380D01*
X133500857Y-44283380D01*
X133596095Y-44331000D01*
X133643714Y-44378619D01*
X133691333Y-44473857D01*
X133691333Y-44616714D01*
X133643714Y-44711952D01*
X133596095Y-44759571D01*
X133500857Y-44807190D01*
X133119904Y-44807190D01*
X134596095Y-44283380D02*
X134119904Y-44283380D01*
X134072285Y-44759571D01*
X134119904Y-44711952D01*
X134215142Y-44664333D01*
X134453238Y-44664333D01*
X134548476Y-44711952D01*
X134596095Y-44759571D01*
X134643714Y-44854809D01*
X134643714Y-45092904D01*
X134596095Y-45188142D01*
X134548476Y-45235761D01*
X134453238Y-45283380D01*
X134215142Y-45283380D01*
X134119904Y-45235761D01*
X134072285Y-45188142D01*
X134707333Y-50109380D02*
X134374000Y-49633190D01*
X134135904Y-50109380D02*
X134135904Y-49109380D01*
X134516857Y-49109380D01*
X134612095Y-49157000D01*
X134659714Y-49204619D01*
X134707333Y-49299857D01*
X134707333Y-49442714D01*
X134659714Y-49537952D01*
X134612095Y-49585571D01*
X134516857Y-49633190D01*
X134135904Y-49633190D01*
X135564476Y-49442714D02*
X135564476Y-50109380D01*
X135326380Y-49061761D02*
X135088285Y-49776047D01*
X135707333Y-49776047D01*
X123928142Y-59983666D02*
X123975761Y-60031285D01*
X124023380Y-60174142D01*
X124023380Y-60269380D01*
X123975761Y-60412238D01*
X123880523Y-60507476D01*
X123785285Y-60555095D01*
X123594809Y-60602714D01*
X123451952Y-60602714D01*
X123261476Y-60555095D01*
X123166238Y-60507476D01*
X123071000Y-60412238D01*
X123023380Y-60269380D01*
X123023380Y-60174142D01*
X123071000Y-60031285D01*
X123118619Y-59983666D01*
X123356714Y-59126523D02*
X124023380Y-59126523D01*
X122975761Y-59364619D02*
X123690047Y-59602714D01*
X123690047Y-58983666D01*
X119046666Y-63206380D02*
X119046666Y-63920666D01*
X118999047Y-64063523D01*
X118903809Y-64158761D01*
X118760952Y-64206380D01*
X118665714Y-64206380D01*
X120046666Y-64206380D02*
X119475238Y-64206380D01*
X119760952Y-64206380D02*
X119760952Y-63206380D01*
X119665714Y-63349238D01*
X119570476Y-63444476D01*
X119475238Y-63492095D01*
X113752333Y-61031380D02*
X113419000Y-60555190D01*
X113180904Y-61031380D02*
X113180904Y-60031380D01*
X113561857Y-60031380D01*
X113657095Y-60079000D01*
X113704714Y-60126619D01*
X113752333Y-60221857D01*
X113752333Y-60364714D01*
X113704714Y-60459952D01*
X113657095Y-60507571D01*
X113561857Y-60555190D01*
X113180904Y-60555190D01*
X114609476Y-60031380D02*
X114419000Y-60031380D01*
X114323761Y-60079000D01*
X114276142Y-60126619D01*
X114180904Y-60269476D01*
X114133285Y-60459952D01*
X114133285Y-60840904D01*
X114180904Y-60936142D01*
X114228523Y-60983761D01*
X114323761Y-61031380D01*
X114514238Y-61031380D01*
X114609476Y-60983761D01*
X114657095Y-60936142D01*
X114704714Y-60840904D01*
X114704714Y-60602809D01*
X114657095Y-60507571D01*
X114609476Y-60459952D01*
X114514238Y-60412333D01*
X114323761Y-60412333D01*
X114228523Y-60459952D01*
X114180904Y-60507571D01*
X114133285Y-60602809D01*
X145662142Y-63412666D02*
X145709761Y-63460285D01*
X145757380Y-63603142D01*
X145757380Y-63698380D01*
X145709761Y-63841238D01*
X145614523Y-63936476D01*
X145519285Y-63984095D01*
X145328809Y-64031714D01*
X145185952Y-64031714D01*
X144995476Y-63984095D01*
X144900238Y-63936476D01*
X144805000Y-63841238D01*
X144757380Y-63698380D01*
X144757380Y-63603142D01*
X144805000Y-63460285D01*
X144852619Y-63412666D01*
X144757380Y-62507904D02*
X144757380Y-62984095D01*
X145233571Y-63031714D01*
X145185952Y-62984095D01*
X145138333Y-62888857D01*
X145138333Y-62650761D01*
X145185952Y-62555523D01*
X145233571Y-62507904D01*
X145328809Y-62460285D01*
X145566904Y-62460285D01*
X145662142Y-62507904D01*
X145709761Y-62555523D01*
X145757380Y-62650761D01*
X145757380Y-62888857D01*
X145709761Y-62984095D01*
X145662142Y-63031714D01*
X124237809Y-38178190D02*
X124237809Y-38654380D01*
X123904476Y-37654380D02*
X124237809Y-38178190D01*
X124571142Y-37654380D01*
X125428285Y-38654380D02*
X124856857Y-38654380D01*
X125142571Y-38654380D02*
X125142571Y-37654380D01*
X125047333Y-37797238D01*
X124952095Y-37892476D01*
X124856857Y-37940095D01*
X133802380Y-58586666D02*
X133326190Y-58920000D01*
X133802380Y-59158095D02*
X132802380Y-59158095D01*
X132802380Y-58777142D01*
X132850000Y-58681904D01*
X132897619Y-58634285D01*
X132992857Y-58586666D01*
X133135714Y-58586666D01*
X133230952Y-58634285D01*
X133278571Y-58681904D01*
X133326190Y-58777142D01*
X133326190Y-59158095D01*
X133802380Y-57634285D02*
X133802380Y-58205714D01*
X133802380Y-57920000D02*
X132802380Y-57920000D01*
X132945238Y-58015238D01*
X133040476Y-58110476D01*
X133088095Y-58205714D01*
X123356761Y-29916380D02*
X123023428Y-29440190D01*
X122785333Y-29916380D02*
X122785333Y-28916380D01*
X123166285Y-28916380D01*
X123261523Y-28964000D01*
X123309142Y-29011619D01*
X123356761Y-29106857D01*
X123356761Y-29249714D01*
X123309142Y-29344952D01*
X123261523Y-29392571D01*
X123166285Y-29440190D01*
X122785333Y-29440190D01*
X123642476Y-28916380D02*
X123975809Y-29916380D01*
X124309142Y-28916380D01*
X125166285Y-29916380D02*
X124594857Y-29916380D01*
X124880571Y-29916380D02*
X124880571Y-28916380D01*
X124785333Y-29059238D01*
X124690095Y-29154476D01*
X124594857Y-29202095D01*
X143851380Y-29162333D02*
X144565666Y-29162333D01*
X144708523Y-29209952D01*
X144803761Y-29305190D01*
X144851380Y-29448047D01*
X144851380Y-29543285D01*
X143946619Y-28733761D02*
X143899000Y-28686142D01*
X143851380Y-28590904D01*
X143851380Y-28352809D01*
X143899000Y-28257571D01*
X143946619Y-28209952D01*
X144041857Y-28162333D01*
X144137095Y-28162333D01*
X144279952Y-28209952D01*
X144851380Y-28781380D01*
X144851380Y-28162333D01*
X121642142Y-38139666D02*
X121689761Y-38187285D01*
X121737380Y-38330142D01*
X121737380Y-38425380D01*
X121689761Y-38568238D01*
X121594523Y-38663476D01*
X121499285Y-38711095D01*
X121308809Y-38758714D01*
X121165952Y-38758714D01*
X120975476Y-38711095D01*
X120880238Y-38663476D01*
X120785000Y-38568238D01*
X120737380Y-38425380D01*
X120737380Y-38330142D01*
X120785000Y-38187285D01*
X120832619Y-38139666D01*
X120832619Y-37758714D02*
X120785000Y-37711095D01*
X120737380Y-37615857D01*
X120737380Y-37377761D01*
X120785000Y-37282523D01*
X120832619Y-37234904D01*
X120927857Y-37187285D01*
X121023095Y-37187285D01*
X121165952Y-37234904D01*
X121737380Y-37806333D01*
X121737380Y-37187285D01*
X149566333Y-49997142D02*
X149518714Y-50044761D01*
X149375857Y-50092380D01*
X149280619Y-50092380D01*
X149137761Y-50044761D01*
X149042523Y-49949523D01*
X148994904Y-49854285D01*
X148947285Y-49663809D01*
X148947285Y-49520952D01*
X148994904Y-49330476D01*
X149042523Y-49235238D01*
X149137761Y-49140000D01*
X149280619Y-49092380D01*
X149375857Y-49092380D01*
X149518714Y-49140000D01*
X149566333Y-49187619D01*
X150423476Y-49092380D02*
X150233000Y-49092380D01*
X150137761Y-49140000D01*
X150090142Y-49187619D01*
X149994904Y-49330476D01*
X149947285Y-49520952D01*
X149947285Y-49901904D01*
X149994904Y-49997142D01*
X150042523Y-50044761D01*
X150137761Y-50092380D01*
X150328238Y-50092380D01*
X150423476Y-50044761D01*
X150471095Y-49997142D01*
X150518714Y-49901904D01*
X150518714Y-49663809D01*
X150471095Y-49568571D01*
X150423476Y-49520952D01*
X150328238Y-49473333D01*
X150137761Y-49473333D01*
X150042523Y-49520952D01*
X149994904Y-49568571D01*
X149947285Y-49663809D01*
X149225095Y-58982380D02*
X149225095Y-57982380D01*
X149225095Y-58458571D02*
X149796523Y-58458571D01*
X149796523Y-58982380D02*
X149796523Y-57982380D01*
X150225095Y-58077619D02*
X150272714Y-58030000D01*
X150367952Y-57982380D01*
X150606047Y-57982380D01*
X150701285Y-58030000D01*
X150748904Y-58077619D01*
X150796523Y-58172857D01*
X150796523Y-58268095D01*
X150748904Y-58410952D01*
X150177476Y-58982380D01*
X150796523Y-58982380D01*
X112950666Y-24725380D02*
X112950666Y-25439666D01*
X112903047Y-25582523D01*
X112807809Y-25677761D01*
X112664952Y-25725380D01*
X112569714Y-25725380D01*
X113855428Y-25058714D02*
X113855428Y-25725380D01*
X113617333Y-24677761D02*
X113379238Y-25392047D01*
X113998285Y-25392047D01*
X123768142Y-44997666D02*
X123815761Y-45045285D01*
X123863380Y-45188142D01*
X123863380Y-45283380D01*
X123815761Y-45426238D01*
X123720523Y-45521476D01*
X123625285Y-45569095D01*
X123434809Y-45616714D01*
X123291952Y-45616714D01*
X123101476Y-45569095D01*
X123006238Y-45521476D01*
X122911000Y-45426238D01*
X122863380Y-45283380D01*
X122863380Y-45188142D01*
X122911000Y-45045285D01*
X122958619Y-44997666D01*
X122863380Y-44664333D02*
X122863380Y-43997666D01*
X123863380Y-44426238D01*
X127722380Y-52958904D02*
X128531904Y-52958904D01*
X128627142Y-52911285D01*
X128674761Y-52863666D01*
X128722380Y-52768428D01*
X128722380Y-52577952D01*
X128674761Y-52482714D01*
X128627142Y-52435095D01*
X128531904Y-52387476D01*
X127722380Y-52387476D01*
X128722380Y-51387476D02*
X128722380Y-51958904D01*
X128722380Y-51673190D02*
X127722380Y-51673190D01*
X127865238Y-51768428D01*
X127960476Y-51863666D01*
X128008095Y-51958904D01*
X133310380Y-29162333D02*
X134024666Y-29162333D01*
X134167523Y-29209952D01*
X134262761Y-29305190D01*
X134310380Y-29448047D01*
X134310380Y-29543285D01*
X133310380Y-28781380D02*
X133310380Y-28162333D01*
X133691333Y-28495666D01*
X133691333Y-28352809D01*
X133738952Y-28257571D01*
X133786571Y-28209952D01*
X133881809Y-28162333D01*
X134119904Y-28162333D01*
X134215142Y-28209952D01*
X134262761Y-28257571D01*
X134310380Y-28352809D01*
X134310380Y-28638523D01*
X134262761Y-28733761D01*
X134215142Y-28781380D01*
D11*
X143943000Y-41692000D02*
X143943000Y-46192000D01*
X147943000Y-40442000D02*
X146443000Y-40442000D01*
X150443000Y-46192000D02*
X150443000Y-41692000D01*
X146443000Y-47442000D02*
X147943000Y-47442000D01*
X114908064Y-59536000D02*
X114453936Y-59536000D01*
X114908064Y-58066000D02*
X114453936Y-58066000D01*
X114303436Y-54891000D02*
X114757564Y-54891000D01*
X114303436Y-56361000D02*
X114757564Y-56361000D01*
X114303436Y-51462000D02*
X114757564Y-51462000D01*
X114303436Y-52932000D02*
X114757564Y-52932000D01*
X114303436Y-48160000D02*
X114757564Y-48160000D01*
X114303436Y-49630000D02*
X114757564Y-49630000D01*
X115416000Y-40539936D02*
X115416000Y-40994064D01*
X113946000Y-40539936D02*
X113946000Y-40994064D01*
X120242000Y-47905936D02*
X120242000Y-48360064D01*
X118772000Y-47905936D02*
X118772000Y-48360064D01*
X142521000Y-51080936D02*
X142521000Y-51535064D01*
X143991000Y-51080936D02*
X143991000Y-51535064D01*
X138740000Y-51147000D02*
X138740000Y-53832000D01*
X140660000Y-51147000D02*
X138740000Y-51147000D01*
X140660000Y-53832000D02*
X140660000Y-51147000D01*
X135028000Y-54998252D02*
X135028000Y-54475748D01*
X136498000Y-54998252D02*
X136498000Y-54475748D01*
X126519000Y-37076748D02*
X126519000Y-37599252D01*
X127989000Y-37076748D02*
X127989000Y-37599252D01*
X128497064Y-60298000D02*
X128042936Y-60298000D01*
X128497064Y-58828000D02*
X128042936Y-58828000D01*
X120931000Y-59917064D02*
X120931000Y-59462936D01*
X122401000Y-59917064D02*
X122401000Y-59462936D01*
X130304000Y-45071420D02*
X130304000Y-45352580D01*
X129284000Y-45071420D02*
X129284000Y-45352580D01*
X134593064Y-47217000D02*
X134138936Y-47217000D01*
X134593064Y-45747000D02*
X134138936Y-45747000D01*
X135736064Y-50319000D02*
X135281936Y-50319000D01*
X135736064Y-51789000D02*
X135281936Y-51789000D01*
X125957000Y-59555748D02*
X125957000Y-60078252D01*
X124487000Y-59555748D02*
X124487000Y-60078252D01*
X113117000Y-64745000D02*
X113117000Y-63415000D01*
X115717000Y-66075000D02*
X118317000Y-66075000D01*
X115717000Y-63415000D02*
X118317000Y-63415000D01*
X113117000Y-63415000D02*
X114447000Y-63415000D01*
X115717000Y-66075000D02*
X115717000Y-63415000D01*
X118317000Y-66075000D02*
X118317000Y-63415000D01*
X114781064Y-61241000D02*
X114326936Y-61241000D01*
X114781064Y-62711000D02*
X114326936Y-62711000D01*
X143290000Y-59621000D02*
X143290000Y-60246000D01*
X138845000Y-61550437D02*
X138845000Y-66006000D01*
X143300563Y-60486000D02*
X142665000Y-60486000D01*
X139909437Y-60486000D02*
X140545000Y-60486000D01*
X138845000Y-66006000D02*
X140545000Y-66006000D01*
X144365000Y-61550437D02*
X144365000Y-66006000D01*
X143300563Y-60486000D02*
X144365000Y-61550437D01*
X139909437Y-60486000D02*
X138845000Y-61550437D01*
X144365000Y-66006000D02*
X142665000Y-66006000D01*
X143602500Y-59933500D02*
X142977500Y-59933500D01*
X120794000Y-39232000D02*
X120794000Y-40502000D01*
X120794000Y-43572000D02*
X128634000Y-43572000D01*
X128634000Y-39232000D02*
X128634000Y-40502000D01*
X120794000Y-39232000D02*
X128634000Y-39232000D01*
X128634000Y-43572000D02*
X128634000Y-42302000D01*
X120794000Y-43572000D02*
X120794000Y-42302000D01*
X131091000Y-59663064D02*
X131091000Y-59208936D01*
X132561000Y-59663064D02*
X132561000Y-59208936D01*
X126957000Y-30523000D02*
X122217000Y-30523000D01*
X122217000Y-30523000D02*
X122217000Y-31653000D01*
X126957000Y-32634000D02*
X126957000Y-33153000D01*
X126957000Y-35263000D02*
X122217000Y-35263000D01*
X126957000Y-34933000D02*
X126957000Y-35263000D01*
X122217000Y-34133000D02*
X122217000Y-35263000D01*
X126957000Y-30523000D02*
X126957000Y-30854000D01*
X148723000Y-32785000D02*
X148723000Y-33195000D01*
X152360620Y-24155000D02*
X152360620Y-32785000D01*
X150471100Y-24155000D02*
X150471100Y-32785000D01*
X151415860Y-24155000D02*
X151415860Y-32785000D01*
X151770145Y-24155000D02*
X151770145Y-32785000D01*
X152242525Y-24155000D02*
X152242525Y-32785000D01*
X149443000Y-32785000D02*
X149443000Y-33195000D01*
X151297765Y-24155000D02*
X151297765Y-32785000D01*
X151533955Y-24155000D02*
X151533955Y-32785000D01*
X152596810Y-24155000D02*
X152596810Y-32785000D01*
X150353000Y-24155000D02*
X150353000Y-32785000D01*
X151888240Y-24155000D02*
X151888240Y-32785000D01*
X152833000Y-24155000D02*
X152833000Y-32785000D01*
X152953000Y-24155000D02*
X145213000Y-24155000D01*
X150707290Y-24155000D02*
X150707290Y-32785000D01*
X152714905Y-24155000D02*
X152714905Y-32785000D01*
X145213000Y-24155000D02*
X145213000Y-32785000D01*
X150825385Y-24155000D02*
X150825385Y-32785000D01*
X151061575Y-24155000D02*
X151061575Y-32785000D01*
X147813000Y-24155000D02*
X147813000Y-32785000D01*
X146183000Y-32785000D02*
X146183000Y-33195000D01*
X151983000Y-32785000D02*
X151983000Y-33135000D01*
X151263000Y-32785000D02*
X151263000Y-33135000D01*
X152953000Y-24155000D02*
X152953000Y-32785000D01*
X150589195Y-24155000D02*
X150589195Y-32785000D01*
X152953000Y-32785000D02*
X145213000Y-32785000D01*
X146903000Y-32785000D02*
X146903000Y-33195000D01*
X151652050Y-24155000D02*
X151652050Y-32785000D01*
X152953000Y-35355000D02*
X151623000Y-35355000D01*
X150943480Y-24155000D02*
X150943480Y-32785000D01*
X152124430Y-24155000D02*
X152124430Y-32785000D01*
X152478715Y-24155000D02*
X152478715Y-32785000D01*
X152953000Y-34245000D02*
X152953000Y-35355000D01*
X152006335Y-24155000D02*
X152006335Y-32785000D01*
X151179670Y-24155000D02*
X151179670Y-32785000D01*
X123671000Y-37076748D02*
X123671000Y-37599252D01*
X122201000Y-37076748D02*
X122201000Y-37599252D01*
X146973000Y-55035563D02*
X148037437Y-56100000D01*
X146973000Y-51644437D02*
X146973000Y-52280000D01*
X148037437Y-50580000D02*
X152493000Y-50580000D01*
X146973000Y-55035563D02*
X146973000Y-54400000D01*
X146108000Y-51655000D02*
X146733000Y-51655000D01*
X148037437Y-56100000D02*
X152493000Y-56100000D01*
X152493000Y-50580000D02*
X152493000Y-52280000D01*
X146973000Y-51644437D02*
X148037437Y-50580000D01*
X152493000Y-56100000D02*
X152493000Y-54400000D01*
X146420500Y-51342500D02*
X146420500Y-51967500D01*
X109287000Y-65846000D02*
X111947000Y-65846000D01*
X109287000Y-27686000D02*
X109287000Y-65846000D01*
X109287000Y-27686000D02*
X111947000Y-27686000D01*
X111947000Y-25086000D02*
X111947000Y-26416000D01*
X110617000Y-25086000D02*
X111947000Y-25086000D01*
X111947000Y-27686000D02*
X111947000Y-65846000D01*
X127002000Y-45352580D02*
X127002000Y-45071420D01*
X125982000Y-45352580D02*
X125982000Y-45071420D01*
D10*
X123629000Y-48572000D02*
X123629000Y-48897000D01*
X123629000Y-48572000D02*
X123954000Y-48572000D01*
X130879000Y-55822000D02*
X130879000Y-55497000D01*
X123629000Y-55822000D02*
X123954000Y-55822000D01*
X123629000Y-55822000D02*
X123629000Y-55497000D01*
X130654000Y-48572000D02*
X130654000Y-47147000D01*
X130879000Y-55822000D02*
X130554000Y-55822000D01*
X130879000Y-48572000D02*
X130654000Y-48572000D01*
X130879000Y-48572000D02*
X130879000Y-48897000D01*
D11*
X141823000Y-33039000D02*
X141823000Y-33389000D01*
X142793000Y-35609000D02*
X141463000Y-35609000D01*
X137653000Y-24409000D02*
X137653000Y-33039000D01*
X141137765Y-24409000D02*
X141137765Y-33039000D01*
X138563000Y-33039000D02*
X138563000Y-33449000D01*
X142200620Y-24409000D02*
X142200620Y-33039000D01*
X140429195Y-24409000D02*
X140429195Y-33039000D01*
X140665385Y-24409000D02*
X140665385Y-33039000D01*
X142793000Y-34499000D02*
X142793000Y-35609000D01*
X136743000Y-33039000D02*
X136743000Y-33449000D01*
X142318715Y-24409000D02*
X142318715Y-33039000D01*
X141255860Y-24409000D02*
X141255860Y-33039000D01*
X141019670Y-24409000D02*
X141019670Y-33039000D01*
X140311100Y-24409000D02*
X140311100Y-33039000D01*
X135053000Y-24409000D02*
X135053000Y-33039000D01*
X140783480Y-24409000D02*
X140783480Y-33039000D01*
X141846335Y-24409000D02*
X141846335Y-33039000D01*
X141492050Y-24409000D02*
X141492050Y-33039000D01*
X142554905Y-24409000D02*
X142554905Y-33039000D01*
X142793000Y-24409000D02*
X135053000Y-24409000D01*
X136023000Y-33039000D02*
X136023000Y-33449000D01*
X141964430Y-24409000D02*
X141964430Y-33039000D01*
X141728240Y-24409000D02*
X141728240Y-33039000D01*
X141610145Y-24409000D02*
X141610145Y-33039000D01*
X142673000Y-24409000D02*
X142673000Y-33039000D01*
X142793000Y-24409000D02*
X142793000Y-33039000D01*
X140547290Y-24409000D02*
X140547290Y-33039000D01*
X141373955Y-24409000D02*
X141373955Y-33039000D01*
X139283000Y-33039000D02*
X139283000Y-33449000D01*
X142082525Y-24409000D02*
X142082525Y-33039000D01*
X142436810Y-24409000D02*
X142436810Y-33039000D01*
X140193000Y-24409000D02*
X140193000Y-33039000D01*
X142793000Y-33039000D02*
X135053000Y-33039000D01*
X140901575Y-24409000D02*
X140901575Y-33039000D01*
X141103000Y-33039000D02*
X141103000Y-33389000D01*
%LPC*%
D12*
X144943000Y-40692000D03*
X144943000Y-47192000D03*
X149443000Y-40692000D03*
X149443000Y-47192000D03*
D13*
X115593500Y-58801000D03*
X113768500Y-58801000D03*
D14*
X113618000Y-55626000D03*
X115443000Y-55626000D03*
X113618000Y-52197000D03*
X115443000Y-52197000D03*
X113618000Y-48895000D03*
X115443000Y-48895000D03*
D15*
X114681000Y-39854500D03*
X114681000Y-41679500D03*
X119507000Y-47220500D03*
X119507000Y-49045500D03*
X143256000Y-52220500D03*
X143256000Y-50395500D03*
D16*
X139700000Y-53769500D03*
X139700000Y-51894500D03*
D17*
X135763000Y-53787000D03*
X135763000Y-55687000D03*
D18*
X127254000Y-36388000D03*
X127254000Y-38288000D03*
D13*
X129182500Y-59563000D03*
X127357500Y-59563000D03*
D19*
X121666000Y-60602500D03*
X121666000Y-58777500D03*
D20*
X118110000Y-28448000D03*
D21*
X129794000Y-44437000D03*
X129794000Y-45987000D03*
D13*
X135278500Y-46482000D03*
X133453500Y-46482000D03*
X134596500Y-51054000D03*
X136421500Y-51054000D03*
D18*
X125222000Y-58867000D03*
X125222000Y-60767000D03*
D22*
X114447000Y-64745000D03*
D23*
X116987000Y-64745000D03*
D13*
X115466500Y-61976000D03*
X113641500Y-61976000D03*
D24*
X141605000Y-61046000D03*
X141605000Y-65446000D03*
D25*
X121964000Y-41402000D03*
X127464000Y-41402000D03*
D19*
X131826000Y-58523500D03*
X131826000Y-60348500D03*
D26*
X127337000Y-31743000D03*
D27*
X121837000Y-32893000D03*
D26*
X127337000Y-34043000D03*
D22*
X151623000Y-34245000D03*
D23*
X149083000Y-34245000D03*
X146543000Y-34245000D03*
D18*
X122936000Y-36388000D03*
X122936000Y-38288000D03*
D28*
X147533000Y-53340000D03*
X151933000Y-53340000D03*
D20*
X149987000Y-62230000D03*
D22*
X110617000Y-26416000D03*
D23*
X110617000Y-28956000D03*
X110617000Y-31496000D03*
X110617000Y-34036000D03*
X110617000Y-36576000D03*
X110617000Y-39116000D03*
X110617000Y-41656000D03*
X110617000Y-44196000D03*
X110617000Y-46736000D03*
X110617000Y-49276000D03*
X110617000Y-51816000D03*
X110617000Y-54356000D03*
X110617000Y-56896000D03*
X110617000Y-59436000D03*
X110617000Y-61976000D03*
X110617000Y-64516000D03*
D29*
X126492000Y-45987000D03*
X126492000Y-44437000D03*
D30*
X130054000Y-47947000D03*
X129254000Y-47947000D03*
X128454000Y-47947000D03*
X127654000Y-47947000D03*
X126854000Y-47947000D03*
X126054000Y-47947000D03*
X125254000Y-47947000D03*
X124454000Y-47947000D03*
D31*
X123004000Y-49397000D03*
X123004000Y-50197000D03*
X123004000Y-50997000D03*
X123004000Y-51797000D03*
X123004000Y-52597000D03*
X123004000Y-53397000D03*
X123004000Y-54197000D03*
X123004000Y-54997000D03*
D30*
X124454000Y-56447000D03*
X125254000Y-56447000D03*
X126054000Y-56447000D03*
X126854000Y-56447000D03*
X127654000Y-56447000D03*
X128454000Y-56447000D03*
X129254000Y-56447000D03*
X130054000Y-56447000D03*
D31*
X131504000Y-54997000D03*
X131504000Y-54197000D03*
X131504000Y-53397000D03*
X131504000Y-52597000D03*
X131504000Y-51797000D03*
X131504000Y-50997000D03*
X131504000Y-50197000D03*
X131504000Y-49397000D03*
D22*
X141463000Y-34499000D03*
D23*
X138923000Y-34499000D03*
X136383000Y-34499000D03*
M02*
