%TF.GenerationSoftware,KiCad,Pcbnew,(6.0.9)*%
%TF.CreationDate,2022-12-23T15:26:46+01:00*%
%TF.ProjectId,mainboard,6d61696e-626f-4617-9264-2e6b69636164,rev?*%
%TF.SameCoordinates,Original*%
%TF.FileFunction,Drillmap*%
%TF.FilePolarity,Positive*%
%FSLAX45Y45*%
G04 Gerber Fmt 4.5, Leading zero omitted, Abs format (unit mm)*
G04 Created by KiCad (PCBNEW (6.0.9)) date 2022-12-23 15:26:46*
%MOMM*%
%LPD*%
G01*
G04 APERTURE LIST*
%ADD10C,0.150000*%
%ADD11C,0.200000*%
%ADD12C,0.040000*%
%ADD13C,0.080000*%
%ADD14C,0.100000*%
%ADD15C,0.110000*%
%ADD16C,0.270000*%
G04 APERTURE END LIST*
D10*
X10858500Y-2400300D02*
X15379700Y-2400300D01*
X15379700Y-2400300D02*
X15379700Y-6756400D01*
X15379700Y-6756400D02*
X10858500Y-6756400D01*
X10858500Y-6756400D02*
X10858500Y-2400300D01*
D11*
D12*
X11346500Y-4399600D02*
X11386500Y-4439600D01*
X11386500Y-4399600D02*
X11346500Y-4439600D01*
X11448100Y-5364800D02*
X11488100Y-5404800D01*
X11488100Y-5364800D02*
X11448100Y-5404800D01*
X11714800Y-5631500D02*
X11754800Y-5671500D01*
X11754800Y-5631500D02*
X11714800Y-5671500D01*
X11740200Y-5237800D02*
X11780200Y-5277800D01*
X11780200Y-5237800D02*
X11740200Y-5277800D01*
X11905300Y-5923600D02*
X11945300Y-5963600D01*
X11945300Y-5923600D02*
X11905300Y-5963600D01*
X12641900Y-6088700D02*
X12681900Y-6128700D01*
X12681900Y-6088700D02*
X12641900Y-6128700D01*
X12768900Y-4399600D02*
X12808900Y-4439600D01*
X12808900Y-4399600D02*
X12768900Y-4439600D01*
X13162600Y-4513900D02*
X13202600Y-4553900D01*
X13202600Y-4513900D02*
X13162600Y-4553900D01*
X13734100Y-5237800D02*
X13774100Y-5277800D01*
X13774100Y-5237800D02*
X13734100Y-5277800D01*
X13784900Y-4348800D02*
X13824900Y-4388800D01*
X13824900Y-4348800D02*
X13784900Y-4388800D01*
X13988100Y-5809300D02*
X14028100Y-5849300D01*
X14028100Y-5809300D02*
X13988100Y-5849300D01*
D13*
X13235300Y-4330700D02*
G75*
G03*
X13235300Y-4330700I-40000J0D01*
G01*
X13476600Y-4864100D02*
G75*
G03*
X13476600Y-4864100I-40000J0D01*
G01*
X13540100Y-4330700D02*
G75*
G03*
X13540100Y-4330700I-40000J0D01*
G01*
X14505300Y-5422900D02*
G75*
G03*
X14505300Y-5422900I-40000J0D01*
G01*
D14*
X11061700Y-2591600D02*
X11061700Y-2691600D01*
X11011700Y-2641600D02*
X11111700Y-2641600D01*
X11061700Y-2845600D02*
X11061700Y-2945600D01*
X11011700Y-2895600D02*
X11111700Y-2895600D01*
X11061700Y-3099600D02*
X11061700Y-3199600D01*
X11011700Y-3149600D02*
X11111700Y-3149600D01*
X11061700Y-3353600D02*
X11061700Y-3453600D01*
X11011700Y-3403600D02*
X11111700Y-3403600D01*
X11061700Y-3607600D02*
X11061700Y-3707600D01*
X11011700Y-3657600D02*
X11111700Y-3657600D01*
X11061700Y-3861600D02*
X11061700Y-3961600D01*
X11011700Y-3911600D02*
X11111700Y-3911600D01*
X11061700Y-4115600D02*
X11061700Y-4215600D01*
X11011700Y-4165600D02*
X11111700Y-4165600D01*
X11061700Y-4369600D02*
X11061700Y-4469600D01*
X11011700Y-4419600D02*
X11111700Y-4419600D01*
X11061700Y-4623600D02*
X11061700Y-4723600D01*
X11011700Y-4673600D02*
X11111700Y-4673600D01*
X11061700Y-4877600D02*
X11061700Y-4977600D01*
X11011700Y-4927600D02*
X11111700Y-4927600D01*
X11061700Y-5131600D02*
X11061700Y-5231600D01*
X11011700Y-5181600D02*
X11111700Y-5181600D01*
X11061700Y-5385600D02*
X11061700Y-5485600D01*
X11011700Y-5435600D02*
X11111700Y-5435600D01*
X11061700Y-5639600D02*
X11061700Y-5739600D01*
X11011700Y-5689600D02*
X11111700Y-5689600D01*
X11061700Y-5893600D02*
X11061700Y-5993600D01*
X11011700Y-5943600D02*
X11111700Y-5943600D01*
X11061700Y-6147600D02*
X11061700Y-6247600D01*
X11011700Y-6197600D02*
X11111700Y-6197600D01*
X11061700Y-6401600D02*
X11061700Y-6501600D01*
X11011700Y-6451600D02*
X11111700Y-6451600D01*
X11444700Y-6424500D02*
X11444700Y-6524500D01*
X11394700Y-6474500D02*
X11494700Y-6474500D01*
X11698700Y-6424500D02*
X11698700Y-6524500D01*
X11648700Y-6474500D02*
X11748700Y-6474500D01*
X13638300Y-3399900D02*
X13638300Y-3499900D01*
X13588300Y-3449900D02*
X13688300Y-3449900D01*
X13892300Y-3399900D02*
X13892300Y-3499900D01*
X13842300Y-3449900D02*
X13942300Y-3449900D01*
X14146300Y-3399900D02*
X14146300Y-3499900D01*
X14096300Y-3449900D02*
X14196300Y-3449900D01*
X14654300Y-3374500D02*
X14654300Y-3474500D01*
X14604300Y-3424500D02*
X14704300Y-3424500D01*
X14908300Y-3374500D02*
X14908300Y-3474500D01*
X14858300Y-3424500D02*
X14958300Y-3424500D01*
X15162300Y-3374500D02*
X15162300Y-3474500D01*
X15112300Y-3424500D02*
X15212300Y-3424500D01*
D15*
X14533191Y-4108091D02*
X14533191Y-4030309D01*
X14455409Y-4030309D01*
X14455409Y-4108091D01*
X14533191Y-4108091D01*
X14533191Y-4758091D02*
X14533191Y-4680309D01*
X14455409Y-4680309D01*
X14455409Y-4758091D01*
X14533191Y-4758091D01*
X14983191Y-4108091D02*
X14983191Y-4030309D01*
X14905409Y-4030309D01*
X14905409Y-4108091D01*
X14983191Y-4108091D01*
X14983191Y-4758091D02*
X14983191Y-4680309D01*
X14905409Y-4680309D01*
X14905409Y-4758091D01*
X14983191Y-4758091D01*
D16*
X11811000Y-2979800D02*
X11946000Y-2844800D01*
X11811000Y-2709800D01*
X11676000Y-2844800D01*
X11811000Y-2979800D01*
X14998700Y-6358000D02*
X15133700Y-6223000D01*
X14998700Y-6088000D01*
X14863700Y-6223000D01*
X14998700Y-6358000D01*
D11*
X11108619Y-7074376D02*
X11108619Y-6874376D01*
X11156238Y-6874376D01*
X11184810Y-6883900D01*
X11203857Y-6902948D01*
X11213381Y-6921995D01*
X11222905Y-6960090D01*
X11222905Y-6988662D01*
X11213381Y-7026757D01*
X11203857Y-7045805D01*
X11184810Y-7064852D01*
X11156238Y-7074376D01*
X11108619Y-7074376D01*
X11308619Y-7074376D02*
X11308619Y-6941043D01*
X11308619Y-6979138D02*
X11318143Y-6960090D01*
X11327667Y-6950567D01*
X11346714Y-6941043D01*
X11365762Y-6941043D01*
X11432428Y-7074376D02*
X11432428Y-6941043D01*
X11432428Y-6874376D02*
X11422905Y-6883900D01*
X11432428Y-6893424D01*
X11441952Y-6883900D01*
X11432428Y-6874376D01*
X11432428Y-6893424D01*
X11556238Y-7074376D02*
X11537190Y-7064852D01*
X11527667Y-7045805D01*
X11527667Y-6874376D01*
X11661000Y-7074376D02*
X11641952Y-7064852D01*
X11632428Y-7045805D01*
X11632428Y-6874376D01*
X11889571Y-7074376D02*
X11889571Y-6874376D01*
X11956238Y-7017233D01*
X12022905Y-6874376D01*
X12022905Y-7074376D01*
X12203857Y-7074376D02*
X12203857Y-6969614D01*
X12194333Y-6950567D01*
X12175286Y-6941043D01*
X12137190Y-6941043D01*
X12118143Y-6950567D01*
X12203857Y-7064852D02*
X12184809Y-7074376D01*
X12137190Y-7074376D01*
X12118143Y-7064852D01*
X12108619Y-7045805D01*
X12108619Y-7026757D01*
X12118143Y-7007709D01*
X12137190Y-6998186D01*
X12184809Y-6998186D01*
X12203857Y-6988662D01*
X12299095Y-6941043D02*
X12299095Y-7141043D01*
X12299095Y-6950567D02*
X12318143Y-6941043D01*
X12356238Y-6941043D01*
X12375286Y-6950567D01*
X12384809Y-6960090D01*
X12394333Y-6979138D01*
X12394333Y-7036281D01*
X12384809Y-7055328D01*
X12375286Y-7064852D01*
X12356238Y-7074376D01*
X12318143Y-7074376D01*
X12299095Y-7064852D01*
X12480048Y-7055328D02*
X12489571Y-7064852D01*
X12480048Y-7074376D01*
X12470524Y-7064852D01*
X12480048Y-7055328D01*
X12480048Y-7074376D01*
X12480048Y-6950567D02*
X12489571Y-6960090D01*
X12480048Y-6969614D01*
X12470524Y-6960090D01*
X12480048Y-6950567D01*
X12480048Y-6969614D01*
D12*
X10811000Y-7383900D02*
X10851000Y-7423900D01*
X10851000Y-7383900D02*
X10811000Y-7423900D01*
D11*
X11146714Y-7294376D02*
X11165762Y-7294376D01*
X11184810Y-7303900D01*
X11194333Y-7313424D01*
X11203857Y-7332471D01*
X11213381Y-7370567D01*
X11213381Y-7418186D01*
X11203857Y-7456281D01*
X11194333Y-7475328D01*
X11184810Y-7484852D01*
X11165762Y-7494376D01*
X11146714Y-7494376D01*
X11127667Y-7484852D01*
X11118143Y-7475328D01*
X11108619Y-7456281D01*
X11099095Y-7418186D01*
X11099095Y-7370567D01*
X11108619Y-7332471D01*
X11118143Y-7313424D01*
X11127667Y-7303900D01*
X11146714Y-7294376D01*
X11299095Y-7475328D02*
X11308619Y-7484852D01*
X11299095Y-7494376D01*
X11289571Y-7484852D01*
X11299095Y-7475328D01*
X11299095Y-7494376D01*
X11480048Y-7361043D02*
X11480048Y-7494376D01*
X11432428Y-7284852D02*
X11384809Y-7427709D01*
X11508619Y-7427709D01*
X11622905Y-7294376D02*
X11641952Y-7294376D01*
X11661000Y-7303900D01*
X11670524Y-7313424D01*
X11680048Y-7332471D01*
X11689571Y-7370567D01*
X11689571Y-7418186D01*
X11680048Y-7456281D01*
X11670524Y-7475328D01*
X11661000Y-7484852D01*
X11641952Y-7494376D01*
X11622905Y-7494376D01*
X11603857Y-7484852D01*
X11594333Y-7475328D01*
X11584809Y-7456281D01*
X11575286Y-7418186D01*
X11575286Y-7370567D01*
X11584809Y-7332471D01*
X11594333Y-7313424D01*
X11603857Y-7303900D01*
X11622905Y-7294376D01*
X11813381Y-7294376D02*
X11832428Y-7294376D01*
X11851476Y-7303900D01*
X11861000Y-7313424D01*
X11870524Y-7332471D01*
X11880048Y-7370567D01*
X11880048Y-7418186D01*
X11870524Y-7456281D01*
X11861000Y-7475328D01*
X11851476Y-7484852D01*
X11832428Y-7494376D01*
X11813381Y-7494376D01*
X11794333Y-7484852D01*
X11784809Y-7475328D01*
X11775286Y-7456281D01*
X11765762Y-7418186D01*
X11765762Y-7370567D01*
X11775286Y-7332471D01*
X11784809Y-7313424D01*
X11794333Y-7303900D01*
X11813381Y-7294376D01*
X11965762Y-7494376D02*
X11965762Y-7361043D01*
X11965762Y-7380090D02*
X11975286Y-7370567D01*
X11994333Y-7361043D01*
X12022905Y-7361043D01*
X12041952Y-7370567D01*
X12051476Y-7389614D01*
X12051476Y-7494376D01*
X12051476Y-7389614D02*
X12061000Y-7370567D01*
X12080048Y-7361043D01*
X12108619Y-7361043D01*
X12127667Y-7370567D01*
X12137190Y-7389614D01*
X12137190Y-7494376D01*
X12232428Y-7494376D02*
X12232428Y-7361043D01*
X12232428Y-7380090D02*
X12241952Y-7370567D01*
X12261000Y-7361043D01*
X12289571Y-7361043D01*
X12308619Y-7370567D01*
X12318143Y-7389614D01*
X12318143Y-7494376D01*
X12318143Y-7389614D02*
X12327667Y-7370567D01*
X12346714Y-7361043D01*
X12375286Y-7361043D01*
X12394333Y-7370567D01*
X12403857Y-7389614D01*
X12403857Y-7494376D01*
X12794333Y-7284852D02*
X12622905Y-7541995D01*
X13051476Y-7294376D02*
X13070524Y-7294376D01*
X13089571Y-7303900D01*
X13099095Y-7313424D01*
X13108619Y-7332471D01*
X13118143Y-7370567D01*
X13118143Y-7418186D01*
X13108619Y-7456281D01*
X13099095Y-7475328D01*
X13089571Y-7484852D01*
X13070524Y-7494376D01*
X13051476Y-7494376D01*
X13032428Y-7484852D01*
X13022905Y-7475328D01*
X13013381Y-7456281D01*
X13003857Y-7418186D01*
X13003857Y-7370567D01*
X13013381Y-7332471D01*
X13022905Y-7313424D01*
X13032428Y-7303900D01*
X13051476Y-7294376D01*
X13203857Y-7475328D02*
X13213381Y-7484852D01*
X13203857Y-7494376D01*
X13194333Y-7484852D01*
X13203857Y-7475328D01*
X13203857Y-7494376D01*
X13337190Y-7294376D02*
X13356238Y-7294376D01*
X13375286Y-7303900D01*
X13384809Y-7313424D01*
X13394333Y-7332471D01*
X13403857Y-7370567D01*
X13403857Y-7418186D01*
X13394333Y-7456281D01*
X13384809Y-7475328D01*
X13375286Y-7484852D01*
X13356238Y-7494376D01*
X13337190Y-7494376D01*
X13318143Y-7484852D01*
X13308619Y-7475328D01*
X13299095Y-7456281D01*
X13289571Y-7418186D01*
X13289571Y-7370567D01*
X13299095Y-7332471D01*
X13308619Y-7313424D01*
X13318143Y-7303900D01*
X13337190Y-7294376D01*
X13594333Y-7494376D02*
X13480048Y-7494376D01*
X13537190Y-7494376D02*
X13537190Y-7294376D01*
X13518143Y-7322948D01*
X13499095Y-7341995D01*
X13480048Y-7351519D01*
X13775286Y-7294376D02*
X13680048Y-7294376D01*
X13670524Y-7389614D01*
X13680048Y-7380090D01*
X13699095Y-7370567D01*
X13746714Y-7370567D01*
X13765762Y-7380090D01*
X13775286Y-7389614D01*
X13784809Y-7408662D01*
X13784809Y-7456281D01*
X13775286Y-7475328D01*
X13765762Y-7484852D01*
X13746714Y-7494376D01*
X13699095Y-7494376D01*
X13680048Y-7484852D01*
X13670524Y-7475328D01*
X13851476Y-7294376D02*
X13984809Y-7294376D01*
X13899095Y-7494376D01*
X14051476Y-7294376D02*
X14051476Y-7332471D01*
X14127667Y-7294376D02*
X14127667Y-7332471D01*
X14422905Y-7570567D02*
X14413381Y-7561043D01*
X14394333Y-7532471D01*
X14384809Y-7513424D01*
X14375286Y-7484852D01*
X14365762Y-7437233D01*
X14365762Y-7399138D01*
X14375286Y-7351519D01*
X14384809Y-7322948D01*
X14394333Y-7303900D01*
X14413381Y-7275328D01*
X14422905Y-7265805D01*
X14603857Y-7494376D02*
X14489571Y-7494376D01*
X14546714Y-7494376D02*
X14546714Y-7294376D01*
X14527667Y-7322948D01*
X14508619Y-7341995D01*
X14489571Y-7351519D01*
X14794333Y-7494376D02*
X14680048Y-7494376D01*
X14737190Y-7494376D02*
X14737190Y-7294376D01*
X14718143Y-7322948D01*
X14699095Y-7341995D01*
X14680048Y-7351519D01*
X15032428Y-7494376D02*
X15032428Y-7294376D01*
X15118143Y-7494376D02*
X15118143Y-7389614D01*
X15108619Y-7370567D01*
X15089571Y-7361043D01*
X15061000Y-7361043D01*
X15041952Y-7370567D01*
X15032428Y-7380090D01*
X15241952Y-7494376D02*
X15222905Y-7484852D01*
X15213381Y-7475328D01*
X15203857Y-7456281D01*
X15203857Y-7399138D01*
X15213381Y-7380090D01*
X15222905Y-7370567D01*
X15241952Y-7361043D01*
X15270524Y-7361043D01*
X15289571Y-7370567D01*
X15299095Y-7380090D01*
X15308619Y-7399138D01*
X15308619Y-7456281D01*
X15299095Y-7475328D01*
X15289571Y-7484852D01*
X15270524Y-7494376D01*
X15241952Y-7494376D01*
X15422905Y-7494376D02*
X15403857Y-7484852D01*
X15394333Y-7465805D01*
X15394333Y-7294376D01*
X15575286Y-7484852D02*
X15556238Y-7494376D01*
X15518143Y-7494376D01*
X15499095Y-7484852D01*
X15489571Y-7465805D01*
X15489571Y-7389614D01*
X15499095Y-7370567D01*
X15518143Y-7361043D01*
X15556238Y-7361043D01*
X15575286Y-7370567D01*
X15584809Y-7389614D01*
X15584809Y-7408662D01*
X15489571Y-7427709D01*
X15661000Y-7484852D02*
X15680048Y-7494376D01*
X15718143Y-7494376D01*
X15737190Y-7484852D01*
X15746714Y-7465805D01*
X15746714Y-7456281D01*
X15737190Y-7437233D01*
X15718143Y-7427709D01*
X15689571Y-7427709D01*
X15670524Y-7418186D01*
X15661000Y-7399138D01*
X15661000Y-7389614D01*
X15670524Y-7370567D01*
X15689571Y-7361043D01*
X15718143Y-7361043D01*
X15737190Y-7370567D01*
X15813381Y-7570567D02*
X15822905Y-7561043D01*
X15841952Y-7532471D01*
X15851476Y-7513424D01*
X15861000Y-7484852D01*
X15870524Y-7437233D01*
X15870524Y-7399138D01*
X15861000Y-7351519D01*
X15851476Y-7322948D01*
X15841952Y-7303900D01*
X15822905Y-7275328D01*
X15813381Y-7265805D01*
D13*
X10851000Y-7667900D02*
G75*
G03*
X10851000Y-7667900I-40000J0D01*
G01*
D11*
X11146714Y-7558376D02*
X11165762Y-7558376D01*
X11184810Y-7567900D01*
X11194333Y-7577424D01*
X11203857Y-7596471D01*
X11213381Y-7634567D01*
X11213381Y-7682186D01*
X11203857Y-7720281D01*
X11194333Y-7739328D01*
X11184810Y-7748852D01*
X11165762Y-7758376D01*
X11146714Y-7758376D01*
X11127667Y-7748852D01*
X11118143Y-7739328D01*
X11108619Y-7720281D01*
X11099095Y-7682186D01*
X11099095Y-7634567D01*
X11108619Y-7596471D01*
X11118143Y-7577424D01*
X11127667Y-7567900D01*
X11146714Y-7558376D01*
X11299095Y-7739328D02*
X11308619Y-7748852D01*
X11299095Y-7758376D01*
X11289571Y-7748852D01*
X11299095Y-7739328D01*
X11299095Y-7758376D01*
X11422905Y-7644090D02*
X11403857Y-7634567D01*
X11394333Y-7625043D01*
X11384809Y-7605995D01*
X11384809Y-7596471D01*
X11394333Y-7577424D01*
X11403857Y-7567900D01*
X11422905Y-7558376D01*
X11461000Y-7558376D01*
X11480048Y-7567900D01*
X11489571Y-7577424D01*
X11499095Y-7596471D01*
X11499095Y-7605995D01*
X11489571Y-7625043D01*
X11480048Y-7634567D01*
X11461000Y-7644090D01*
X11422905Y-7644090D01*
X11403857Y-7653614D01*
X11394333Y-7663138D01*
X11384809Y-7682186D01*
X11384809Y-7720281D01*
X11394333Y-7739328D01*
X11403857Y-7748852D01*
X11422905Y-7758376D01*
X11461000Y-7758376D01*
X11480048Y-7748852D01*
X11489571Y-7739328D01*
X11499095Y-7720281D01*
X11499095Y-7682186D01*
X11489571Y-7663138D01*
X11480048Y-7653614D01*
X11461000Y-7644090D01*
X11622905Y-7558376D02*
X11641952Y-7558376D01*
X11661000Y-7567900D01*
X11670524Y-7577424D01*
X11680048Y-7596471D01*
X11689571Y-7634567D01*
X11689571Y-7682186D01*
X11680048Y-7720281D01*
X11670524Y-7739328D01*
X11661000Y-7748852D01*
X11641952Y-7758376D01*
X11622905Y-7758376D01*
X11603857Y-7748852D01*
X11594333Y-7739328D01*
X11584809Y-7720281D01*
X11575286Y-7682186D01*
X11575286Y-7634567D01*
X11584809Y-7596471D01*
X11594333Y-7577424D01*
X11603857Y-7567900D01*
X11622905Y-7558376D01*
X11813381Y-7558376D02*
X11832428Y-7558376D01*
X11851476Y-7567900D01*
X11861000Y-7577424D01*
X11870524Y-7596471D01*
X11880048Y-7634567D01*
X11880048Y-7682186D01*
X11870524Y-7720281D01*
X11861000Y-7739328D01*
X11851476Y-7748852D01*
X11832428Y-7758376D01*
X11813381Y-7758376D01*
X11794333Y-7748852D01*
X11784809Y-7739328D01*
X11775286Y-7720281D01*
X11765762Y-7682186D01*
X11765762Y-7634567D01*
X11775286Y-7596471D01*
X11784809Y-7577424D01*
X11794333Y-7567900D01*
X11813381Y-7558376D01*
X11965762Y-7758376D02*
X11965762Y-7625043D01*
X11965762Y-7644090D02*
X11975286Y-7634567D01*
X11994333Y-7625043D01*
X12022905Y-7625043D01*
X12041952Y-7634567D01*
X12051476Y-7653614D01*
X12051476Y-7758376D01*
X12051476Y-7653614D02*
X12061000Y-7634567D01*
X12080048Y-7625043D01*
X12108619Y-7625043D01*
X12127667Y-7634567D01*
X12137190Y-7653614D01*
X12137190Y-7758376D01*
X12232428Y-7758376D02*
X12232428Y-7625043D01*
X12232428Y-7644090D02*
X12241952Y-7634567D01*
X12261000Y-7625043D01*
X12289571Y-7625043D01*
X12308619Y-7634567D01*
X12318143Y-7653614D01*
X12318143Y-7758376D01*
X12318143Y-7653614D02*
X12327667Y-7634567D01*
X12346714Y-7625043D01*
X12375286Y-7625043D01*
X12394333Y-7634567D01*
X12403857Y-7653614D01*
X12403857Y-7758376D01*
X12794333Y-7548852D02*
X12622905Y-7805995D01*
X13051476Y-7558376D02*
X13070524Y-7558376D01*
X13089571Y-7567900D01*
X13099095Y-7577424D01*
X13108619Y-7596471D01*
X13118143Y-7634567D01*
X13118143Y-7682186D01*
X13108619Y-7720281D01*
X13099095Y-7739328D01*
X13089571Y-7748852D01*
X13070524Y-7758376D01*
X13051476Y-7758376D01*
X13032428Y-7748852D01*
X13022905Y-7739328D01*
X13013381Y-7720281D01*
X13003857Y-7682186D01*
X13003857Y-7634567D01*
X13013381Y-7596471D01*
X13022905Y-7577424D01*
X13032428Y-7567900D01*
X13051476Y-7558376D01*
X13203857Y-7739328D02*
X13213381Y-7748852D01*
X13203857Y-7758376D01*
X13194333Y-7748852D01*
X13203857Y-7739328D01*
X13203857Y-7758376D01*
X13337190Y-7558376D02*
X13356238Y-7558376D01*
X13375286Y-7567900D01*
X13384809Y-7577424D01*
X13394333Y-7596471D01*
X13403857Y-7634567D01*
X13403857Y-7682186D01*
X13394333Y-7720281D01*
X13384809Y-7739328D01*
X13375286Y-7748852D01*
X13356238Y-7758376D01*
X13337190Y-7758376D01*
X13318143Y-7748852D01*
X13308619Y-7739328D01*
X13299095Y-7720281D01*
X13289571Y-7682186D01*
X13289571Y-7634567D01*
X13299095Y-7596471D01*
X13308619Y-7577424D01*
X13318143Y-7567900D01*
X13337190Y-7558376D01*
X13470524Y-7558376D02*
X13594333Y-7558376D01*
X13527667Y-7634567D01*
X13556238Y-7634567D01*
X13575286Y-7644090D01*
X13584809Y-7653614D01*
X13594333Y-7672662D01*
X13594333Y-7720281D01*
X13584809Y-7739328D01*
X13575286Y-7748852D01*
X13556238Y-7758376D01*
X13499095Y-7758376D01*
X13480048Y-7748852D01*
X13470524Y-7739328D01*
X13784809Y-7758376D02*
X13670524Y-7758376D01*
X13727667Y-7758376D02*
X13727667Y-7558376D01*
X13708619Y-7586948D01*
X13689571Y-7605995D01*
X13670524Y-7615519D01*
X13965762Y-7558376D02*
X13870524Y-7558376D01*
X13861000Y-7653614D01*
X13870524Y-7644090D01*
X13889571Y-7634567D01*
X13937190Y-7634567D01*
X13956238Y-7644090D01*
X13965762Y-7653614D01*
X13975286Y-7672662D01*
X13975286Y-7720281D01*
X13965762Y-7739328D01*
X13956238Y-7748852D01*
X13937190Y-7758376D01*
X13889571Y-7758376D01*
X13870524Y-7748852D01*
X13861000Y-7739328D01*
X14051476Y-7558376D02*
X14051476Y-7596471D01*
X14127667Y-7558376D02*
X14127667Y-7596471D01*
X14422905Y-7834567D02*
X14413381Y-7825043D01*
X14394333Y-7796471D01*
X14384809Y-7777424D01*
X14375286Y-7748852D01*
X14365762Y-7701233D01*
X14365762Y-7663138D01*
X14375286Y-7615519D01*
X14384809Y-7586948D01*
X14394333Y-7567900D01*
X14413381Y-7539328D01*
X14422905Y-7529805D01*
X14584809Y-7625043D02*
X14584809Y-7758376D01*
X14537190Y-7548852D02*
X14489571Y-7691709D01*
X14613381Y-7691709D01*
X14841952Y-7758376D02*
X14841952Y-7558376D01*
X14927667Y-7758376D02*
X14927667Y-7653614D01*
X14918143Y-7634567D01*
X14899095Y-7625043D01*
X14870524Y-7625043D01*
X14851476Y-7634567D01*
X14841952Y-7644090D01*
X15051476Y-7758376D02*
X15032428Y-7748852D01*
X15022905Y-7739328D01*
X15013381Y-7720281D01*
X15013381Y-7663138D01*
X15022905Y-7644090D01*
X15032428Y-7634567D01*
X15051476Y-7625043D01*
X15080048Y-7625043D01*
X15099095Y-7634567D01*
X15108619Y-7644090D01*
X15118143Y-7663138D01*
X15118143Y-7720281D01*
X15108619Y-7739328D01*
X15099095Y-7748852D01*
X15080048Y-7758376D01*
X15051476Y-7758376D01*
X15232428Y-7758376D02*
X15213381Y-7748852D01*
X15203857Y-7729805D01*
X15203857Y-7558376D01*
X15384809Y-7748852D02*
X15365762Y-7758376D01*
X15327667Y-7758376D01*
X15308619Y-7748852D01*
X15299095Y-7729805D01*
X15299095Y-7653614D01*
X15308619Y-7634567D01*
X15327667Y-7625043D01*
X15365762Y-7625043D01*
X15384809Y-7634567D01*
X15394333Y-7653614D01*
X15394333Y-7672662D01*
X15299095Y-7691709D01*
X15470524Y-7748852D02*
X15489571Y-7758376D01*
X15527667Y-7758376D01*
X15546714Y-7748852D01*
X15556238Y-7729805D01*
X15556238Y-7720281D01*
X15546714Y-7701233D01*
X15527667Y-7691709D01*
X15499095Y-7691709D01*
X15480048Y-7682186D01*
X15470524Y-7663138D01*
X15470524Y-7653614D01*
X15480048Y-7634567D01*
X15499095Y-7625043D01*
X15527667Y-7625043D01*
X15546714Y-7634567D01*
X15622905Y-7834567D02*
X15632428Y-7825043D01*
X15651476Y-7796471D01*
X15661000Y-7777424D01*
X15670524Y-7748852D01*
X15680048Y-7701233D01*
X15680048Y-7663138D01*
X15670524Y-7615519D01*
X15661000Y-7586948D01*
X15651476Y-7567900D01*
X15632428Y-7539328D01*
X15622905Y-7529805D01*
D14*
X10801000Y-7881900D02*
X10801000Y-7981900D01*
X10751000Y-7931900D02*
X10851000Y-7931900D01*
D11*
X11213381Y-8022376D02*
X11099095Y-8022376D01*
X11156238Y-8022376D02*
X11156238Y-7822376D01*
X11137190Y-7850948D01*
X11118143Y-7869995D01*
X11099095Y-7879519D01*
X11299095Y-8003328D02*
X11308619Y-8012852D01*
X11299095Y-8022376D01*
X11289571Y-8012852D01*
X11299095Y-8003328D01*
X11299095Y-8022376D01*
X11432428Y-7822376D02*
X11451476Y-7822376D01*
X11470524Y-7831900D01*
X11480048Y-7841424D01*
X11489571Y-7860471D01*
X11499095Y-7898567D01*
X11499095Y-7946186D01*
X11489571Y-7984281D01*
X11480048Y-8003328D01*
X11470524Y-8012852D01*
X11451476Y-8022376D01*
X11432428Y-8022376D01*
X11413381Y-8012852D01*
X11403857Y-8003328D01*
X11394333Y-7984281D01*
X11384809Y-7946186D01*
X11384809Y-7898567D01*
X11394333Y-7860471D01*
X11403857Y-7841424D01*
X11413381Y-7831900D01*
X11432428Y-7822376D01*
X11622905Y-7822376D02*
X11641952Y-7822376D01*
X11661000Y-7831900D01*
X11670524Y-7841424D01*
X11680048Y-7860471D01*
X11689571Y-7898567D01*
X11689571Y-7946186D01*
X11680048Y-7984281D01*
X11670524Y-8003328D01*
X11661000Y-8012852D01*
X11641952Y-8022376D01*
X11622905Y-8022376D01*
X11603857Y-8012852D01*
X11594333Y-8003328D01*
X11584809Y-7984281D01*
X11575286Y-7946186D01*
X11575286Y-7898567D01*
X11584809Y-7860471D01*
X11594333Y-7841424D01*
X11603857Y-7831900D01*
X11622905Y-7822376D01*
X11813381Y-7822376D02*
X11832428Y-7822376D01*
X11851476Y-7831900D01*
X11861000Y-7841424D01*
X11870524Y-7860471D01*
X11880048Y-7898567D01*
X11880048Y-7946186D01*
X11870524Y-7984281D01*
X11861000Y-8003328D01*
X11851476Y-8012852D01*
X11832428Y-8022376D01*
X11813381Y-8022376D01*
X11794333Y-8012852D01*
X11784809Y-8003328D01*
X11775286Y-7984281D01*
X11765762Y-7946186D01*
X11765762Y-7898567D01*
X11775286Y-7860471D01*
X11784809Y-7841424D01*
X11794333Y-7831900D01*
X11813381Y-7822376D01*
X11965762Y-8022376D02*
X11965762Y-7889043D01*
X11965762Y-7908090D02*
X11975286Y-7898567D01*
X11994333Y-7889043D01*
X12022905Y-7889043D01*
X12041952Y-7898567D01*
X12051476Y-7917614D01*
X12051476Y-8022376D01*
X12051476Y-7917614D02*
X12061000Y-7898567D01*
X12080048Y-7889043D01*
X12108619Y-7889043D01*
X12127667Y-7898567D01*
X12137190Y-7917614D01*
X12137190Y-8022376D01*
X12232428Y-8022376D02*
X12232428Y-7889043D01*
X12232428Y-7908090D02*
X12241952Y-7898567D01*
X12261000Y-7889043D01*
X12289571Y-7889043D01*
X12308619Y-7898567D01*
X12318143Y-7917614D01*
X12318143Y-8022376D01*
X12318143Y-7917614D02*
X12327667Y-7898567D01*
X12346714Y-7889043D01*
X12375286Y-7889043D01*
X12394333Y-7898567D01*
X12403857Y-7917614D01*
X12403857Y-8022376D01*
X12794333Y-7812852D02*
X12622905Y-8069995D01*
X13051476Y-7822376D02*
X13070524Y-7822376D01*
X13089571Y-7831900D01*
X13099095Y-7841424D01*
X13108619Y-7860471D01*
X13118143Y-7898567D01*
X13118143Y-7946186D01*
X13108619Y-7984281D01*
X13099095Y-8003328D01*
X13089571Y-8012852D01*
X13070524Y-8022376D01*
X13051476Y-8022376D01*
X13032428Y-8012852D01*
X13022905Y-8003328D01*
X13013381Y-7984281D01*
X13003857Y-7946186D01*
X13003857Y-7898567D01*
X13013381Y-7860471D01*
X13022905Y-7841424D01*
X13032428Y-7831900D01*
X13051476Y-7822376D01*
X13203857Y-8003328D02*
X13213381Y-8012852D01*
X13203857Y-8022376D01*
X13194333Y-8012852D01*
X13203857Y-8003328D01*
X13203857Y-8022376D01*
X13337190Y-7822376D02*
X13356238Y-7822376D01*
X13375286Y-7831900D01*
X13384809Y-7841424D01*
X13394333Y-7860471D01*
X13403857Y-7898567D01*
X13403857Y-7946186D01*
X13394333Y-7984281D01*
X13384809Y-8003328D01*
X13375286Y-8012852D01*
X13356238Y-8022376D01*
X13337190Y-8022376D01*
X13318143Y-8012852D01*
X13308619Y-8003328D01*
X13299095Y-7984281D01*
X13289571Y-7946186D01*
X13289571Y-7898567D01*
X13299095Y-7860471D01*
X13308619Y-7841424D01*
X13318143Y-7831900D01*
X13337190Y-7822376D01*
X13470524Y-7822376D02*
X13594333Y-7822376D01*
X13527667Y-7898567D01*
X13556238Y-7898567D01*
X13575286Y-7908090D01*
X13584809Y-7917614D01*
X13594333Y-7936662D01*
X13594333Y-7984281D01*
X13584809Y-8003328D01*
X13575286Y-8012852D01*
X13556238Y-8022376D01*
X13499095Y-8022376D01*
X13480048Y-8012852D01*
X13470524Y-8003328D01*
X13689571Y-8022376D02*
X13727667Y-8022376D01*
X13746714Y-8012852D01*
X13756238Y-8003328D01*
X13775286Y-7974757D01*
X13784809Y-7936662D01*
X13784809Y-7860471D01*
X13775286Y-7841424D01*
X13765762Y-7831900D01*
X13746714Y-7822376D01*
X13708619Y-7822376D01*
X13689571Y-7831900D01*
X13680048Y-7841424D01*
X13670524Y-7860471D01*
X13670524Y-7908090D01*
X13680048Y-7927138D01*
X13689571Y-7936662D01*
X13708619Y-7946186D01*
X13746714Y-7946186D01*
X13765762Y-7936662D01*
X13775286Y-7927138D01*
X13784809Y-7908090D01*
X13956238Y-7889043D02*
X13956238Y-8022376D01*
X13908619Y-7812852D02*
X13861000Y-7955709D01*
X13984809Y-7955709D01*
X14051476Y-7822376D02*
X14051476Y-7860471D01*
X14127667Y-7822376D02*
X14127667Y-7860471D01*
X14422905Y-8098567D02*
X14413381Y-8089043D01*
X14394333Y-8060471D01*
X14384809Y-8041424D01*
X14375286Y-8012852D01*
X14365762Y-7965233D01*
X14365762Y-7927138D01*
X14375286Y-7879519D01*
X14384809Y-7850948D01*
X14394333Y-7831900D01*
X14413381Y-7803328D01*
X14422905Y-7793805D01*
X14489571Y-7841424D02*
X14499095Y-7831900D01*
X14518143Y-7822376D01*
X14565762Y-7822376D01*
X14584809Y-7831900D01*
X14594333Y-7841424D01*
X14603857Y-7860471D01*
X14603857Y-7879519D01*
X14594333Y-7908090D01*
X14480048Y-8022376D01*
X14603857Y-8022376D01*
X14775286Y-7889043D02*
X14775286Y-8022376D01*
X14727667Y-7812852D02*
X14680048Y-7955709D01*
X14803857Y-7955709D01*
X15032428Y-8022376D02*
X15032428Y-7822376D01*
X15118143Y-8022376D02*
X15118143Y-7917614D01*
X15108619Y-7898567D01*
X15089571Y-7889043D01*
X15061000Y-7889043D01*
X15041952Y-7898567D01*
X15032428Y-7908090D01*
X15241952Y-8022376D02*
X15222905Y-8012852D01*
X15213381Y-8003328D01*
X15203857Y-7984281D01*
X15203857Y-7927138D01*
X15213381Y-7908090D01*
X15222905Y-7898567D01*
X15241952Y-7889043D01*
X15270524Y-7889043D01*
X15289571Y-7898567D01*
X15299095Y-7908090D01*
X15308619Y-7927138D01*
X15308619Y-7984281D01*
X15299095Y-8003328D01*
X15289571Y-8012852D01*
X15270524Y-8022376D01*
X15241952Y-8022376D01*
X15422905Y-8022376D02*
X15403857Y-8012852D01*
X15394333Y-7993805D01*
X15394333Y-7822376D01*
X15575286Y-8012852D02*
X15556238Y-8022376D01*
X15518143Y-8022376D01*
X15499095Y-8012852D01*
X15489571Y-7993805D01*
X15489571Y-7917614D01*
X15499095Y-7898567D01*
X15518143Y-7889043D01*
X15556238Y-7889043D01*
X15575286Y-7898567D01*
X15584809Y-7917614D01*
X15584809Y-7936662D01*
X15489571Y-7955709D01*
X15661000Y-8012852D02*
X15680048Y-8022376D01*
X15718143Y-8022376D01*
X15737190Y-8012852D01*
X15746714Y-7993805D01*
X15746714Y-7984281D01*
X15737190Y-7965233D01*
X15718143Y-7955709D01*
X15689571Y-7955709D01*
X15670524Y-7946186D01*
X15661000Y-7927138D01*
X15661000Y-7917614D01*
X15670524Y-7898567D01*
X15689571Y-7889043D01*
X15718143Y-7889043D01*
X15737190Y-7898567D01*
X15813381Y-8098567D02*
X15822905Y-8089043D01*
X15841952Y-8060471D01*
X15851476Y-8041424D01*
X15861000Y-8012852D01*
X15870524Y-7965233D01*
X15870524Y-7927138D01*
X15861000Y-7879519D01*
X15851476Y-7850948D01*
X15841952Y-7831900D01*
X15822905Y-7803328D01*
X15813381Y-7793805D01*
D15*
X10834891Y-8234791D02*
X10834891Y-8157009D01*
X10757109Y-8157009D01*
X10757109Y-8234791D01*
X10834891Y-8234791D01*
D11*
X11213381Y-8286376D02*
X11099095Y-8286376D01*
X11156238Y-8286376D02*
X11156238Y-8086376D01*
X11137190Y-8114948D01*
X11118143Y-8133995D01*
X11099095Y-8143519D01*
X11299095Y-8267328D02*
X11308619Y-8276852D01*
X11299095Y-8286376D01*
X11289571Y-8276852D01*
X11299095Y-8267328D01*
X11299095Y-8286376D01*
X11499095Y-8286376D02*
X11384809Y-8286376D01*
X11441952Y-8286376D02*
X11441952Y-8086376D01*
X11422905Y-8114948D01*
X11403857Y-8133995D01*
X11384809Y-8143519D01*
X11622905Y-8086376D02*
X11641952Y-8086376D01*
X11661000Y-8095900D01*
X11670524Y-8105424D01*
X11680048Y-8124471D01*
X11689571Y-8162567D01*
X11689571Y-8210186D01*
X11680048Y-8248281D01*
X11670524Y-8267328D01*
X11661000Y-8276852D01*
X11641952Y-8286376D01*
X11622905Y-8286376D01*
X11603857Y-8276852D01*
X11594333Y-8267328D01*
X11584809Y-8248281D01*
X11575286Y-8210186D01*
X11575286Y-8162567D01*
X11584809Y-8124471D01*
X11594333Y-8105424D01*
X11603857Y-8095900D01*
X11622905Y-8086376D01*
X11813381Y-8086376D02*
X11832428Y-8086376D01*
X11851476Y-8095900D01*
X11861000Y-8105424D01*
X11870524Y-8124471D01*
X11880048Y-8162567D01*
X11880048Y-8210186D01*
X11870524Y-8248281D01*
X11861000Y-8267328D01*
X11851476Y-8276852D01*
X11832428Y-8286376D01*
X11813381Y-8286376D01*
X11794333Y-8276852D01*
X11784809Y-8267328D01*
X11775286Y-8248281D01*
X11765762Y-8210186D01*
X11765762Y-8162567D01*
X11775286Y-8124471D01*
X11784809Y-8105424D01*
X11794333Y-8095900D01*
X11813381Y-8086376D01*
X11965762Y-8286376D02*
X11965762Y-8153043D01*
X11965762Y-8172090D02*
X11975286Y-8162567D01*
X11994333Y-8153043D01*
X12022905Y-8153043D01*
X12041952Y-8162567D01*
X12051476Y-8181614D01*
X12051476Y-8286376D01*
X12051476Y-8181614D02*
X12061000Y-8162567D01*
X12080048Y-8153043D01*
X12108619Y-8153043D01*
X12127667Y-8162567D01*
X12137190Y-8181614D01*
X12137190Y-8286376D01*
X12232428Y-8286376D02*
X12232428Y-8153043D01*
X12232428Y-8172090D02*
X12241952Y-8162567D01*
X12261000Y-8153043D01*
X12289571Y-8153043D01*
X12308619Y-8162567D01*
X12318143Y-8181614D01*
X12318143Y-8286376D01*
X12318143Y-8181614D02*
X12327667Y-8162567D01*
X12346714Y-8153043D01*
X12375286Y-8153043D01*
X12394333Y-8162567D01*
X12403857Y-8181614D01*
X12403857Y-8286376D01*
X12794333Y-8076852D02*
X12622905Y-8333995D01*
X13051476Y-8086376D02*
X13070524Y-8086376D01*
X13089571Y-8095900D01*
X13099095Y-8105424D01*
X13108619Y-8124471D01*
X13118143Y-8162567D01*
X13118143Y-8210186D01*
X13108619Y-8248281D01*
X13099095Y-8267328D01*
X13089571Y-8276852D01*
X13070524Y-8286376D01*
X13051476Y-8286376D01*
X13032428Y-8276852D01*
X13022905Y-8267328D01*
X13013381Y-8248281D01*
X13003857Y-8210186D01*
X13003857Y-8162567D01*
X13013381Y-8124471D01*
X13022905Y-8105424D01*
X13032428Y-8095900D01*
X13051476Y-8086376D01*
X13203857Y-8267328D02*
X13213381Y-8276852D01*
X13203857Y-8286376D01*
X13194333Y-8276852D01*
X13203857Y-8267328D01*
X13203857Y-8286376D01*
X13337190Y-8086376D02*
X13356238Y-8086376D01*
X13375286Y-8095900D01*
X13384809Y-8105424D01*
X13394333Y-8124471D01*
X13403857Y-8162567D01*
X13403857Y-8210186D01*
X13394333Y-8248281D01*
X13384809Y-8267328D01*
X13375286Y-8276852D01*
X13356238Y-8286376D01*
X13337190Y-8286376D01*
X13318143Y-8276852D01*
X13308619Y-8267328D01*
X13299095Y-8248281D01*
X13289571Y-8210186D01*
X13289571Y-8162567D01*
X13299095Y-8124471D01*
X13308619Y-8105424D01*
X13318143Y-8095900D01*
X13337190Y-8086376D01*
X13575286Y-8153043D02*
X13575286Y-8286376D01*
X13527667Y-8076852D02*
X13480048Y-8219709D01*
X13603857Y-8219709D01*
X13661000Y-8086376D02*
X13784809Y-8086376D01*
X13718143Y-8162567D01*
X13746714Y-8162567D01*
X13765762Y-8172090D01*
X13775286Y-8181614D01*
X13784809Y-8200662D01*
X13784809Y-8248281D01*
X13775286Y-8267328D01*
X13765762Y-8276852D01*
X13746714Y-8286376D01*
X13689571Y-8286376D01*
X13670524Y-8276852D01*
X13661000Y-8267328D01*
X13851476Y-8086376D02*
X13975286Y-8086376D01*
X13908619Y-8162567D01*
X13937190Y-8162567D01*
X13956238Y-8172090D01*
X13965762Y-8181614D01*
X13975286Y-8200662D01*
X13975286Y-8248281D01*
X13965762Y-8267328D01*
X13956238Y-8276852D01*
X13937190Y-8286376D01*
X13880048Y-8286376D01*
X13861000Y-8276852D01*
X13851476Y-8267328D01*
X14051476Y-8086376D02*
X14051476Y-8124471D01*
X14127667Y-8086376D02*
X14127667Y-8124471D01*
X14422905Y-8362567D02*
X14413381Y-8353043D01*
X14394333Y-8324471D01*
X14384809Y-8305424D01*
X14375286Y-8276852D01*
X14365762Y-8229233D01*
X14365762Y-8191138D01*
X14375286Y-8143519D01*
X14384809Y-8114948D01*
X14394333Y-8095900D01*
X14413381Y-8067328D01*
X14422905Y-8057805D01*
X14584809Y-8153043D02*
X14584809Y-8286376D01*
X14537190Y-8076852D02*
X14489571Y-8219709D01*
X14613381Y-8219709D01*
X14841952Y-8286376D02*
X14841952Y-8086376D01*
X14927667Y-8286376D02*
X14927667Y-8181614D01*
X14918143Y-8162567D01*
X14899095Y-8153043D01*
X14870524Y-8153043D01*
X14851476Y-8162567D01*
X14841952Y-8172090D01*
X15051476Y-8286376D02*
X15032428Y-8276852D01*
X15022905Y-8267328D01*
X15013381Y-8248281D01*
X15013381Y-8191138D01*
X15022905Y-8172090D01*
X15032428Y-8162567D01*
X15051476Y-8153043D01*
X15080048Y-8153043D01*
X15099095Y-8162567D01*
X15108619Y-8172090D01*
X15118143Y-8191138D01*
X15118143Y-8248281D01*
X15108619Y-8267328D01*
X15099095Y-8276852D01*
X15080048Y-8286376D01*
X15051476Y-8286376D01*
X15232428Y-8286376D02*
X15213381Y-8276852D01*
X15203857Y-8257805D01*
X15203857Y-8086376D01*
X15384809Y-8276852D02*
X15365762Y-8286376D01*
X15327667Y-8286376D01*
X15308619Y-8276852D01*
X15299095Y-8257805D01*
X15299095Y-8181614D01*
X15308619Y-8162567D01*
X15327667Y-8153043D01*
X15365762Y-8153043D01*
X15384809Y-8162567D01*
X15394333Y-8181614D01*
X15394333Y-8200662D01*
X15299095Y-8219709D01*
X15470524Y-8276852D02*
X15489571Y-8286376D01*
X15527667Y-8286376D01*
X15546714Y-8276852D01*
X15556238Y-8257805D01*
X15556238Y-8248281D01*
X15546714Y-8229233D01*
X15527667Y-8219709D01*
X15499095Y-8219709D01*
X15480048Y-8210186D01*
X15470524Y-8191138D01*
X15470524Y-8181614D01*
X15480048Y-8162567D01*
X15499095Y-8153043D01*
X15527667Y-8153043D01*
X15546714Y-8162567D01*
X15622905Y-8362567D02*
X15632428Y-8353043D01*
X15651476Y-8324471D01*
X15661000Y-8305424D01*
X15670524Y-8276852D01*
X15680048Y-8229233D01*
X15680048Y-8191138D01*
X15670524Y-8143519D01*
X15661000Y-8114948D01*
X15651476Y-8095900D01*
X15632428Y-8067328D01*
X15622905Y-8057805D01*
X10751000Y-8559900D02*
X10851000Y-8459900D01*
X10751000Y-8359900D01*
X10651000Y-8459900D01*
X10751000Y-8559900D01*
X11099095Y-8369424D02*
X11108619Y-8359900D01*
X11127667Y-8350376D01*
X11175286Y-8350376D01*
X11194333Y-8359900D01*
X11203857Y-8369424D01*
X11213381Y-8388471D01*
X11213381Y-8407519D01*
X11203857Y-8436090D01*
X11089571Y-8550376D01*
X11213381Y-8550376D01*
X11299095Y-8531329D02*
X11308619Y-8540852D01*
X11299095Y-8550376D01*
X11289571Y-8540852D01*
X11299095Y-8531329D01*
X11299095Y-8550376D01*
X11375286Y-8350376D02*
X11508619Y-8350376D01*
X11422905Y-8550376D01*
X11622905Y-8350376D02*
X11641952Y-8350376D01*
X11661000Y-8359900D01*
X11670524Y-8369424D01*
X11680048Y-8388471D01*
X11689571Y-8426567D01*
X11689571Y-8474186D01*
X11680048Y-8512281D01*
X11670524Y-8531329D01*
X11661000Y-8540852D01*
X11641952Y-8550376D01*
X11622905Y-8550376D01*
X11603857Y-8540852D01*
X11594333Y-8531329D01*
X11584809Y-8512281D01*
X11575286Y-8474186D01*
X11575286Y-8426567D01*
X11584809Y-8388471D01*
X11594333Y-8369424D01*
X11603857Y-8359900D01*
X11622905Y-8350376D01*
X11813381Y-8350376D02*
X11832428Y-8350376D01*
X11851476Y-8359900D01*
X11861000Y-8369424D01*
X11870524Y-8388471D01*
X11880048Y-8426567D01*
X11880048Y-8474186D01*
X11870524Y-8512281D01*
X11861000Y-8531329D01*
X11851476Y-8540852D01*
X11832428Y-8550376D01*
X11813381Y-8550376D01*
X11794333Y-8540852D01*
X11784809Y-8531329D01*
X11775286Y-8512281D01*
X11765762Y-8474186D01*
X11765762Y-8426567D01*
X11775286Y-8388471D01*
X11784809Y-8369424D01*
X11794333Y-8359900D01*
X11813381Y-8350376D01*
X11965762Y-8550376D02*
X11965762Y-8417043D01*
X11965762Y-8436090D02*
X11975286Y-8426567D01*
X11994333Y-8417043D01*
X12022905Y-8417043D01*
X12041952Y-8426567D01*
X12051476Y-8445614D01*
X12051476Y-8550376D01*
X12051476Y-8445614D02*
X12061000Y-8426567D01*
X12080048Y-8417043D01*
X12108619Y-8417043D01*
X12127667Y-8426567D01*
X12137190Y-8445614D01*
X12137190Y-8550376D01*
X12232428Y-8550376D02*
X12232428Y-8417043D01*
X12232428Y-8436090D02*
X12241952Y-8426567D01*
X12261000Y-8417043D01*
X12289571Y-8417043D01*
X12308619Y-8426567D01*
X12318143Y-8445614D01*
X12318143Y-8550376D01*
X12318143Y-8445614D02*
X12327667Y-8426567D01*
X12346714Y-8417043D01*
X12375286Y-8417043D01*
X12394333Y-8426567D01*
X12403857Y-8445614D01*
X12403857Y-8550376D01*
X12794333Y-8340852D02*
X12622905Y-8597995D01*
X13051476Y-8350376D02*
X13070524Y-8350376D01*
X13089571Y-8359900D01*
X13099095Y-8369424D01*
X13108619Y-8388471D01*
X13118143Y-8426567D01*
X13118143Y-8474186D01*
X13108619Y-8512281D01*
X13099095Y-8531329D01*
X13089571Y-8540852D01*
X13070524Y-8550376D01*
X13051476Y-8550376D01*
X13032428Y-8540852D01*
X13022905Y-8531329D01*
X13013381Y-8512281D01*
X13003857Y-8474186D01*
X13003857Y-8426567D01*
X13013381Y-8388471D01*
X13022905Y-8369424D01*
X13032428Y-8359900D01*
X13051476Y-8350376D01*
X13203857Y-8531329D02*
X13213381Y-8540852D01*
X13203857Y-8550376D01*
X13194333Y-8540852D01*
X13203857Y-8531329D01*
X13203857Y-8550376D01*
X13403857Y-8550376D02*
X13289571Y-8550376D01*
X13346714Y-8550376D02*
X13346714Y-8350376D01*
X13327667Y-8378948D01*
X13308619Y-8397995D01*
X13289571Y-8407519D01*
X13527667Y-8350376D02*
X13546714Y-8350376D01*
X13565762Y-8359900D01*
X13575286Y-8369424D01*
X13584809Y-8388471D01*
X13594333Y-8426567D01*
X13594333Y-8474186D01*
X13584809Y-8512281D01*
X13575286Y-8531329D01*
X13565762Y-8540852D01*
X13546714Y-8550376D01*
X13527667Y-8550376D01*
X13508619Y-8540852D01*
X13499095Y-8531329D01*
X13489571Y-8512281D01*
X13480048Y-8474186D01*
X13480048Y-8426567D01*
X13489571Y-8388471D01*
X13499095Y-8369424D01*
X13508619Y-8359900D01*
X13527667Y-8350376D01*
X13765762Y-8350376D02*
X13727667Y-8350376D01*
X13708619Y-8359900D01*
X13699095Y-8369424D01*
X13680048Y-8397995D01*
X13670524Y-8436090D01*
X13670524Y-8512281D01*
X13680048Y-8531329D01*
X13689571Y-8540852D01*
X13708619Y-8550376D01*
X13746714Y-8550376D01*
X13765762Y-8540852D01*
X13775286Y-8531329D01*
X13784809Y-8512281D01*
X13784809Y-8464662D01*
X13775286Y-8445614D01*
X13765762Y-8436090D01*
X13746714Y-8426567D01*
X13708619Y-8426567D01*
X13689571Y-8436090D01*
X13680048Y-8445614D01*
X13670524Y-8464662D01*
X13851476Y-8350376D02*
X13975286Y-8350376D01*
X13908619Y-8426567D01*
X13937190Y-8426567D01*
X13956238Y-8436090D01*
X13965762Y-8445614D01*
X13975286Y-8464662D01*
X13975286Y-8512281D01*
X13965762Y-8531329D01*
X13956238Y-8540852D01*
X13937190Y-8550376D01*
X13880048Y-8550376D01*
X13861000Y-8540852D01*
X13851476Y-8531329D01*
X14051476Y-8350376D02*
X14051476Y-8388471D01*
X14127667Y-8350376D02*
X14127667Y-8388471D01*
X14422905Y-8626567D02*
X14413381Y-8617043D01*
X14394333Y-8588471D01*
X14384809Y-8569424D01*
X14375286Y-8540852D01*
X14365762Y-8493233D01*
X14365762Y-8455138D01*
X14375286Y-8407519D01*
X14384809Y-8378948D01*
X14394333Y-8359900D01*
X14413381Y-8331328D01*
X14422905Y-8321805D01*
X14489571Y-8369424D02*
X14499095Y-8359900D01*
X14518143Y-8350376D01*
X14565762Y-8350376D01*
X14584809Y-8359900D01*
X14594333Y-8369424D01*
X14603857Y-8388471D01*
X14603857Y-8407519D01*
X14594333Y-8436090D01*
X14480048Y-8550376D01*
X14603857Y-8550376D01*
X14841952Y-8550376D02*
X14841952Y-8350376D01*
X14927667Y-8550376D02*
X14927667Y-8445614D01*
X14918143Y-8426567D01*
X14899095Y-8417043D01*
X14870524Y-8417043D01*
X14851476Y-8426567D01*
X14841952Y-8436090D01*
X15051476Y-8550376D02*
X15032428Y-8540852D01*
X15022905Y-8531329D01*
X15013381Y-8512281D01*
X15013381Y-8455138D01*
X15022905Y-8436090D01*
X15032428Y-8426567D01*
X15051476Y-8417043D01*
X15080048Y-8417043D01*
X15099095Y-8426567D01*
X15108619Y-8436090D01*
X15118143Y-8455138D01*
X15118143Y-8512281D01*
X15108619Y-8531329D01*
X15099095Y-8540852D01*
X15080048Y-8550376D01*
X15051476Y-8550376D01*
X15232428Y-8550376D02*
X15213381Y-8540852D01*
X15203857Y-8521805D01*
X15203857Y-8350376D01*
X15384809Y-8540852D02*
X15365762Y-8550376D01*
X15327667Y-8550376D01*
X15308619Y-8540852D01*
X15299095Y-8521805D01*
X15299095Y-8445614D01*
X15308619Y-8426567D01*
X15327667Y-8417043D01*
X15365762Y-8417043D01*
X15384809Y-8426567D01*
X15394333Y-8445614D01*
X15394333Y-8464662D01*
X15299095Y-8483710D01*
X15470524Y-8540852D02*
X15489571Y-8550376D01*
X15527667Y-8550376D01*
X15546714Y-8540852D01*
X15556238Y-8521805D01*
X15556238Y-8512281D01*
X15546714Y-8493233D01*
X15527667Y-8483710D01*
X15499095Y-8483710D01*
X15480048Y-8474186D01*
X15470524Y-8455138D01*
X15470524Y-8445614D01*
X15480048Y-8426567D01*
X15499095Y-8417043D01*
X15527667Y-8417043D01*
X15546714Y-8426567D01*
X15622905Y-8626567D02*
X15632428Y-8617043D01*
X15651476Y-8588471D01*
X15661000Y-8569424D01*
X15670524Y-8540852D01*
X15680048Y-8493233D01*
X15680048Y-8455138D01*
X15670524Y-8407519D01*
X15661000Y-8378948D01*
X15651476Y-8359900D01*
X15632428Y-8331328D01*
X15622905Y-8321805D01*
M02*
