G04 #@! TF.GenerationSoftware,KiCad,Pcbnew,(6.0.9)*
G04 #@! TF.CreationDate,2023-01-18T17:06:23+01:00*
G04 #@! TF.ProjectId,mainboard,6d61696e-626f-4617-9264-2e6b69636164,rev?*
G04 #@! TF.SameCoordinates,Original*
G04 #@! TF.FileFunction,Legend,Top*
G04 #@! TF.FilePolarity,Positive*
%FSLAX46Y46*%
G04 Gerber Fmt 4.6, Leading zero omitted, Abs format (unit mm)*
G04 Created by KiCad (PCBNEW (6.0.9)) date 2023-01-18 17:06:23*
%MOMM*%
%LPD*%
G01*
G04 APERTURE LIST*
G04 Aperture macros list*
%AMRoundRect*
0 Rectangle with rounded corners*
0 $1 Rounding radius*
0 $2 $3 $4 $5 $6 $7 $8 $9 X,Y pos of 4 corners*
0 Add a 4 corners polygon primitive as box body*
4,1,4,$2,$3,$4,$5,$6,$7,$8,$9,$2,$3,0*
0 Add four circle primitives for the rounded corners*
1,1,$1+$1,$2,$3*
1,1,$1+$1,$4,$5*
1,1,$1+$1,$6,$7*
1,1,$1+$1,$8,$9*
0 Add four rect primitives between the rounded corners*
20,1,$1+$1,$2,$3,$4,$5,0*
20,1,$1+$1,$4,$5,$6,$7,0*
20,1,$1+$1,$6,$7,$8,$9,0*
20,1,$1+$1,$8,$9,$2,$3,0*%
G04 Aperture macros list end*
%ADD10C,0.150000*%
%ADD11C,0.120000*%
%ADD12RoundRect,0.250000X-0.475000X0.250000X-0.475000X-0.250000X0.475000X-0.250000X0.475000X0.250000X0*%
%ADD13RoundRect,0.250000X-0.450000X0.262500X-0.450000X-0.262500X0.450000X-0.262500X0.450000X0.262500X0*%
%ADD14C,2.000000*%
%ADD15RoundRect,0.250000X0.450000X-0.262500X0.450000X0.262500X-0.450000X0.262500X-0.450000X-0.262500X0*%
%ADD16C,5.400000*%
%ADD17RoundRect,0.225000X-0.250000X0.225000X-0.250000X-0.225000X0.250000X-0.225000X0.250000X0.225000X0*%
%ADD18RoundRect,0.250000X0.262500X0.450000X-0.262500X0.450000X-0.262500X-0.450000X0.262500X-0.450000X0*%
%ADD19RoundRect,0.250000X-0.250000X-0.475000X0.250000X-0.475000X0.250000X0.475000X-0.250000X0.475000X0*%
%ADD20R,1.700000X1.700000*%
%ADD21O,1.700000X1.700000*%
%ADD22RoundRect,0.250000X-0.550000X1.250000X-0.550000X-1.250000X0.550000X-1.250000X0.550000X1.250000X0*%
%ADD23RoundRect,0.250000X-0.262500X-0.450000X0.262500X-0.450000X0.262500X0.450000X-0.262500X0.450000X0*%
%ADD24RoundRect,0.243750X0.456250X-0.243750X0.456250X0.243750X-0.456250X0.243750X-0.456250X-0.243750X0*%
%ADD25R,3.500000X1.200000*%
%ADD26R,1.300000X1.300000*%
%ADD27R,2.000000X1.300000*%
%ADD28RoundRect,0.250000X-1.250000X-0.550000X1.250000X-0.550000X1.250000X0.550000X-1.250000X0.550000X0*%
%ADD29RoundRect,0.225000X0.250000X-0.225000X0.250000X0.225000X-0.250000X0.225000X-0.250000X-0.225000X0*%
%ADD30R,0.550000X1.600000*%
%ADD31R,1.600000X0.550000*%
G04 APERTURE END LIST*
D10*
X127087333Y-35282142D02*
X127039714Y-35329761D01*
X126896857Y-35377380D01*
X126801619Y-35377380D01*
X126658761Y-35329761D01*
X126563523Y-35234523D01*
X126515904Y-35139285D01*
X126468285Y-34948809D01*
X126468285Y-34805952D01*
X126515904Y-34615476D01*
X126563523Y-34520238D01*
X126658761Y-34425000D01*
X126801619Y-34377380D01*
X126896857Y-34377380D01*
X127039714Y-34425000D01*
X127087333Y-34472619D01*
X128039714Y-35377380D02*
X127468285Y-35377380D01*
X127754000Y-35377380D02*
X127754000Y-34377380D01*
X127658761Y-34520238D01*
X127563523Y-34615476D01*
X127468285Y-34663095D01*
X132957638Y-64079381D02*
X132624305Y-63603191D01*
X132386209Y-64079381D02*
X132386209Y-63079381D01*
X132767162Y-63079381D01*
X132862400Y-63127001D01*
X132910019Y-63174620D01*
X132957638Y-63269858D01*
X132957638Y-63412715D01*
X132910019Y-63507953D01*
X132862400Y-63555572D01*
X132767162Y-63603191D01*
X132386209Y-63603191D01*
X133338590Y-63174620D02*
X133386209Y-63127001D01*
X133481447Y-63079381D01*
X133719543Y-63079381D01*
X133814781Y-63127001D01*
X133862400Y-63174620D01*
X133910019Y-63269858D01*
X133910019Y-63365096D01*
X133862400Y-63507953D01*
X133290971Y-64079381D01*
X133910019Y-64079381D01*
X150050666Y-38123761D02*
X150193523Y-38171380D01*
X150431619Y-38171380D01*
X150526857Y-38123761D01*
X150574476Y-38076142D01*
X150622095Y-37980904D01*
X150622095Y-37885666D01*
X150574476Y-37790428D01*
X150526857Y-37742809D01*
X150431619Y-37695190D01*
X150241142Y-37647571D01*
X150145904Y-37599952D01*
X150098285Y-37552333D01*
X150050666Y-37457095D01*
X150050666Y-37361857D01*
X150098285Y-37266619D01*
X150145904Y-37219000D01*
X150241142Y-37171380D01*
X150479238Y-37171380D01*
X150622095Y-37219000D01*
X150955428Y-37171380D02*
X151193523Y-38171380D01*
X151384000Y-37457095D01*
X151574476Y-38171380D01*
X151812571Y-37171380D01*
X152717333Y-38171380D02*
X152145904Y-38171380D01*
X152431619Y-38171380D02*
X152431619Y-37171380D01*
X152336380Y-37314238D01*
X152241142Y-37409476D01*
X152145904Y-37457095D01*
X118705333Y-61031380D02*
X118372000Y-60555190D01*
X118133904Y-61031380D02*
X118133904Y-60031380D01*
X118514857Y-60031380D01*
X118610095Y-60079000D01*
X118657714Y-60126619D01*
X118705333Y-60221857D01*
X118705333Y-60364714D01*
X118657714Y-60459952D01*
X118610095Y-60507571D01*
X118514857Y-60555190D01*
X118133904Y-60555190D01*
X119038666Y-60031380D02*
X119657714Y-60031380D01*
X119324380Y-60412333D01*
X119467238Y-60412333D01*
X119562476Y-60459952D01*
X119610095Y-60507571D01*
X119657714Y-60602809D01*
X119657714Y-60840904D01*
X119610095Y-60936142D01*
X119562476Y-60983761D01*
X119467238Y-61031380D01*
X119181523Y-61031380D01*
X119086285Y-60983761D01*
X119038666Y-60936142D01*
X128778095Y-25852380D02*
X128778095Y-24852380D01*
X128778095Y-25328571D02*
X129349523Y-25328571D01*
X129349523Y-25852380D02*
X129349523Y-24852380D01*
X130349523Y-25852380D02*
X129778095Y-25852380D01*
X130063809Y-25852380D02*
X130063809Y-24852380D01*
X129968571Y-24995238D01*
X129873333Y-25090476D01*
X129778095Y-25138095D01*
X131278333Y-46585142D02*
X131230714Y-46632761D01*
X131087857Y-46680380D01*
X130992619Y-46680380D01*
X130849761Y-46632761D01*
X130754523Y-46537523D01*
X130706904Y-46442285D01*
X130659285Y-46251809D01*
X130659285Y-46108952D01*
X130706904Y-45918476D01*
X130754523Y-45823238D01*
X130849761Y-45728000D01*
X130992619Y-45680380D01*
X131087857Y-45680380D01*
X131230714Y-45728000D01*
X131278333Y-45775619D01*
X131849761Y-46108952D02*
X131754523Y-46061333D01*
X131706904Y-46013714D01*
X131659285Y-45918476D01*
X131659285Y-45870857D01*
X131706904Y-45775619D01*
X131754523Y-45728000D01*
X131849761Y-45680380D01*
X132040238Y-45680380D01*
X132135476Y-45728000D01*
X132183095Y-45775619D01*
X132230714Y-45870857D01*
X132230714Y-45918476D01*
X132183095Y-46013714D01*
X132135476Y-46061333D01*
X132040238Y-46108952D01*
X131849761Y-46108952D01*
X131754523Y-46156571D01*
X131706904Y-46204190D01*
X131659285Y-46299428D01*
X131659285Y-46489904D01*
X131706904Y-46585142D01*
X131754523Y-46632761D01*
X131849761Y-46680380D01*
X132040238Y-46680380D01*
X132135476Y-46632761D01*
X132183095Y-46585142D01*
X132230714Y-46489904D01*
X132230714Y-46299428D01*
X132183095Y-46204190D01*
X132135476Y-46156571D01*
X132040238Y-46108952D01*
X117038380Y-41060666D02*
X116562190Y-41394000D01*
X117038380Y-41632095D02*
X116038380Y-41632095D01*
X116038380Y-41251142D01*
X116086000Y-41155904D01*
X116133619Y-41108285D01*
X116228857Y-41060666D01*
X116371714Y-41060666D01*
X116466952Y-41108285D01*
X116514571Y-41155904D01*
X116562190Y-41251142D01*
X116562190Y-41632095D01*
X117038380Y-40584476D02*
X117038380Y-40394000D01*
X116990761Y-40298761D01*
X116943142Y-40251142D01*
X116800285Y-40155904D01*
X116609809Y-40108285D01*
X116228857Y-40108285D01*
X116133619Y-40155904D01*
X116086000Y-40203523D01*
X116038380Y-40298761D01*
X116038380Y-40489238D01*
X116086000Y-40584476D01*
X116133619Y-40632095D01*
X116228857Y-40679714D01*
X116466952Y-40679714D01*
X116562190Y-40632095D01*
X116609809Y-40584476D01*
X116657428Y-40489238D01*
X116657428Y-40298761D01*
X116609809Y-40203523D01*
X116562190Y-40155904D01*
X116466952Y-40108285D01*
X137120333Y-46426380D02*
X136787000Y-45950190D01*
X136548904Y-46426380D02*
X136548904Y-45426380D01*
X136929857Y-45426380D01*
X137025095Y-45474000D01*
X137072714Y-45521619D01*
X137120333Y-45616857D01*
X137120333Y-45759714D01*
X137072714Y-45854952D01*
X137025095Y-45902571D01*
X136929857Y-45950190D01*
X136548904Y-45950190D01*
X138025095Y-45426380D02*
X137548904Y-45426380D01*
X137501285Y-45902571D01*
X137548904Y-45854952D01*
X137644142Y-45807333D01*
X137882238Y-45807333D01*
X137977476Y-45854952D01*
X138025095Y-45902571D01*
X138072714Y-45997809D01*
X138072714Y-46235904D01*
X138025095Y-46331142D01*
X137977476Y-46378761D01*
X137882238Y-46426380D01*
X137644142Y-46426380D01*
X137548904Y-46378761D01*
X137501285Y-46331142D01*
X135739142Y-57062666D02*
X135786761Y-57110285D01*
X135834380Y-57253142D01*
X135834380Y-57348380D01*
X135786761Y-57491238D01*
X135691523Y-57586476D01*
X135596285Y-57634095D01*
X135405809Y-57681714D01*
X135262952Y-57681714D01*
X135072476Y-57634095D01*
X134977238Y-57586476D01*
X134882000Y-57491238D01*
X134834380Y-57348380D01*
X134834380Y-57253142D01*
X134882000Y-57110285D01*
X134929619Y-57062666D01*
X134834380Y-56729333D02*
X134834380Y-56110285D01*
X135215333Y-56443619D01*
X135215333Y-56300761D01*
X135262952Y-56205523D01*
X135310571Y-56157904D01*
X135405809Y-56110285D01*
X135643904Y-56110285D01*
X135739142Y-56157904D01*
X135786761Y-56205523D01*
X135834380Y-56300761D01*
X135834380Y-56586476D01*
X135786761Y-56681714D01*
X135739142Y-56729333D01*
X137755333Y-53157380D02*
X137422000Y-52681190D01*
X137183904Y-53157380D02*
X137183904Y-52157380D01*
X137564857Y-52157380D01*
X137660095Y-52205000D01*
X137707714Y-52252619D01*
X137755333Y-52347857D01*
X137755333Y-52490714D01*
X137707714Y-52585952D01*
X137660095Y-52633571D01*
X137564857Y-52681190D01*
X137183904Y-52681190D01*
X138612476Y-52490714D02*
X138612476Y-53157380D01*
X138374380Y-52109761D02*
X138136285Y-52824047D01*
X138755333Y-52824047D01*
X121118333Y-46172380D02*
X120785000Y-45696190D01*
X120546904Y-46172380D02*
X120546904Y-45172380D01*
X120927857Y-45172380D01*
X121023095Y-45220000D01*
X121070714Y-45267619D01*
X121118333Y-45362857D01*
X121118333Y-45505714D01*
X121070714Y-45600952D01*
X121023095Y-45648571D01*
X120927857Y-45696190D01*
X120546904Y-45696190D01*
X121689761Y-45600952D02*
X121594523Y-45553333D01*
X121546904Y-45505714D01*
X121499285Y-45410476D01*
X121499285Y-45362857D01*
X121546904Y-45267619D01*
X121594523Y-45220000D01*
X121689761Y-45172380D01*
X121880238Y-45172380D01*
X121975476Y-45220000D01*
X122023095Y-45267619D01*
X122070714Y-45362857D01*
X122070714Y-45410476D01*
X122023095Y-45505714D01*
X121975476Y-45553333D01*
X121880238Y-45600952D01*
X121689761Y-45600952D01*
X121594523Y-45648571D01*
X121546904Y-45696190D01*
X121499285Y-45791428D01*
X121499285Y-45981904D01*
X121546904Y-46077142D01*
X121594523Y-46124761D01*
X121689761Y-46172380D01*
X121880238Y-46172380D01*
X121975476Y-46124761D01*
X122023095Y-46077142D01*
X122070714Y-45981904D01*
X122070714Y-45791428D01*
X122023095Y-45696190D01*
X121975476Y-45648571D01*
X121880238Y-45600952D01*
X124928333Y-62968142D02*
X124880714Y-63015761D01*
X124737857Y-63063380D01*
X124642619Y-63063380D01*
X124499761Y-63015761D01*
X124404523Y-62920523D01*
X124356904Y-62825285D01*
X124309285Y-62634809D01*
X124309285Y-62491952D01*
X124356904Y-62301476D01*
X124404523Y-62206238D01*
X124499761Y-62111000D01*
X124642619Y-62063380D01*
X124737857Y-62063380D01*
X124880714Y-62111000D01*
X124928333Y-62158619D01*
X125785476Y-62396714D02*
X125785476Y-63063380D01*
X125547380Y-62015761D02*
X125309285Y-62730047D01*
X125928333Y-62730047D01*
X111129380Y-65078333D02*
X111843666Y-65078333D01*
X111986523Y-65125952D01*
X112081761Y-65221190D01*
X112129380Y-65364047D01*
X112129380Y-65459285D01*
X112129380Y-64078333D02*
X112129380Y-64649761D01*
X112129380Y-64364047D02*
X111129380Y-64364047D01*
X111272238Y-64459285D01*
X111367476Y-64554523D01*
X111415095Y-64649761D01*
X144359333Y-52903380D02*
X144026000Y-52427190D01*
X143787904Y-52903380D02*
X143787904Y-51903380D01*
X144168857Y-51903380D01*
X144264095Y-51951000D01*
X144311714Y-51998619D01*
X144359333Y-52093857D01*
X144359333Y-52236714D01*
X144311714Y-52331952D01*
X144264095Y-52379571D01*
X144168857Y-52427190D01*
X143787904Y-52427190D01*
X144692666Y-51903380D02*
X145359333Y-51903380D01*
X144930761Y-52903380D01*
X116927333Y-62936380D02*
X116594000Y-62460190D01*
X116355904Y-62936380D02*
X116355904Y-61936380D01*
X116736857Y-61936380D01*
X116832095Y-61984000D01*
X116879714Y-62031619D01*
X116927333Y-62126857D01*
X116927333Y-62269714D01*
X116879714Y-62364952D01*
X116832095Y-62412571D01*
X116736857Y-62460190D01*
X116355904Y-62460190D01*
X117784476Y-61936380D02*
X117594000Y-61936380D01*
X117498761Y-61984000D01*
X117451142Y-62031619D01*
X117355904Y-62174476D01*
X117308285Y-62364952D01*
X117308285Y-62745904D01*
X117355904Y-62841142D01*
X117403523Y-62888761D01*
X117498761Y-62936380D01*
X117689238Y-62936380D01*
X117784476Y-62888761D01*
X117832095Y-62841142D01*
X117879714Y-62745904D01*
X117879714Y-62507809D01*
X117832095Y-62412571D01*
X117784476Y-62364952D01*
X117689238Y-62317333D01*
X117498761Y-62317333D01*
X117403523Y-62364952D01*
X117355904Y-62412571D01*
X117308285Y-62507809D01*
X140549333Y-59920142D02*
X140501714Y-59967761D01*
X140358857Y-60015380D01*
X140263619Y-60015380D01*
X140120761Y-59967761D01*
X140025523Y-59872523D01*
X139977904Y-59777285D01*
X139930285Y-59586809D01*
X139930285Y-59443952D01*
X139977904Y-59253476D01*
X140025523Y-59158238D01*
X140120761Y-59063000D01*
X140263619Y-59015380D01*
X140358857Y-59015380D01*
X140501714Y-59063000D01*
X140549333Y-59110619D01*
X141454095Y-59015380D02*
X140977904Y-59015380D01*
X140930285Y-59491571D01*
X140977904Y-59443952D01*
X141073142Y-59396333D01*
X141311238Y-59396333D01*
X141406476Y-59443952D01*
X141454095Y-59491571D01*
X141501714Y-59586809D01*
X141501714Y-59824904D01*
X141454095Y-59920142D01*
X141406476Y-59967761D01*
X141311238Y-60015380D01*
X141073142Y-60015380D01*
X140977904Y-59967761D01*
X140930285Y-59920142D01*
X114041285Y-54246428D02*
X113841285Y-53960714D01*
X113698428Y-54246428D02*
X113698428Y-53646428D01*
X113927000Y-53646428D01*
X113984142Y-53675000D01*
X114012714Y-53703571D01*
X114041285Y-53760714D01*
X114041285Y-53846428D01*
X114012714Y-53903571D01*
X113984142Y-53932142D01*
X113927000Y-53960714D01*
X113698428Y-53960714D01*
X114612714Y-54246428D02*
X114269857Y-54246428D01*
X114441285Y-54246428D02*
X114441285Y-53646428D01*
X114384142Y-53732142D01*
X114327000Y-53789285D01*
X114269857Y-53817857D01*
X114841285Y-53703571D02*
X114869857Y-53675000D01*
X114927000Y-53646428D01*
X115069857Y-53646428D01*
X115127000Y-53675000D01*
X115155571Y-53703571D01*
X115184142Y-53760714D01*
X115184142Y-53817857D01*
X115155571Y-53903571D01*
X114812714Y-54246428D01*
X115184142Y-54246428D01*
X140866904Y-47696380D02*
X140866904Y-46696380D01*
X141105000Y-46696380D01*
X141247857Y-46744000D01*
X141343095Y-46839238D01*
X141390714Y-46934476D01*
X141438333Y-47124952D01*
X141438333Y-47267809D01*
X141390714Y-47458285D01*
X141343095Y-47553523D01*
X141247857Y-47648761D01*
X141105000Y-47696380D01*
X140866904Y-47696380D01*
X142390714Y-47696380D02*
X141819285Y-47696380D01*
X142105000Y-47696380D02*
X142105000Y-46696380D01*
X142009761Y-46839238D01*
X141914523Y-46934476D01*
X141819285Y-46982095D01*
X124237809Y-38178190D02*
X124237809Y-38654380D01*
X123904476Y-37654380D02*
X124237809Y-38178190D01*
X124571142Y-37654380D01*
X125428285Y-38654380D02*
X124856857Y-38654380D01*
X125142571Y-38654380D02*
X125142571Y-37654380D01*
X125047333Y-37797238D01*
X124952095Y-37892476D01*
X124856857Y-37940095D01*
X139263380Y-59475666D02*
X138787190Y-59809000D01*
X139263380Y-60047095D02*
X138263380Y-60047095D01*
X138263380Y-59666142D01*
X138311000Y-59570904D01*
X138358619Y-59523285D01*
X138453857Y-59475666D01*
X138596714Y-59475666D01*
X138691952Y-59523285D01*
X138739571Y-59570904D01*
X138787190Y-59666142D01*
X138787190Y-60047095D01*
X139263380Y-58523285D02*
X139263380Y-59094714D01*
X139263380Y-58809000D02*
X138263380Y-58809000D01*
X138406238Y-58904238D01*
X138501476Y-58999476D01*
X138549095Y-59094714D01*
X117213142Y-57856380D02*
X116879809Y-57380190D01*
X116641714Y-57856380D02*
X116641714Y-56856380D01*
X117022666Y-56856380D01*
X117117904Y-56904000D01*
X117165523Y-56951619D01*
X117213142Y-57046857D01*
X117213142Y-57189714D01*
X117165523Y-57284952D01*
X117117904Y-57332571D01*
X117022666Y-57380190D01*
X116641714Y-57380190D01*
X118165523Y-57856380D02*
X117594095Y-57856380D01*
X117879809Y-57856380D02*
X117879809Y-56856380D01*
X117784571Y-56999238D01*
X117689333Y-57094476D01*
X117594095Y-57142095D01*
X118498857Y-56856380D02*
X119117904Y-56856380D01*
X118784571Y-57237333D01*
X118927428Y-57237333D01*
X119022666Y-57284952D01*
X119070285Y-57332571D01*
X119117904Y-57427809D01*
X119117904Y-57665904D01*
X119070285Y-57761142D01*
X119022666Y-57808761D01*
X118927428Y-57856380D01*
X118641714Y-57856380D01*
X118546476Y-57808761D01*
X118498857Y-57761142D01*
X120308761Y-27503380D02*
X119975428Y-27027190D01*
X119737333Y-27503380D02*
X119737333Y-26503380D01*
X120118285Y-26503380D01*
X120213523Y-26551000D01*
X120261142Y-26598619D01*
X120308761Y-26693857D01*
X120308761Y-26836714D01*
X120261142Y-26931952D01*
X120213523Y-26979571D01*
X120118285Y-27027190D01*
X119737333Y-27027190D01*
X120594476Y-26503380D02*
X120927809Y-27503380D01*
X121261142Y-26503380D01*
X122118285Y-27503380D02*
X121546857Y-27503380D01*
X121832571Y-27503380D02*
X121832571Y-26503380D01*
X121737333Y-26646238D01*
X121642095Y-26741476D01*
X121546857Y-26789095D01*
X143938666Y-24852380D02*
X143938666Y-25566666D01*
X143891047Y-25709523D01*
X143795809Y-25804761D01*
X143652952Y-25852380D01*
X143557714Y-25852380D01*
X144367238Y-24947619D02*
X144414857Y-24900000D01*
X144510095Y-24852380D01*
X144748190Y-24852380D01*
X144843428Y-24900000D01*
X144891047Y-24947619D01*
X144938666Y-25042857D01*
X144938666Y-25138095D01*
X144891047Y-25280952D01*
X144319619Y-25852380D01*
X144938666Y-25852380D01*
X122007333Y-35155142D02*
X121959714Y-35202761D01*
X121816857Y-35250380D01*
X121721619Y-35250380D01*
X121578761Y-35202761D01*
X121483523Y-35107523D01*
X121435904Y-35012285D01*
X121388285Y-34821809D01*
X121388285Y-34678952D01*
X121435904Y-34488476D01*
X121483523Y-34393238D01*
X121578761Y-34298000D01*
X121721619Y-34250380D01*
X121816857Y-34250380D01*
X121959714Y-34298000D01*
X122007333Y-34345619D01*
X122388285Y-34345619D02*
X122435904Y-34298000D01*
X122531142Y-34250380D01*
X122769238Y-34250380D01*
X122864476Y-34298000D01*
X122912095Y-34345619D01*
X122959714Y-34440857D01*
X122959714Y-34536095D01*
X122912095Y-34678952D01*
X122340666Y-35250380D01*
X122959714Y-35250380D01*
X114144785Y-50818428D02*
X113944785Y-50532714D01*
X113801928Y-50818428D02*
X113801928Y-50218428D01*
X114030500Y-50218428D01*
X114087642Y-50247000D01*
X114116214Y-50275571D01*
X114144785Y-50332714D01*
X114144785Y-50418428D01*
X114116214Y-50475571D01*
X114087642Y-50504142D01*
X114030500Y-50532714D01*
X113801928Y-50532714D01*
X114716214Y-50818428D02*
X114373357Y-50818428D01*
X114544785Y-50818428D02*
X114544785Y-50218428D01*
X114487642Y-50304142D01*
X114430500Y-50361285D01*
X114373357Y-50389857D01*
X115287642Y-50818428D02*
X114944785Y-50818428D01*
X115116214Y-50818428D02*
X115116214Y-50218428D01*
X115059071Y-50304142D01*
X115001928Y-50361285D01*
X114944785Y-50389857D01*
X151471333Y-49887142D02*
X151423714Y-49934761D01*
X151280857Y-49982380D01*
X151185619Y-49982380D01*
X151042761Y-49934761D01*
X150947523Y-49839523D01*
X150899904Y-49744285D01*
X150852285Y-49553809D01*
X150852285Y-49410952D01*
X150899904Y-49220476D01*
X150947523Y-49125238D01*
X151042761Y-49030000D01*
X151185619Y-48982380D01*
X151280857Y-48982380D01*
X151423714Y-49030000D01*
X151471333Y-49077619D01*
X152328476Y-48982380D02*
X152138000Y-48982380D01*
X152042761Y-49030000D01*
X151995142Y-49077619D01*
X151899904Y-49220476D01*
X151852285Y-49410952D01*
X151852285Y-49791904D01*
X151899904Y-49887142D01*
X151947523Y-49934761D01*
X152042761Y-49982380D01*
X152233238Y-49982380D01*
X152328476Y-49934761D01*
X152376095Y-49887142D01*
X152423714Y-49791904D01*
X152423714Y-49553809D01*
X152376095Y-49458571D01*
X152328476Y-49410952D01*
X152233238Y-49363333D01*
X152042761Y-49363333D01*
X151947523Y-49410952D01*
X151899904Y-49458571D01*
X151852285Y-49553809D01*
X150241095Y-60142380D02*
X150241095Y-59142380D01*
X150241095Y-59618571D02*
X150812523Y-59618571D01*
X150812523Y-60142380D02*
X150812523Y-59142380D01*
X151241095Y-59237619D02*
X151288714Y-59190000D01*
X151383952Y-59142380D01*
X151622047Y-59142380D01*
X151717285Y-59190000D01*
X151764904Y-59237619D01*
X151812523Y-59332857D01*
X151812523Y-59428095D01*
X151764904Y-59570952D01*
X151193476Y-60142380D01*
X151812523Y-60142380D01*
X112950666Y-24725380D02*
X112950666Y-25439666D01*
X112903047Y-25582523D01*
X112807809Y-25677761D01*
X112664952Y-25725380D01*
X112569714Y-25725380D01*
X113855428Y-25058714D02*
X113855428Y-25725380D01*
X113617333Y-24677761D02*
X113379238Y-25392047D01*
X113998285Y-25392047D01*
X123547142Y-45124666D02*
X123594761Y-45172285D01*
X123642380Y-45315142D01*
X123642380Y-45410380D01*
X123594761Y-45553238D01*
X123499523Y-45648476D01*
X123404285Y-45696095D01*
X123213809Y-45743714D01*
X123070952Y-45743714D01*
X122880476Y-45696095D01*
X122785238Y-45648476D01*
X122690000Y-45553238D01*
X122642380Y-45410380D01*
X122642380Y-45315142D01*
X122690000Y-45172285D01*
X122737619Y-45124666D01*
X122642380Y-44791333D02*
X122642380Y-44124666D01*
X123642380Y-44553238D01*
X122047095Y-47331380D02*
X122047095Y-48140904D01*
X122094714Y-48236142D01*
X122142333Y-48283761D01*
X122237571Y-48331380D01*
X122428047Y-48331380D01*
X122523285Y-48283761D01*
X122570904Y-48236142D01*
X122618523Y-48140904D01*
X122618523Y-47331380D01*
X123618523Y-48331380D02*
X123047095Y-48331380D01*
X123332809Y-48331380D02*
X123332809Y-47331380D01*
X123237571Y-47474238D01*
X123142333Y-47569476D01*
X123047095Y-47617095D01*
X112768142Y-47569380D02*
X112434809Y-47093190D01*
X112196714Y-47569380D02*
X112196714Y-46569380D01*
X112577666Y-46569380D01*
X112672904Y-46617000D01*
X112720523Y-46664619D01*
X112768142Y-46759857D01*
X112768142Y-46902714D01*
X112720523Y-46997952D01*
X112672904Y-47045571D01*
X112577666Y-47093190D01*
X112196714Y-47093190D01*
X113720523Y-47569380D02*
X113149095Y-47569380D01*
X113434809Y-47569380D02*
X113434809Y-46569380D01*
X113339571Y-46712238D01*
X113244333Y-46807476D01*
X113149095Y-46855095D01*
X114339571Y-46569380D02*
X114434809Y-46569380D01*
X114530047Y-46617000D01*
X114577666Y-46664619D01*
X114625285Y-46759857D01*
X114672904Y-46950333D01*
X114672904Y-47188428D01*
X114625285Y-47378904D01*
X114577666Y-47474142D01*
X114530047Y-47521761D01*
X114434809Y-47569380D01*
X114339571Y-47569380D01*
X114244333Y-47521761D01*
X114196714Y-47474142D01*
X114149095Y-47378904D01*
X114101476Y-47188428D01*
X114101476Y-46950333D01*
X114149095Y-46759857D01*
X114196714Y-46664619D01*
X114244333Y-46617000D01*
X114339571Y-46569380D01*
X133651666Y-24852380D02*
X133651666Y-25566666D01*
X133604047Y-25709523D01*
X133508809Y-25804761D01*
X133365952Y-25852380D01*
X133270714Y-25852380D01*
X134032619Y-24852380D02*
X134651666Y-24852380D01*
X134318333Y-25233333D01*
X134461190Y-25233333D01*
X134556428Y-25280952D01*
X134604047Y-25328571D01*
X134651666Y-25423809D01*
X134651666Y-25661904D01*
X134604047Y-25757142D01*
X134556428Y-25804761D01*
X134461190Y-25852380D01*
X134175476Y-25852380D01*
X134080238Y-25804761D01*
X134032619Y-25757142D01*
D11*
X126728065Y-37074159D02*
X126728065Y-37596663D01*
X128198065Y-37074159D02*
X128198065Y-37596663D01*
X133831000Y-60097936D02*
X133831000Y-60552064D01*
X132361000Y-60097936D02*
X132361000Y-60552064D01*
X149086000Y-39299000D02*
X147586000Y-39299000D01*
X151586000Y-45049000D02*
X151586000Y-40549000D01*
X145086000Y-40549000D02*
X145086000Y-45049000D01*
X147586000Y-46299000D02*
X149086000Y-46299000D01*
X120931000Y-59917064D02*
X120931000Y-59462936D01*
X122401000Y-59917064D02*
X122401000Y-59462936D01*
X130304000Y-45071420D02*
X130304000Y-45352580D01*
X129284000Y-45071420D02*
X129284000Y-45352580D01*
X113946000Y-40539936D02*
X113946000Y-40994064D01*
X115416000Y-40539936D02*
X115416000Y-40994064D01*
X134593064Y-47217000D02*
X134138936Y-47217000D01*
X134593064Y-45747000D02*
X134138936Y-45747000D01*
X132580748Y-56034000D02*
X133103252Y-56034000D01*
X132580748Y-57504000D02*
X133103252Y-57504000D01*
X136625064Y-51728643D02*
X136170936Y-51728643D01*
X136625064Y-50258643D02*
X136170936Y-50258643D01*
X120242000Y-47905936D02*
X120242000Y-48360064D01*
X118772000Y-47905936D02*
X118772000Y-48360064D01*
X125957000Y-59555748D02*
X125957000Y-60078252D01*
X124487000Y-59555748D02*
X124487000Y-60078252D01*
X115717000Y-66075000D02*
X120857000Y-66075000D01*
X120857000Y-66075000D02*
X120857000Y-63415000D01*
X113117000Y-63415000D02*
X114447000Y-63415000D01*
X115717000Y-63415000D02*
X120857000Y-63415000D01*
X113117000Y-64745000D02*
X113117000Y-63415000D01*
X115717000Y-66075000D02*
X115717000Y-63415000D01*
X143791000Y-50138064D02*
X143791000Y-49683936D01*
X145261000Y-50138064D02*
X145261000Y-49683936D01*
X114781064Y-61241000D02*
X114326936Y-61241000D01*
X114781064Y-62711000D02*
X114326936Y-62711000D01*
X144433000Y-59621000D02*
X144433000Y-60246000D01*
X139988000Y-61550437D02*
X139988000Y-66006000D01*
X144443563Y-60486000D02*
X143808000Y-60486000D01*
X141052437Y-60486000D02*
X141688000Y-60486000D01*
X139988000Y-66006000D02*
X141688000Y-66006000D01*
X145508000Y-61550437D02*
X145508000Y-66006000D01*
X144443563Y-60486000D02*
X145508000Y-61550437D01*
X141052437Y-60486000D02*
X139988000Y-61550437D01*
X145508000Y-66006000D02*
X143808000Y-66006000D01*
X144745500Y-59933500D02*
X144120500Y-59933500D01*
X114303436Y-56361000D02*
X114757564Y-56361000D01*
X114303436Y-54891000D02*
X114757564Y-54891000D01*
X142565000Y-51596000D02*
X142565000Y-48911000D01*
X140645000Y-51596000D02*
X142565000Y-51596000D01*
X140645000Y-48911000D02*
X140645000Y-51596000D01*
X120794000Y-39232000D02*
X120794000Y-40502000D01*
X120794000Y-43572000D02*
X128634000Y-43572000D01*
X128634000Y-39232000D02*
X128634000Y-40502000D01*
X120794000Y-39232000D02*
X128634000Y-39232000D01*
X128634000Y-43572000D02*
X128634000Y-42302000D01*
X120794000Y-43572000D02*
X120794000Y-42302000D01*
X136498064Y-58701000D02*
X136043936Y-58701000D01*
X136498064Y-60171000D02*
X136043936Y-60171000D01*
X114908064Y-59536000D02*
X114453936Y-59536000D01*
X114908064Y-58066000D02*
X114453936Y-58066000D01*
X117264000Y-28999000D02*
X117595000Y-28999000D01*
X120874000Y-33739000D02*
X122004000Y-33739000D01*
X121674000Y-28999000D02*
X122004000Y-28999000D01*
X122004000Y-28999000D02*
X122004000Y-33739000D01*
X119375000Y-28999000D02*
X119894000Y-28999000D01*
X117264000Y-33739000D02*
X118394000Y-33739000D01*
X117264000Y-28999000D02*
X117264000Y-33739000D01*
X148723000Y-32785000D02*
X148723000Y-33195000D01*
X152360620Y-24155000D02*
X152360620Y-32785000D01*
X150471100Y-24155000D02*
X150471100Y-32785000D01*
X151415860Y-24155000D02*
X151415860Y-32785000D01*
X151770145Y-24155000D02*
X151770145Y-32785000D01*
X152242525Y-24155000D02*
X152242525Y-32785000D01*
X149443000Y-32785000D02*
X149443000Y-33195000D01*
X151297765Y-24155000D02*
X151297765Y-32785000D01*
X151533955Y-24155000D02*
X151533955Y-32785000D01*
X152596810Y-24155000D02*
X152596810Y-32785000D01*
X150353000Y-24155000D02*
X150353000Y-32785000D01*
X151888240Y-24155000D02*
X151888240Y-32785000D01*
X152833000Y-24155000D02*
X152833000Y-32785000D01*
X152953000Y-24155000D02*
X145213000Y-24155000D01*
X150707290Y-24155000D02*
X150707290Y-32785000D01*
X152714905Y-24155000D02*
X152714905Y-32785000D01*
X145213000Y-24155000D02*
X145213000Y-32785000D01*
X150825385Y-24155000D02*
X150825385Y-32785000D01*
X151061575Y-24155000D02*
X151061575Y-32785000D01*
X147813000Y-24155000D02*
X147813000Y-32785000D01*
X146183000Y-32785000D02*
X146183000Y-33195000D01*
X151983000Y-32785000D02*
X151983000Y-33135000D01*
X151263000Y-32785000D02*
X151263000Y-33135000D01*
X152953000Y-24155000D02*
X152953000Y-32785000D01*
X150589195Y-24155000D02*
X150589195Y-32785000D01*
X152953000Y-32785000D02*
X145213000Y-32785000D01*
X146903000Y-32785000D02*
X146903000Y-33195000D01*
X151652050Y-24155000D02*
X151652050Y-32785000D01*
X152953000Y-35355000D02*
X151623000Y-35355000D01*
X150943480Y-24155000D02*
X150943480Y-32785000D01*
X152124430Y-24155000D02*
X152124430Y-32785000D01*
X152478715Y-24155000D02*
X152478715Y-32785000D01*
X152953000Y-34245000D02*
X152953000Y-35355000D01*
X152006335Y-24155000D02*
X152006335Y-32785000D01*
X151179670Y-24155000D02*
X151179670Y-32785000D01*
X122710548Y-36840647D02*
X122710548Y-37363151D01*
X121240548Y-36840647D02*
X121240548Y-37363151D01*
X114303436Y-51462000D02*
X114757564Y-51462000D01*
X114303436Y-52932000D02*
X114757564Y-52932000D01*
X146973000Y-55035563D02*
X148037437Y-56100000D01*
X146973000Y-51644437D02*
X146973000Y-52280000D01*
X148037437Y-50580000D02*
X152493000Y-50580000D01*
X146973000Y-55035563D02*
X146973000Y-54400000D01*
X146108000Y-51655000D02*
X146733000Y-51655000D01*
X148037437Y-56100000D02*
X152493000Y-56100000D01*
X152493000Y-50580000D02*
X152493000Y-52280000D01*
X146973000Y-51644437D02*
X148037437Y-50580000D01*
X152493000Y-56100000D02*
X152493000Y-54400000D01*
X146420500Y-51342500D02*
X146420500Y-51967500D01*
X109287000Y-65846000D02*
X111947000Y-65846000D01*
X109287000Y-27686000D02*
X109287000Y-65846000D01*
X109287000Y-27686000D02*
X111947000Y-27686000D01*
X111947000Y-25086000D02*
X111947000Y-26416000D01*
X110617000Y-25086000D02*
X111947000Y-25086000D01*
X111947000Y-27686000D02*
X111947000Y-65846000D01*
X127002000Y-45352580D02*
X127002000Y-45071420D01*
X125982000Y-45352580D02*
X125982000Y-45071420D01*
D10*
X123629000Y-48572000D02*
X123629000Y-48897000D01*
X123629000Y-48572000D02*
X123954000Y-48572000D01*
X130879000Y-55822000D02*
X130879000Y-55497000D01*
X123629000Y-55822000D02*
X123954000Y-55822000D01*
X123629000Y-55822000D02*
X123629000Y-55497000D01*
X130654000Y-48572000D02*
X130654000Y-47147000D01*
X130879000Y-55822000D02*
X130554000Y-55822000D01*
X130879000Y-48572000D02*
X130654000Y-48572000D01*
X130879000Y-48572000D02*
X130879000Y-48897000D01*
D11*
X114303436Y-49630000D02*
X114757564Y-49630000D01*
X114303436Y-48160000D02*
X114757564Y-48160000D01*
X141823000Y-32785000D02*
X141823000Y-33135000D01*
X142793000Y-35355000D02*
X141463000Y-35355000D01*
X137653000Y-24155000D02*
X137653000Y-32785000D01*
X141137765Y-24155000D02*
X141137765Y-32785000D01*
X138563000Y-32785000D02*
X138563000Y-33195000D01*
X142200620Y-24155000D02*
X142200620Y-32785000D01*
X140429195Y-24155000D02*
X140429195Y-32785000D01*
X140665385Y-24155000D02*
X140665385Y-32785000D01*
X142793000Y-34245000D02*
X142793000Y-35355000D01*
X136743000Y-32785000D02*
X136743000Y-33195000D01*
X142318715Y-24155000D02*
X142318715Y-32785000D01*
X141255860Y-24155000D02*
X141255860Y-32785000D01*
X141019670Y-24155000D02*
X141019670Y-32785000D01*
X140311100Y-24155000D02*
X140311100Y-32785000D01*
X135053000Y-24155000D02*
X135053000Y-32785000D01*
X140783480Y-24155000D02*
X140783480Y-32785000D01*
X141846335Y-24155000D02*
X141846335Y-32785000D01*
X141492050Y-24155000D02*
X141492050Y-32785000D01*
X142554905Y-24155000D02*
X142554905Y-32785000D01*
X142793000Y-24155000D02*
X135053000Y-24155000D01*
X136023000Y-32785000D02*
X136023000Y-33195000D01*
X141964430Y-24155000D02*
X141964430Y-32785000D01*
X141728240Y-24155000D02*
X141728240Y-32785000D01*
X141610145Y-24155000D02*
X141610145Y-32785000D01*
X142673000Y-24155000D02*
X142673000Y-32785000D01*
X142793000Y-24155000D02*
X142793000Y-32785000D01*
X140547290Y-24155000D02*
X140547290Y-32785000D01*
X141373955Y-24155000D02*
X141373955Y-32785000D01*
X139283000Y-32785000D02*
X139283000Y-33195000D01*
X142082525Y-24155000D02*
X142082525Y-32785000D01*
X142436810Y-24155000D02*
X142436810Y-32785000D01*
X140193000Y-24155000D02*
X140193000Y-32785000D01*
X142793000Y-32785000D02*
X135053000Y-32785000D01*
X140901575Y-24155000D02*
X140901575Y-32785000D01*
X141103000Y-32785000D02*
X141103000Y-33135000D01*
%LPC*%
D12*
X127463065Y-36385411D03*
X127463065Y-38285411D03*
D13*
X133096000Y-59412500D03*
X133096000Y-61237500D03*
D14*
X150586000Y-46049000D03*
X150586000Y-39549000D03*
X146086000Y-39549000D03*
X146086000Y-46049000D03*
D15*
X121666000Y-60602500D03*
X121666000Y-58777500D03*
D16*
X126365000Y-28194000D03*
D17*
X129794000Y-44437000D03*
X129794000Y-45987000D03*
D13*
X114681000Y-39854500D03*
X114681000Y-41679500D03*
D18*
X135278500Y-46482000D03*
X133453500Y-46482000D03*
D19*
X131892000Y-56769000D03*
X133792000Y-56769000D03*
D18*
X137310500Y-50993643D03*
X135485500Y-50993643D03*
D13*
X119507000Y-47220500D03*
X119507000Y-49045500D03*
D12*
X125222000Y-58867000D03*
X125222000Y-60767000D03*
D20*
X114447000Y-64745000D03*
D21*
X116987000Y-64745000D03*
X119527000Y-64745000D03*
D15*
X144526000Y-50823500D03*
X144526000Y-48998500D03*
D18*
X115466500Y-61976000D03*
X113641500Y-61976000D03*
D22*
X142748000Y-61046000D03*
X142748000Y-65446000D03*
D23*
X113618000Y-55626000D03*
X115443000Y-55626000D03*
D24*
X141605000Y-50848500D03*
X141605000Y-48973500D03*
D25*
X121964000Y-41402000D03*
X127464000Y-41402000D03*
D18*
X137183500Y-59436000D03*
X135358500Y-59436000D03*
X115593500Y-58801000D03*
X113768500Y-58801000D03*
D26*
X120784000Y-28619000D03*
D27*
X119634000Y-34119000D03*
D26*
X118484000Y-28619000D03*
D20*
X151623000Y-34245000D03*
D21*
X149083000Y-34245000D03*
X146543000Y-34245000D03*
D12*
X121975548Y-36151899D03*
X121975548Y-38051899D03*
D23*
X113618000Y-52197000D03*
X115443000Y-52197000D03*
D28*
X147533000Y-53340000D03*
X151933000Y-53340000D03*
D16*
X149987000Y-63246000D03*
D20*
X110617000Y-26416000D03*
D21*
X110617000Y-28956000D03*
X110617000Y-31496000D03*
X110617000Y-34036000D03*
X110617000Y-36576000D03*
X110617000Y-39116000D03*
X110617000Y-41656000D03*
X110617000Y-44196000D03*
X110617000Y-46736000D03*
X110617000Y-49276000D03*
X110617000Y-51816000D03*
X110617000Y-54356000D03*
X110617000Y-56896000D03*
X110617000Y-59436000D03*
X110617000Y-61976000D03*
X110617000Y-64516000D03*
D29*
X126492000Y-45987000D03*
X126492000Y-44437000D03*
D30*
X130054000Y-47947000D03*
X129254000Y-47947000D03*
X128454000Y-47947000D03*
X127654000Y-47947000D03*
X126854000Y-47947000D03*
X126054000Y-47947000D03*
X125254000Y-47947000D03*
X124454000Y-47947000D03*
D31*
X123004000Y-49397000D03*
X123004000Y-50197000D03*
X123004000Y-50997000D03*
X123004000Y-51797000D03*
X123004000Y-52597000D03*
X123004000Y-53397000D03*
X123004000Y-54197000D03*
X123004000Y-54997000D03*
D30*
X124454000Y-56447000D03*
X125254000Y-56447000D03*
X126054000Y-56447000D03*
X126854000Y-56447000D03*
X127654000Y-56447000D03*
X128454000Y-56447000D03*
X129254000Y-56447000D03*
X130054000Y-56447000D03*
D31*
X131504000Y-54997000D03*
X131504000Y-54197000D03*
X131504000Y-53397000D03*
X131504000Y-52597000D03*
X131504000Y-51797000D03*
X131504000Y-50997000D03*
X131504000Y-50197000D03*
X131504000Y-49397000D03*
D23*
X113618000Y-48895000D03*
X115443000Y-48895000D03*
D20*
X141463000Y-34245000D03*
D21*
X138923000Y-34245000D03*
X136383000Y-34245000D03*
M02*
