M48
; DRILL file {KiCad (6.0.9)} date Fri Dec 23 16:06:55 2022
; FORMAT={-:-/ absolute / inch / decimal}
; #@! TF.CreationDate,2022-12-23T16:06:55+01:00
; #@! TF.GenerationSoftware,Kicad,Pcbnew,(6.0.9)
; #@! TF.FileFunction,Plated,1,2,PTH
FMAT,2
INCH
; #@! TA.AperFunction,Plated,PTH,ViaDrill
T1C0.0157
; #@! TA.AperFunction,Plated,PTH,ViaDrill
T2C0.0315
; #@! TA.AperFunction,Plated,PTH,ComponentDrill
T3C0.0394
; #@! TA.AperFunction,Plated,PTH,ComponentDrill
T4C0.0433
; #@! TA.AperFunction,Plated,PTH,ComponentDrill
T5C0.1063
%
G90
G05
T1
X4.475Y-1.74
X4.515Y-2.12
X4.62Y-2.225
X4.63Y-2.07
X4.695Y-2.34
X4.985Y-2.405
X5.035Y-1.74
X5.19Y-1.785
X5.31Y-1.48
X5.31Y-1.54
X5.31Y-1.6
X5.415Y-2.07
X5.435Y-1.72
X5.515Y-2.295
T2
X5.195Y-1.705
X5.29Y-1.915
X5.315Y-1.705
X5.695Y-2.135
T3
X4.355Y-1.04
X4.355Y-1.14
X4.355Y-1.24
X4.355Y-1.34
X4.355Y-1.44
X4.355Y-1.54
X4.355Y-1.64
X4.355Y-1.74
X4.355Y-1.84
X4.355Y-1.94
X4.355Y-2.04
X4.355Y-2.14
X4.355Y-2.24
X4.355Y-2.34
X4.355Y-2.44
X4.355Y-2.54
X4.5058Y-2.549
X4.6058Y-2.549
X5.3694Y-1.3582
X5.4694Y-1.3582
X5.5694Y-1.3582
X5.7694Y-1.3482
X5.8694Y-1.3482
X5.9694Y-1.3482
T4
X5.7064Y-1.602
X5.7064Y-1.858
X5.8836Y-1.602
X5.8836Y-1.858
T5
X4.65Y-1.12
X5.905Y-2.45
T0
M30
