G04 #@! TF.GenerationSoftware,KiCad,Pcbnew,(6.0.9)*
G04 #@! TF.CreationDate,2023-01-18T17:06:23+01:00*
G04 #@! TF.ProjectId,mainboard,6d61696e-626f-4617-9264-2e6b69636164,rev?*
G04 #@! TF.SameCoordinates,Original*
G04 #@! TF.FileFunction,Copper,L2,Bot*
G04 #@! TF.FilePolarity,Positive*
%FSLAX46Y46*%
G04 Gerber Fmt 4.6, Leading zero omitted, Abs format (unit mm)*
G04 Created by KiCad (PCBNEW (6.0.9)) date 2023-01-18 17:06:23*
%MOMM*%
%LPD*%
G01*
G04 APERTURE LIST*
G04 #@! TA.AperFunction,ComponentPad*
%ADD10C,2.000000*%
G04 #@! TD*
G04 #@! TA.AperFunction,ComponentPad*
%ADD11C,5.400000*%
G04 #@! TD*
G04 #@! TA.AperFunction,ComponentPad*
%ADD12R,1.700000X1.700000*%
G04 #@! TD*
G04 #@! TA.AperFunction,ComponentPad*
%ADD13O,1.700000X1.700000*%
G04 #@! TD*
G04 #@! TA.AperFunction,ViaPad*
%ADD14C,1.500000*%
G04 #@! TD*
G04 #@! TA.AperFunction,ViaPad*
%ADD15C,1.000000*%
G04 #@! TD*
G04 #@! TA.AperFunction,ViaPad*
%ADD16C,0.800000*%
G04 #@! TD*
G04 #@! TA.AperFunction,Conductor*
%ADD17C,0.500000*%
G04 #@! TD*
G04 #@! TA.AperFunction,Conductor*
%ADD18C,0.350000*%
G04 #@! TD*
G04 #@! TA.AperFunction,Conductor*
%ADD19C,0.400000*%
G04 #@! TD*
G04 APERTURE END LIST*
D10*
X150586000Y-46049000D03*
X150586000Y-39549000D03*
X146086000Y-39549000D03*
X146086000Y-46049000D03*
D11*
X126365000Y-28194000D03*
D12*
X114447000Y-64745000D03*
D13*
X116987000Y-64745000D03*
X119527000Y-64745000D03*
D12*
X151623000Y-34245000D03*
D13*
X149083000Y-34245000D03*
X146543000Y-34245000D03*
D11*
X149987000Y-63246000D03*
D12*
X110617000Y-26416000D03*
D13*
X110617000Y-28956000D03*
X110617000Y-31496000D03*
X110617000Y-34036000D03*
X110617000Y-36576000D03*
X110617000Y-39116000D03*
X110617000Y-41656000D03*
X110617000Y-44196000D03*
X110617000Y-46736000D03*
X110617000Y-49276000D03*
X110617000Y-51816000D03*
X110617000Y-54356000D03*
X110617000Y-56896000D03*
X110617000Y-59436000D03*
X110617000Y-61976000D03*
X110617000Y-64516000D03*
D12*
X141463000Y-34245000D03*
D13*
X138923000Y-34245000D03*
X136383000Y-34245000D03*
D14*
X135001000Y-43307000D03*
X131953000Y-43307000D03*
D15*
X135128000Y-49022000D03*
D16*
X112776000Y-44069000D03*
X112776000Y-43180000D03*
X132207000Y-44958000D03*
X132080000Y-34163000D03*
X138811000Y-45720000D03*
X138811000Y-48260000D03*
X138811000Y-40767000D03*
X134874000Y-40640000D03*
X115951000Y-33655000D03*
X112776000Y-54102000D03*
X133096000Y-48387000D03*
X134874000Y-37592000D03*
X117602000Y-52578000D03*
X127254000Y-58547000D03*
X117729000Y-35687000D03*
X115206982Y-30232305D03*
X112776000Y-44958000D03*
X116840000Y-34671000D03*
X117856000Y-56134000D03*
X127785217Y-44130696D03*
X134874000Y-39116000D03*
X132080000Y-35306000D03*
X113665000Y-30226000D03*
X133731000Y-51689000D03*
X138811000Y-43434000D03*
X117221000Y-60071000D03*
X132080000Y-33020000D03*
D15*
X134366000Y-53467000D03*
X129257695Y-59330228D03*
D17*
X135001000Y-43307000D02*
X131953000Y-43307000D01*
D18*
X146543000Y-34245000D02*
X135128000Y-45660000D01*
X135128000Y-45660000D02*
X135128000Y-49022000D01*
X139049000Y-53086000D02*
X139049000Y-53102000D01*
X139049000Y-53102000D02*
X138684000Y-53467000D01*
X139049000Y-53086000D02*
X146086000Y-46049000D01*
X138684000Y-53467000D02*
X134366000Y-53467000D01*
D19*
X116987000Y-64745000D02*
X122401772Y-59330228D01*
X122401772Y-59330228D02*
X129257695Y-59330228D01*
G04 #@! TA.AperFunction,Conductor*
G36*
X153230621Y-24531502D02*
G01*
X153277114Y-24585158D01*
X153288500Y-24637500D01*
X153288500Y-66929500D01*
X153268498Y-66997621D01*
X153214842Y-67044114D01*
X153162500Y-67055500D01*
X109219500Y-67055500D01*
X109151379Y-67035498D01*
X109104886Y-66981842D01*
X109093500Y-66929500D01*
X109093500Y-64711695D01*
X115624251Y-64711695D01*
X115624548Y-64716848D01*
X115624548Y-64716851D01*
X115630011Y-64811590D01*
X115637110Y-64934715D01*
X115638247Y-64939761D01*
X115638248Y-64939767D01*
X115658119Y-65027939D01*
X115686222Y-65152639D01*
X115770266Y-65359616D01*
X115821019Y-65442438D01*
X115884291Y-65545688D01*
X115886987Y-65550088D01*
X116033250Y-65718938D01*
X116205126Y-65861632D01*
X116398000Y-65974338D01*
X116606692Y-66054030D01*
X116611760Y-66055061D01*
X116611763Y-66055062D01*
X116719017Y-66076883D01*
X116825597Y-66098567D01*
X116830772Y-66098757D01*
X116830774Y-66098757D01*
X117043673Y-66106564D01*
X117043677Y-66106564D01*
X117048837Y-66106753D01*
X117053957Y-66106097D01*
X117053959Y-66106097D01*
X117265288Y-66079025D01*
X117265289Y-66079025D01*
X117270416Y-66078368D01*
X117275366Y-66076883D01*
X117479429Y-66015661D01*
X117479434Y-66015659D01*
X117484384Y-66014174D01*
X117684994Y-65915896D01*
X117866860Y-65786173D01*
X118025096Y-65628489D01*
X118084594Y-65545689D01*
X118155453Y-65447077D01*
X118156776Y-65448028D01*
X118203645Y-65404857D01*
X118273580Y-65392625D01*
X118339026Y-65420144D01*
X118366875Y-65451994D01*
X118426987Y-65550088D01*
X118573250Y-65718938D01*
X118745126Y-65861632D01*
X118938000Y-65974338D01*
X119146692Y-66054030D01*
X119151760Y-66055061D01*
X119151763Y-66055062D01*
X119259017Y-66076883D01*
X119365597Y-66098567D01*
X119370772Y-66098757D01*
X119370774Y-66098757D01*
X119583673Y-66106564D01*
X119583677Y-66106564D01*
X119588837Y-66106753D01*
X119593957Y-66106097D01*
X119593959Y-66106097D01*
X119805288Y-66079025D01*
X119805289Y-66079025D01*
X119810416Y-66078368D01*
X119815366Y-66076883D01*
X120019429Y-66015661D01*
X120019434Y-66015659D01*
X120024384Y-66014174D01*
X120224994Y-65915896D01*
X120406860Y-65786173D01*
X120565096Y-65628489D01*
X120624594Y-65545689D01*
X120692435Y-65451277D01*
X120695453Y-65447077D01*
X120716320Y-65404857D01*
X120792136Y-65251453D01*
X120792137Y-65251451D01*
X120794430Y-65246811D01*
X120859370Y-65033069D01*
X120888529Y-64811590D01*
X120890156Y-64745000D01*
X120871852Y-64522361D01*
X120817431Y-64305702D01*
X120728354Y-64100840D01*
X120607014Y-63913277D01*
X120456670Y-63748051D01*
X120452619Y-63744852D01*
X120452615Y-63744848D01*
X120285414Y-63612800D01*
X120285410Y-63612798D01*
X120281359Y-63609598D01*
X120085789Y-63501638D01*
X120080920Y-63499914D01*
X120080916Y-63499912D01*
X119880087Y-63428795D01*
X119880083Y-63428794D01*
X119875212Y-63427069D01*
X119870119Y-63426162D01*
X119870116Y-63426161D01*
X119660373Y-63388800D01*
X119660367Y-63388799D01*
X119655284Y-63387894D01*
X119648801Y-63387815D01*
X119648290Y-63387658D01*
X119644961Y-63387343D01*
X119645026Y-63386656D01*
X119580930Y-63366985D01*
X119535093Y-63312767D01*
X119525846Y-63242375D01*
X119556123Y-63178158D01*
X119561241Y-63172729D01*
X122658337Y-60075633D01*
X122720649Y-60041607D01*
X122747432Y-60038728D01*
X128487714Y-60038728D01*
X128555835Y-60058730D01*
X128569377Y-60068774D01*
X128679345Y-60162364D01*
X128851989Y-60258852D01*
X129040087Y-60319968D01*
X129236472Y-60343386D01*
X129242607Y-60342914D01*
X129242609Y-60342914D01*
X129427525Y-60328685D01*
X129427529Y-60328684D01*
X129433667Y-60328212D01*
X129624158Y-60275026D01*
X129629662Y-60272246D01*
X129629664Y-60272245D01*
X129795190Y-60188632D01*
X129795192Y-60188631D01*
X129800691Y-60185853D01*
X129941766Y-60075633D01*
X129951686Y-60067883D01*
X129956542Y-60064089D01*
X130085773Y-59914373D01*
X130183464Y-59742407D01*
X130245892Y-59554741D01*
X130270680Y-59358523D01*
X130271075Y-59330228D01*
X130251775Y-59133395D01*
X130194611Y-58944059D01*
X130101761Y-58769432D01*
X130022844Y-58672670D01*
X129980655Y-58620941D01*
X129980652Y-58620938D01*
X129976760Y-58616166D01*
X129967635Y-58608617D01*
X129829120Y-58494027D01*
X129829116Y-58494025D01*
X129824370Y-58490098D01*
X129650396Y-58396030D01*
X129461463Y-58337546D01*
X129455338Y-58336902D01*
X129455337Y-58336902D01*
X129270899Y-58317517D01*
X129270897Y-58317517D01*
X129264770Y-58316873D01*
X129182271Y-58324381D01*
X129073946Y-58334239D01*
X129073943Y-58334240D01*
X129067807Y-58334798D01*
X129061901Y-58336536D01*
X129061897Y-58336537D01*
X128956771Y-58367477D01*
X128878076Y-58390638D01*
X128872618Y-58393491D01*
X128872614Y-58393493D01*
X128791598Y-58435848D01*
X128702805Y-58482268D01*
X128563931Y-58593926D01*
X128498311Y-58621021D01*
X128484981Y-58621728D01*
X122430684Y-58621728D01*
X122422114Y-58621436D01*
X122371996Y-58618019D01*
X122371992Y-58618019D01*
X122364420Y-58617503D01*
X122356943Y-58618808D01*
X122356942Y-58618808D01*
X122330464Y-58623429D01*
X122301469Y-58628490D01*
X122294951Y-58629451D01*
X122231530Y-58637126D01*
X122224429Y-58639809D01*
X122221820Y-58640450D01*
X122205510Y-58644913D01*
X122202974Y-58645678D01*
X122195488Y-58646985D01*
X122188531Y-58650039D01*
X122136977Y-58672670D01*
X122130873Y-58675161D01*
X122071116Y-58697741D01*
X122064853Y-58702045D01*
X122062487Y-58703282D01*
X122047675Y-58711527D01*
X122045421Y-58712860D01*
X122038467Y-58715913D01*
X121987770Y-58754815D01*
X121982440Y-58758687D01*
X121936052Y-58790567D01*
X121936047Y-58790572D01*
X121929791Y-58794871D01*
X121924740Y-58800541D01*
X121924738Y-58800542D01*
X121888337Y-58841398D01*
X121883356Y-58846674D01*
X117354316Y-63375714D01*
X117292004Y-63409740D01*
X117243125Y-63410666D01*
X117120373Y-63388800D01*
X117120367Y-63388799D01*
X117115284Y-63387894D01*
X117041452Y-63386992D01*
X116897081Y-63385228D01*
X116897079Y-63385228D01*
X116891911Y-63385165D01*
X116671091Y-63418955D01*
X116458756Y-63488357D01*
X116260607Y-63591507D01*
X116256474Y-63594610D01*
X116256471Y-63594612D01*
X116232247Y-63612800D01*
X116081965Y-63725635D01*
X115927629Y-63887138D01*
X115801743Y-64071680D01*
X115707688Y-64274305D01*
X115647989Y-64489570D01*
X115624251Y-64711695D01*
X109093500Y-64711695D01*
X109093500Y-62480349D01*
X109113502Y-62412228D01*
X109167158Y-62365735D01*
X109237432Y-62355631D01*
X109302012Y-62385125D01*
X109336243Y-62432945D01*
X109400266Y-62590616D01*
X109516987Y-62781088D01*
X109663250Y-62949938D01*
X109835126Y-63092632D01*
X110028000Y-63205338D01*
X110236692Y-63285030D01*
X110241760Y-63286061D01*
X110241763Y-63286062D01*
X110349017Y-63307883D01*
X110455597Y-63329567D01*
X110460772Y-63329757D01*
X110460774Y-63329757D01*
X110673673Y-63337564D01*
X110673677Y-63337564D01*
X110678837Y-63337753D01*
X110683957Y-63337097D01*
X110683959Y-63337097D01*
X110895288Y-63310025D01*
X110895289Y-63310025D01*
X110900416Y-63309368D01*
X110905366Y-63307883D01*
X111109429Y-63246661D01*
X111109434Y-63246659D01*
X111114384Y-63245174D01*
X111314994Y-63146896D01*
X111496860Y-63017173D01*
X111655096Y-62859489D01*
X111714594Y-62776689D01*
X111782435Y-62682277D01*
X111785453Y-62678077D01*
X111884430Y-62477811D01*
X111949370Y-62264069D01*
X111978529Y-62042590D01*
X111980156Y-61976000D01*
X111961852Y-61753361D01*
X111907431Y-61536702D01*
X111818354Y-61331840D01*
X111697014Y-61144277D01*
X111546670Y-60979051D01*
X111542619Y-60975852D01*
X111542615Y-60975848D01*
X111375414Y-60843800D01*
X111375410Y-60843798D01*
X111371359Y-60840598D01*
X111330053Y-60817796D01*
X111280084Y-60767364D01*
X111265312Y-60697921D01*
X111290428Y-60631516D01*
X111317780Y-60604909D01*
X111361603Y-60573650D01*
X111496860Y-60477173D01*
X111655096Y-60319489D01*
X111714594Y-60236689D01*
X111782435Y-60142277D01*
X111785453Y-60138077D01*
X111819705Y-60068774D01*
X111882136Y-59942453D01*
X111882137Y-59942451D01*
X111884430Y-59937811D01*
X111942169Y-59747770D01*
X111947865Y-59729023D01*
X111947865Y-59729021D01*
X111949370Y-59724069D01*
X111978529Y-59502590D01*
X111980156Y-59436000D01*
X111961852Y-59213361D01*
X111907431Y-58996702D01*
X111818354Y-58791840D01*
X111742117Y-58673996D01*
X111699822Y-58608617D01*
X111699820Y-58608614D01*
X111697014Y-58604277D01*
X111546670Y-58439051D01*
X111542619Y-58435852D01*
X111542615Y-58435848D01*
X111375414Y-58303800D01*
X111375410Y-58303798D01*
X111371359Y-58300598D01*
X111330053Y-58277796D01*
X111280084Y-58227364D01*
X111265312Y-58157921D01*
X111290428Y-58091516D01*
X111317780Y-58064909D01*
X111361603Y-58033650D01*
X111496860Y-57937173D01*
X111655096Y-57779489D01*
X111714594Y-57696689D01*
X111782435Y-57602277D01*
X111785453Y-57598077D01*
X111884430Y-57397811D01*
X111949370Y-57184069D01*
X111978529Y-56962590D01*
X111980156Y-56896000D01*
X111961852Y-56673361D01*
X111907431Y-56456702D01*
X111818354Y-56251840D01*
X111697014Y-56064277D01*
X111546670Y-55899051D01*
X111542619Y-55895852D01*
X111542615Y-55895848D01*
X111375414Y-55763800D01*
X111375410Y-55763798D01*
X111371359Y-55760598D01*
X111330053Y-55737796D01*
X111280084Y-55687364D01*
X111265312Y-55617921D01*
X111290428Y-55551516D01*
X111317780Y-55524909D01*
X111361603Y-55493650D01*
X111496860Y-55397173D01*
X111655096Y-55239489D01*
X111714594Y-55156689D01*
X111782435Y-55062277D01*
X111785453Y-55058077D01*
X111884430Y-54857811D01*
X111949370Y-54644069D01*
X111978529Y-54422590D01*
X111978861Y-54409017D01*
X111980074Y-54359365D01*
X111980074Y-54359361D01*
X111980156Y-54356000D01*
X111961852Y-54133361D01*
X111907431Y-53916702D01*
X111818354Y-53711840D01*
X111725108Y-53567704D01*
X111699822Y-53528617D01*
X111699820Y-53528614D01*
X111697014Y-53524277D01*
X111632021Y-53452851D01*
X133352719Y-53452851D01*
X133369268Y-53649934D01*
X133423783Y-53840050D01*
X133514187Y-54015956D01*
X133637035Y-54170953D01*
X133641728Y-54174947D01*
X133641729Y-54174948D01*
X133676640Y-54204659D01*
X133787650Y-54299136D01*
X133960294Y-54395624D01*
X134148392Y-54456740D01*
X134344777Y-54480158D01*
X134350912Y-54479686D01*
X134350914Y-54479686D01*
X134535830Y-54465457D01*
X134535834Y-54465456D01*
X134541972Y-54464984D01*
X134732463Y-54411798D01*
X134737967Y-54409018D01*
X134737969Y-54409017D01*
X134903495Y-54325404D01*
X134903497Y-54325403D01*
X134908996Y-54322625D01*
X135064847Y-54200861D01*
X135070620Y-54194172D01*
X135071795Y-54193415D01*
X135073340Y-54191943D01*
X135073620Y-54192237D01*
X135130273Y-54155673D01*
X135166005Y-54150500D01*
X138655955Y-54150500D01*
X138664524Y-54150792D01*
X138712458Y-54154060D01*
X138712462Y-54154060D01*
X138720034Y-54154576D01*
X138727511Y-54153271D01*
X138727514Y-54153271D01*
X138780647Y-54143998D01*
X138787171Y-54143035D01*
X138840691Y-54136558D01*
X138848235Y-54135645D01*
X138855345Y-54132958D01*
X138860248Y-54131754D01*
X138870734Y-54128886D01*
X138875526Y-54127439D01*
X138883004Y-54126134D01*
X138889957Y-54123082D01*
X138939341Y-54101405D01*
X138945446Y-54098914D01*
X138995882Y-54079855D01*
X138995885Y-54079853D01*
X139002989Y-54077169D01*
X139009246Y-54072869D01*
X139013714Y-54070533D01*
X139023160Y-54065275D01*
X139027526Y-54062693D01*
X139034485Y-54059638D01*
X139083304Y-54022177D01*
X139088623Y-54018314D01*
X139133065Y-53987769D01*
X139139326Y-53983466D01*
X139179233Y-53938676D01*
X139184213Y-53933402D01*
X139512459Y-53605156D01*
X139518724Y-53599302D01*
X139554945Y-53567704D01*
X139560670Y-53562710D01*
X139596059Y-53512356D01*
X139599973Y-53507086D01*
X139615065Y-53487839D01*
X139625123Y-53476492D01*
X145564561Y-47537054D01*
X145626873Y-47503028D01*
X145683070Y-47503630D01*
X145844476Y-47542380D01*
X145844482Y-47542381D01*
X145849289Y-47543535D01*
X146086000Y-47562165D01*
X146322711Y-47543535D01*
X146327518Y-47542381D01*
X146327524Y-47542380D01*
X146473391Y-47507360D01*
X146553594Y-47488105D01*
X146558167Y-47486211D01*
X146768389Y-47399135D01*
X146768393Y-47399133D01*
X146772963Y-47397240D01*
X146777183Y-47394654D01*
X146971202Y-47275759D01*
X146971208Y-47275755D01*
X146975416Y-47273176D01*
X147155969Y-47118969D01*
X147310176Y-46938416D01*
X147312755Y-46934208D01*
X147312759Y-46934202D01*
X147431654Y-46740183D01*
X147434240Y-46735963D01*
X147525105Y-46516594D01*
X147544360Y-46436391D01*
X147579380Y-46290524D01*
X147579381Y-46290518D01*
X147580535Y-46285711D01*
X147599165Y-46049000D01*
X147580535Y-45812289D01*
X147525105Y-45581406D01*
X147489854Y-45496302D01*
X147436135Y-45366611D01*
X147436133Y-45366607D01*
X147434240Y-45362037D01*
X147421787Y-45341716D01*
X147312759Y-45163798D01*
X147312755Y-45163792D01*
X147310176Y-45159584D01*
X147155969Y-44979031D01*
X146975416Y-44824824D01*
X146971208Y-44822245D01*
X146971202Y-44822241D01*
X146777183Y-44703346D01*
X146772963Y-44700760D01*
X146768393Y-44698867D01*
X146768389Y-44698865D01*
X146558167Y-44611789D01*
X146558165Y-44611788D01*
X146553594Y-44609895D01*
X146452960Y-44585735D01*
X146327524Y-44555620D01*
X146327518Y-44555619D01*
X146322711Y-44554465D01*
X146086000Y-44535835D01*
X145849289Y-44554465D01*
X145844482Y-44555619D01*
X145844476Y-44555620D01*
X145719040Y-44585735D01*
X145618406Y-44609895D01*
X145613835Y-44611788D01*
X145613833Y-44611789D01*
X145403611Y-44698865D01*
X145403607Y-44698867D01*
X145399037Y-44700760D01*
X145394817Y-44703346D01*
X145200798Y-44822241D01*
X145200792Y-44822245D01*
X145196584Y-44824824D01*
X145016031Y-44979031D01*
X144861824Y-45159584D01*
X144859245Y-45163792D01*
X144859241Y-45163798D01*
X144750213Y-45341716D01*
X144737760Y-45362037D01*
X144735867Y-45366607D01*
X144735865Y-45366611D01*
X144682146Y-45496302D01*
X144646895Y-45581406D01*
X144591465Y-45812289D01*
X144572835Y-46049000D01*
X144591465Y-46285711D01*
X144592619Y-46290518D01*
X144592620Y-46290524D01*
X144631370Y-46451930D01*
X144627823Y-46522838D01*
X144597946Y-46570439D01*
X138585541Y-52582844D01*
X138579276Y-52588698D01*
X138537330Y-52625290D01*
X138501941Y-52675644D01*
X138498027Y-52680914D01*
X138482935Y-52700161D01*
X138472877Y-52711508D01*
X138437790Y-52746595D01*
X138375478Y-52780621D01*
X138348695Y-52783500D01*
X135167016Y-52783500D01*
X135098895Y-52763498D01*
X135085374Y-52752564D01*
X135085065Y-52752938D01*
X134937425Y-52630799D01*
X134937421Y-52630797D01*
X134932675Y-52626870D01*
X134758701Y-52532802D01*
X134569768Y-52474318D01*
X134563643Y-52473674D01*
X134563642Y-52473674D01*
X134379204Y-52454289D01*
X134379202Y-52454289D01*
X134373075Y-52453645D01*
X134290576Y-52461153D01*
X134182251Y-52471011D01*
X134182248Y-52471012D01*
X134176112Y-52471570D01*
X134170206Y-52473308D01*
X134170202Y-52473309D01*
X134065076Y-52504249D01*
X133986381Y-52527410D01*
X133980923Y-52530263D01*
X133980919Y-52530265D01*
X133890147Y-52577720D01*
X133811110Y-52619040D01*
X133656975Y-52742968D01*
X133529846Y-52894474D01*
X133526879Y-52899872D01*
X133526875Y-52899877D01*
X133485315Y-52975476D01*
X133434567Y-53067787D01*
X133432706Y-53073654D01*
X133432705Y-53073656D01*
X133376627Y-53250436D01*
X133374765Y-53256306D01*
X133352719Y-53452851D01*
X111632021Y-53452851D01*
X111546670Y-53359051D01*
X111542619Y-53355852D01*
X111542615Y-53355848D01*
X111375414Y-53223800D01*
X111375410Y-53223798D01*
X111371359Y-53220598D01*
X111330053Y-53197796D01*
X111280084Y-53147364D01*
X111265312Y-53077921D01*
X111290428Y-53011516D01*
X111317780Y-52984909D01*
X111361603Y-52953650D01*
X111496860Y-52857173D01*
X111655096Y-52699489D01*
X111668444Y-52680914D01*
X111782435Y-52522277D01*
X111785453Y-52518077D01*
X111806180Y-52476140D01*
X111882136Y-52322453D01*
X111882137Y-52322451D01*
X111884430Y-52317811D01*
X111949370Y-52104069D01*
X111978529Y-51882590D01*
X111980156Y-51816000D01*
X111961852Y-51593361D01*
X111907431Y-51376702D01*
X111818354Y-51171840D01*
X111697014Y-50984277D01*
X111546670Y-50819051D01*
X111542619Y-50815852D01*
X111542615Y-50815848D01*
X111375414Y-50683800D01*
X111375410Y-50683798D01*
X111371359Y-50680598D01*
X111330053Y-50657796D01*
X111280084Y-50607364D01*
X111265312Y-50537921D01*
X111290428Y-50471516D01*
X111317780Y-50444909D01*
X111361603Y-50413650D01*
X111496860Y-50317173D01*
X111655096Y-50159489D01*
X111714594Y-50076689D01*
X111782435Y-49982277D01*
X111785453Y-49978077D01*
X111790208Y-49968457D01*
X111882136Y-49782453D01*
X111882137Y-49782451D01*
X111884430Y-49777811D01*
X111949370Y-49564069D01*
X111978529Y-49342590D01*
X111980156Y-49276000D01*
X111961852Y-49053361D01*
X111907431Y-48836702D01*
X111818354Y-48631840D01*
X111704875Y-48456428D01*
X111699822Y-48448617D01*
X111699820Y-48448614D01*
X111697014Y-48444277D01*
X111546670Y-48279051D01*
X111542619Y-48275852D01*
X111542615Y-48275848D01*
X111375414Y-48143800D01*
X111375410Y-48143798D01*
X111371359Y-48140598D01*
X111330053Y-48117796D01*
X111280084Y-48067364D01*
X111265312Y-47997921D01*
X111290428Y-47931516D01*
X111317780Y-47904909D01*
X111361603Y-47873650D01*
X111496860Y-47777173D01*
X111655096Y-47619489D01*
X111714594Y-47536689D01*
X111782435Y-47442277D01*
X111785453Y-47438077D01*
X111884430Y-47237811D01*
X111949370Y-47024069D01*
X111978529Y-46802590D01*
X111980156Y-46736000D01*
X111961852Y-46513361D01*
X111907431Y-46296702D01*
X111818354Y-46091840D01*
X111755903Y-45995305D01*
X111699822Y-45908617D01*
X111699820Y-45908614D01*
X111697014Y-45904277D01*
X111546670Y-45739051D01*
X111542619Y-45735852D01*
X111542615Y-45735848D01*
X111375414Y-45603800D01*
X111375410Y-45603798D01*
X111371359Y-45600598D01*
X111330053Y-45577796D01*
X111280084Y-45527364D01*
X111265312Y-45457921D01*
X111290428Y-45391516D01*
X111317780Y-45364909D01*
X111380984Y-45319826D01*
X111496860Y-45237173D01*
X111655096Y-45079489D01*
X111714594Y-44996689D01*
X111782435Y-44902277D01*
X111785453Y-44898077D01*
X111822934Y-44822241D01*
X111882136Y-44702453D01*
X111882137Y-44702451D01*
X111884430Y-44697811D01*
X111949370Y-44484069D01*
X111978529Y-44262590D01*
X111980156Y-44196000D01*
X111961852Y-43973361D01*
X111907431Y-43756702D01*
X111818354Y-43551840D01*
X111778906Y-43490862D01*
X111699822Y-43368617D01*
X111699820Y-43368614D01*
X111697014Y-43364277D01*
X111644896Y-43307000D01*
X130689693Y-43307000D01*
X130708885Y-43526371D01*
X130765880Y-43739076D01*
X130776439Y-43761720D01*
X130856618Y-43933666D01*
X130856621Y-43933671D01*
X130858944Y-43938653D01*
X130862100Y-43943160D01*
X130862101Y-43943162D01*
X130961769Y-44085502D01*
X130985251Y-44119038D01*
X131140962Y-44274749D01*
X131321346Y-44401056D01*
X131520924Y-44494120D01*
X131733629Y-44551115D01*
X131953000Y-44570307D01*
X132172371Y-44551115D01*
X132385076Y-44494120D01*
X132584654Y-44401056D01*
X132765038Y-44274749D01*
X132920749Y-44119038D01*
X132923908Y-44114527D01*
X132927284Y-44110504D01*
X132986395Y-44071181D01*
X133023802Y-44065500D01*
X133930198Y-44065500D01*
X133998319Y-44085502D01*
X134026716Y-44110504D01*
X134030092Y-44114527D01*
X134033251Y-44119038D01*
X134188962Y-44274749D01*
X134369346Y-44401056D01*
X134568924Y-44494120D01*
X134781629Y-44551115D01*
X134815486Y-44554077D01*
X134961780Y-44566876D01*
X135027898Y-44592739D01*
X135069537Y-44650243D01*
X135073478Y-44721130D01*
X135039893Y-44781492D01*
X134664541Y-45156844D01*
X134658276Y-45162698D01*
X134616330Y-45199290D01*
X134580934Y-45249655D01*
X134577022Y-45254920D01*
X134539065Y-45303328D01*
X134535939Y-45310252D01*
X134533329Y-45314561D01*
X134527958Y-45323976D01*
X134525573Y-45328424D01*
X134521205Y-45334639D01*
X134510523Y-45362037D01*
X134498858Y-45391957D01*
X134496306Y-45398029D01*
X134470986Y-45454105D01*
X134469600Y-45461582D01*
X134468090Y-45466402D01*
X134465118Y-45476835D01*
X134463870Y-45481696D01*
X134461111Y-45488772D01*
X134460120Y-45496302D01*
X134453082Y-45549762D01*
X134452050Y-45556278D01*
X134440839Y-45616767D01*
X134441276Y-45624347D01*
X134441276Y-45624348D01*
X134444291Y-45676642D01*
X134444500Y-45683894D01*
X134444500Y-48221689D01*
X134424498Y-48289810D01*
X134415028Y-48302672D01*
X134291846Y-48449474D01*
X134288879Y-48454872D01*
X134288875Y-48454877D01*
X134285397Y-48461204D01*
X134196567Y-48622787D01*
X134194706Y-48628654D01*
X134194705Y-48628656D01*
X134152134Y-48762856D01*
X134136765Y-48811306D01*
X134114719Y-49007851D01*
X134131268Y-49204934D01*
X134132967Y-49210858D01*
X134171692Y-49345908D01*
X134185783Y-49395050D01*
X134188602Y-49400535D01*
X134272648Y-49564069D01*
X134276187Y-49570956D01*
X134399035Y-49725953D01*
X134403728Y-49729947D01*
X134403729Y-49729948D01*
X134407251Y-49732945D01*
X134549650Y-49854136D01*
X134722294Y-49950624D01*
X134910392Y-50011740D01*
X135106777Y-50035158D01*
X135112912Y-50034686D01*
X135112914Y-50034686D01*
X135297830Y-50020457D01*
X135297834Y-50020456D01*
X135303972Y-50019984D01*
X135494463Y-49966798D01*
X135499967Y-49964018D01*
X135499969Y-49964017D01*
X135665495Y-49880404D01*
X135665497Y-49880403D01*
X135670996Y-49877625D01*
X135826847Y-49755861D01*
X135956078Y-49606145D01*
X136053769Y-49434179D01*
X136116197Y-49246513D01*
X136140985Y-49050295D01*
X136141380Y-49022000D01*
X136122080Y-48825167D01*
X136064916Y-48635831D01*
X135972066Y-48461204D01*
X135847065Y-48307938D01*
X135847068Y-48307935D01*
X135814286Y-48247392D01*
X135811500Y-48221043D01*
X135811500Y-45995305D01*
X135831502Y-45927184D01*
X135848405Y-45906210D01*
X142205615Y-39549000D01*
X144572835Y-39549000D01*
X144591465Y-39785711D01*
X144592619Y-39790518D01*
X144592620Y-39790524D01*
X144622910Y-39916689D01*
X144646895Y-40016594D01*
X144648788Y-40021165D01*
X144648789Y-40021167D01*
X144678643Y-40093240D01*
X144737760Y-40235963D01*
X144740346Y-40240183D01*
X144859241Y-40434202D01*
X144859245Y-40434208D01*
X144861824Y-40438416D01*
X145016031Y-40618969D01*
X145196584Y-40773176D01*
X145200792Y-40775755D01*
X145200798Y-40775759D01*
X145394817Y-40894654D01*
X145399037Y-40897240D01*
X145403607Y-40899133D01*
X145403611Y-40899135D01*
X145613833Y-40986211D01*
X145618406Y-40988105D01*
X145698609Y-41007360D01*
X145844476Y-41042380D01*
X145844482Y-41042381D01*
X145849289Y-41043535D01*
X146086000Y-41062165D01*
X146322711Y-41043535D01*
X146327518Y-41042381D01*
X146327524Y-41042380D01*
X146473391Y-41007360D01*
X146553594Y-40988105D01*
X146558167Y-40986211D01*
X146768389Y-40899135D01*
X146768393Y-40899133D01*
X146772963Y-40897240D01*
X146777183Y-40894654D01*
X146971202Y-40775759D01*
X146971208Y-40775755D01*
X146975416Y-40773176D01*
X147155969Y-40618969D01*
X147310176Y-40438416D01*
X147312755Y-40434208D01*
X147312759Y-40434202D01*
X147431654Y-40240183D01*
X147434240Y-40235963D01*
X147493358Y-40093240D01*
X147523211Y-40021167D01*
X147523212Y-40021165D01*
X147525105Y-40016594D01*
X147549090Y-39916689D01*
X147579380Y-39790524D01*
X147579381Y-39790518D01*
X147580535Y-39785711D01*
X147599165Y-39549000D01*
X147580535Y-39312289D01*
X147525105Y-39081406D01*
X147523211Y-39076833D01*
X147436135Y-38866611D01*
X147436133Y-38866607D01*
X147434240Y-38862037D01*
X147352404Y-38728493D01*
X147312759Y-38663798D01*
X147312755Y-38663792D01*
X147310176Y-38659584D01*
X147155969Y-38479031D01*
X146975416Y-38324824D01*
X146971208Y-38322245D01*
X146971202Y-38322241D01*
X146777183Y-38203346D01*
X146772963Y-38200760D01*
X146768393Y-38198867D01*
X146768389Y-38198865D01*
X146558167Y-38111789D01*
X146558165Y-38111788D01*
X146553594Y-38109895D01*
X146473391Y-38090640D01*
X146327524Y-38055620D01*
X146327518Y-38055619D01*
X146322711Y-38054465D01*
X146086000Y-38035835D01*
X145849289Y-38054465D01*
X145844482Y-38055619D01*
X145844476Y-38055620D01*
X145698609Y-38090640D01*
X145618406Y-38109895D01*
X145613835Y-38111788D01*
X145613833Y-38111789D01*
X145403611Y-38198865D01*
X145403607Y-38198867D01*
X145399037Y-38200760D01*
X145394817Y-38203346D01*
X145200798Y-38322241D01*
X145200792Y-38322245D01*
X145196584Y-38324824D01*
X145016031Y-38479031D01*
X144861824Y-38659584D01*
X144859245Y-38663792D01*
X144859241Y-38663798D01*
X144819596Y-38728493D01*
X144737760Y-38862037D01*
X144735867Y-38866607D01*
X144735865Y-38866611D01*
X144648789Y-39076833D01*
X144646895Y-39081406D01*
X144591465Y-39312289D01*
X144572835Y-39549000D01*
X142205615Y-39549000D01*
X146146306Y-35608309D01*
X146208618Y-35574283D01*
X146260518Y-35573933D01*
X146381597Y-35598567D01*
X146386772Y-35598757D01*
X146386774Y-35598757D01*
X146599673Y-35606564D01*
X146599677Y-35606564D01*
X146604837Y-35606753D01*
X146609957Y-35606097D01*
X146609959Y-35606097D01*
X146821288Y-35579025D01*
X146821289Y-35579025D01*
X146826416Y-35578368D01*
X146841199Y-35573933D01*
X147035429Y-35515661D01*
X147035434Y-35515659D01*
X147040384Y-35514174D01*
X147240994Y-35415896D01*
X147422860Y-35286173D01*
X147441919Y-35267181D01*
X147566400Y-35143134D01*
X150264500Y-35143134D01*
X150271255Y-35205316D01*
X150322385Y-35341705D01*
X150409739Y-35458261D01*
X150526295Y-35545615D01*
X150662684Y-35596745D01*
X150724866Y-35603500D01*
X152521134Y-35603500D01*
X152583316Y-35596745D01*
X152719705Y-35545615D01*
X152836261Y-35458261D01*
X152923615Y-35341705D01*
X152974745Y-35205316D01*
X152981500Y-35143134D01*
X152981500Y-33346866D01*
X152974745Y-33284684D01*
X152923615Y-33148295D01*
X152836261Y-33031739D01*
X152719705Y-32944385D01*
X152583316Y-32893255D01*
X152521134Y-32886500D01*
X150724866Y-32886500D01*
X150662684Y-32893255D01*
X150526295Y-32944385D01*
X150409739Y-33031739D01*
X150322385Y-33148295D01*
X150271255Y-33284684D01*
X150264500Y-33346866D01*
X150264500Y-35143134D01*
X147566400Y-35143134D01*
X147581096Y-35128489D01*
X147640594Y-35045689D01*
X147708435Y-34951277D01*
X147711453Y-34947077D01*
X147810430Y-34746811D01*
X147875370Y-34533069D01*
X147904529Y-34311590D01*
X147906156Y-34245000D01*
X147887852Y-34022361D01*
X147833431Y-33805702D01*
X147744354Y-33600840D01*
X147623014Y-33413277D01*
X147472670Y-33248051D01*
X147468619Y-33244852D01*
X147468615Y-33244848D01*
X147301414Y-33112800D01*
X147301410Y-33112798D01*
X147297359Y-33109598D01*
X147101789Y-33001638D01*
X147096920Y-32999914D01*
X147096916Y-32999912D01*
X146896087Y-32928795D01*
X146896083Y-32928794D01*
X146891212Y-32927069D01*
X146886119Y-32926162D01*
X146886116Y-32926161D01*
X146676373Y-32888800D01*
X146676367Y-32888799D01*
X146671284Y-32887894D01*
X146597452Y-32886992D01*
X146453081Y-32885228D01*
X146453079Y-32885228D01*
X146447911Y-32885165D01*
X146227091Y-32918955D01*
X146014756Y-32988357D01*
X145816607Y-33091507D01*
X145812474Y-33094610D01*
X145812471Y-33094612D01*
X145642100Y-33222530D01*
X145637965Y-33225635D01*
X145483629Y-33387138D01*
X145480715Y-33391410D01*
X145480714Y-33391411D01*
X145477181Y-33396590D01*
X145357743Y-33571680D01*
X145263688Y-33774305D01*
X145203989Y-33989570D01*
X145180251Y-34211695D01*
X145180548Y-34216848D01*
X145180548Y-34216851D01*
X145186730Y-34324069D01*
X145193110Y-34434715D01*
X145213449Y-34524963D01*
X145208913Y-34595813D01*
X145179627Y-34641758D01*
X136475492Y-43345893D01*
X136413180Y-43379919D01*
X136342365Y-43374854D01*
X136285529Y-43332307D01*
X136260876Y-43267780D01*
X136245594Y-43093105D01*
X136245115Y-43087629D01*
X136188120Y-42874924D01*
X136140421Y-42772632D01*
X136097382Y-42680334D01*
X136097379Y-42680329D01*
X136095056Y-42675347D01*
X136091899Y-42670838D01*
X135971908Y-42499473D01*
X135971906Y-42499470D01*
X135968749Y-42494962D01*
X135813038Y-42339251D01*
X135632654Y-42212944D01*
X135433076Y-42119880D01*
X135220371Y-42062885D01*
X135001000Y-42043693D01*
X134781629Y-42062885D01*
X134568924Y-42119880D01*
X134482138Y-42160349D01*
X134374334Y-42210618D01*
X134374329Y-42210621D01*
X134369347Y-42212944D01*
X134364840Y-42216100D01*
X134364838Y-42216101D01*
X134193473Y-42336092D01*
X134193470Y-42336094D01*
X134188962Y-42339251D01*
X134033251Y-42494962D01*
X134030094Y-42499471D01*
X134026716Y-42503496D01*
X133967605Y-42542819D01*
X133930198Y-42548500D01*
X133023802Y-42548500D01*
X132955681Y-42528498D01*
X132927284Y-42503496D01*
X132923906Y-42499471D01*
X132920749Y-42494962D01*
X132765038Y-42339251D01*
X132584654Y-42212944D01*
X132385076Y-42119880D01*
X132172371Y-42062885D01*
X131953000Y-42043693D01*
X131733629Y-42062885D01*
X131520924Y-42119880D01*
X131434138Y-42160349D01*
X131326334Y-42210618D01*
X131326329Y-42210621D01*
X131321347Y-42212944D01*
X131316840Y-42216100D01*
X131316838Y-42216101D01*
X131145473Y-42336092D01*
X131145470Y-42336094D01*
X131140962Y-42339251D01*
X130985251Y-42494962D01*
X130982094Y-42499470D01*
X130982092Y-42499473D01*
X130862101Y-42670838D01*
X130858944Y-42675347D01*
X130856621Y-42680329D01*
X130856618Y-42680334D01*
X130813579Y-42772632D01*
X130765880Y-42874924D01*
X130708885Y-43087629D01*
X130689693Y-43307000D01*
X111644896Y-43307000D01*
X111546670Y-43199051D01*
X111542619Y-43195852D01*
X111542615Y-43195848D01*
X111375414Y-43063800D01*
X111375410Y-43063798D01*
X111371359Y-43060598D01*
X111330053Y-43037796D01*
X111280084Y-42987364D01*
X111265312Y-42917921D01*
X111290428Y-42851516D01*
X111317780Y-42824909D01*
X111361603Y-42793650D01*
X111496860Y-42697173D01*
X111518763Y-42675347D01*
X111651435Y-42543137D01*
X111655096Y-42539489D01*
X111680960Y-42503496D01*
X111782435Y-42362277D01*
X111785453Y-42358077D01*
X111792832Y-42343148D01*
X111882136Y-42162453D01*
X111882137Y-42162451D01*
X111884430Y-42157811D01*
X111949370Y-41944069D01*
X111978529Y-41722590D01*
X111980156Y-41656000D01*
X111961852Y-41433361D01*
X111907431Y-41216702D01*
X111818354Y-41011840D01*
X111697014Y-40824277D01*
X111546670Y-40659051D01*
X111542619Y-40655852D01*
X111542615Y-40655848D01*
X111375414Y-40523800D01*
X111375410Y-40523798D01*
X111371359Y-40520598D01*
X111330053Y-40497796D01*
X111280084Y-40447364D01*
X111265312Y-40377921D01*
X111290428Y-40311516D01*
X111317780Y-40284909D01*
X111361603Y-40253650D01*
X111496860Y-40157173D01*
X111655096Y-39999489D01*
X111714594Y-39916689D01*
X111782435Y-39822277D01*
X111785453Y-39818077D01*
X111799071Y-39790524D01*
X111882136Y-39622453D01*
X111882137Y-39622451D01*
X111884430Y-39617811D01*
X111949370Y-39404069D01*
X111978529Y-39182590D01*
X111980156Y-39116000D01*
X111961852Y-38893361D01*
X111907431Y-38676702D01*
X111818354Y-38471840D01*
X111778906Y-38410862D01*
X111699822Y-38288617D01*
X111699820Y-38288614D01*
X111697014Y-38284277D01*
X111546670Y-38119051D01*
X111542619Y-38115852D01*
X111542615Y-38115848D01*
X111375414Y-37983800D01*
X111375410Y-37983798D01*
X111371359Y-37980598D01*
X111175789Y-37872638D01*
X111170920Y-37870914D01*
X111170916Y-37870912D01*
X110970087Y-37799795D01*
X110970083Y-37799794D01*
X110965212Y-37798069D01*
X110960119Y-37797162D01*
X110960116Y-37797161D01*
X110750373Y-37759800D01*
X110750367Y-37759799D01*
X110745284Y-37758894D01*
X110671452Y-37757992D01*
X110527081Y-37756228D01*
X110527079Y-37756228D01*
X110521911Y-37756165D01*
X110301091Y-37789955D01*
X110088756Y-37859357D01*
X109890607Y-37962507D01*
X109886474Y-37965610D01*
X109886471Y-37965612D01*
X109716100Y-38093530D01*
X109711965Y-38096635D01*
X109693605Y-38115848D01*
X109609990Y-38203346D01*
X109557629Y-38258138D01*
X109554715Y-38262410D01*
X109554714Y-38262411D01*
X109469556Y-38387249D01*
X109431743Y-38442680D01*
X109337688Y-38645305D01*
X109337182Y-38647128D01*
X109295460Y-38703385D01*
X109229051Y-38728493D01*
X109159610Y-38713713D01*
X109109184Y-38663736D01*
X109093500Y-38602856D01*
X109093500Y-34540349D01*
X109113502Y-34472228D01*
X109167158Y-34425735D01*
X109237432Y-34415631D01*
X109302012Y-34445125D01*
X109336243Y-34492945D01*
X109400266Y-34650616D01*
X109516987Y-34841088D01*
X109663250Y-35009938D01*
X109835126Y-35152632D01*
X110028000Y-35265338D01*
X110032825Y-35267180D01*
X110032826Y-35267181D01*
X110082561Y-35286173D01*
X110236692Y-35345030D01*
X110241760Y-35346061D01*
X110241763Y-35346062D01*
X110302048Y-35358327D01*
X110455597Y-35389567D01*
X110460772Y-35389757D01*
X110460774Y-35389757D01*
X110673673Y-35397564D01*
X110673677Y-35397564D01*
X110678837Y-35397753D01*
X110683957Y-35397097D01*
X110683959Y-35397097D01*
X110895288Y-35370025D01*
X110895289Y-35370025D01*
X110900416Y-35369368D01*
X110917502Y-35364242D01*
X111109429Y-35306661D01*
X111109434Y-35306659D01*
X111114384Y-35305174D01*
X111314994Y-35206896D01*
X111496860Y-35077173D01*
X111655096Y-34919489D01*
X111714594Y-34836689D01*
X111782435Y-34742277D01*
X111785453Y-34738077D01*
X111825314Y-34657425D01*
X111882136Y-34542453D01*
X111882137Y-34542451D01*
X111884430Y-34537811D01*
X111949370Y-34324069D01*
X111964165Y-34211695D01*
X135020251Y-34211695D01*
X135020548Y-34216848D01*
X135020548Y-34216851D01*
X135026730Y-34324069D01*
X135033110Y-34434715D01*
X135034247Y-34439761D01*
X135034248Y-34439767D01*
X135035121Y-34443639D01*
X135082222Y-34652639D01*
X135118620Y-34742277D01*
X135158743Y-34841088D01*
X135166266Y-34859616D01*
X135168965Y-34864020D01*
X135260407Y-35013240D01*
X135282987Y-35050088D01*
X135429250Y-35218938D01*
X135601126Y-35361632D01*
X135794000Y-35474338D01*
X136002692Y-35554030D01*
X136007760Y-35555061D01*
X136007763Y-35555062D01*
X136100518Y-35573933D01*
X136221597Y-35598567D01*
X136226772Y-35598757D01*
X136226774Y-35598757D01*
X136439673Y-35606564D01*
X136439677Y-35606564D01*
X136444837Y-35606753D01*
X136449957Y-35606097D01*
X136449959Y-35606097D01*
X136661288Y-35579025D01*
X136661289Y-35579025D01*
X136666416Y-35578368D01*
X136681199Y-35573933D01*
X136875429Y-35515661D01*
X136875434Y-35515659D01*
X136880384Y-35514174D01*
X137080994Y-35415896D01*
X137262860Y-35286173D01*
X137281919Y-35267181D01*
X137406400Y-35143134D01*
X140104500Y-35143134D01*
X140111255Y-35205316D01*
X140162385Y-35341705D01*
X140249739Y-35458261D01*
X140366295Y-35545615D01*
X140502684Y-35596745D01*
X140564866Y-35603500D01*
X142361134Y-35603500D01*
X142423316Y-35596745D01*
X142559705Y-35545615D01*
X142676261Y-35458261D01*
X142763615Y-35341705D01*
X142814745Y-35205316D01*
X142821500Y-35143134D01*
X142821500Y-33346866D01*
X142814745Y-33284684D01*
X142763615Y-33148295D01*
X142676261Y-33031739D01*
X142559705Y-32944385D01*
X142423316Y-32893255D01*
X142361134Y-32886500D01*
X140564866Y-32886500D01*
X140502684Y-32893255D01*
X140366295Y-32944385D01*
X140249739Y-33031739D01*
X140162385Y-33148295D01*
X140111255Y-33284684D01*
X140104500Y-33346866D01*
X140104500Y-35143134D01*
X137406400Y-35143134D01*
X137421096Y-35128489D01*
X137480594Y-35045689D01*
X137548435Y-34951277D01*
X137551453Y-34947077D01*
X137650430Y-34746811D01*
X137715370Y-34533069D01*
X137744529Y-34311590D01*
X137746156Y-34245000D01*
X137727852Y-34022361D01*
X137673431Y-33805702D01*
X137584354Y-33600840D01*
X137463014Y-33413277D01*
X137312670Y-33248051D01*
X137308619Y-33244852D01*
X137308615Y-33244848D01*
X137141414Y-33112800D01*
X137141410Y-33112798D01*
X137137359Y-33109598D01*
X136941789Y-33001638D01*
X136936920Y-32999914D01*
X136936916Y-32999912D01*
X136736087Y-32928795D01*
X136736083Y-32928794D01*
X136731212Y-32927069D01*
X136726119Y-32926162D01*
X136726116Y-32926161D01*
X136516373Y-32888800D01*
X136516367Y-32888799D01*
X136511284Y-32887894D01*
X136437452Y-32886992D01*
X136293081Y-32885228D01*
X136293079Y-32885228D01*
X136287911Y-32885165D01*
X136067091Y-32918955D01*
X135854756Y-32988357D01*
X135656607Y-33091507D01*
X135652474Y-33094610D01*
X135652471Y-33094612D01*
X135482100Y-33222530D01*
X135477965Y-33225635D01*
X135323629Y-33387138D01*
X135320715Y-33391410D01*
X135320714Y-33391411D01*
X135317181Y-33396590D01*
X135197743Y-33571680D01*
X135103688Y-33774305D01*
X135043989Y-33989570D01*
X135020251Y-34211695D01*
X111964165Y-34211695D01*
X111978529Y-34102590D01*
X111980156Y-34036000D01*
X111961852Y-33813361D01*
X111907431Y-33596702D01*
X111818354Y-33391840D01*
X111744245Y-33277285D01*
X111699822Y-33208617D01*
X111699820Y-33208614D01*
X111697014Y-33204277D01*
X111546670Y-33039051D01*
X111542619Y-33035852D01*
X111542615Y-33035848D01*
X111375414Y-32903800D01*
X111375410Y-32903798D01*
X111371359Y-32900598D01*
X111330053Y-32877796D01*
X111280084Y-32827364D01*
X111265312Y-32757921D01*
X111290428Y-32691516D01*
X111317780Y-32664909D01*
X111361603Y-32633650D01*
X111496860Y-32537173D01*
X111655096Y-32379489D01*
X111714594Y-32296689D01*
X111782435Y-32202277D01*
X111785453Y-32198077D01*
X111884430Y-31997811D01*
X111949370Y-31784069D01*
X111978529Y-31562590D01*
X111980156Y-31496000D01*
X111961852Y-31273361D01*
X111907431Y-31056702D01*
X111818354Y-30851840D01*
X111697014Y-30664277D01*
X111546670Y-30499051D01*
X111542619Y-30495852D01*
X111542615Y-30495848D01*
X111375414Y-30363800D01*
X111375410Y-30363798D01*
X111371359Y-30360598D01*
X111330053Y-30337796D01*
X111280084Y-30287364D01*
X111265312Y-30217921D01*
X111290428Y-30151516D01*
X111317780Y-30124909D01*
X111361603Y-30093650D01*
X111496860Y-29997173D01*
X111655096Y-29839489D01*
X111714594Y-29756689D01*
X111782435Y-29662277D01*
X111785453Y-29658077D01*
X111884430Y-29457811D01*
X111949370Y-29244069D01*
X111978529Y-29022590D01*
X111980156Y-28956000D01*
X111961852Y-28733361D01*
X111907431Y-28516702D01*
X111818354Y-28311840D01*
X111697014Y-28124277D01*
X111546670Y-27959051D01*
X111542619Y-27955852D01*
X111542615Y-27955848D01*
X111375414Y-27823800D01*
X111375410Y-27823798D01*
X111371359Y-27820598D01*
X111175789Y-27712638D01*
X111170920Y-27710914D01*
X111170916Y-27710912D01*
X110970087Y-27639795D01*
X110970083Y-27639794D01*
X110965212Y-27638069D01*
X110960119Y-27637162D01*
X110960116Y-27637161D01*
X110750373Y-27599800D01*
X110750367Y-27599799D01*
X110745284Y-27598894D01*
X110671452Y-27597992D01*
X110527081Y-27596228D01*
X110527079Y-27596228D01*
X110521911Y-27596165D01*
X110301091Y-27629955D01*
X110088756Y-27699357D01*
X109890607Y-27802507D01*
X109886474Y-27805610D01*
X109886471Y-27805612D01*
X109862247Y-27823800D01*
X109711965Y-27936635D01*
X109557629Y-28098138D01*
X109431743Y-28282680D01*
X109337688Y-28485305D01*
X109337182Y-28487128D01*
X109295460Y-28543385D01*
X109229051Y-28568493D01*
X109159610Y-28553713D01*
X109109184Y-28503736D01*
X109093500Y-28442856D01*
X109093500Y-24637500D01*
X109113502Y-24569379D01*
X109167158Y-24522886D01*
X109219500Y-24511500D01*
X153162500Y-24511500D01*
X153230621Y-24531502D01*
G37*
G04 #@! TD.AperFunction*
M02*
