M48
; DRILL file {KiCad (6.0.9)} date Wed Jan 18 17:05:20 2023
; FORMAT={-:-/ absolute / inch / decimal}
; #@! TF.CreationDate,2023-01-18T17:05:20+01:00
; #@! TF.GenerationSoftware,Kicad,Pcbnew,(6.0.9)
; #@! TF.FileFunction,Plated,1,2,PTH
FMAT,2
INCH
; #@! TA.AperFunction,Plated,PTH,ViaDrill
T1C0.0157
; #@! TA.AperFunction,Plated,PTH,ViaDrill
T2C0.0236
; #@! TA.AperFunction,Plated,PTH,ViaDrill
T3C0.0315
; #@! TA.AperFunction,Plated,PTH,ComponentDrill
T4C0.0394
; #@! TA.AperFunction,Plated,PTH,ComponentDrill
T5C0.0433
; #@! TA.AperFunction,Plated,PTH,ComponentDrill
T6C0.1063
%
G90
G05
T1
X4.44Y-1.7
X4.44Y-1.735
X4.44Y-1.77
X4.44Y-2.13
X4.475Y-1.19
X4.5357Y-1.1902
X4.565Y-1.325
X4.6Y-1.365
X4.615Y-2.365
X4.63Y-2.07
X4.635Y-1.405
X4.64Y-2.21
X5.01Y-2.305
X5.0309Y-1.7374
X5.2Y-1.3
X5.2Y-1.345
X5.2Y-1.39
X5.205Y-1.77
X5.24Y-1.905
X5.265Y-2.035
X5.31Y-1.48
X5.31Y-1.54
X5.31Y-1.6
X5.465Y-1.605
X5.465Y-1.71
X5.465Y-1.8
X5.465Y-1.9
T2
X5.0889Y-2.3358
X5.29Y-2.105
X5.32Y-1.93
T3
X5.195Y-1.705
X5.315Y-1.705
T4
X4.355Y-1.04
X4.355Y-1.14
X4.355Y-1.24
X4.355Y-1.34
X4.355Y-1.44
X4.355Y-1.54
X4.355Y-1.64
X4.355Y-1.74
X4.355Y-1.84
X4.355Y-1.94
X4.355Y-2.04
X4.355Y-2.14
X4.355Y-2.24
X4.355Y-2.34
X4.355Y-2.44
X4.355Y-2.54
X4.5058Y-2.549
X4.6058Y-2.549
X4.7058Y-2.549
X5.3694Y-1.3482
X5.4694Y-1.3482
X5.5694Y-1.3482
X5.7694Y-1.3482
X5.8694Y-1.3482
X5.9694Y-1.3482
T5
X5.7514Y-1.557
X5.7514Y-1.813
X5.9286Y-1.557
X5.9286Y-1.813
T6
X4.975Y-1.11
X5.905Y-2.49
T0
M30
