G04 #@! TF.GenerationSoftware,KiCad,Pcbnew,(6.0.9)*
G04 #@! TF.CreationDate,2022-12-23T16:31:22+01:00*
G04 #@! TF.ProjectId,mainboard,6d61696e-626f-4617-9264-2e6b69636164,rev?*
G04 #@! TF.SameCoordinates,Original*
G04 #@! TF.FileFunction,Soldermask,Top*
G04 #@! TF.FilePolarity,Negative*
%FSLAX46Y46*%
G04 Gerber Fmt 4.6, Leading zero omitted, Abs format (unit mm)*
G04 Created by KiCad (PCBNEW (6.0.9)) date 2022-12-23 16:31:22*
%MOMM*%
%LPD*%
G01*
G04 APERTURE LIST*
G04 Aperture macros list*
%AMRoundRect*
0 Rectangle with rounded corners*
0 $1 Rounding radius*
0 $2 $3 $4 $5 $6 $7 $8 $9 X,Y pos of 4 corners*
0 Add a 4 corners polygon primitive as box body*
4,1,4,$2,$3,$4,$5,$6,$7,$8,$9,$2,$3,0*
0 Add four circle primitives for the rounded corners*
1,1,$1+$1,$2,$3*
1,1,$1+$1,$4,$5*
1,1,$1+$1,$6,$7*
1,1,$1+$1,$8,$9*
0 Add four rect primitives between the rounded corners*
20,1,$1+$1,$2,$3,$4,$5,0*
20,1,$1+$1,$4,$5,$6,$7,0*
20,1,$1+$1,$6,$7,$8,$9,0*
20,1,$1+$1,$8,$9,$2,$3,0*%
G04 Aperture macros list end*
%ADD10RoundRect,0.250000X-0.475000X0.250000X-0.475000X-0.250000X0.475000X-0.250000X0.475000X0.250000X0*%
%ADD11RoundRect,0.250000X0.262500X0.450000X-0.262500X0.450000X-0.262500X-0.450000X0.262500X-0.450000X0*%
%ADD12C,2.000000*%
%ADD13RoundRect,0.250000X0.450000X-0.262500X0.450000X0.262500X-0.450000X0.262500X-0.450000X-0.262500X0*%
%ADD14C,5.400000*%
%ADD15RoundRect,0.225000X-0.250000X0.225000X-0.250000X-0.225000X0.250000X-0.225000X0.250000X0.225000X0*%
%ADD16RoundRect,0.250000X-0.450000X0.262500X-0.450000X-0.262500X0.450000X-0.262500X0.450000X0.262500X0*%
%ADD17RoundRect,0.250000X0.475000X-0.250000X0.475000X0.250000X-0.475000X0.250000X-0.475000X-0.250000X0*%
%ADD18R,1.700000X1.700000*%
%ADD19O,1.700000X1.700000*%
%ADD20RoundRect,0.250000X-0.550000X1.250000X-0.550000X-1.250000X0.550000X-1.250000X0.550000X1.250000X0*%
%ADD21RoundRect,0.250000X-0.262500X-0.450000X0.262500X-0.450000X0.262500X0.450000X-0.262500X0.450000X0*%
%ADD22RoundRect,0.243750X-0.456250X0.243750X-0.456250X-0.243750X0.456250X-0.243750X0.456250X0.243750X0*%
%ADD23R,3.500000X1.200000*%
%ADD24R,1.300000X1.300000*%
%ADD25R,2.000000X1.300000*%
%ADD26RoundRect,0.250000X-1.250000X-0.550000X1.250000X-0.550000X1.250000X0.550000X-1.250000X0.550000X0*%
%ADD27RoundRect,0.225000X0.250000X-0.225000X0.250000X0.225000X-0.250000X0.225000X-0.250000X-0.225000X0*%
%ADD28R,0.550000X1.600000*%
%ADD29R,1.600000X0.550000*%
G04 APERTURE END LIST*
D10*
X127254000Y-36388000D03*
X127254000Y-38288000D03*
D11*
X129182500Y-59563000D03*
X127357500Y-59563000D03*
D12*
X149443000Y-47192000D03*
X149443000Y-40692000D03*
X144943000Y-40692000D03*
X144943000Y-47192000D03*
D13*
X121666000Y-60602500D03*
X121666000Y-58777500D03*
D14*
X126365000Y-28194000D03*
D15*
X129794000Y-44437000D03*
X129794000Y-45987000D03*
D16*
X114681000Y-39854500D03*
X114681000Y-41679500D03*
D11*
X135278500Y-46482000D03*
X133453500Y-46482000D03*
D17*
X135763000Y-55687000D03*
X135763000Y-53787000D03*
D11*
X136421500Y-51054000D03*
X134596500Y-51054000D03*
D16*
X119507000Y-47220500D03*
X119507000Y-49045500D03*
D10*
X125222000Y-58867000D03*
X125222000Y-60767000D03*
D18*
X114447000Y-64745000D03*
D19*
X116987000Y-64745000D03*
D16*
X143256000Y-50395500D03*
X143256000Y-52220500D03*
D11*
X115466500Y-61976000D03*
X113641500Y-61976000D03*
D20*
X141605000Y-61046000D03*
X141605000Y-65446000D03*
D21*
X113618000Y-55626000D03*
X115443000Y-55626000D03*
D22*
X139700000Y-51894500D03*
X139700000Y-53769500D03*
D23*
X121964000Y-41402000D03*
X127464000Y-41402000D03*
D13*
X131826000Y-60348500D03*
X131826000Y-58523500D03*
D11*
X115593500Y-58801000D03*
X113768500Y-58801000D03*
D24*
X120784000Y-28619000D03*
D25*
X119634000Y-34119000D03*
D24*
X118484000Y-28619000D03*
D18*
X151623000Y-34245000D03*
D19*
X149083000Y-34245000D03*
X146543000Y-34245000D03*
D10*
X122936000Y-36388000D03*
X122936000Y-38288000D03*
D21*
X113618000Y-52197000D03*
X115443000Y-52197000D03*
D26*
X147533000Y-53340000D03*
X151933000Y-53340000D03*
D14*
X149987000Y-62230000D03*
D18*
X110617000Y-26416000D03*
D19*
X110617000Y-28956000D03*
X110617000Y-31496000D03*
X110617000Y-34036000D03*
X110617000Y-36576000D03*
X110617000Y-39116000D03*
X110617000Y-41656000D03*
X110617000Y-44196000D03*
X110617000Y-46736000D03*
X110617000Y-49276000D03*
X110617000Y-51816000D03*
X110617000Y-54356000D03*
X110617000Y-56896000D03*
X110617000Y-59436000D03*
X110617000Y-61976000D03*
X110617000Y-64516000D03*
D27*
X126492000Y-45987000D03*
X126492000Y-44437000D03*
D28*
X130054000Y-47947000D03*
X129254000Y-47947000D03*
X128454000Y-47947000D03*
X127654000Y-47947000D03*
X126854000Y-47947000D03*
X126054000Y-47947000D03*
X125254000Y-47947000D03*
X124454000Y-47947000D03*
D29*
X123004000Y-49397000D03*
X123004000Y-50197000D03*
X123004000Y-50997000D03*
X123004000Y-51797000D03*
X123004000Y-52597000D03*
X123004000Y-53397000D03*
X123004000Y-54197000D03*
X123004000Y-54997000D03*
D28*
X124454000Y-56447000D03*
X125254000Y-56447000D03*
X126054000Y-56447000D03*
X126854000Y-56447000D03*
X127654000Y-56447000D03*
X128454000Y-56447000D03*
X129254000Y-56447000D03*
X130054000Y-56447000D03*
D29*
X131504000Y-54997000D03*
X131504000Y-54197000D03*
X131504000Y-53397000D03*
X131504000Y-52597000D03*
X131504000Y-51797000D03*
X131504000Y-50997000D03*
X131504000Y-50197000D03*
X131504000Y-49397000D03*
D21*
X113618000Y-48895000D03*
X115443000Y-48895000D03*
D18*
X141463000Y-34499000D03*
D19*
X138923000Y-34499000D03*
X136383000Y-34499000D03*
M02*
