M48
; DRILL file {KiCad (6.0.9)} date Fri Dec 23 16:31:59 2022
; FORMAT={-:-/ absolute / metric / decimal}
; #@! TF.CreationDate,2022-12-23T16:31:59+01:00
; #@! TF.GenerationSoftware,Kicad,Pcbnew,(6.0.9)
; #@! TF.FileFunction,Plated,1,2,PTH
FMAT,2
METRIC
; #@! TA.AperFunction,Plated,PTH,ViaDrill
T1C0.400
; #@! TA.AperFunction,Plated,PTH,ViaDrill
T2C0.800
; #@! TA.AperFunction,Plated,PTH,ComponentDrill
T3C1.000
; #@! TA.AperFunction,Plated,PTH,ComponentDrill
T4C1.100
; #@! TA.AperFunction,Plated,PTH,ComponentDrill
T5C2.700
%
G90
G05
T1
X113.665Y-30.226
X113.665Y-44.196
X114.681Y-53.848
X115.207Y-30.232
X115.951Y-33.655
X116.84Y-34.671
X117.348Y-56.515
X117.602Y-52.578
X117.729Y-35.687
X119.253Y-59.436
X126.619Y-61.087
X127.889Y-44.196
X131.826Y-45.339
X134.874Y-37.592
X134.874Y-39.116
X134.874Y-40.64
X137.541Y-52.578
X138.049Y-43.688
X140.081Y-58.293
T2
X131.953Y-43.307
X134.366Y-48.641
X135.001Y-43.307
X144.653Y-54.229
T3
X110.617Y-26.416
X110.617Y-28.956
X110.617Y-31.496
X110.617Y-34.036
X110.617Y-36.576
X110.617Y-39.116
X110.617Y-41.656
X110.617Y-44.196
X110.617Y-46.736
X110.617Y-49.276
X110.617Y-51.816
X110.617Y-54.356
X110.617Y-56.896
X110.617Y-59.436
X110.617Y-61.976
X110.617Y-64.516
X114.447Y-64.745
X116.987Y-64.745
X136.383Y-34.499
X138.923Y-34.499
X141.463Y-34.499
X146.543Y-34.245
X149.083Y-34.245
X151.623Y-34.245
T4
X144.943Y-40.692
X144.943Y-47.192
X149.443Y-40.692
X149.443Y-47.192
T5
X126.365Y-28.194
X149.987Y-62.23
T0
M30
